solid Inmoov_Shoulder_Cover_Remix
facet normal 0.0019397220088195246 0.023014142163387773 -0.9997332577938038
  outer loop
    vertex 1660.6243548689854 342.39985899147547 295.8707889473229
    vertex 1662.728897850623 337.093993548294 295.75212193820164
    vertex 1662.7006413043725 336.75207624383523 295.7441585587087
  endloop
endfacet
facet normal 0.0019397220088195246 0.023014142163387773 -0.9997332577938038
  outer loop
    vertex 1662.728897850623 337.093993548294 295.75212193820164
    vertex 1660.6243548689854 342.39985899147547 295.8707889473229
    vertex 1662.830435755719 337.43662802253004 295.76024335348893
  endloop
endfacet
facet normal 0.0019397220088195246 0.023014142163387773 -0.9997332577938038
  outer loop
    vertex 1662.830435755719 337.43662802253004 295.76024335348893
    vertex 1660.6243548689854 342.39985899147547 295.8707889473229
    vertex 1662.9879523762168 337.73827315325843 295.7675246999239
  endloop
endfacet
facet normal 0.0019397220088195246 0.023014142163387773 -0.9997332577938038
  outer loop
    vertex 1662.9879523762168 337.73827315325843 295.7675246999239
    vertex 1660.6243548689854 342.39985899147547 295.8707889473229
    vertex 1663.1940017019156 337.99764894340865 295.77392199786016
  endloop
endfacet
facet normal 0.0019397220088195246 0.023014142163387773 -0.9997332577938038
  outer loop
    vertex 1663.1940017019156 337.99764894340865 295.77392199786016
    vertex 1660.6243548689854 342.39985899147547 295.8707889473229
    vertex 1663.4424359652548 338.2081615368618 295.7792708594089
  endloop
endfacet
facet normal 0.0019397220088195246 0.023014142163387773 -0.9997332577938038
  outer loop
    vertex 1663.4424359652548 338.2081615368618 295.7792708594089
    vertex 1660.6243548689854 342.39985899147547 295.8707889473229
    vertex 1670.1454008500068 342.12569924988145 295.8828248673081
  endloop
endfacet
facet normal 0.0019397220088195246 0.023014142163387773 -0.9997332577938038
  outer loop
    vertex 1663.4424359652548 338.2081615368618 295.7792708594089
    vertex 1670.1454008500068 342.12569924988145 295.8828248673081
    vertex 1663.7554817479484 338.3857593938461 295.78398308761973
  endloop
endfacet
facet normal 0.0019397220088195246 0.023014142163387773 -0.9997332577938038
  outer loop
    vertex 1663.7554817479484 338.3857593938461 295.78398308761973
    vertex 1670.1454008500068 342.12569924988145 295.8828248673081
    vertex 1664.0821911779976 338.4904986624925 295.78703640797744
  endloop
endfacet
facet normal 0.0019397220088195246 0.023014142163387773 -0.9997332577938038
  outer loop
    vertex 1664.0821911779976 338.4904986624925 295.78703640797744
    vertex 1670.1454008500068 342.12569924988145 295.8828248673081
    vertex 1664.4230546853494 338.5294965980742 295.78859639529384
  endloop
endfacet
facet normal 0.0019397220088195246 0.023014142163387773 -0.9997332577938038
  outer loop
    vertex 1664.4230546853494 338.5294965980742 295.78859639529384
    vertex 1670.1454008500068 342.12569924988145 295.8828248673081
    vertex 1664.7649677636207 338.5012469231083 295.78860291388077
  endloop
endfacet
facet normal 0.0019397220088195246 0.023014142163387773 -0.9997332577938038
  outer loop
    vertex 1664.7649677636207 338.5012469231083 295.78860291388077
    vertex 1670.1454008500068 342.12569924988145 295.8828248673081
    vertex 1665.0947989287315 338.40682952658267 295.7870555962132
  endloop
endfacet
facet normal 0.0019397220088195246 0.023014142163387773 -0.9997332577938038
  outer loop
    vertex 1665.0947989287315 338.40682952658267 295.7870555962132
    vertex 1670.1454008500068 342.12569924988145 295.8828248673081
    vertex 1665.3998695288162 338.24988949758176 295.7840142840885
  endloop
endfacet
facet normal 0.0019397220088195246 0.023014142163387773 -0.9997332577938038
  outer loop
    vertex 1665.3998695288162 338.24988949758176 295.7840142840885
    vertex 1670.1454008500068 342.12569924988145 295.8828248673081
    vertex 1665.6684588411206 338.03644005756433 295.7795954452107
  endloop
endfacet
facet normal 0.0019397220088195246 0.023014142163387773 -0.9997332577938038
  outer loop
    vertex 1665.6684588411206 338.03644005756433 295.7795954452107
    vertex 1670.1454008500068 342.12569924988145 295.8828248673081
    vertex 1665.8902472268567 337.774688565034 295.7739690039064
  endloop
endfacet
facet normal 0.0019397220088195246 0.023014142163387773 -0.9997332577938038
  outer loop
    vertex 1665.8902472268567 337.774688565034 295.7739690039064
    vertex 1670.1454008500068 342.12569924988145 295.8828248673081
    vertex 1666.0566983596743 337.4747031440696 295.7673513677315
  endloop
endfacet
facet normal 0.0019397220088195246 0.023014142163387773 -0.9997332577938038
  outer loop
    vertex 1666.0566983596743 337.4747031440696 295.7673513677315
    vertex 1670.1454008500068 342.12569924988145 295.8828248673081
    vertex 1666.1614330741563 337.1480050250416 295.7599967195634
  endloop
endfacet
facet normal 0.0019397220088195246 0.023014142163387773 -0.9997332577938038
  outer loop
    vertex 1666.1614330741563 337.1480050250416 295.7599967195634
    vertex 1670.1454008500068 342.12569924988145 295.8828248673081
    vertex 1666.2004155392951 336.80715032792773 295.752187703244
  endloop
endfacet
facet normal 0.0019397220088195246 0.023014142163387773 -0.9997332577938038
  outer loop
    vertex 1654.1455436925473 331.4087040415412 295.6040488637802
    vertex 1663.501185799867 335.30934057510257 295.71233205591983
    vertex 1673.0775065001037 329.21869699790835 295.58993444212274
  endloop
endfacet
facet normal 0.0019397220088195246 0.023014142163387773 -0.9997332577938038
  outer loop
    vertex 1663.501185799867 335.30934057510257 295.71233205591983
    vertex 1654.1455436925473 331.4087040415412 295.6040488637802
    vertex 1663.2325982380564 335.5227907726664 295.7167509156983
  endloop
endfacet
facet normal 0.0019397220088195246 0.023014142163387773 -0.9997332577938038
  outer loop
    vertex 1663.2325982380564 335.5227907726664 295.7167509156983
    vertex 1654.1455436925473 331.4087040415412 295.6040488637802
    vertex 1663.0108052405783 335.78453611286216 295.7223772057919
  endloop
endfacet
facet normal 0.0019397220088195246 0.023014142163387773 -0.9997332577938038
  outer loop
    vertex 1663.0108052405783 335.78453611286216 295.7223772057919
    vertex 1654.1455436925473 331.4087040415412 295.6040488637802
    vertex 1662.8443532325173 336.08452115505366 295.728994831516
  endloop
endfacet
facet normal 0.0019397220088195246 0.023014142163387773 -0.9997332577938038
  outer loop
    vertex 1662.8443532325173 336.08452115505366 295.728994831516
    vertex 1654.1455436925473 331.4087040415412 295.6040488637802
    vertex 1660.6243548689854 342.39985899147547 295.8707889473229
  endloop
endfacet
facet normal 0.0019397220088195246 0.023014142163387773 -0.9997332577938038
  outer loop
    vertex 1662.8443532325173 336.08452115505366 295.728994831516
    vertex 1660.6243548689854 342.39985899147547 295.8707889473229
    vertex 1662.7396185180355 336.4112192740821 295.7363494796833
  endloop
endfacet
facet normal 0.0019397220088195246 0.023014142163387773 -0.9997332577938038
  outer loop
    vertex 1662.7396185180355 336.4112192740821 295.7363494796833
    vertex 1660.6243548689854 342.39985899147547 295.8707889473229
    vertex 1662.7006413043725 336.75207624383523 295.7441585587087
  endloop
endfacet
facet normal 0.0019397220088195246 0.023014142163387773 -0.9997332577938038
  outer loop
    vertex 1673.0775065001037 329.21869699790835 295.58993444212274
    vertex 1663.501185799867 335.30934057510257 295.71233205591983
    vertex 1663.8062570396864 335.1523966664069 295.7092906552884
  endloop
endfacet
facet normal 0.0019397220088195246 0.023014142163387773 -0.9997332577938038
  outer loop
    vertex 1673.0775065001037 329.21869699790835 295.58993444212274
    vertex 1663.8062570396864 335.1523966664069 295.7092906552884
    vertex 1664.1360908305317 335.05798040620186 295.70774336897284
  endloop
endfacet
facet normal 0.0019397220088195246 0.023014142163387773 -0.9997332577938038
  outer loop
    vertex 1673.0775065001037 329.21869699790835 295.58993444212274
    vertex 1664.1360908305317 335.05798040620186 295.70774336897284
    vertex 1664.4780039088039 335.02973073123513 295.7077498875601
  endloop
endfacet
facet normal 0.0019397220088195246 0.023014142163387773 -0.9997332577938038
  outer loop
    vertex 1673.0775065001037 329.21869699790835 295.58993444212274
    vertex 1664.4780039088039 335.02973073123513 295.7077498875601
    vertex 1664.8188674161554 335.06872866681636 295.7093098748759
  endloop
endfacet
facet normal 0.0019397220088195246 0.023014142163387773 -0.9997332577938038
  outer loop
    vertex 1673.0775065001037 329.21869699790835 295.58993444212274
    vertex 1664.8188674161554 335.06872866681636 295.7093098748759
    vertex 1665.1455562094463 335.1734964135671 295.7123638141245
  endloop
endfacet
facet normal 0.0019397220088195246 0.023014142163387773 -0.9997332577938038
  outer loop
    vertex 1673.0775065001037 329.21869699790835 295.58993444212274
    vertex 1665.1455562094463 335.1734964135671 295.7123638141245
    vertex 1665.4455582771714 335.3399410258381 295.7167928814043
  endloop
endfacet
facet normal 0.0019397220088195246 0.023014142163387773 -0.9997332577938038
  outer loop
    vertex 1673.0775065001037 329.21869699790835 295.58993444212274
    vertex 1665.4455582771714 335.3399410258381 295.7167928814043
    vertex 1665.7073143947996 335.5617341683343 295.72242838540336
  endloop
endfacet
facet normal 0.0019397220088195246 0.023014142163387773 -0.9997332577938038
  outer loop
    vertex 1673.0775065001037 329.21869699790835 295.58993444212274
    vertex 1665.7073143947996 335.5617341683343 295.72242838540336
    vertex 1665.9207740810405 335.8303241030163 295.7290531177768
  endloop
endfacet
facet normal 0.0019397220088195246 0.023014142163387773 -0.9997332577938038
  outer loop
    vertex 1673.0775065001037 329.21869699790835 295.58993444212274
    vertex 1665.9207740810405 335.8303241030163 295.7290531177768
    vertex 1666.0777281810701 336.1354038291856 295.73641282356317
  endloop
endfacet
facet normal 0.0019397220088195246 0.023014142163387773 -0.9997332577938038
  outer loop
    vertex 1673.0775065001037 329.21869699790835 295.58993444212274
    vertex 1666.0777281810701 336.1354038291856 295.73641282356317
    vertex 1666.1721507116151 336.4652377526705 295.7442244171565
  endloop
endfacet
facet normal 0.0019397220088195246 0.023014142163387773 -0.9997332577938038
  outer loop
    vertex 1673.0775065001037 329.21869699790835 295.58993444212274
    vertex 1666.1721507116151 336.4652377526705 295.7442244171565
    vertex 1666.2004155392951 336.80715032792773 295.752187703244
  endloop
endfacet
facet normal 0.0019397220088195246 0.023014142163387773 -0.9997332577938038
  outer loop
    vertex 1673.0775065001037 329.21869699790835 295.58993444212274
    vertex 1666.2004155392951 336.80715032792773 295.752187703244
    vertex 1670.1454008500068 342.12569924988145 295.8828248673081
  endloop
endfacet
facet normal -0.007180669825658949 0.0010619677304064348 0.9999736547556612
  outer loop
    vertex 1667.977295624055 327.5447710036544 303.1994039604891
    vertex 1658.2946992166746 330.9304758666715 303.12627899682775
    vertex 1658.0360738203249 328.69472887359024 303.12679619803407
  endloop
endfacet
facet normal -0.007180669825658949 0.0010619677304064348 0.9999736547556612
  outer loop
    vertex 1658.2946992166746 330.9304758666715 303.12627899682775
    vertex 1667.977295624055 327.5447710036544 303.1994039604891
    vertex 1668.2359210204047 329.78051799673443 303.1988867592831
  endloop
endfacet
facet normal -0.9748679644590901 -0.2220487540325897 -0.01807768524908474
  outer loop
    vertex 1658.5811352436012 326.3658311078832 302.3394125746113
    vertex 1658.1251498809147 328.68334528933315 298.46305268211495
    vertex 1658.6399008364658 326.3583210882445 299.2626302138407
  endloop
endfacet
facet normal -0.9748679644590901 -0.2220487540325897 -0.01807768524908474
  outer loop
    vertex 1658.1251498809147 328.68334528933315 298.46305268211495
    vertex 1658.5811352436012 326.3658311078832 302.3394125746113
    vertex 1658.0360738203249 328.69472887359024 303.12679619803407
  endloop
endfacet
facet normal 0.6464913628783721 -0.7629204098572606 -0.0011687373077554758
  outer loop
    vertex 1663.2045426666662 338.0008206479969 299.53429182041356
    vertex 1663.1940017019156 337.99764894340865 295.77392199786016
    vertex 1663.4424359652548 338.2081615368618 295.7792708594089
  endloop
endfacet
facet normal -0.11491112169688641 -0.9933757502789023 0.0002299308407517967
  outer loop
    vertex 1667.1780745041985 325.370660905118 299.3210562994302
    vertex 1658.5811352436012 326.3658311078832 302.3394125746113
    vertex 1658.6399008364658 326.3583210882445 299.2626302138407
  endloop
endfacet
facet normal -0.11491112169688641 -0.9933757502789023 0.0002299308407517967
  outer loop
    vertex 1658.5811352436012 326.3658311078832 302.3394125746113
    vertex 1667.1780745041985 325.370660905118 299.3210562994302
    vertex 1666.9799398612706 325.3942934406669 302.400754975233
  endloop
endfacet
facet normal -0.04499094506527345 -0.3293921381376823 0.9431206890929813
  outer loop
    vertex 1658.5811352436012 326.3658311078832 302.3394125746113
    vertex 1667.977295624055 327.5447710036544 303.1994039604891
    vertex 1658.0360738203249 328.69472887359024 303.12679619803407
  endloop
endfacet
facet normal -0.04499094506527345 -0.3293921381376823 0.9431206890929813
  outer loop
    vertex 1667.977295624055 327.5447710036544 303.1994039604891
    vertex 1658.5811352436012 326.3658311078832 302.3394125746113
    vertex 1666.9799398612706 325.3942934406669 302.400754975233
  endloop
endfacet
facet normal -0.11491140439976437 -0.9933757174784634 0.00023035412273176813
  outer loop
    vertex 1673.0775065001037 329.21869699790835 295.58993444212274
    vertex 1668.5361680718902 329.7447059921784 298.5320075475831
    vertex 1654.1455436925473 331.4087040415412 295.6040488637802
  endloop
endfacet
facet normal -0.11491140439976437 -0.9933757174784634 0.00023035412273176813
  outer loop
    vertex 1668.5361680718902 329.7447059921784 298.5320075475831
    vertex 1673.0775065001037 329.21869699790835 295.58993444212274
    vertex 1668.0320825036008 329.80483086128044 306.3672433906737
  endloop
endfacet
facet normal -0.11491140439976437 -0.9933757174784634 0.00023035412273176813
  outer loop
    vertex 1654.1455436925473 331.4087040415412 295.6040488637802
    vertex 1668.5361680718902 329.7447059921784 298.5320075475831
    vertex 1658.3837752772663 330.919092282414 298.4625354809079
  endloop
endfacet
facet normal -0.11491140439976437 -0.9933757174784634 0.00023035412273176813
  outer loop
    vertex 1668.5361680718902 329.7447059921784 298.5320075475831
    vertex 1668.0320825036008 329.80483086128044 306.3672433906737
    vertex 1668.2359210204047 329.78051799673443 303.1988867592831
  endloop
endfacet
facet normal -0.11491140439976437 -0.9933757174784634 0.00023035412273176813
  outer loop
    vertex 1668.2359210204047 329.78051799673443 303.1988867592831
    vertex 1668.0320825036008 329.80483086128044 306.3672433906737
    vertex 1658.2340689358648 330.9382241876626 306.3006905852291
  endloop
endfacet
facet normal -0.11491140439976437 -0.9933757174784634 0.00023035412273176813
  outer loop
    vertex 1658.3837752772663 330.919092282414 298.4625354809079
    vertex 1658.2340689358648 330.9382241876626 306.3006905852291
    vertex 1654.1455436925473 331.4087040415412 295.6040488637802
  endloop
endfacet
facet normal -0.11491140439976437 -0.9933757174784634 0.00023035412273176813
  outer loop
    vertex 1658.2340689358648 330.9382241876626 306.3006905852291
    vertex 1658.3837752772663 330.919092282414 298.4625354809079
    vertex 1658.2946992166746 330.9304758666715 303.12627899682775
  endloop
endfacet
facet normal -0.11491140439976437 -0.9933757174784634 0.00023035412273176813
  outer loop
    vertex 1658.2340689358648 330.9382241876626 306.3006905852291
    vertex 1658.2946992166746 330.9304758666715 303.12627899682775
    vertex 1668.2359210204047 329.78051799673443 303.1988867592831
  endloop
endfacet
facet normal -0.9931922121585337 0.11488543835657333 -0.01925008470777099
  outer loop
    vertex 1658.0360738203249 328.69472887359024 303.12679619803407
    vertex 1658.3837752772663 330.919092282414 298.4625354809079
    vertex 1658.1251498809147 328.68334528933315 298.46305268211495
  endloop
endfacet
facet normal -0.9931922121585337 0.11488543835657333 -0.01925008470777099
  outer loop
    vertex 1658.3837752772663 330.919092282414 298.4625354809079
    vertex 1658.0360738203249 328.69472887359024 303.12679619803407
    vertex 1658.2946992166746 330.9304758666715 303.12627899682775
  endloop
endfacet
facet normal -0.9522518970866385 -0.30531018944546895 0.0014187021076381057
  outer loop
    vertex 1666.1679461321357 337.1482759771289 300.1899585933508
    vertex 1666.0566983596743 337.4747031440696 295.7673513677315
    vertex 1666.1614330741563 337.1480050250416 295.7599967195634
  endloop
endfacet
facet normal -0.9522518970866385 -0.30531018944546895 0.0014187021076381057
  outer loop
    vertex 1666.0566983596743 337.4747031440696 295.7673513677315
    vertex 1666.1679461321357 337.1482759771289 300.1899585933508
    vertex 1666.0660470015855 337.4648607796648 299.9241703498131
  endloop
endfacet
facet normal -0.9613897601658103 0.27518680649416627 0.0013966316150386857
  outer loop
    vertex 1666.0855395373196 336.13572879225137 301.04943329599945
    vertex 1666.1721507116151 336.4652377526705 295.7442244171565
    vertex 1666.0777281810701 336.1354038291856 295.73641282356317
  endloop
endfacet
facet normal -0.9613897601658103 0.27518680649416627 0.0013966316150386857
  outer loop
    vertex 1666.1721507116151 336.4652377526705 295.7442244171565
    vertex 1666.0855395373196 336.13572879225137 301.04943329599945
    vertex 1666.1795367124241 336.4655450203695 300.7679324984091
  endloop
endfacet
facet normal 0.9001661051541486 -0.43342580829789173 0.04293077955185222
  outer loop
    vertex 1668.307556104312 327.76841703223425 298.5324649581819
    vertex 1667.977295624055 327.5447710036544 303.1994039604891
    vertex 1666.9799398612706 325.3942934406669 302.400754975233
  endloop
endfacet
facet normal 0.9106029591817757 -0.4086476202388197 0.06172011991678972
  outer loop
    vertex 1668.307556104312 327.76841703223425 298.5324649581819
    vertex 1666.9799398612706 325.3942934406669 302.400754975233
    vertex 1667.1780745041985 325.370660905118 299.3210562994302
  endloop
endfacet
facet normal -0.646474949943126 0.7629346775689846 0.000903802380263506
  outer loop
    vertex 1665.4544102909085 335.3403092816719 301.7376333969078
    vertex 1665.7073143947996 335.5617341683343 295.72242838540336
    vertex 1665.4455582771714 335.3399410258381 295.7167928814043
  endloop
endfacet
facet normal -0.646474949943126 0.7629346775689846 0.000903802380263506
  outer loop
    vertex 1665.7073143947996 335.5617341683343 295.72242838540336
    vertex 1665.4544102909085 335.3403092816719 301.7376333969078
    vertex 1665.7158731158706 335.56209022279444 301.54378114593106
  endloop
endfacet
facet normal -0.7828856569421744 0.6221646160446016 0.0011129673372704603
  outer loop
    vertex 1665.7158731158706 335.56209022279444 301.54378114593106
    vertex 1665.9207740810405 335.8303241030163 295.7290531177768
    vertex 1665.7073143947996 335.5617341683343 295.72242838540336
  endloop
endfacet
facet normal -0.7828856569421744 0.6221646160446016 0.0011129673372704603
  outer loop
    vertex 1665.9207740810405 335.8303241030163 295.7290531177768
    vertex 1665.7158731158706 335.56209022279444 301.54378114593106
    vertex 1665.9289814213876 335.8306655395597 301.3114085836651
  endloop
endfacet
facet normal -0.8758139702695568 -0.4826476709831143 0.0010560185847315264
  outer loop
    vertex 1665.8959686265923 337.77492658306056 299.66547170247753
    vertex 1666.0566983596743 337.4747031440696 295.7673513677315
    vertex 1666.0660470015855 337.4648607796648 299.9241703498131
  endloop
endfacet
facet normal -0.8758139702695568 -0.4826476709831143 0.0010560185847315264
  outer loop
    vertex 1666.0566983596743 337.4747031440696 295.7673513677315
    vertex 1665.8959686265923 337.77492658306056 299.66547170247753
    vertex 1665.8902472268567 337.774688565034 295.7739690039064
  endloop
endfacet
facet normal 0.8925461743573896 0.19351810825276503 0.40732305166570154
  outer loop
    vertex 1670.1454008500068 342.12569924988145 295.8828248673081
    vertex 1668.0320825036008 329.80483086128044 306.3672433906737
    vertex 1673.0775065001037 329.21869699790835 295.58993444212274
  endloop
endfacet
facet normal -0.02319171769149549 -0.3297074636651038 -0.9437982478443381
  outer loop
    vertex 1668.307556104312 327.76841703223425 298.5324649581819
    vertex 1658.6399008364658 326.3583210882445 299.2626302138407
    vertex 1658.1251498809147 328.68334528933315 298.46305268211495
  endloop
endfacet
facet normal -0.7629329652387686 -0.6464765595937033 0.0011612268808126425
  outer loop
    vertex 1665.8959686265923 337.77492658306056 299.66547170247753
    vertex 1665.6684588411206 338.03644005756433 295.7795954452107
    vertex 1665.8902472268567 337.774688565034 295.7739690039064
  endloop
endfacet
facet normal -0.7629329652387686 -0.6464765595937033 0.0011612268808126425
  outer loop
    vertex 1665.6684588411206 338.03644005756433 295.7795954452107
    vertex 1665.8959686265923 337.77492658306056 299.66547170247753
    vertex 1665.6738535608874 338.036664485259 299.4489014707527
  endloop
endfacet
facet normal 0.9966043151017809 -0.08232682997268506 -0.0014602010678890726
  outer loop
    vertex 1662.728897850623 337.093993548294 295.75212193820164
    vertex 1662.7079183932624 336.75237898064927 300.6937884314497
    vertex 1662.7006413043725 336.75207624383523 295.7441585587087
  endloop
endfacet
facet normal 0.9966043151017809 -0.08232682997268506 -0.0014602010678890726
  outer loop
    vertex 1662.7079183932624 336.75237898064927 300.6937884314497
    vertex 1662.728897850623 337.093993548294 295.75212193820164
    vertex 1662.7357117732208 337.09427701676003 300.3867217565949
  endloop
endfacet
facet normal 0.9912989711633563 -0.1146559263868734 0.06465576783891314
  outer loop
    vertex 1668.307556104312 327.76841703223425 298.5324649581819
    vertex 1668.2359210204047 329.78051799673443 303.1988867592831
    vertex 1667.977295624055 327.5447710036544 303.1994039604891
  endloop
endfacet
facet normal 0.9912989711633563 -0.1146559263868734 0.06465576783891314
  outer loop
    vertex 1668.2359210204047 329.78051799673443 303.1988867592831
    vertex 1668.307556104312 327.76841703223425 298.5324649581819
    vertex 1668.5361680718902 329.7447059921784 298.5320075475831
  endloop
endfacet
facet normal -0.9935187134775243 -0.11365919218604993 0.0014676517229446895
  outer loop
    vertex 1666.207363159673 336.8074393584036 300.47772423207647
    vertex 1666.1614330741563 337.1480050250416 295.7599967195634
    vertex 1666.2004155392951 336.80715032792773 295.752187703244
  endloop
endfacet
facet normal -0.9935187134775243 -0.11365919218604993 0.0014676517229446895
  outer loop
    vertex 1666.1614330741563 337.1480050250416 295.7599967195634
    vertex 1666.207363159673 336.8074393584036 300.47772423207647
    vertex 1666.1679461321357 337.1482759771289 300.1899585933508
  endloop
endfacet
facet normal 0.11366821514974222 -0.9935187595380861 -0.00010635118471916097
  outer loop
    vertex 1664.4230546853494 338.5294965980742 295.78859639529384
    vertex 1664.0870632492583 338.490701347296 299.1008545873309
    vertex 1664.0821911779976 338.4904986624925 295.78703640797744
  endloop
endfacet
facet normal 0.11366821514974222 -0.9935187595380861 -0.00010635118471916097
  outer loop
    vertex 1664.0870632492583 338.490701347296 299.1008545873309
    vertex 1664.4230546853494 338.5294965980742 295.78859639529384
    vertex 1664.4278643798434 338.5296966879197 299.0599880071481
  endloop
endfacet
facet normal 0.7991507793623983 -0.6011188683790758 -0.0037600429692852995
  outer loop
    vertex 1663.1494291431625 337.92894171631974 299.60519714375374
    vertex 1662.995287666969 337.72275883061513 299.80682837712925
    vertex 1662.9879523762168 337.73827315325843 295.7675246999239
  endloop
endfacet
facet normal 0.006726012962098604 -0.0010094261110071014 -0.9999768706367965
  outer loop
    vertex 1658.3837752772663 330.919092282414 298.4625354809079
    vertex 1668.307556104312 327.76841703223425 298.5324649581819
    vertex 1658.1251498809147 328.68334528933315 298.46305268211495
  endloop
endfacet
facet normal 0.006726012962098604 -0.0010094261110071014 -0.9999768706367965
  outer loop
    vertex 1668.307556104312 327.76841703223425 298.5324649581819
    vertex 1658.3837752772663 330.919092282414 298.4625354809079
    vertex 1668.5361680718902 329.7447059921784 298.5320075475831
  endloop
endfacet
facet normal -0.8159188463437435 0.4728756395489937 0.33266359239060894
  outer loop
    vertex 1660.6243548689854 342.39985899147547 295.8707889473229
    vertex 1654.1455436925473 331.4087040415412 295.6040488637802
    vertex 1658.2340689358648 330.9382241876626 306.3006905852291
  endloop
endfacet
facet normal -0.6221544103838879 -0.7828939666728589 0.000962593950519488
  outer loop
    vertex 1665.6738535608874 338.036664485259 299.4489014707527
    vertex 1665.3998695288162 338.24988949758176 295.7840142840885
    vertex 1665.6684588411206 338.03644005756433 295.7795954452107
  endloop
endfacet
facet normal -0.6221544103838879 -0.7828939666728589 0.000962593950519488
  outer loop
    vertex 1665.3998695288162 338.24988949758176 295.7840142840885
    vertex 1665.6738535608874 338.036664485259 299.4489014707527
    vertex 1665.405001067786 338.2501029765961 299.2743136266585
  endloop
endfacet
facet normal -0.02821118748137379 -0.300282807297597 -0.9534329365730791
  outer loop
    vertex 1668.307556104312 327.76841703223425 298.5324649581819
    vertex 1667.1780745041985 325.370660905118 299.3210562994302
    vertex 1658.6399008364658 326.3583210882445 299.2626302138407
  endloop
endfacet
facet normal -0.9966022408180315 0.0823519363628541 0.001460196482310408
  outer loop
    vertex 1666.1795367124241 336.4655450203695 300.7679324984091
    vertex 1666.2004155392951 336.80715032792773 295.752187703244
    vertex 1666.1721507116151 336.4652377526705 295.7442244171565
  endloop
endfacet
facet normal -0.9966022408180315 0.0823519363628541 0.001460196482310408
  outer loop
    vertex 1666.2004155392951 336.80715032792773 295.752187703244
    vertex 1666.1795367124241 336.4655450203695 300.7679324984091
    vertex 1666.207363159673 336.8074393584036 300.47772423207647
  endloop
endfacet
facet normal 0.07161146411416343 0.6634001430004128 0.7448302145284238
  outer loop
    vertex 1658.2340689358648 330.9382241876626 306.3006905852291
    vertex 1662.7473476538632 336.4115408166662 300.99344640144585
    vertex 1662.7079183932624 336.75237898064927 300.6937884314497
  endloop
endfacet
facet normal 0.07161146411416343 0.6634001430004128 0.7448302145284238
  outer loop
    vertex 1662.7473476538632 336.4115408166662 300.99344640144585
    vertex 1658.2340689358648 330.9382241876626 306.3006905852291
    vertex 1662.8525059214815 336.08486031802494 301.27417827995896
  endloop
endfacet
facet normal 0.07161146411416343 0.6634001430004128 0.7448302145284238
  outer loop
    vertex 1662.8525059214815 336.08486031802494 301.27417827995896
    vertex 1658.2340689358648 330.9382241876626 306.3006905852291
    vertex 1663.019336714985 335.784891033824 301.5251977040868
  endloop
endfacet
facet normal 0.07161146411416343 0.6634001430004128 0.7448302145284238
  outer loop
    vertex 1663.019336714985 335.784891033824 301.5251977040868
    vertex 1658.2340689358648 330.9382241876626 306.3006905852291
    vertex 1668.0320825036008 329.80483086128044 306.3672433906737
  endloop
endfacet
facet normal 0.07161146411416343 0.6634001430004128 0.7448302145284238
  outer loop
    vertex 1663.019336714985 335.784891033824 301.5251977040868
    vertex 1668.0320825036008 329.80483086128044 306.3672433906737
    vertex 1663.241449172941 335.5231589836188 301.73685763356025
  endloop
endfacet
facet normal 0.07161146411416343 0.6634001430004128 0.7448302145284238
  outer loop
    vertex 1663.241449172941 335.5231589836188 301.73685763356025
    vertex 1668.0320825036008 329.80483086128044 306.3672433906737
    vertex 1663.5102846013256 335.3097190976414 301.9010292368025
  endloop
endfacet
facet normal 0.07161146411416343 0.6634001430004128 0.7448302145284238
  outer loop
    vertex 1663.5102846013256 335.3097190976414 301.9010292368025
    vertex 1668.0320825036008 329.80483086128044 306.3672433906737
    vertex 1663.815522575631 335.15278212532905 302.01139499964677
  endloop
endfacet
facet normal 0.07161146411416343 0.6634001430004128 0.7448302145284238
  outer loop
    vertex 1663.815522575631 335.15278212532905 302.01139499964677
    vertex 1668.0320825036008 329.80483086128044 306.3672433906737
    vertex 1664.145435574302 335.0583691602761 302.0637221969928
  endloop
endfacet
facet normal 0.07161146411416343 0.6634001430004128 0.7448302145284238
  outer loop
    vertex 1664.145435574302 335.0583691602761 302.0637221969928
    vertex 1668.0320825036008 329.80483086128044 306.3672433906737
    vertex 1664.487337276763 335.03011901206077 302.05599127593274
  endloop
endfacet
facet normal 0.07161146411416343 0.6634001430004128 0.7448302145284238
  outer loop
    vertex 1664.487337276763 335.03011901206077 302.05599127593274
    vertex 1668.0320825036008 329.80483086128044 306.3672433906737
    vertex 1664.828099307878 335.0691127260929 301.9885305554717
  endloop
endfacet
facet normal 0.07161146411416343 0.6634001430004128 0.7448302145284238
  outer loop
    vertex 1664.828099307878 335.0691127260929 301.9885305554717
    vertex 1668.0320825036008 329.80483086128044 306.3672433906737
    vertex 1664.9149426435526 335.096977030895 301.95521025975023
  endloop
endfacet
facet normal 0.07161146411416343 0.6634001430004128 0.7448302145284238
  outer loop
    vertex 1658.2340689358648 330.9382241876626 306.3006905852291
    vertex 1662.7357117732208 337.09427701676003 300.3867217565949
    vertex 1662.819300148694 337.43139733271505 300.07281968644395
  endloop
endfacet
facet normal 0.07161146411416343 0.6634001430004128 0.7448302145284238
  outer loop
    vertex 1662.7357117732208 337.09427701676003 300.3867217565949
    vertex 1658.2340689358648 330.9382241876626 306.3006905852291
    vertex 1662.7079183932624 336.75237898064927 300.6937884314497
  endloop
endfacet
facet normal 0.07161146411416343 0.6634001430004128 0.7448302145284238
  outer loop
    vertex 1662.819300148694 337.43139733271505 300.07281968644395
    vertex 1662.7357117732208 337.09427701676003 300.3867217565949
    vertex 1662.8035926663829 337.34446710466204 300.15248686120265
  endloop
endfacet
facet normal 0.08234181644713695 0.9966041301007872 -0.00018201714070374824
  outer loop
    vertex 1664.145435574302 335.0583691602761 302.0637221969928
    vertex 1664.4780039088039 335.02973073123513 295.7077498875601
    vertex 1664.1360908305317 335.05798040620186 295.70774336897284
  endloop
endfacet
facet normal 0.08234181644713695 0.9966041301007872 -0.00018201714070374824
  outer loop
    vertex 1664.4780039088039 335.02973073123513 295.7077498875601
    vertex 1664.145435574302 335.0583691602761 302.0637221969928
    vertex 1664.487337276763 335.03011901206077 302.05599127593274
  endloop
endfacet
facet normal 0.3052872751135433 -0.9522602202583573 -0.0003905985823722995
  outer loop
    vertex 1664.0821911779976 338.4904986624925 295.78703640797744
    vertex 1663.7604997676879 338.3859681503055 299.19707048684404
    vertex 1663.7554817479484 338.3857593938461 295.78398308761973
  endloop
endfacet
facet normal 0.3052872751135433 -0.9522602202583573 -0.0003905985823722995
  outer loop
    vertex 1663.7604997676879 338.3859681503055 299.19707048684404
    vertex 1664.0821911779976 338.4904986624925 295.78703640797744
    vertex 1664.0870632492583 338.490701347296 299.1008545873309
  endloop
endfacet
facet normal -0.8892332879002399 0.4574522082504536 0.0012793970895369437
  outer loop
    vertex 1665.9289814213876 335.8306655395597 301.3114085836651
    vertex 1666.0777281810701 336.1354038291856 295.73641282356317
    vertex 1665.9207740810405 335.8303241030163 295.7290531177768
  endloop
endfacet
facet normal -0.8892332879002399 0.4574522082504536 0.0012793970895369437
  outer loop
    vertex 1666.0777281810701 336.1354038291856 295.73641282356317
    vertex 1665.9289814213876 335.8306655395597 301.3114085836651
    vertex 1666.0855395373196 336.13572879225137 301.04943329599945
  endloop
endfacet
facet normal -0.4851530516512545 0.8744290029119796 0.0006598028771916145
  outer loop
    vertex 1665.1546321207577 335.17387398384625 301.8854918918399
    vertex 1665.4455582771714 335.3399410258381 295.7167928814043
    vertex 1665.1455562094463 335.1734964135671 295.7123638141245
  endloop
endfacet
facet normal -0.4851530516512545 0.8744290029119796 0.0006598028771916145
  outer loop
    vertex 1665.4455582771714 335.3399410258381 295.7167928814043
    vertex 1665.1546321207577 335.17387398384625 301.8854918918399
    vertex 1665.4544102909085 335.3403092816719 301.7376333969078
  endloop
endfacet
facet normal -0.11366821514971019 0.9935187595380898 0.00010635118469747387
  outer loop
    vertex 1664.487337276763 335.03011901206077 302.05599127593274
    vertex 1664.8188674161554 335.06872866681636 295.7093098748759
    vertex 1664.4780039088039 335.02973073123513 295.7077498875601
  endloop
endfacet
facet normal -0.11366821514971019 0.9935187595380898 0.00010635118469747387
  outer loop
    vertex 1664.8188674161554 335.06872866681636 295.7093098748759
    vertex 1664.487337276763 335.03011901206077 302.05599127593274
    vertex 1664.828099307878 335.0691127260929 301.9885305554717
  endloop
endfacet
facet normal 0.9935205273873521 0.1136433352792687 -0.001467653420179263
  outer loop
    vertex 1662.7006413043725 336.75207624383523 295.7441585587087
    vertex 1662.7473476538632 336.4115408166662 300.99344640144585
    vertex 1662.7396185180355 336.4112192740821 295.7363494796833
  endloop
endfacet
facet normal 0.9935205273873521 0.1136433352792687 -0.001467653420179263
  outer loop
    vertex 1662.7473476538632 336.4115408166662 300.99344640144585
    vertex 1662.7006413043725 336.75207624383523 295.7441585587087
    vertex 1662.7079183932624 336.75237898064927 300.6937884314497
  endloop
endfacet
facet normal 0.8743994331721627 0.48520500966187763 -0.0013152441667095122
  outer loop
    vertex 1662.8443532325173 336.08452115505366 295.728994831516
    vertex 1663.019336714985 335.784891033824 301.5251977040868
    vertex 1663.0108052405783 335.78453611286216 295.7223772057919
  endloop
endfacet
facet normal 0.8743994331721627 0.48520500966187763 -0.0013152441667095122
  outer loop
    vertex 1663.019336714985 335.784891033824 301.5251977040868
    vertex 1662.8443532325173 336.08452115505366 295.728994831516
    vertex 1662.8525059214815 336.08486031802494 301.27417827995896
  endloop
endfacet
facet normal 0.457457709580262 0.8892310810360132 -0.0007269560538048471
  outer loop
    vertex 1663.501185799867 335.30934057510257 295.71233205591983
    vertex 1663.815522575631 335.15278212532905 302.01139499964677
    vertex 1663.8062570396864 335.1523966664069 295.7092906552884
  endloop
endfacet
facet normal 0.457457709580262 0.8892310810360132 -0.0007269560538048471
  outer loop
    vertex 1663.815522575631 335.15278212532905 302.01139499964677
    vertex 1663.501185799867 335.30934057510257 295.71233205591983
    vertex 1663.5102846013256 335.3097190976414 301.9010292368025
  endloop
endfacet
facet normal 0.7927570547537012 -0.6095353430840922 -0.0017081187298614014
  outer loop
    vertex 1663.2045426666662 338.0008206479969 299.53429182041356
    vertex 1663.1494291431625 337.92894171631974 299.60519714375374
    vertex 1663.1940017019156 337.99764894340865 295.77392199786016
  endloop
endfacet
facet normal 0.9609623684204345 -0.2766782018196634 -0.0007064825736786063
  outer loop
    vertex 1662.830435755719 337.43662802253004 295.76024335348893
    vertex 1662.7357117732208 337.09427701676003 300.3867217565949
    vertex 1662.728897850623 337.093993548294 295.75212193820164
  endloop
endfacet
facet normal 0.9609623684204345 -0.2766782018196634 -0.0007064825736786063
  outer loop
    vertex 1662.7357117732208 337.09427701676003 300.3867217565949
    vertex 1662.830435755719 337.43662802253004 295.76024335348893
    vertex 1662.8035926663829 337.34446710466204 300.15248686120265
  endloop
endfacet
facet normal 0.6221582489391889 0.7828909162069153 -0.0009625994073761288
  outer loop
    vertex 1663.2325982380564 335.5227907726664 295.7167509156983
    vertex 1663.5102846013256 335.3097190976414 301.9010292368025
    vertex 1663.501185799867 335.30934057510257 295.71233205591983
  endloop
endfacet
facet normal 0.6221582489391889 0.7828909162069153 -0.0009625994073761288
  outer loop
    vertex 1663.5102846013256 335.3097190976414 301.9010292368025
    vertex 1663.2325982380564 335.5227907726664 295.7167509156983
    vertex 1663.241449172941 335.5231589836188 301.73685763356025
  endloop
endfacet
facet normal 0.7830243304049002 -0.6219877147994254 -0.00204465951849671
  outer loop
    vertex 1663.1940017019156 337.99764894340865 295.77392199786016
    vertex 1663.1494291431625 337.92894171631974 299.60519714375374
    vertex 1662.9879523762168 337.73827315325843 295.7675246999239
  endloop
endfacet
facet normal -0.45744952621622237 -0.8892352908632044 0.0007269442799939068
  outer loop
    vertex 1665.405001067786 338.2501029765961 299.2743136266585
    vertex 1665.0947989287315 338.40682952658267 295.7870555962132
    vertex 1665.3998695288162 338.24988949758176 295.7840142840885
  endloop
endfacet
facet normal -0.45744952621622237 -0.8892352908632044 0.0007269442799939068
  outer loop
    vertex 1665.0947989287315 338.40682952658267 295.7870555962132
    vertex 1665.405001067786 338.2501029765961 299.2743136266585
    vertex 1665.099740905944 338.4070351195696 299.14842144076704
  endloop
endfacet
facet normal 0.8864486872263464 -0.4628144883706469 -0.003387369023860953
  outer loop
    vertex 1662.9879523762168 337.73827315325843 295.7675246999239
    vertex 1662.995287666969 337.72275883061513 299.80682837712925
    vertex 1662.830435755719 337.43662802253004 295.76024335348893
  endloop
endfacet
facet normal 0.27519881790452644 0.961387224731961 -0.0004634070879450212
  outer loop
    vertex 1663.8062570396864 335.1523966664069 295.7092906552884
    vertex 1664.145435574302 335.0583691602761 302.0637221969928
    vertex 1664.1360908305317 335.05798040620186 295.70774336897284
  endloop
endfacet
facet normal 0.27519881790452644 0.961387224731961 -0.0004634070879450212
  outer loop
    vertex 1664.145435574302 335.0583691602761 302.0637221969928
    vertex 1663.8062570396864 335.1523966664069 295.7092906552884
    vertex 1663.815522575631 335.15278212532905 302.01139499964677
  endloop
endfacet
facet normal -0.30538003397752117 0.9522304774437007 0.0003907367783531351
  outer loop
    vertex 1664.828099307878 335.0691127260929 301.9885305554717
    vertex 1665.1455562094463 335.1734964135671 295.7123638141245
    vertex 1664.8188674161554 335.06872866681636 295.7093098748759
  endloop
endfacet
facet normal -0.30538003397752117 0.9522304774437007 0.0003907367783531351
  outer loop
    vertex 1665.1455562094463 335.1734964135671 295.7123638141245
    vertex 1664.828099307878 335.0691127260929 301.9885305554717
    vertex 1664.9149426435526 335.096977030895 301.95521025975023
  endloop
endfacet
facet normal -0.30538003397752117 0.9522304774437007 0.0003907367783531351
  outer loop
    vertex 1665.1455562094463 335.1734964135671 295.7123638141245
    vertex 1664.9149426435526 335.096977030895 301.95521025975023
    vertex 1665.1546321207577 335.17387398384625 301.8854918918399
  endloop
endfacet
facet normal 0.8566110252627147 -0.5159603044564585 0.0015860717383973698
  outer loop
    vertex 1662.830435755719 337.43662802253004 295.76024335348893
    vertex 1662.9131693612328 337.5868053675554 299.9309437455134
    vertex 1662.819300148694 337.43139733271505 300.07281968644395
  endloop
endfacet
facet normal 0.8566110252627147 -0.5159603044564585 0.0015860717383973698
  outer loop
    vertex 1662.9131693612328 337.5868053675554 299.9309437455134
    vertex 1662.830435755719 337.43662802253004 295.76024335348893
    vertex 1662.995287666969 337.72275883061513 299.80682837712925
  endloop
endfacet
facet normal -0.08234181644601092 -0.9966041301008802 0.0001820171408134701
  outer loop
    vertex 1664.7649677636207 338.5012469231083 295.78860291388077
    vertex 1664.4278643798434 338.5296966879197 299.0599880071481
    vertex 1664.4230546853494 338.5294965980742 295.78859639529384
  endloop
endfacet
facet normal -0.08234181644601092 -0.9966041301008802 0.0001820171408134701
  outer loop
    vertex 1664.4278643798434 338.5296966879197 299.0599880071481
    vertex 1664.7649677636207 338.5012469231083 295.78860291388077
    vertex 1664.7698010600902 338.5014479948274 299.0760477918841
  endloop
endfacet
facet normal 0.07226842593505241 0.6629778687558995 0.745142684425443
  outer loop
    vertex 1662.819300148694 337.43139733271505 300.07281968644395
    vertex 1660.6243548689854 342.39985899147547 295.8707889473229
    vertex 1658.2340689358648 330.9382241876626 306.3006905852291
  endloop
endfacet
facet normal 0.07226842593505241 0.6629778687558995 0.745142684425443
  outer loop
    vertex 1660.6243548689854 342.39985899147547 295.8707889473229
    vertex 1662.819300148694 337.43139733271505 300.07281968644395
    vertex 1662.995287666969 337.72275883061513 299.80682837712925
  endloop
endfacet
facet normal 0.07226842593505241 0.6629778687558995 0.745142684425443
  outer loop
    vertex 1660.6243548689854 342.39985899147547 295.8707889473229
    vertex 1662.995287666969 337.72275883061513 299.80682837712925
    vertex 1663.1494291431625 337.92894171631974 299.60519714375374
  endloop
endfacet
facet normal 0.07226842593505241 0.6629778687558995 0.745142684425443
  outer loop
    vertex 1660.6243548689854 342.39985899147547 295.8707889473229
    vertex 1663.1494291431625 337.92894171631974 299.60519714375374
    vertex 1663.2045426666662 338.0008206479969 299.53429182041356
  endloop
endfacet
facet normal 0.07226842593505241 0.6629778687558995 0.745142684425443
  outer loop
    vertex 1662.995287666969 337.72275883061513 299.80682837712925
    vertex 1662.819300148694 337.43139733271505 300.07281968644395
    vertex 1662.9131693612328 337.5868053675554 299.9309437455134
  endloop
endfacet
facet normal 0.6476770568695014 -0.761914439322264 -0.0009039674223647449
  outer loop
    vertex 1663.3917041626935 338.16074519738356 299.3959599733239
    vertex 1663.4424359652548 338.2081615368618 295.7792708594089
    vertex 1663.450600940161 338.21086286353216 299.3525048521434
  endloop
endfacet
facet normal 0.7629188409819275 0.6464932278630485 -0.0011612071343739465
  outer loop
    vertex 1663.0108052405783 335.78453611286216 295.7223772057919
    vertex 1663.241449172941 335.5231589836188 301.73685763356025
    vertex 1663.2325982380564 335.5227907726664 295.7167509156983
  endloop
endfacet
facet normal 0.7629188409819275 0.6464932278630485 -0.0011612071343739465
  outer loop
    vertex 1663.241449172941 335.5231589836188 301.73685763356025
    vertex 1663.0108052405783 335.78453611286216 295.7223772057919
    vertex 1663.019336714985 335.784891033824 301.5251977040868
  endloop
endfacet
facet normal 0.9844332005338201 -0.1757437068995702 0.0023287704776063524
  outer loop
    vertex 1662.830435755719 337.43662802253004 295.76024335348893
    vertex 1662.819300148694 337.43139733271505 300.07281968644395
    vertex 1662.8035926663829 337.34446710466204 300.15248686120265
  endloop
endfacet
facet normal 0.9522518970878084 0.30531018944182003 -0.0014187021076010778
  outer loop
    vertex 1662.7396185180355 336.4112192740821 295.7363494796833
    vertex 1662.8525059214815 336.08486031802494 301.27417827995896
    vertex 1662.8443532325173 336.08452115505366 295.728994831516
  endloop
endfacet
facet normal 0.9522518970878084 0.30531018944182003 -0.0014187021076010778
  outer loop
    vertex 1662.8525059214815 336.08486031802494 301.27417827995896
    vertex 1662.7396185180355 336.4112192740821 295.7363494796833
    vertex 1662.7473476538632 336.4115408166662 300.99344640144585
  endloop
endfacet
facet normal 0.4925971151177931 -0.8702572971949885 -0.0005646738010773272
  outer loop
    vertex 1663.7554817479484 338.3857593938461 295.78398308761973
    vertex 1663.450600940161 338.21086286353216 299.3525048521434
    vertex 1663.4424359652548 338.2081615368618 295.7792708594089
  endloop
endfacet
facet normal 0.4925971151177931 -0.8702572971949885 -0.0005646738010773272
  outer loop
    vertex 1663.450600940161 338.21086286353216 299.3525048521434
    vertex 1663.7554817479484 338.3857593938461 295.78398308761973
    vertex 1663.7604997676879 338.3859681503055 299.19707048684404
  endloop
endfacet
facet normal 0.6492511873089584 -0.7605735656401312 -0.0008643074483228657
  outer loop
    vertex 1663.2045426666662 338.0008206479969 299.53429182041356
    vertex 1663.4424359652548 338.2081615368618 295.7792708594089
    vertex 1663.3917041626935 338.16074519738356 299.3959599733239
  endloop
endfacet
facet normal 0.017534667480316818 0.6461898316894001 0.7629752531095485
  outer loop
    vertex 1668.0320825036008 329.80483086128044 306.3672433906737
    vertex 1665.1546321207577 335.17387398384625 301.8854918918399
    vertex 1664.9149426435526 335.096977030895 301.95521025975023
  endloop
endfacet
facet normal 0.017534667480316818 0.6461898316894001 0.7629752531095485
  outer loop
    vertex 1665.1546321207577 335.17387398384625 301.8854918918399
    vertex 1668.0320825036008 329.80483086128044 306.3672433906737
    vertex 1665.4544102909085 335.3403092816719 301.7376333969078
  endloop
endfacet
facet normal 0.017534667480316818 0.6461898316894001 0.7629752531095485
  outer loop
    vertex 1665.4544102909085 335.3403092816719 301.7376333969078
    vertex 1668.0320825036008 329.80483086128044 306.3672433906737
    vertex 1665.7158731158706 335.56209022279444 301.54378114593106
  endloop
endfacet
facet normal 0.017534667480316818 0.6461898316894001 0.7629752531095485
  outer loop
    vertex 1665.7158731158706 335.56209022279444 301.54378114593106
    vertex 1668.0320825036008 329.80483086128044 306.3672433906737
    vertex 1665.9289814213876 335.8306655395597 301.3114085836651
  endloop
endfacet
facet normal 0.017534667480316818 0.6461898316894001 0.7629752531095485
  outer loop
    vertex 1665.9289814213876 335.8306655395597 301.3114085836651
    vertex 1668.0320825036008 329.80483086128044 306.3672433906737
    vertex 1666.0855395373196 336.13572879225137 301.04943329599945
  endloop
endfacet
facet normal 0.017534667480316818 0.6461898316894001 0.7629752531095485
  outer loop
    vertex 1666.0855395373196 336.13572879225137 301.04943329599945
    vertex 1668.0320825036008 329.80483086128044 306.3672433906737
    vertex 1666.1795367124241 336.4655450203695 300.7679324984091
  endloop
endfacet
facet normal 0.017534667480316818 0.6461898316894001 0.7629752531095485
  outer loop
    vertex 1666.1795367124241 336.4655450203695 300.7679324984091
    vertex 1668.0320825036008 329.80483086128044 306.3672433906737
    vertex 1666.207363159673 336.8074393584036 300.47772423207647
  endloop
endfacet
facet normal 0.017534667480316818 0.6461898316894001 0.7629752531095485
  outer loop
    vertex 1660.6243548689854 342.39985899147547 295.8707889473229
    vertex 1663.450600940161 338.21086286353216 299.3525048521434
    vertex 1670.1454008500068 342.12569924988145 295.8828248673081
  endloop
endfacet
facet normal 0.017534667480316818 0.6461898316894001 0.7629752531095485
  outer loop
    vertex 1663.450600940161 338.21086286353216 299.3525048521434
    vertex 1660.6243548689854 342.39985899147547 295.8707889473229
    vertex 1663.3917041626935 338.16074519738356 299.3959599733239
  endloop
endfacet
facet normal 0.017534667480316818 0.6461898316894001 0.7629752531095485
  outer loop
    vertex 1663.3917041626935 338.16074519738356 299.3959599733239
    vertex 1660.6243548689854 342.39985899147547 295.8707889473229
    vertex 1663.2045426666662 338.0008206479969 299.53429182041356
  endloop
endfacet
facet normal 0.017534667480316818 0.6461898316894001 0.7629752531095485
  outer loop
    vertex 1670.1454008500068 342.12569924988145 295.8828248673081
    vertex 1663.450600940161 338.21086286353216 299.3525048521434
    vertex 1663.7604997676879 338.3859681503055 299.19707048684404
  endloop
endfacet
facet normal 0.017534667480316818 0.6461898316894001 0.7629752531095485
  outer loop
    vertex 1670.1454008500068 342.12569924988145 295.8828248673081
    vertex 1663.7604997676879 338.3859681503055 299.19707048684404
    vertex 1664.0870632492583 338.490701347296 299.1008545873309
  endloop
endfacet
facet normal 0.017534667480316818 0.6461898316894001 0.7629752531095485
  outer loop
    vertex 1670.1454008500068 342.12569924988145 295.8828248673081
    vertex 1664.0870632492583 338.490701347296 299.1008545873309
    vertex 1664.4278643798434 338.5296966879197 299.0599880071481
  endloop
endfacet
facet normal 0.017534667480316818 0.6461898316894001 0.7629752531095485
  outer loop
    vertex 1670.1454008500068 342.12569924988145 295.8828248673081
    vertex 1664.4278643798434 338.5296966879197 299.0599880071481
    vertex 1664.7698010600902 338.5014479948274 299.0760477918841
  endloop
endfacet
facet normal 0.017534667480316818 0.6461898316894001 0.7629752531095485
  outer loop
    vertex 1670.1454008500068 342.12569924988145 295.8828248673081
    vertex 1664.7698010600902 338.5014479948274 299.0760477918841
    vertex 1665.099740905944 338.4070351195696 299.14842144076704
  endloop
endfacet
facet normal 0.017534667480316818 0.6461898316894001 0.7629752531095485
  outer loop
    vertex 1670.1454008500068 342.12569924988145 295.8828248673081
    vertex 1665.099740905944 338.4070351195696 299.14842144076704
    vertex 1665.405001067786 338.2501029765961 299.2743136266585
  endloop
endfacet
facet normal 0.017534667480316818 0.6461898316894001 0.7629752531095485
  outer loop
    vertex 1670.1454008500068 342.12569924988145 295.8828248673081
    vertex 1665.405001067786 338.2501029765961 299.2743136266585
    vertex 1665.6738535608874 338.036664485259 299.4489014707527
  endloop
endfacet
facet normal 0.017534667480316818 0.6461898316894001 0.7629752531095485
  outer loop
    vertex 1670.1454008500068 342.12569924988145 295.8828248673081
    vertex 1665.6738535608874 338.036664485259 299.4489014707527
    vertex 1665.8959686265923 337.77492658306056 299.66547170247753
  endloop
endfacet
facet normal 0.017534667480316818 0.6461898316894001 0.7629752531095485
  outer loop
    vertex 1670.1454008500068 342.12569924988145 295.8828248673081
    vertex 1665.8959686265923 337.77492658306056 299.66547170247753
    vertex 1666.0660470015855 337.4648607796648 299.9241703498131
  endloop
endfacet
facet normal 0.017534667480316818 0.6461898316894001 0.7629752531095485
  outer loop
    vertex 1670.1454008500068 342.12569924988145 295.8828248673081
    vertex 1666.0660470015855 337.4648607796648 299.9241703498131
    vertex 1666.1679461321357 337.1482759771289 300.1899585933508
  endloop
endfacet
facet normal 0.017534667480316818 0.6461898316894001 0.7629752531095485
  outer loop
    vertex 1670.1454008500068 342.12569924988145 295.8828248673081
    vertex 1666.1679461321357 337.1482759771289 300.1899585933508
    vertex 1666.207363159673 336.8074393584036 300.47772423207647
  endloop
endfacet
facet normal 0.017534667480316818 0.6461898316894001 0.7629752531095485
  outer loop
    vertex 1670.1454008500068 342.12569924988145 295.8828248673081
    vertex 1666.207363159673 336.8074393584036 300.47772423207647
    vertex 1668.0320825036008 329.80483086128044 306.3672433906737
  endloop
endfacet
facet normal -0.2752039039978711 -0.9613857688104986 0.0004634144767065434
  outer loop
    vertex 1665.099740905944 338.4070351195696 299.14842144076704
    vertex 1664.7649677636207 338.5012469231083 295.78860291388077
    vertex 1665.0947989287315 338.40682952658267 295.7870555962132
  endloop
endfacet
facet normal -0.2752039039978711 -0.9613857688104986 0.0004634144767065434
  outer loop
    vertex 1664.7649677636207 338.5012469231083 295.78860291388077
    vertex 1665.099740905944 338.4070351195696 299.14842144076704
    vertex 1664.7698010600902 338.5014479948274 299.0760477918841
  endloop
endfacet
endsolid Inmoov_Shoulder_Cover_Remix
