solid Inmoov_Shoulder_Cover_Remix
facet normal 0.024679103379589288 0.034210072489398 -0.9991099102684599
  outer loop
    vertex 1304.2314671504766 300.276582028725 243.7996476232293
    vertex 1300.9223834026131 277.0615220324909 242.92301323473967
    vertex 1297.6132996547499 276.9110221038458 242.8361220604238
  endloop
endfacet
facet normal 0.05210533294117514 0.5366011138877005 0.8422257885232253
  outer loop
    vertex 1304.2314671504766 289.9621594479901 250.37119971929553
    vertex 1294.434072271946 291.6635175197752 249.89335384966853
    vertex 1294.252904017374 291.42230568485223 250.0582435662001
  endloop
endfacet
facet normal 0.05210533294117514 0.5366011138877005 0.8422257885232253
  outer loop
    vertex 1294.434072271946 291.6635175197752 249.89335384966853
    vertex 1304.2314671504766 289.9621594479901 250.37119971929553
    vertex 1294.5549291317393 291.93141821202323 249.7151912965452
  endloop
endfacet
facet normal 0.05210533294117514 0.5366011138877005 0.8422257885232253
  outer loop
    vertex 1294.5549291317393 291.93141821202323 249.7151912965452
    vertex 1304.2314671504766 289.9621594479901 250.37119971929553
    vertex 1294.6108130978046 292.2157104048494 249.53060497525624
  endloop
endfacet
facet normal 0.05210533294117514 0.5366011138877005 0.8422257885232253
  outer loop
    vertex 1294.6108130978046 292.2157104048494 249.53060497525624
    vertex 1304.2314671504766 297.6858924204544 245.45023461365253
    vertex 1294.5995807120714 292.50546966717076 249.34668769578863
  endloop
endfacet
facet normal 0.05210533294117514 0.5366011138877005 0.8422257885232253
  outer loop
    vertex 1304.2314671504766 297.6858924204544 245.45023461365253
    vertex 1294.6108130978046 292.2157104048494 249.53060497525624
    vertex 1304.2314671504766 289.9621594479901 250.37119971929553
  endloop
endfacet
facet normal -0.5036799875474314 -0.7481509557623801 0.4319451557038885
  outer loop
    vertex 1293.9298495719347 293.4581642111353 248.67678632577235
    vertex 1293.638225110522 293.61509990152683 248.60855123170117
    vertex 1293.9298495719347 290.56877136488083 243.67221111303428
  endloop
endfacet
facet normal 0.0008447254017954731 -0.48264808113944013 0.8758139735191557
  outer loop
    vertex 1304.2314671504766 289.9621594479901 250.37119971929553
    vertex 1294.0440851002672 290.4776085663396 250.66508184046975
    vertex 1281.279690455226 290.8049909012106 250.85780868569424
  endloop
endfacet
facet normal 0.0008447254017954731 -0.48264808113944013 0.8758139735191557
  outer loop
    vertex 1294.0440851002672 290.4776085663396 250.66508184046975
    vertex 1304.2314671504766 289.9621594479901 250.37119971929553
    vertex 1298.72096008634 290.2409735725482 250.5301649467479
  endloop
endfacet
facet normal 0.052105332941149454 0.5366011138876572 0.8422257885232545
  outer loop
    vertex 1292.3019022420542 293.7716120343157 248.6821484350521
    vertex 1281.1631010925173 297.494822069478 246.99912266101475
    vertex 1291.9894212938366 293.66022535456193 248.77244742768474
  endloop
endfacet
facet normal 0.0017305703673907253 0.40565075539554735 0.914026514808638
  outer loop
    vertex 1292.9789178530007 293.82917900984677 248.60358680952476
    vertex 1281.1631010925173 297.494822069478 246.99912266101475
    vertex 1292.6360238560399 293.8243175558946 248.606393571272
  endloop
endfacet
facet normal -0.5280746771392968 -0.7354269858546929 0.42459896825229
  outer loop
    vertex 1293.9298495719347 293.5022098893855 248.7530756783562
    vertex 1293.638507229583 293.6627584424754 248.66881081299533
    vertex 1293.9298495719347 293.4581642111353 248.67678632577235
  endloop
endfacet
facet normal 0.05210533294118501 0.5366011138877192 0.8422257885232127
  outer loop
    vertex 1281.1631010925173 297.494822069478 246.99912266101475
    vertex 1291.7105396287648 293.4988290664423 248.89253001286568
    vertex 1291.9894212938366 293.66022535456193 248.77244742768474
  endloop
endfacet
facet normal 0.05210533294118501 0.5366011138877192 0.8422257885232127
  outer loop
    vertex 1291.7105396287648 293.4988290664423 248.89253001286568
    vertex 1281.1631010925173 297.494822069478 246.99912266101475
    vertex 1291.4760124458237 293.293570433659 249.03781424614974
  endloop
endfacet
facet normal 0.052456504587160814 0.5346569019601602 0.8434395724133774
  outer loop
    vertex 1287.6861565578258 290.8049909012106 250.85780868569424
    vertex 1291.5486598964735 291.4173143575894 250.22665222911294
    vertex 1291.3488302306832 291.6588225593622 250.08721740380807
  endloop
endfacet
facet normal 0.052456504587160814 0.5346569019601602 0.8434395724133774
  outer loop
    vertex 1291.5486598964735 291.4173143575894 250.22665222911294
    vertex 1287.6861565578258 290.8049909012106 250.85780868569424
    vertex 1291.79906523945 291.2136654671899 250.34298272163147
  endloop
endfacet
facet normal 0.052456504587160814 0.5346569019601602 0.8434395724133774
  outer loop
    vertex 1291.79906523945 291.2136654671899 250.34298272163147
    vertex 1287.6861565578258 290.8049909012106 250.85780868569424
    vertex 1292.0904092336143 291.0531176760354 250.4272469993545
  endloop
endfacet
facet normal 0.052456504587160814 0.5346569019601602 0.8434395724133774
  outer loop
    vertex 1292.0904092336143 291.0531176760354 250.4272469993545
    vertex 1287.6861565578258 290.8049909012106 250.85780868569424
    vertex 1292.4114972460018 290.9427196877698 250.47771955227873
  endloop
endfacet
facet normal 0.052456504587160814 0.5346569019601602 0.8434395724133774
  outer loop
    vertex 1292.4114972460018 290.9427196877698 250.47771955227873
    vertex 1287.6861565578258 290.8049909012106 250.85780868569424
    vertex 1294.0440851002672 290.4776085663396 250.66508184046975
  endloop
endfacet
facet normal 0.052456504587160814 0.5346569019601602 0.8434395724133774
  outer loop
    vertex 1292.4114972460018 290.9427196877698 250.47771955227873
    vertex 1294.0440851002672 290.4776085663396 250.66508184046975
    vertex 1292.7499950510357 290.88669918537676 250.4924698998968
  endloop
endfacet
facet normal 0.052456504587160814 0.5346569019601602 0.8434395724133774
  outer loop
    vertex 1292.7499950510357 290.88669918537676 250.4924698998968
    vertex 1294.0440851002672 290.4776085663396 250.66508184046975
    vertex 1293.0928890479966 290.8872228007655 250.47092273437025
  endloop
endfacet
facet normal 0.052456504587160814 0.5346569019601602 0.8434395724133774
  outer loop
    vertex 1293.0928890479966 290.8872228007655 250.47092273437025
    vertex 1294.0440851002672 290.4776085663396 250.66508184046975
    vertex 1293.4270106619826 290.9442661609084 250.41390827436882
  endloop
endfacet
facet normal 0.052456504587160814 0.5346569019601602 0.8434395724133774
  outer loop
    vertex 1293.4270106619826 290.9442661609084 250.41390827436882
    vertex 1294.0440851002672 290.4776085663396 250.66508184046975
    vertex 1293.739515383587 291.05563034056985 250.3236221462838
  endloop
endfacet
facet normal 0.08345453474573467 0.606940844510293 0.7903531817456707
  outer loop
    vertex 1292.6360238560399 293.8243175558946 248.606393571272
    vertex 1281.1631010925173 297.494822069478 246.99912266101475
    vertex 1292.3019022420542 293.7716120343157 248.6821484350521
  endloop
endfacet
facet normal 0.05130471541361918 0.5296154659394041 0.8466848790513006
  outer loop
    vertex 1294.0440851002672 290.4776085663396 250.66508184046975
    vertex 1294.018381475036 291.2170417557395 250.2035308867984
    vertex 1293.739515383587 291.05563034056985 250.3236221462838
  endloop
endfacet
facet normal 0.05130471541361918 0.5296154659394041 0.8466848790513006
  outer loop
    vertex 1294.018381475036 291.2170417557395 250.2035308867984
    vertex 1294.0440851002672 290.4776085663396 250.66508184046975
    vertex 1298.72096008634 290.2409735725482 250.5301649467479
  endloop
endfacet
facet normal 0.052105332941160036 0.5366011138876707 0.842225788523245
  outer loop
    vertex 1281.1631010925173 297.494822069478 246.99912266101475
    vertex 1291.2948406320904 293.0523606754486 249.20270285975295
    vertex 1291.4760124458237 293.293570433659 249.03781424614974
  endloop
endfacet
facet normal 0.052105332941160036 0.5366011138876707 0.842225788523245
  outer loop
    vertex 1291.2948406320904 293.0523606754486 249.20270285975295
    vertex 1281.1631010925173 297.494822069478 246.99912266101475
    vertex 1291.1739941942437 292.78445735364625 249.38086644345816
  endloop
endfacet
facet normal -0.7876324097597556 -0.012118720012815491 -0.6160262362280455
  outer loop
    vertex 1281.1631010925173 297.494822069478 246.99912266101475
    vertex 1284.454690455226 277.5130218184278 243.1836867576886
    vertex 1281.279690455226 284.3125264004401 247.10938255847043
  endloop
endfacet
facet normal -0.9998914916019003 -0.0031813859283045098 0.014383455972127611
  outer loop
    vertex 1287.6792463637832 283.28054799552575 248.88366304851775
    vertex 1287.6296904552262 280.26265247544296 244.77118675768847
    vertex 1287.6579235065258 279.25580855615885 246.51116001225301
  endloop
endfacet
facet normal 0.06669291646570477 0.6604398347967113 0.7479112778311284
  outer loop
    vertex 1288.4696934089602 281.380100271291 250.48725106283763
    vertex 1297.8814671504767 282.68847062719067 248.49300838300064
    vertex 1287.6792463637832 283.28054799552575 248.88366304851775
  endloop
endfacet
facet normal 0.06669291646570477 0.6604398347967113 0.7479112778311284
  outer loop
    vertex 1297.8814671504767 282.68847062719067 248.49300838300064
    vertex 1288.4696934089602 281.380100271291 250.48725106283763
    vertex 1292.7283085567744 281.12157772062403 250.33799299861806
  endloop
endfacet
facet normal 0.06669291646570477 0.6604398347967113 0.7479112778311284
  outer loop
    vertex 1297.8814671504767 282.68847062719067 248.49300838300064
    vertex 1292.7283085567744 281.12157772062403 250.33799299861806
    vertex 1297.0439621879354 280.8595926043833 250.18673582123301
  endloop
endfacet
facet normal 0.05210533294117149 0.5366011138876932 0.8422257885232302
  outer loop
    vertex 1287.6861565578258 290.8049909012106 250.85780868569424
    vertex 1291.1293338437774 292.2104092899884 249.74936842599504
    vertex 1291.1181102281787 292.50016516081996 249.56545276474702
  endloop
endfacet
facet normal 0.05210533294117149 0.5366011138876932 0.8422257885232302
  outer loop
    vertex 1291.1293338437774 292.2104092899884 249.74936842599504
    vertex 1287.6861565578258 290.8049909012106 250.85780868569424
    vertex 1291.2072374321754 291.9263226308348 249.92554686573538
  endloop
endfacet
facet normal 0.05210533294117149 0.5366011138876932 0.8422257885232302
  outer loop
    vertex 1291.2072374321754 291.9263226308348 249.92554686573538
    vertex 1287.6861565578258 290.8049909012106 250.85780868569424
    vertex 1291.3488302306832 291.6588225593622 250.08721740380807
  endloop
endfacet
facet normal 0.05210533294117149 0.5366011138876932 0.8422257885232302
  outer loop
    vertex 1287.6861565578258 290.8049909012106 250.85780868569424
    vertex 1291.1739941942437 292.78445735364625 249.38086644345816
    vertex 1281.1631010925173 297.494822069478 246.99912266101475
  endloop
endfacet
facet normal 0.05210533294117149 0.5366011138876932 0.8422257885232302
  outer loop
    vertex 1291.1739941942437 292.78445735364625 249.38086644345816
    vertex 1287.6861565578258 290.8049909012106 250.85780868569424
    vertex 1291.1181102281787 292.50016516081996 249.56545276474702
  endloop
endfacet
facet normal -0.4453629009548546 0.09660080898866147 -0.8901236825047476
  outer loop
    vertex 1286.7446969085665 300.77703316834396 244.56263939492692
    vertex 1284.454690455226 277.5130218184278 243.1836867576886
    vertex 1281.1631010925173 297.494822069478 246.99912266101475
  endloop
endfacet
facet normal 0.9475150530726375 -0.21354920167913383 0.23793268515057336
  outer loop
    vertex 1297.8814671504767 282.68847062719067 248.49300838300064
    vertex 1297.0439621879354 280.8595926043833 250.18673582123301
    vertex 1297.5574941786751 278.65887626443833 246.1665209929405
  endloop
endfacet
facet normal -0.9460447527900376 -0.15202448982852634 0.2861605846562605
  outer loop
    vertex 1288.4516156489628 280.0835232903268 249.7386719938526
    vertex 1287.6792463637832 283.28054799552575 248.88366304851775
    vertex 1288.432430941471 278.70755358367467 248.94425551332003
  endloop
endfacet
facet normal -0.9460447527900376 -0.15202448982852634 0.2861605846562605
  outer loop
    vertex 1287.6792463637832 283.28054799552575 248.88366304851775
    vertex 1288.4516156489628 280.0835232903268 249.7386719938526
    vertex 1288.4696934089602 281.380100271291 250.48725106283763
  endloop
endfacet
facet normal 0.9971987961905502 -0.07403812180706817 -0.0106262597088275
  outer loop
    vertex 1297.8814671504767 282.68847062719067 248.49300838300064
    vertex 1297.5574941786751 278.65887626443833 246.1665209929405
    vertex 1297.6132996547499 279.6606527608614 244.42362206042364
  endloop
endfacet
facet normal -0.9511038682961362 -0.15309492502888947 0.2682599031583456
  outer loop
    vertex 1287.6792463637832 283.28054799552575 248.88366304851775
    vertex 1287.6579235065258 279.25580855615885 246.51116001225301
    vertex 1288.432430941471 278.70755358367467 248.94425551332003
  endloop
endfacet
facet normal 0.9536199186993357 -0.19553842131849825 0.2288531766179835
  outer loop
    vertex 1297.0439621879354 280.8595926043833 250.18673582123301
    vertex 1296.8670459111395 278.1989563716975 248.65061677607625
    vertex 1297.5574941786751 278.65887626443833 246.1665209929405
  endloop
endfacet
facet normal 0.05210533294117534 0.5366011138876983 0.8422257885232267
  outer loop
    vertex 1304.2314671504766 297.6858924204544 245.45023461365253
    vertex 1286.7446969085665 300.77703316834396 244.56263939492692
    vertex 1281.1631010925173 297.494822069478 246.99912266101475
  endloop
endfacet
facet normal 0.05210533294117534 0.5366011138876983 0.8422257885232267
  outer loop
    vertex 1286.7446969085665 300.77703316834396 244.56263939492692
    vertex 1304.2314671504766 297.6858924204544 245.45023461365253
    vertex 1304.2314671504766 300.276582028725 243.7996476232293
  endloop
endfacet
facet normal 0.8009659935729918 -0.0554633994297761 -0.5961352937574853
  outer loop
    vertex 1304.2314671504766 297.6858924204544 245.45023461365253
    vertex 1304.2314671504766 283.69361212719076 246.75205223620443
    vertex 1300.9223834026131 277.0615220324909 242.92301323473967
  endloop
endfacet
facet normal -0.0658944997258997 -0.9777134414388742 -0.19933474693496533
  outer loop
    vertex 1296.8670459111395 278.1989563716975 248.65061677607625
    vertex 1287.6579235065258 279.25580855615885 246.51116001225301
    vertex 1297.5574941786751 278.65887626443833 246.1665209929405
  endloop
endfacet
facet normal -0.0658944997258997 -0.9777134414388742 -0.19933474693496533
  outer loop
    vertex 1287.6579235065258 279.25580855615885 246.51116001225301
    vertex 1296.8670459111395 278.1989563716975 248.65061677607625
    vertex 1288.432430941471 278.70755358367467 248.94425551332003
  endloop
endfacet
facet normal 1.0 0.0 0.0
  outer loop
    vertex 1304.2314671504766 297.6858924204544 245.45023461365253
    vertex 1304.2314671504766 289.9621594479901 250.37119971929553
    vertex 1304.2314671504766 283.69361212719076 246.75205223620443
  endloop
endfacet
facet normal -0.06945890147038135 -0.863933791302822 -0.49879240697073574
  outer loop
    vertex 1297.5574941786751 278.65887626443833 246.1665209929405
    vertex 1287.6296904552262 280.26265247544296 244.77118675768847
    vertex 1297.6132996547499 279.6606527608614 244.42362206042364
  endloop
endfacet
facet normal -0.06945890147038135 -0.863933791302822 -0.49879240697073574
  outer loop
    vertex 1287.6296904552262 280.26265247544296 244.77118675768847
    vertex 1297.5574941786751 278.65887626443833 246.1665209929405
    vertex 1287.6579235065258 279.25580855615885 246.51116001225301
  endloop
endfacet
facet normal -1.1062767146884501e-16 0.05917021636642772 -0.9982479078340962
  outer loop
    vertex 1287.6296904552262 277.5130218184278 243.1836867576886
    vertex 1284.454690455226 277.5130218184278 243.1836867576886
    vertex 1286.7446969085665 300.77703316834396 244.56263939492692
  endloop
endfacet
facet normal -0.9998480245202833 -0.008716763488922183 0.015097877240374572
  outer loop
    vertex 1281.1631010925173 297.494822069478 246.99912266101475
    vertex 1281.279690455226 284.3125264004401 247.10938255847043
    vertex 1281.279690455226 290.8049909012106 250.85780868569424
  endloop
endfacet
facet normal -3.972364477829335e-15 -0.5000000000000125 0.8660254037844314
  outer loop
    vertex 1292.6214950549881 277.21202196113666 243.00990440905616
    vertex 1287.6296904552262 280.26265247544296 244.77118675768847
    vertex 1287.6296904552262 277.5130218184278 243.1836867576886
  endloop
endfacet
facet normal -3.972364477829335e-15 -0.5000000000000125 0.8660254037844314
  outer loop
    vertex 1287.6296904552262 280.26265247544296 244.77118675768847
    vertex 1292.6214950549881 277.21202196113666 243.00990440905616
    vertex 1297.6132996547499 279.6606527608614 244.42362206042364
  endloop
endfacet
facet normal -3.972364477829335e-15 -0.5000000000000125 0.8660254037844314
  outer loop
    vertex 1297.6132996547499 279.6606527608614 244.42362206042364
    vertex 1292.6214950549881 277.21202196113666 243.00990440905616
    vertex 1297.6132996547499 276.9110221038458 242.8361220604238
  endloop
endfacet
facet normal -3.972364477829335e-15 -0.5000000000000125 0.8660254037844314
  outer loop
    vertex 1297.6132996547499 279.6606527608614 244.42362206042364
    vertex 1297.6132996547499 276.9110221038458 242.8361220604238
    vertex 1300.9223834026131 277.0615220324909 242.92301323473967
  endloop
endfacet
facet normal -3.972364477829335e-15 -0.5000000000000125 0.8660254037844314
  outer loop
    vertex 1297.6132996547499 279.6606527608614 244.42362206042364
    vertex 1300.9223834026131 277.0615220324909 242.92301323473967
    vertex 1297.8814671504767 283.69361212719076 246.75205223620443
  endloop
endfacet
facet normal -3.972364477829335e-15 -0.5000000000000125 0.8660254037844314
  outer loop
    vertex 1284.454690455226 277.5130218184278 243.1836867576886
    vertex 1281.279690455226 290.8049909012106 250.85780868569424
    vertex 1281.279690455226 284.3125264004401 247.10938255847043
  endloop
endfacet
facet normal -3.972364477829335e-15 -0.5000000000000125 0.8660254037844314
  outer loop
    vertex 1281.279690455226 290.8049909012106 250.85780868569424
    vertex 1284.454690455226 277.5130218184278 243.1836867576886
    vertex 1287.6861565578258 284.3125264004401 247.10938255847043
  endloop
endfacet
facet normal -3.972364477829335e-15 -0.5000000000000125 0.8660254037844314
  outer loop
    vertex 1281.279690455226 290.8049909012106 250.85780868569424
    vertex 1287.6861565578258 284.3125264004401 247.10938255847043
    vertex 1304.2314671504766 289.9621594479901 250.37119971929553
  endloop
endfacet
facet normal -3.972364477829335e-15 -0.5000000000000125 0.8660254037844314
  outer loop
    vertex 1287.6861565578258 284.3125264004401 247.10938255847043
    vertex 1284.454690455226 277.5130218184278 243.1836867576886
    vertex 1287.6296904552262 280.26265247544296 244.77118675768847
  endloop
endfacet
facet normal -3.972364477829335e-15 -0.5000000000000125 0.8660254037844314
  outer loop
    vertex 1287.6296904552262 280.26265247544296 244.77118675768847
    vertex 1284.454690455226 277.5130218184278 243.1836867576886
    vertex 1287.6296904552262 277.5130218184278 243.1836867576886
  endloop
endfacet
facet normal -3.972364477829335e-15 -0.5000000000000125 0.8660254037844314
  outer loop
    vertex 1304.2314671504766 289.9621594479901 250.37119971929553
    vertex 1287.6861565578258 284.3125264004401 247.10938255847043
    vertex 1297.8814671504767 283.69361212719076 246.75205223620443
  endloop
endfacet
facet normal -3.972364477829335e-15 -0.5000000000000125 0.8660254037844314
  outer loop
    vertex 1304.2314671504766 289.9621594479901 250.37119971929553
    vertex 1297.8814671504767 283.69361212719076 246.75205223620443
    vertex 1300.9223834026131 277.0615220324909 242.92301323473967
  endloop
endfacet
facet normal -3.972364477829335e-15 -0.5000000000000125 0.8660254037844314
  outer loop
    vertex 1304.2314671504766 289.9621594479901 250.37119971929553
    vertex 1300.9223834026131 277.0615220324909 242.92301323473967
    vertex 1304.2314671504766 283.69361212719076 246.75205223620443
  endloop
endfacet
facet normal -0.9999215723261323 0.012120018578035144 0.003155050951044247
  outer loop
    vertex 1287.6861565578258 284.3125264004401 247.10938255847043
    vertex 1287.6296904552262 280.26265247544296 244.77118675768847
    vertex 1287.6792463637832 283.28054799552575 248.88366304851775
  endloop
endfacet
facet normal 0.970043810825749 -0.1305338487799994 -0.20488025625066744
  outer loop
    vertex 1304.2314671504766 300.276582028725 243.7996476232293
    vertex 1304.2314671504766 297.6858924204544 245.45023461365253
    vertex 1300.9223834026131 277.0615220324909 242.92301323473967
  endloop
endfacet
facet normal -0.8492007043592059 0.4573222308032724 -0.2640351130606439
  outer loop
    vertex 1294.252904017374 291.42230568485223 250.0582435662001
    vertex 1294.434072271946 287.9730815439684 243.5013312374912
    vertex 1294.2529040173736 287.6296247277167 243.4891274515431
  endloop
endfacet
facet normal -0.8492007043592059 0.4573222308032724 -0.2640351130606439
  outer loop
    vertex 1294.434072271946 287.9730815439684 243.5013312374912
    vertex 1294.252904017374 291.42230568485223 250.0582435662001
    vertex 1294.434072271946 291.6635175197752 249.89335384966853
  endloop
endfacet
facet normal -0.5824765425116353 0.7039465946133722 -0.4064237558951591
  outer loop
    vertex 1293.739515383587 291.05563034056985 250.3236221462838
    vertex 1294.018381475036 291.2170417557395 250.2035308867984
    vertex 1293.739515383587 287.1046966007945 243.48040417165555
  endloop
endfacet
facet normal 0.5280705134758973 0.7354292281368592 -0.4246002628347348
  outer loop
    vertex 1291.79906523945 287.3052659205169 243.5734361305147
    vertex 1292.0904092336143 291.0531176760354 250.4272469993545
    vertex 1292.0748628325146 287.09349431486106 243.54964327688745
  endloop
endfacet
facet normal 0.5280705134758973 0.7354292281368592 -0.4246002628347348
  outer loop
    vertex 1292.0904092336143 291.0531176760354 250.4272469993545
    vertex 1291.79906523945 287.3052659205169 243.5734361305147
    vertex 1291.79906523945 291.2136654671899 250.34298272163147
  endloop
endfacet
facet normal -0.16290199554984566 -0.854457257494146 0.4933211276252629
  outer loop
    vertex 1292.9789178530007 293.82917900984677 248.60358680952476
    vertex 1292.9789178530007 291.02012690650065 243.73816584542064
    vertex 1293.3174181357535 290.94488163111106 243.71961504842065
  endloop
endfacet
facet normal 0.06958503124171005 0.8630490240711991 0.5003042129313332
  outer loop
    vertex 1287.6861565578258 284.3125264004401 247.10938255847043
    vertex 1297.8814671504767 282.68847062719067 248.49300838300064
    vertex 1297.8814671504767 283.69361212719076 246.75205223620443
  endloop
endfacet
facet normal 0.06958503124171005 0.8630490240711991 0.5003042129313332
  outer loop
    vertex 1297.8814671504767 282.68847062719067 248.49300838300064
    vertex 1287.6861565578258 284.3125264004401 247.10938255847043
    vertex 1287.6792463637832 283.28054799552575 248.88366304851775
  endloop
endfacet
facet normal -0.031728120787645954 0.050151137430328924 -0.9982375417533289
  outer loop
    vertex 1304.2314671504766 300.276582028725 243.7996476232293
    vertex 1297.6132996547499 276.9110221038458 242.8361220604238
    vertex 1292.6214950549881 277.21202196113666 243.00990440905616
  endloop
endfacet
facet normal -0.04187544636722668 0.05753081995451129 -0.9974651130475227
  outer loop
    vertex 1286.7446969085665 300.77703316834396 244.56263939492692
    vertex 1291.1739941942437 289.5204518725459 243.72744311400888
    vertex 1287.6296904552262 277.5130218184278 243.1836867576886
  endloop
endfacet
facet normal -0.04187544636722668 0.05753081995451129 -0.9974651130475227
  outer loop
    vertex 1291.1739941942437 289.5204518725459 243.72744311400888
    vertex 1286.7446969085665 300.77703316834396 244.56263939492692
    vertex 1291.2948406320904 289.90095973535466 243.7443163164897
  endloop
endfacet
facet normal -0.04187544636722668 0.05753081995451129 -0.9974651130475227
  outer loop
    vertex 1291.2948406320904 289.90095973535466 243.7443163164897
    vertex 1286.7446969085665 300.77703316834396 244.56263939492692
    vertex 1291.4760124458237 290.24441365540673 243.75651978597313
  endloop
endfacet
facet normal -0.04187544636722668 0.05753081995451129 -0.9974651130475227
  outer loop
    vertex 1291.4760124458237 290.24441365540673 243.75651978597313
    vertex 1286.7446969085665 300.77703316834396 244.56263939492692
    vertex 1291.7105396287648 290.53763177091486 243.76358584577557
  endloop
endfacet
facet normal -0.04187544636722668 0.05753081995451129 -0.9974651130475227
  outer loop
    vertex 1291.7105396287648 290.53763177091486 243.76358584577557
    vertex 1286.7446969085665 300.77703316834396 244.56263939492692
    vertex 1291.9894212938366 290.76931312410323 243.7652405643086
  endloop
endfacet
facet normal -0.04187544636722668 0.05753081995451129 -0.9974651130475227
  outer loop
    vertex 1291.9894212938366 290.76931312410323 243.7652405643086
    vertex 1286.7446969085665 300.77703316834396 244.56263939492692
    vertex 1304.2314671504766 300.276582028725 243.7996476232293
  endloop
endfacet
facet normal -0.04187544636722668 0.05753081995451129 -0.9974651130475227
  outer loop
    vertex 1287.6296904552262 277.5130218184278 243.1836867576886
    vertex 1291.1739941942437 289.5204518725459 243.72744311400888
    vertex 1291.1181102281787 289.11752587286594 243.7065496543322
  endloop
endfacet
facet normal -0.04187544636722668 0.05753081995451129 -0.9974651130475227
  outer loop
    vertex 1291.9894212938366 290.76931312410323 243.7652405643086
    vertex 1304.2314671504766 300.276582028725 243.7996476232293
    vertex 1292.3019022420542 290.93063185163504 243.7614264153537
  endloop
endfacet
facet normal -0.04187544636722668 0.05753081995451129 -0.9974651130475227
  outer loop
    vertex 1292.3019022420542 290.93063185163504 243.7614264153537
    vertex 1304.2314671504766 300.276582028725 243.7996476232293
    vertex 1292.6360238560399 291.01531390455796 243.7522835755013
  endloop
endfacet
facet normal -0.04187544636722668 0.05753081995451129 -0.9974651130475227
  outer loop
    vertex 1292.6360238560399 291.01531390455796 243.7522835755013
    vertex 1304.2314671504766 300.276582028725 243.7996476232293
    vertex 1292.9789178530007 291.02012690650065 243.73816584542064
  endloop
endfacet
facet normal -0.04187544636722668 0.05753081995451129 -0.9974651130475227
  outer loop
    vertex 1292.9789178530007 291.02012690650065 243.73816584542064
    vertex 1304.2314671504766 300.276582028725 243.7996476232293
    vertex 1293.3174181357535 290.94488163111106 243.71961504842065
  endloop
endfacet
facet normal -0.04187544636722668 0.05753081995451129 -0.9974651130475227
  outer loop
    vertex 1293.3174181357535 290.94488163111106 243.71961504842065
    vertex 1304.2314671504766 300.276582028725 243.7996476232293
    vertex 1293.638507229583 290.79248139623695 243.69734513711177
  endloop
endfacet
facet normal -0.04187544636722668 0.05753081995451129 -0.9974651130475227
  outer loop
    vertex 1293.638507229583 290.79248139623695 243.69734513711177
    vertex 1304.2314671504766 300.276582028725 243.7996476232293
    vertex 1293.9298495719347 290.56877136488083 243.67221111303428
  endloop
endfacet
facet normal -0.04187544636722668 0.05753081995451129 -0.9974651130475227
  outer loop
    vertex 1293.9298495719347 290.56877136488083 243.67221111303428
    vertex 1304.2314671504766 300.276582028725 243.7996476232293
    vertex 1294.1802587889063 290.2823597609521 243.64517909777794
  endloop
endfacet
facet normal -0.04187544636722668 0.05753081995451129 -0.9974651130475227
  outer loop
    vertex 1294.1802587889063 290.2823597609521 243.64517909777794
    vertex 1304.2314671504766 300.276582028725 243.7996476232293
    vertex 1294.3800892806025 289.9442467241912 243.61728848695307
  endloop
endfacet
facet normal -0.04187544636722668 0.05753081995451129 -0.9974651130475227
  outer loop
    vertex 1294.3800892806025 289.9442467241912 243.61728848695307
    vertex 1304.2314671504766 300.276582028725 243.7996476232293
    vertex 1294.5216820791104 289.5674260947794 243.58961026436148
  endloop
endfacet
facet normal -0.04187544636722668 0.05753081995451129 -0.9974651130475227
  outer loop
    vertex 1294.5216820791104 289.5674260947794 243.58961026436148
    vertex 1304.2314671504766 300.276582028725 243.7996476232293
    vertex 1294.5995807120714 289.1663764450512 243.56320858386835
  endloop
endfacet
facet normal -0.04187544636722668 0.05753081995451129 -0.9974651130475227
  outer loop
    vertex 1294.5995807120714 289.1663764450512 243.56320858386835
    vertex 1304.2314671504766 300.276582028725 243.7996476232293
    vertex 1294.6108130978046 288.75651180950814 243.53909725465505
  endloop
endfacet
facet normal -0.04187544636722668 0.05753081995451129 -0.9974651130475227
  outer loop
    vertex 1287.6296904552262 277.5130218184278 243.1836867576886
    vertex 1294.2529040173736 287.6296247277167 243.4891274515431
    vertex 1304.2314671504766 300.276582028725 243.7996476232293
  endloop
endfacet
facet normal -0.04187544636722668 0.05753081995451129 -0.9974651130475227
  outer loop
    vertex 1294.2529040173736 287.6296247277167 243.4891274515431
    vertex 1287.6296904552262 277.5130218184278 243.1836867576886
    vertex 1294.018381475036 287.3363991732211 243.48206076786073
  endloop
endfacet
facet normal -0.04187544636722668 0.05753081995451129 -0.9974651130475227
  outer loop
    vertex 1294.018381475036 287.3363991732211 243.48206076786073
    vertex 1287.6296904552262 277.5130218184278 243.1836867576886
    vertex 1293.739515383587 287.1046966007945 243.48040417165555
  endloop
endfacet
facet normal -0.04187544636722668 0.05753081995451129 -0.9974651130475227
  outer loop
    vertex 1293.739515383587 287.1046966007945 243.48040417165555
    vertex 1287.6296904552262 277.5130218184278 243.1836867576886
    vertex 1293.4270106619822 286.9434094276884 243.48422113862742
  endloop
endfacet
facet normal -0.04187544636722668 0.05753081995451129 -0.9974651130475227
  outer loop
    vertex 1293.4270106619822 286.9434094276884 243.48422113862742
    vertex 1287.6296904552262 277.5130218184278 243.1836867576886
    vertex 1293.0928890479963 286.85872737476546 243.49336397847964
  endloop
endfacet
facet normal -0.04187544636722668 0.05753081995451129 -0.9974651130475227
  outer loop
    vertex 1293.0928890479963 286.85872737476546 243.49336397847964
    vertex 1287.6296904552262 277.5130218184278 243.1836867576886
    vertex 1292.7499950510357 286.8539143728225 243.50748170856022
  endloop
endfacet
facet normal -0.04187544636722668 0.05753081995451129 -0.9974651130475227
  outer loop
    vertex 1292.7499950510357 286.8539143728225 243.50748170856022
    vertex 1287.6296904552262 277.5130218184278 243.1836867576886
    vertex 1292.4114972460018 286.9291612948002 243.5260324965113
  endloop
endfacet
facet normal -0.04187544636722668 0.05753081995451129 -0.9974651130475227
  outer loop
    vertex 1292.4114972460018 286.9291612948002 243.5260324965113
    vertex 1287.6296904552262 277.5130218184278 243.1836867576886
    vertex 1292.0748628325146 287.09349431486106 243.54964327688745
  endloop
endfacet
facet normal -0.04187544636722668 0.05753081995451129 -0.9974651130475227
  outer loop
    vertex 1292.0748628325146 287.09349431486106 243.54964327688745
    vertex 1287.6296904552262 277.5130218184278 243.1836867576886
    vertex 1291.79906523945 287.3052659205169 243.5734361305147
  endloop
endfacet
facet normal -0.04187544636722668 0.05753081995451129 -0.9974651130475227
  outer loop
    vertex 1291.79906523945 287.3052659205169 243.5734361305147
    vertex 1287.6296904552262 277.5130218184278 243.1836867576886
    vertex 1291.5486598964735 287.59168536040977 243.60046843508886
  endloop
endfacet
facet normal -0.04187544636722668 0.05753081995451129 -0.9974651130475227
  outer loop
    vertex 1291.5486598964735 287.59168536040977 243.60046843508886
    vertex 1287.6296904552262 277.5130218184278 243.1836867576886
    vertex 1291.3488302306832 287.9297989460329 243.62835904289773
  endloop
endfacet
facet normal -0.04187544636722668 0.05753081995451129 -0.9974651130475227
  outer loop
    vertex 1291.3488302306832 287.9297989460329 243.62835904289773
    vertex 1287.6296904552262 277.5130218184278 243.1836867576886
    vertex 1291.2072374321754 288.30661957544515 243.65603726548864
  endloop
endfacet
facet normal -0.04187544636722668 0.05753081995451129 -0.9974651130475227
  outer loop
    vertex 1291.2072374321754 288.30661957544515 243.65603726548864
    vertex 1287.6296904552262 277.5130218184278 243.1836867576886
    vertex 1291.1293338437774 288.70766593199716 243.68243896407998
  endloop
endfacet
facet normal -0.04187544636722668 0.05753081995451129 -0.9974651130475227
  outer loop
    vertex 1291.1293338437774 288.70766593199716 243.68243896407998
    vertex 1287.6296904552262 277.5130218184278 243.1836867576886
    vertex 1291.1181102281787 289.11752587286594 243.7065496543322
  endloop
endfacet
facet normal -0.04187544636722668 0.05753081995451129 -0.9974651130475227
  outer loop
    vertex 1304.2314671504766 300.276582028725 243.7996476232293
    vertex 1294.2529040173736 287.6296247277167 243.4891274515431
    vertex 1294.434072271946 287.9730815439684 243.5013312374912
  endloop
endfacet
facet normal -0.04187544636722668 0.05753081995451129 -0.9974651130475227
  outer loop
    vertex 1304.2314671504766 300.276582028725 243.7996476232293
    vertex 1294.434072271946 287.9730815439684 243.5013312374912
    vertex 1294.5549291317393 288.35358580982825 243.51820379497804
  endloop
endfacet
facet normal -0.04187544636722668 0.05753081995451129 -0.9974651130475227
  outer loop
    vertex 1304.2314671504766 300.276582028725 243.7996476232293
    vertex 1294.5549291317393 288.35358580982825 243.51820379497804
    vertex 1294.6108130978046 288.75651180950814 243.53909725465505
  endloop
endfacet
facet normal -0.16290199554977278 -0.8544572574941542 0.49332112762527275
  outer loop
    vertex 1293.3174181357535 293.7335458784229 248.54972321001586
    vertex 1292.9789178530007 293.82917900984677 248.60358680952476
    vertex 1293.3174181357535 290.94488163111106 243.71961504842065
  endloop
endfacet
facet normal -0.16290199554977278 -0.8544572574941542 0.49332112762527275
  outer loop
    vertex 1292.9789178530007 293.82917900984677 248.60358680952476
    vertex 1293.3174181357535 293.7335458784229 248.54972321001586
    vertex 1293.3174181357535 293.77315965035734 248.61833627568555
  endloop
endfacet
facet normal -0.5800114010643748 0.7010401629525846 -0.41488488109685906
  outer loop
    vertex 1294.252904017374 291.42230568485223 250.0582435662001
    vertex 1294.018381475036 287.3363991732211 243.48206076786073
    vertex 1293.739515383587 287.1046966007945 243.48040417165555
  endloop
endfacet
facet normal 0.9983460690758219 -0.04978799825902339 -0.028745114197267205
  outer loop
    vertex 1297.8814671504767 283.69361212719076 246.75205223620443
    vertex 1297.8814671504767 282.68847062719067 248.49300838300064
    vertex 1297.6132996547499 279.6606527608614 244.42362206042364
  endloop
endfacet
facet normal -0.031728120787629606 0.05015113743032241 -0.9982375417533297
  outer loop
    vertex 1304.2314671504766 300.276582028725 243.7996476232293
    vertex 1292.6214950549881 277.21202196113666 243.00990440905616
    vertex 1287.6296904552262 277.5130218184278 243.1836867576886
  endloop
endfacet
facet normal 0.024556271154958224 -0.865514352433276 0.5002818158587927
  outer loop
    vertex 1292.9789178530007 293.82917900984677 248.60358680952476
    vertex 1292.6360238560399 291.01531390455796 243.7522835755013
    vertex 1292.9789178530007 291.02012690650065 243.73816584542064
  endloop
endfacet
facet normal 0.024556271154958224 -0.865514352433276 0.5002818158587927
  outer loop
    vertex 1292.6360238560399 291.01531390455796 243.7522835755013
    vertex 1292.9789178530007 293.82917900984677 248.60358680952476
    vertex 1292.6360238560399 293.8243175558946 248.606393571272
  endloop
endfacet
facet normal -0.6835766069700026 -0.6320935585833276 0.36493938620111166
  outer loop
    vertex 1294.1802587889063 293.29769159635714 248.8678870383799
    vertex 1293.9298495719347 290.56877136488083 243.67221111303428
    vertex 1294.1802587889063 290.2823597609521 243.64517909777794
  endloop
endfacet
facet normal -0.6835766069700026 -0.6320935585833276 0.36493938620111166
  outer loop
    vertex 1293.9298495719347 290.56877136488083 243.67221111303428
    vertex 1294.1802587889063 293.29769159635714 248.8678870383799
    vertex 1293.9298495719347 293.4581642111353 248.67678632577235
  endloop
endfacet
facet normal -0.6835766069700026 -0.6320935585833276 0.36493938620111166
  outer loop
    vertex 1293.9298495719347 293.4581642111353 248.67678632577235
    vertex 1294.1802587889063 293.29769159635714 248.8678870383799
    vertex 1293.9298495719347 293.5022098893855 248.7530756783562
  endloop
endfacet
facet normal -2.324918574184923e-14 -0.5000000000000369 0.8660254037844173
  outer loop
    vertex 1296.8670459111395 278.1989563716975 248.65061677607625
    vertex 1288.4516156489628 280.0835232903268 249.7386719938526
    vertex 1288.432430941471 278.70755358367467 248.94425551332003
  endloop
endfacet
facet normal -2.324918574184923e-14 -0.5000000000000369 0.8660254037844173
  outer loop
    vertex 1288.4516156489628 280.0835232903268 249.7386719938526
    vertex 1296.8670459111395 278.1989563716975 248.65061677607625
    vertex 1288.4696934089602 281.380100271291 250.48725106283763
  endloop
endfacet
facet normal -2.324918574184923e-14 -0.5000000000000369 0.8660254037844173
  outer loop
    vertex 1288.4696934089602 281.380100271291 250.48725106283763
    vertex 1296.8670459111395 278.1989563716975 248.65061677607625
    vertex 1292.7283085567744 281.12157772062403 250.33799299861806
  endloop
endfacet
facet normal -2.324918574184923e-14 -0.5000000000000369 0.8660254037844173
  outer loop
    vertex 1292.7283085567744 281.12157772062403 250.33799299861806
    vertex 1296.8670459111395 278.1989563716975 248.65061677607625
    vertex 1297.0439621879354 280.8595926043833 250.18673582123301
  endloop
endfacet
facet normal 0.8128542745991777 0.5044313096937831 -0.2912335524393772
  outer loop
    vertex 1291.3488302306832 287.9297989460329 243.62835904289773
    vertex 1291.5486598964735 291.4173143575894 250.22665222911294
    vertex 1291.5486598964735 287.59168536040977 243.60046843508886
  endloop
endfacet
facet normal 0.8128542745991777 0.5044313096937831 -0.2912335524393772
  outer loop
    vertex 1291.5486598964735 291.4173143575894 250.22665222911294
    vertex 1291.3488302306832 287.9297989460329 243.62835904289773
    vertex 1291.3488302306832 291.6588225593622 250.08721740380807
  endloop
endfacet
facet normal 0.9866443553945287 -0.1410662503084507 0.08144463758915449
  outer loop
    vertex 1291.1739941942437 289.5204518725459 243.72744311400888
    vertex 1291.1181102281787 292.50016516081996 249.56545276474702
    vertex 1291.1181102281787 289.11752587286594 243.7065496543322
  endloop
endfacet
facet normal 0.9866443553945287 -0.1410662503084507 0.08144463758915449
  outer loop
    vertex 1291.1181102281787 292.50016516081996 249.56545276474702
    vertex 1291.1739941942437 289.5204518725459 243.72744311400888
    vertex 1291.1739941942437 292.78445735364625 249.38086644345816
  endloop
endfacet
facet normal 0.8491941420017088 -0.4573313698976764 0.2640403895192864
  outer loop
    vertex 1291.4760124458237 290.24441365540673 243.75651978597313
    vertex 1291.2948406320904 293.0523606754486 249.20270285975295
    vertex 1291.2948406320904 289.90095973535466 243.7443163164897
  endloop
endfacet
facet normal 0.8491941420017088 -0.4573313698976764 0.2640403895192864
  outer loop
    vertex 1291.2948406320904 293.0523606754486 249.20270285975295
    vertex 1291.4760124458237 290.24441365540673 243.75651978597313
    vertex 1291.4760124458237 293.293570433659 249.03781424614974
  endloop
endfacet
facet normal -0.4126906469818536 0.7888376400884268 -0.4554356238519568
  outer loop
    vertex 1293.4270106619822 286.9434094276884 243.48422113862742
    vertex 1293.739515383587 291.05563034056985 250.3236221462838
    vertex 1293.739515383587 287.1046966007945 243.48040417165555
  endloop
endfacet
facet normal -0.4126906469818536 0.7888376400884268 -0.4554356238519568
  outer loop
    vertex 1293.739515383587 291.05563034056985 250.3236221462838
    vertex 1293.4270106619822 286.9434094276884 243.48422113862742
    vertex 1293.4270106619826 290.9442661609084 250.41390827436882
  endloop
endfacet
facet normal 0.6835925530494563 0.6320806246528173 -0.3649319187928493
  outer loop
    vertex 1291.5486598964735 287.59168536040977 243.60046843508886
    vertex 1291.79906523945 291.2136654671899 250.34298272163147
    vertex 1291.79906523945 287.3052659205169 243.5734361305147
  endloop
endfacet
facet normal 0.6835925530494563 0.6320806246528173 -0.3649319187928493
  outer loop
    vertex 1291.79906523945 291.2136654671899 250.34298272163147
    vertex 1291.5486598964735 287.59168536040977 243.60046843508886
    vertex 1291.5486598964735 291.4173143575894 250.22665222911294
  endloop
endfacet
facet normal -0.9994639121177527 -0.028353417443191323 0.01636985319327234
  outer loop
    vertex 1294.6108130978046 292.2157104048494 249.53060497525624
    vertex 1294.5995807120714 289.1663764450512 243.56320858386835
    vertex 1294.6108130978046 288.75651180950814 243.53909725465505
  endloop
endfacet
facet normal -0.9994639121177527 -0.028353417443191323 0.01636985319327234
  outer loop
    vertex 1294.5995807120714 289.1663764450512 243.56320858386835
    vertex 1294.6108130978046 292.2157104048494 249.53060497525624
    vertex 1294.5995807120714 292.50546966717076 249.34668769578863
  endloop
endfacet
facet normal -0.7294603150691092 0.5965716787251057 -0.33464889194853936
  outer loop
    vertex 1294.252904017374 291.42230568485223 250.0582435662001
    vertex 1293.739515383587 287.1046966007945 243.48040417165555
    vertex 1294.018381475036 291.2170417557395 250.2035308867984
  endloop
endfacet
facet normal -0.5286348248038503 -0.735971758311672 0.4229548356175024
  outer loop
    vertex 1293.638225110522 293.61509990152683 248.60855123170117
    vertex 1293.638507229583 290.79248139623695 243.69734513711177
    vertex 1293.9298495719347 290.56877136488083 243.67221111303428
  endloop
endfacet
facet normal 0.9994647365770275 0.02833161227780433 -0.01635726397516633
  outer loop
    vertex 1291.1181102281787 289.11752587286594 243.7065496543322
    vertex 1291.1293338437774 292.2104092899884 249.74936842599504
    vertex 1291.1293338437774 288.70766593199716 243.68243896407998
  endloop
endfacet
facet normal 0.9994647365770275 0.02833161227780433 -0.01635726397516633
  outer loop
    vertex 1291.1293338437774 292.2104092899884 249.74936842599504
    vertex 1291.1181102281787 289.11752587286594 243.7065496543322
    vertex 1291.1181102281787 292.50016516081996 249.56545276474702
  endloop
endfacet
facet normal 0.2348223226355472 -0.8415696350656419 0.48643501737388267
  outer loop
    vertex 1292.6360238560399 293.8243175558946 248.606393571272
    vertex 1292.3019022420542 290.93063185163504 243.7614264153537
    vertex 1292.6360238560399 291.01531390455796 243.7522835755013
  endloop
endfacet
facet normal 0.2348223226355472 -0.8415696350656419 0.48643501737388267
  outer loop
    vertex 1292.3019022420542 290.93063185163504 243.7614264153537
    vertex 1292.6360238560399 293.8243175558946 248.606393571272
    vertex 1292.3019022420542 293.7716120343157 248.6821484350521
  endloop
endfacet
facet normal -0.0327244979472393 0.8655615694019553 -0.499732205094414
  outer loop
    vertex 1292.7499950510357 286.8539143728225 243.50748170856022
    vertex 1293.0928890479966 290.8872228007655 250.47092273437025
    vertex 1293.0928890479963 286.85872737476546 243.49336397847964
  endloop
endfacet
facet normal -0.0327244979472393 0.8655615694019553 -0.499732205094414
  outer loop
    vertex 1293.0928890479966 290.8872228007655 250.47092273437025
    vertex 1292.7499950510357 286.8539143728225 243.50748170856022
    vertex 1292.7499950510357 290.88669918537676 250.4924698998968
  endloop
endfacet
facet normal 0.0 0.49964162701186304 0.8662322116828365
  outer loop
    vertex 1287.6861565578258 290.8049909012106 250.85780868569424
    vertex 1281.1631010925173 297.494822069478 246.99912266101475
    vertex 1281.279690455226 290.8049909012106 250.85780868569424
  endloop
endfacet
facet normal 0.3571229506419596 0.809025718127317 -0.4668410709581577
  outer loop
    vertex 1292.0748628325146 287.09349431486106 243.54964327688745
    vertex 1292.4114972460018 290.9427196877698 250.47771955227873
    vertex 1292.4114972460018 286.9291612948002 243.5260324965113
  endloop
endfacet
facet normal 0.3571229506419596 0.809025718127317 -0.4668410709581577
  outer loop
    vertex 1292.4114972460018 290.9427196877698 250.47771955227873
    vertex 1292.0748628325146 287.09349431486106 243.54964327688745
    vertex 1292.0904092336143 291.0531176760354 250.4272469993545
  endloop
endfacet
facet normal 0.16290721526087137 0.8544565111297113 -0.4933206967115709
  outer loop
    vertex 1292.4114972460018 286.9291612948002 243.5260324965113
    vertex 1292.7499950510357 290.88669918537676 250.4924698998968
    vertex 1292.7499950510357 286.8539143728225 243.50748170856022
  endloop
endfacet
facet normal 0.16290721526087137 0.8544565111297113 -0.4933206967115709
  outer loop
    vertex 1292.7499950510357 290.88669918537676 250.4924698998968
    vertex 1292.4114972460018 286.9291612948002 243.5260324965113
    vertex 1292.4114972460018 290.9427196877698 250.47771955227873
  endloop
endfacet
facet normal -0.38048913019151925 -0.8008876427780324 0.46239269614857487
  outer loop
    vertex 1293.3174181357535 293.77315965035734 248.61833627568555
    vertex 1293.3174181357535 293.7335458784229 248.54972321001586
    vertex 1293.638225110522 293.61509990152683 248.60855123170117
  endloop
endfacet
facet normal 0.0 -0.5073114847692428 0.8617627616816744
  outer loop
    vertex 1294.0440851002672 290.4776085663396 250.66508184046975
    vertex 1287.6861565578258 290.8049909012106 250.85780868569424
    vertex 1281.279690455226 290.8049909012106 250.85780868569424
  endloop
endfacet
facet normal -0.4931797747354792 -0.6811967675121344 0.5410588449724127
  outer loop
    vertex 1293.9298495719347 293.4581642111353 248.67678632577235
    vertex 1293.638507229583 293.6627584424754 248.66881081299533
    vertex 1293.638225110522 293.61509990152683 248.60855123170117
  endloop
endfacet
facet normal -0.9108614224279964 -0.3574193641219447 0.20635616608939064
  outer loop
    vertex 1294.5216820791104 292.7895586121305 249.1705074931345
    vertex 1294.3800892806025 289.9442467241912 243.61728848695307
    vertex 1294.5216820791104 289.5674260947794 243.58961026436148
  endloop
endfacet
facet normal -0.9108614224279964 -0.3574193641219447 0.20635616608939064
  outer loop
    vertex 1294.3800892806025 289.9442467241912 243.61728848695307
    vertex 1294.5216820791104 292.7895586121305 249.1705074931345
    vertex 1294.3800892806025 293.0570586836032 249.00883695506215
  endloop
endfacet
facet normal -0.38052904527418824 -0.801790950017637 0.4607916212047805
  outer loop
    vertex 1293.638225110522 293.61509990152683 248.60855123170117
    vertex 1293.3174181357535 293.7335458784229 248.54972321001586
    vertex 1293.638507229583 290.79248139623695 243.69734513711177
  endloop
endfacet
facet normal -0.9738813870274634 -0.19663744048654117 0.11352867919766371
  outer loop
    vertex 1294.5995807120714 292.50546966717076 249.34668769578863
    vertex 1294.5216820791104 289.5674260947794 243.58961026436148
    vertex 1294.5995807120714 289.1663764450512 243.56320858386835
  endloop
endfacet
facet normal -0.9738813870274634 -0.19663744048654117 0.11352867919766371
  outer loop
    vertex 1294.5216820791104 289.5674260947794 243.58961026436148
    vertex 1294.5995807120714 292.50546966717076 249.34668769578863
    vertex 1294.5216820791104 292.7895586121305 249.1705074931345
  endloop
endfacet
facet normal 0.4127793737078906 -0.7888028216740834 0.45541552143106184
  outer loop
    vertex 1292.3019022420542 293.7716120343157 248.6821484350521
    vertex 1291.9894212938366 290.76931312410323 243.7652405643086
    vertex 1292.3019022420542 290.93063185163504 243.7614264153537
  endloop
endfacet
facet normal 0.4127793737078906 -0.7888028216740834 0.45541552143106184
  outer loop
    vertex 1291.9894212938366 290.76931312410323 243.7652405643086
    vertex 1292.3019022420542 293.7716120343157 248.6821484350521
    vertex 1291.9894212938366 293.66022535456193 248.77244742768474
  endloop
endfacet
facet normal -0.9866443553945397 0.1410662503083927 -0.08144463758912138
  outer loop
    vertex 1294.5549291317393 291.93141821202323 249.7151912965452
    vertex 1294.6108130978046 288.75651180950814 243.53909725465505
    vertex 1294.5549291317393 288.35358580982825 243.51820379497804
  endloop
endfacet
facet normal -0.9866443553945397 0.1410662503083927 -0.08144463758912138
  outer loop
    vertex 1294.6108130978046 288.75651180950814 243.53909725465505
    vertex 1294.5549291317393 291.93141821202323 249.7151912965452
    vertex 1294.6108130978046 292.2157104048494 249.53060497525624
  endloop
endfacet
facet normal -0.9358990940593971 0.30507321138392335 -0.17613410071505112
  outer loop
    vertex 1294.434072271946 291.6635175197752 249.89335384966853
    vertex 1294.5549291317393 288.35358580982825 243.51820379497804
    vertex 1294.434072271946 287.9730815439684 243.5013312374912
  endloop
endfacet
facet normal -0.9358990940593971 0.30507321138392335 -0.17613410071505112
  outer loop
    vertex 1294.5549291317393 288.35358580982825 243.51820379497804
    vertex 1294.434072271946 291.6635175197752 249.89335384966853
    vertex 1294.5549291317393 291.93141821202323 249.7151912965452
  endloop
endfacet
facet normal 0.9359101187600356 -0.30504784411946256 0.17611945491808775
  outer loop
    vertex 1291.2948406320904 289.90095973535466 243.7443163164897
    vertex 1291.1739941942437 292.78445735364625 249.38086644345816
    vertex 1291.1739941942437 289.5204518725459 243.72744311400888
  endloop
endfacet
facet normal 0.9359101187600356 -0.30504784411946256 0.17611945491808775
  outer loop
    vertex 1291.1739941942437 292.78445735364625 249.38086644345816
    vertex 1291.2948406320904 289.90095973535466 243.7443163164897
    vertex 1291.2948406320904 293.0523606754486 249.20270285975295
  endloop
endfacet
facet normal 0.7298629588151333 -0.5920093293286967 0.341796745650695
  outer loop
    vertex 1291.7105396287648 290.53763177091486 243.76358584577557
    vertex 1291.4760124458237 293.293570433659 249.03781424614974
    vertex 1291.4760124458237 290.24441365540673 243.75651978597313
  endloop
endfacet
facet normal 0.7298629588151333 -0.5920093293286967 0.341796745650695
  outer loop
    vertex 1291.4760124458237 293.293570433659 249.03781424614974
    vertex 1291.7105396287648 290.53763177091486 243.76358584577557
    vertex 1291.7105396287648 293.4988290664423 248.89253001286568
  endloop
endfacet
facet normal -0.729878057326533 0.5919953682884332 -0.34178868524029377
  outer loop
    vertex 1294.252904017374 291.42230568485223 250.0582435662001
    vertex 1294.2529040173736 287.6296247277167 243.4891274515431
    vertex 1294.018381475036 287.3363991732211 243.48206076786073
  endloop
endfacet
facet normal 0.9108614224280523 0.35741936412183933 -0.20635616608932558
  outer loop
    vertex 1291.2072374321754 288.30661957544515 243.65603726548864
    vertex 1291.3488302306832 291.6588225593622 250.08721740380807
    vertex 1291.3488302306832 287.9297989460329 243.62835904289773
  endloop
endfacet
facet normal 0.9108614224280523 0.35741936412183933 -0.20635616608932558
  outer loop
    vertex 1291.3488302306832 291.6588225593622 250.08721740380807
    vertex 1291.2072374321754 288.30661957544515 243.65603726548864
    vertex 1291.2072374321754 291.9263226308348 249.92554686573538
  endloop
endfacet
facet normal -0.22708177903465782 0.8434010903614305 -0.48693784655498407
  outer loop
    vertex 1293.0928890479963 286.85872737476546 243.49336397847964
    vertex 1293.4270106619826 290.9442661609084 250.41390827436882
    vertex 1293.4270106619822 286.9434094276884 243.48422113862742
  endloop
endfacet
facet normal -0.22708177903465782 0.8434010903614305 -0.48693784655498407
  outer loop
    vertex 1293.4270106619826 290.9442661609084 250.41390827436882
    vertex 1293.0928890479963 286.85872737476546 243.49336397847964
    vertex 1293.0928890479966 290.8872228007655 250.47092273437025
  endloop
endfacet
facet normal 0.9738777629961836 0.1966509014883028 -0.11353645091065342
  outer loop
    vertex 1291.1293338437774 288.70766593199716 243.68243896407998
    vertex 1291.2072374321754 291.9263226308348 249.92554686573538
    vertex 1291.2072374321754 288.30661957544515 243.65603726548864
  endloop
endfacet
facet normal 0.9738777629961836 0.1966509014883028 -0.11353645091065342
  outer loop
    vertex 1291.2072374321754 291.9263226308348 249.92554686573538
    vertex 1291.1293338437774 288.70766593199716 243.68243896407998
    vertex 1291.1293338437774 292.2104092899884 249.74936842599504
  endloop
endfacet
facet normal 0.5824214660661573 -0.7039807716827289 0.40644348803534486
  outer loop
    vertex 1291.9894212938366 290.76931312410323 243.7652405643086
    vertex 1291.7105396287648 293.4988290664423 248.89253001286568
    vertex 1291.7105396287648 290.53763177091486 243.76358584577557
  endloop
endfacet
facet normal 0.5824214660661573 -0.7039807716827289 0.40644348803534486
  outer loop
    vertex 1291.7105396287648 293.4988290664423 248.89253001286568
    vertex 1291.9894212938366 290.76931312410323 243.7652405643086
    vertex 1291.9894212938366 293.66022535456193 248.77244742768474
  endloop
endfacet
facet normal -0.8128526632568314 -0.5044332571086165 0.2912346767798588
  outer loop
    vertex 1294.3800892806025 293.0570586836032 249.00883695506215
    vertex 1294.1802587889063 290.2823597609521 243.64517909777794
    vertex 1294.3800892806025 289.9442467241912 243.61728848695307
  endloop
endfacet
facet normal -0.8128526632568314 -0.5044332571086165 0.2912346767798588
  outer loop
    vertex 1294.1802587889063 290.2823597609521 243.64517909777794
    vertex 1294.3800892806025 293.0570586836032 249.00883695506215
    vertex 1294.1802587889063 293.29769159635714 248.8678870383799
  endloop
endfacet
facet normal -0.3445933627671036 -0.7355181758461287 0.5833253186146155
  outer loop
    vertex 1293.638507229583 293.6627584424754 248.66881081299533
    vertex 1293.3174181357535 293.77315965035734 248.61833627568555
    vertex 1293.638225110522 293.61509990152683 248.60855123170117
  endloop
endfacet
facet normal -0.3522453035616298 -0.8105198545310818 0.4679538561970502
  outer loop
    vertex 1293.3174181357535 293.7335458784229 248.54972321001586
    vertex 1293.3174181357535 290.94488163111106 243.71961504842065
    vertex 1293.638507229583 290.79248139623695 243.69734513711177
  endloop
endfacet
facet normal 0.052105332941175024 0.5366011138877008 0.842225788523225
  outer loop
    vertex 1292.9789178530007 293.82917900984677 248.60358680952476
    vertex 1304.2314671504766 297.6858924204544 245.45023461365253
    vertex 1281.1631010925173 297.494822069478 246.99912266101475
  endloop
endfacet
facet normal 0.052105332941175024 0.5366011138877008 0.842225788523225
  outer loop
    vertex 1304.2314671504766 297.6858924204544 245.45023461365253
    vertex 1292.9789178530007 293.82917900984677 248.60358680952476
    vertex 1293.3174181357535 293.77315965035734 248.61833627568555
  endloop
endfacet
facet normal 0.052105332941175024 0.5366011138877008 0.842225788523225
  outer loop
    vertex 1304.2314671504766 297.6858924204544 245.45023461365253
    vertex 1293.3174181357535 293.77315965035734 248.61833627568555
    vertex 1293.638507229583 293.6627584424754 248.66881081299533
  endloop
endfacet
facet normal 0.052105332941175024 0.5366011138877008 0.842225788523225
  outer loop
    vertex 1304.2314671504766 297.6858924204544 245.45023461365253
    vertex 1293.638507229583 293.6627584424754 248.66881081299533
    vertex 1293.9298495719347 293.5022098893855 248.7530756783562
  endloop
endfacet
facet normal 0.052105332941175024 0.5366011138877008 0.842225788523225
  outer loop
    vertex 1304.2314671504766 297.6858924204544 245.45023461365253
    vertex 1293.9298495719347 293.5022098893855 248.7530756783562
    vertex 1294.1802587889063 293.29769159635714 248.8678870383799
  endloop
endfacet
facet normal 0.052105332941175024 0.5366011138877008 0.842225788523225
  outer loop
    vertex 1304.2314671504766 297.6858924204544 245.45023461365253
    vertex 1294.1802587889063 293.29769159635714 248.8678870383799
    vertex 1294.3800892806025 293.0570586836032 249.00883695506215
  endloop
endfacet
facet normal 0.052105332941175024 0.5366011138877008 0.842225788523225
  outer loop
    vertex 1304.2314671504766 297.6858924204544 245.45023461365253
    vertex 1294.3800892806025 293.0570586836032 249.00883695506215
    vertex 1294.5216820791104 292.7895586121305 249.1705074931345
  endloop
endfacet
facet normal 0.052105332941175024 0.5366011138877008 0.842225788523225
  outer loop
    vertex 1304.2314671504766 297.6858924204544 245.45023461365253
    vertex 1294.5216820791104 292.7895586121305 249.1705074931345
    vertex 1294.5995807120714 292.50546966717076 249.34668769578863
  endloop
endfacet
facet normal 0.051405462639096754 0.5318604175366872 0.8452703559622574
  outer loop
    vertex 1298.72096008634 290.2409735725482 250.5301649467479
    vertex 1294.252904017374 291.42230568485223 250.0582435662001
    vertex 1294.018381475036 291.2170417557395 250.2035308867984
  endloop
endfacet
facet normal 0.051405462639096754 0.5318604175366872 0.8452703559622574
  outer loop
    vertex 1294.252904017374 291.42230568485223 250.0582435662001
    vertex 1298.72096008634 290.2409735725482 250.5301649467479
    vertex 1304.2314671504766 289.9621594479901 250.37119971929553
  endloop
endfacet
endsolid Inmoov_Shoulder_Cover_Remix
