solid Inmoov_Shoulder_Cover_Remix
facet normal 0.05886903101119143 -0.3050214493022908 0.9505242514809045
  outer loop
    vertex 1214.3789985998894 323.7285885829706 249.903725289251
    vertex 1223.1723291100723 327.4269234711804 250.54591471282646
    vertex 1213.2897935306803 325.8522289382743 250.65265547735942
  endloop
endfacet
facet normal 0.05886903101119143 -0.3050214493022908 0.9505242514809045
  outer loop
    vertex 1223.1723291100723 327.4269234711804 250.54591471282646
    vertex 1214.3789985998894 323.7285885829706 249.903725289251
    vertex 1222.7282223772465 325.0589634551797 249.81354574763273
  endloop
endfacet
facet normal -0.4953057825856258 0.8684608987923318 -0.021162443291272197
  outer loop
    vertex 1217.131579643236 333.45519196612423 242.98382498737573
    vertex 1217.41881854115 333.7697544919288 249.1699805727406
    vertex 1217.4296125438013 333.62514716914853 242.9829758095407
  endloop
endfacet
facet normal -0.4953057825856258 0.8684608987923318 -0.021162443291272197
  outer loop
    vertex 1217.41881854115 333.7697544919288 249.1699805727406
    vertex 1217.131579643236 333.45519196612423 242.98382498737573
    vertex 1217.1205878417281 333.60244920144856 249.2842059006895
  endloop
endfacet
facet normal 0.613039200641015 0.7898610429523794 -0.017391702148001037
  outer loop
    vertex 1215.2146626241836 333.78253479812344 242.98879190488242
    vertex 1215.4752223771932 333.7128256580918 249.00734073724493
    vertex 1215.485723613014 333.5721405344889 242.98814673580776
  endloop
endfacet
facet normal 0.613039200641015 0.7898610429523794 -0.017391702148001037
  outer loop
    vertex 1215.4752223771932 333.7128256580918 249.00734073724493
    vertex 1215.2146626241836 333.78253479812344 242.98879190488242
    vertex 1215.2045093244974 333.91855861913893 248.80855270508724
  endloop
endfacet
facet normal -0.12515894456366436 0.9918606948273689 -0.02340086862231208
  outer loop
    vertex 1216.4657351805868 333.3037290680905 242.98564264105323
    vertex 1216.7950297970622 333.49517475810393 249.3389661381169
    vertex 1216.8061155636371 333.34665867223015 242.98472547414858
  endloop
endfacet
facet normal -0.12515894456366436 0.9918606948273689 -0.02340086862231208
  outer loop
    vertex 1216.7950297970622 333.49517475810393 249.3389661381169
    vertex 1216.4657351805868 333.3037290680905 242.98564264105323
    vertex 1216.4546629092517 333.4520643581687 249.33214798132346
  endloop
endfacet
facet normal 0.9974894981299972 -0.07073319907402748 0.0033934744908986655
  outer loop
    vertex 1214.6926819964463 335.3482378055427 242.989629957936
    vertex 1214.6601660131562 335.1163505630922 247.7140578011741
    vertex 1214.6684080473526 335.00593197802397 242.98981356074563
  endloop
endfacet
facet normal 0.9974894981299972 -0.07073319907402748 0.0033934744908986655
  outer loop
    vertex 1214.6601660131562 335.1163505630922 247.7140578011741
    vertex 1214.6926819964463 335.3482378055427 242.989629957936
    vertex 1214.6849554881271 335.4517498869828 247.41838037386813
  endloop
endfacet
facet normal -0.9974906278816787 0.07071728310904621 -0.0033931044619351426
  outer loop
    vertex 1218.1338739393339 334.88187784997945 248.2363490054996
    vertex 1218.1673116980885 335.10134650661075 242.98050614814517
    vertex 1218.1430430934354 334.75903863370695 242.98068973750358
  endloop
endfacet
facet normal -0.9974906278816787 0.07071728310904621 -0.0033931044619351426
  outer loop
    vertex 1218.1673116980885 335.10134650661075 242.98050614814517
    vertex 1218.1338739393339 334.88187784997945 248.2363490054996
    vertex 1218.1586788119746 335.2170013373009 247.92878244987304
  endloop
endfacet
facet normal -0.9645095255387569 0.26393129592649484 -0.007851507852828605
  outer loop
    vertex 1218.0427967882792 334.55762416872824 248.5247121442769
    vertex 1218.1430430934354 334.75903863370695 242.98068973750358
    vertex 1218.0524684078682 334.42805341912333 242.98104513237192
  endloop
endfacet
facet normal -0.9645095255387569 0.26393129592649484 -0.007851507852828605
  outer loop
    vertex 1218.1430430934354 334.75903863370695 242.98068973750358
    vertex 1218.0427967882792 334.55762416872824 248.5247121442769
    vertex 1218.1338739393339 334.88187784997945 248.2363490054996
  endloop
endfacet
facet normal 0.7553821352318638 0.6551350892112456 -0.013994450926117782
  outer loop
    vertex 1214.9898389250593 334.04177122771864 242.98929750067092
    vertex 1215.2045093244974 333.91855861913893 248.80855270508724
    vertex 1215.2146626241836 333.78253479812344 242.98879190488242
  endloop
endfacet
facet normal 0.7553821352318638 0.6551350892112456 -0.013994450926117782
  outer loop
    vertex 1215.2045093244974 333.91855861913893 248.80855270508724
    vertex 1214.9898389250593 334.04177122771864 242.98929750067092
    vertex 1214.980102471984 334.17221055204334 248.57012636462017
  endloop
endfacet
facet normal -0.6142841042199951 -0.7888937643760806 0.017368587483602482
  outer loop
    vertex 1217.415264966011 336.5639233194129 246.5989124887965
    vertex 1217.3542775682708 336.6104307960206 246.55434175456125
    vertex 1217.3635254792816 336.52458282414534 242.9821407897946
  endloop
endfacet
facet normal -0.10030062273586601 0.676927964152101 0.7291833215506849
  outer loop
    vertex 1222.8770928847896 329.73337588449084 253.6666825201974
    vertex 1216.0246037251536 333.4980853825128 249.2301464073177
    vertex 1213.1369215532682 328.1812473858999 253.7668780202755
  endloop
endfacet
facet normal -0.10030062273586601 0.676927964152101 0.7291833215506849
  outer loop
    vertex 1216.0246037251536 333.4980853825128 249.2301464073177
    vertex 1222.8770928847896 329.73337588449084 253.6666825201974
    vertex 1216.1125567704298 333.4747703922304 249.26404477889113
  endloop
endfacet
facet normal -0.10030062273586601 0.676927964152101 0.7291833215506849
  outer loop
    vertex 1216.1125567704298 333.4747703922304 249.26404477889113
    vertex 1222.8770928847896 329.73337588449084 253.6666825201974
    vertex 1216.4546629092517 333.4520643581687 249.33214798132346
  endloop
endfacet
facet normal -0.10030062273586601 0.676927964152101 0.7291833215506849
  outer loop
    vertex 1216.4546629092517 333.4520643581687 249.33214798132346
    vertex 1222.8770928847896 329.73337588449084 253.6666825201974
    vertex 1216.7950297970622 333.49517475810393 249.3389661381169
  endloop
endfacet
facet normal -0.10030062273586601 0.676927964152101 0.7291833215506849
  outer loop
    vertex 1216.7950297970622 333.49517475810393 249.3389661381169
    vertex 1222.8770928847896 329.73337588449084 253.6666825201974
    vertex 1217.1205878417281 333.60244920144856 249.2842059006895
  endloop
endfacet
facet normal -0.10030062273586601 0.676927964152101 0.7291833215506849
  outer loop
    vertex 1217.1205878417281 333.60244920144856 249.2842059006895
    vertex 1222.8770928847896 329.73337588449084 253.6666825201974
    vertex 1217.41881854115 333.7697544919288 249.1699805727406
  endloop
endfacet
facet normal -0.10030062273586601 0.676927964152101 0.7291833215506849
  outer loop
    vertex 1217.41881854115 333.7697544919288 249.1699805727406
    vertex 1222.8770928847896 329.73337588449084 253.6666825201974
    vertex 1217.6782632329791 333.9906709871552 249.00067096932537
  endloop
endfacet
facet normal -0.10030062273586601 0.676927964152101 0.7291833215506849
  outer loop
    vertex 1217.6782632329791 333.9906709871552 249.00067096932537
    vertex 1222.8770928847896 329.73337588449084 253.6666825201974
    vertex 1217.8889627215854 334.2567012877659 248.78279224047023
  endloop
endfacet
facet normal -0.10030062273586601 0.676927964152101 0.7291833215506849
  outer loop
    vertex 1217.8889627215854 334.2567012877659 248.78279224047023
    vertex 1222.8770928847896 329.73337588449084 253.6666825201974
    vertex 1218.0427967882792 334.55762416872824 248.5247121442769
  endloop
endfacet
facet normal -0.10030062273586601 0.676927964152101 0.7291833215506849
  outer loop
    vertex 1218.0427967882792 334.55762416872824 248.5247121442769
    vertex 1222.8770928847896 329.73337588449084 253.6666825201974
    vertex 1218.1338739393339 334.88187784997945 248.2363490054996
  endloop
endfacet
facet normal -0.10030062273586601 0.676927964152101 0.7291833215506849
  outer loop
    vertex 1218.1338739393339 334.88187784997945 248.2363490054996
    vertex 1222.8770928847896 329.73337588449084 253.6666825201974
    vertex 1218.1586788119746 335.2170013373009 247.92878244987304
  endloop
endfacet
facet normal -0.10030062273586601 0.676927964152101 0.7291833215506849
  outer loop
    vertex 1218.0377575238886 335.7916124130858 247.37386853153683
    vertex 1222.8770928847896 329.73337588449084 253.6666825201974
    vertex 1218.018344872822 335.87590068241167 247.29220406609326
  endloop
endfacet
facet normal -0.10030062273586601 0.676927964152101 0.7291833215506849
  outer loop
    vertex 1222.8770928847896 329.73337588449084 253.6666825201974
    vertex 1218.0377575238886 335.7916124130858 247.37386853153683
    vertex 1218.1162797408242 335.5501174184899 247.6138337602561
  endloop
endfacet
facet normal -0.10030062273586601 0.676927964152101 0.7291833215506849
  outer loop
    vertex 1222.8770928847896 329.73337588449084 253.6666825201974
    vertex 1218.1162797408242 335.5501174184899 247.6138337602561
    vertex 1218.1586788119746 335.2170013373009 247.92878244987304
  endloop
endfacet
facet normal -0.07080216468541158 -0.997220909810444 0.023184272960139907
  outer loop
    vertex 1216.706429515791 336.8566631683013 246.29669039436402
    vertex 1216.3699827833825 336.80355009833966 242.98467707232314
    vertex 1216.712209304521 336.77923130161 242.98377844201198
  endloop
endfacet
facet normal -0.07080216468541158 -0.997220909810444 0.023184272960139907
  outer loop
    vertex 1216.3699827833825 336.80355009833966 242.98467707232314
    vertex 1216.706429515791 336.8566631683013 246.29669039436402
    vertex 1216.3642769928547 336.8799906106043 246.25517405953192
  endloop
endfacet
facet normal -0.9481637211881785 -0.31771655296998996 0.006461407853841753
  outer loop
    vertex 1218.1162797408242 335.5501174184899 247.6138337602561
    vertex 1218.0081702769412 335.7798672738953 242.98069156448872
    vertex 1218.1243631679647 335.44182369328473 242.98050136187868
  endloop
endfacet
facet normal -0.9481637211881785 -0.31771655296998996 0.006461407853841753
  outer loop
    vertex 1218.0081702769412 335.7798672738953 242.98069156448872
    vertex 1218.1162797408242 335.5501174184899 247.6138337602561
    vertex 1218.0377575238886 335.7916124130858 247.37386853153683
  endloop
endfacet
facet normal 0.8957750565815041 -0.44435397390313275 0.011687338572016662
  outer loop
    vertex 1214.9366405008707 335.98616628189586 242.9887610631848
    vertex 1214.773206963014 335.7661289407096 247.14519500060445
    vertex 1214.7832566820146 335.67922302012687 242.9892745630661
  endloop
endfacet
facet normal 0.8957750565815041 -0.44435397390313275 0.011687338572016662
  outer loop
    vertex 1214.773206963014 335.7661289407096 247.14519500060445
    vertex 1214.9366405008707 335.98616628189586 242.9887610631848
    vertex 1214.929853144956 336.0770965327036 246.87919955586665
  endloop
endfacet
facet normal -0.8336109154177471 -0.5521678384085817 0.014266040921719821
  outer loop
    vertex 1218.018344872822 335.87590068241167 247.29220406609326
    vertex 1217.8300528658785 336.15312330332495 247.01960868048772
    vertex 1218.0081702769412 335.7798672738953 242.98069156448872
  endloop
endfacet
facet normal -0.8336109154177471 -0.5521678384085817 0.014266040921719821
  outer loop
    vertex 1217.8300528658785 336.15312330332495 247.01960868048772
    vertex 1218.018344872822 335.87590068241167 247.29220406609326
    vertex 1217.9179126229003 336.02376724350654 247.14680560579907
  endloop
endfacet
facet normal -0.6552767920846614 0.7551550430317191 -0.018793263127993055
  outer loop
    vertex 1217.4296125438013 333.62514716914853 242.9829758095407
    vertex 1217.6782632329791 333.9906709871552 249.00067096932537
    vertex 1217.6887631889476 333.85000300973303 242.98221056485815
  endloop
endfacet
facet normal -0.6552767920846614 0.7551550430317191 -0.018793263127993055
  outer loop
    vertex 1217.6782632329791 333.9906709871552 249.00067096932537
    vertex 1217.4296125438013 333.62514716914853 242.9829758095407
    vertex 1217.41881854115 333.7697544919288 249.1699805727406
  endloop
endfacet
facet normal -0.9759576433723947 -0.2178427874472485 0.007155298750895747
  outer loop
    vertex 1218.018344872822 335.87590068241167 247.29220406609326
    vertex 1218.0081702769412 335.7798672738953 242.98069156448872
    vertex 1218.0377575238886 335.7916124130858 247.37386853153683
  endloop
endfacet
facet normal 0.44706818585989117 0.8942735351829472 -0.020121666514978293
  outer loop
    vertex 1215.485723613014 333.5721405344889 242.98814673580776
    vertex 1215.7818457529943 333.56294600542736 249.15882667493233
    vertex 1215.7926126008272 333.41870247590776 242.98738675723277
  endloop
endfacet
facet normal 0.44706818585989117 0.8942735351829472 -0.020121666514978293
  outer loop
    vertex 1215.7818457529943 333.56294600542736 249.15882667493233
    vertex 1215.485723613014 333.5721405344889 242.98814673580776
    vertex 1215.4752223771932 333.7128256580918 249.00734073724493
  endloop
endfacet
facet normal -0.7725372648776953 -0.6348764065864438 0.010868428367262543
  outer loop
    vertex 1217.6672351658858 336.3477136330758 246.8133294245038
    vertex 1217.8378149399884 336.0745420540999 242.98104043978054
    vertex 1217.8300528658785 336.15312330332495 247.01960868048772
  endloop
endfacet
facet normal -0.316321431271566 0.9483800079594012 -0.02271811218464391
  outer loop
    vertex 1216.8061155636371 333.34665867223015 242.98472547414858
    vertex 1217.1205878417281 333.60244920144856 249.2842059006895
    vertex 1217.131579643236 333.45519196612423 242.98382498737573
  endloop
endfacet
facet normal -0.316321431271566 0.9483800079594012 -0.02271811218464391
  outer loop
    vertex 1217.1205878417281 333.60244920144856 249.2842059006895
    vertex 1216.8061155636371 333.34665867223015 242.98472547414858
    vertex 1216.7950297970622 333.49517475810393 249.3389661381169
  endloop
endfacet
facet normal 0.07080216468302616 0.9972209098106192 -0.02318427295988877
  outer loop
    vertex 1216.1235086594477 333.328047864819 242.98654127136413
    vertex 1216.4546629092517 333.4520643581687 249.33214798132346
    vertex 1216.4657351805868 333.3037290680905 242.98564264105323
  endloop
endfacet
facet normal 0.07080216468302616 0.9972209098106192 -0.02318427295988877
  outer loop
    vertex 1216.4546629092517 333.4520643581687 249.33214798132346
    vertex 1216.1235086594477 333.328047864819 242.98654127136413
    vertex 1216.1125567704298 333.4747703922304 249.26404477889113
  endloop
endfacet
facet normal -0.7657877826005925 -0.6429596840743784 0.013111699914318459
  outer loop
    vertex 1217.6090984035473 336.4154776057814 246.74080489736025
    vertex 1217.6207913699045 336.3248889782328 242.98152845778733
    vertex 1217.6672351658858 336.3477136330758 246.8133294245038
  endloop
endfacet
facet normal -0.264019331792635 -0.9642646953747372 0.022076904077239598
  outer loop
    vertex 1217.0371718259896 336.768357463973 246.39508691967316
    vertex 1216.712209304521 336.77923130161 242.98377844201198
    vertex 1217.0431247549122 336.6886060370103 242.98293289451868
  endloop
endfacet
facet normal -0.264019331792635 -0.9642646953747372 0.022076904077239598
  outer loop
    vertex 1216.712209304521 336.77923130161 242.98377844201198
    vertex 1217.0371718259896 336.768357463973 246.39508691967316
    vertex 1216.706429515791 336.8566631683013 246.29669039436402
  endloop
endfacet
facet normal -0.04553820874598662 0.662489589969815 0.7476856389725788
  outer loop
    vertex 1213.1369215532682 328.1812473858999 253.7668780202755
    vertex 1214.7026025582047 334.7828456421833 248.01215257598182
    vertex 1214.6601660131562 335.1163505630922 247.7140578011741
  endloop
endfacet
facet normal -0.04553820874598662 0.662489589969815 0.7476856389725788
  outer loop
    vertex 1214.7026025582047 334.7828456421833 248.01215257598182
    vertex 1213.1369215532682 328.1812473858999 253.7668780202755
    vertex 1214.8106310491614 334.46404846760254 248.30121159923303
  endloop
endfacet
facet normal -0.04553820874598662 0.662489589969815 0.7476856389725788
  outer loop
    vertex 1214.8106310491614 334.46404846760254 248.30121159923303
    vertex 1213.1369215532682 328.1812473858999 253.7668780202755
    vertex 1214.980102471984 334.17221055204334 248.57012636462017
  endloop
endfacet
facet normal -0.04553820874598662 0.662489589969815 0.7476856389725788
  outer loop
    vertex 1214.980102471984 334.17221055204334 248.57012636462017
    vertex 1213.1369215532682 328.1812473858999 253.7668780202755
    vertex 1215.2045093244974 333.91855861913893 248.80855270508724
  endloop
endfacet
facet normal -0.04553820874598662 0.662489589969815 0.7476856389725788
  outer loop
    vertex 1215.2045093244974 333.91855861913893 248.80855270508724
    vertex 1213.1369215532682 328.1812473858999 253.7668780202755
    vertex 1215.4752223771932 333.7128256580918 249.00734073724493
  endloop
endfacet
facet normal -0.04553820874598662 0.662489589969815 0.7476856389725788
  outer loop
    vertex 1215.4752223771932 333.7128256580918 249.00734073724493
    vertex 1213.1369215532682 328.1812473858999 253.7668780202755
    vertex 1215.7818457529943 333.56294600542736 249.15882667493233
  endloop
endfacet
facet normal -0.04553820874598662 0.662489589969815 0.7476856389725788
  outer loop
    vertex 1215.7818457529943 333.56294600542736 249.15882667493233
    vertex 1213.1369215532682 328.1812473858999 253.7668780202755
    vertex 1216.0246037251536 333.4980853825128 249.2301464073177
  endloop
endfacet
facet normal -0.04553820874598662 0.662489589969815 0.7476856389725788
  outer loop
    vertex 1210.498134401677 340.15138334401826 242.99907455028062
    vertex 1215.1405563258106 336.3430180439182 246.65641172724924
    vertex 1219.9985610435124 340.83466399948924 242.9736546973151
  endloop
endfacet
facet normal -0.04553820874598662 0.662489589969815 0.7476856389725788
  outer loop
    vertex 1215.1405563258106 336.3430180439182 246.65641172724924
    vertex 1210.498134401677 340.15138334401826 242.99907455028062
    vertex 1214.929853144956 336.0770965327036 246.87919955586665
  endloop
endfacet
facet normal -0.04553820874598662 0.662489589969815 0.7476856389725788
  outer loop
    vertex 1214.929853144956 336.0770965327036 246.87919955586665
    vertex 1210.498134401677 340.15138334401826 242.99907455028062
    vertex 1214.773206963014 335.7661289407096 247.14519500060445
  endloop
endfacet
facet normal -0.04553820874598662 0.662489589969815 0.7476856389725788
  outer loop
    vertex 1214.773206963014 335.7661289407096 247.14519500060445
    vertex 1210.498134401677 340.15138334401826 242.99907455028062
    vertex 1214.6849554881271 335.4517498869828 247.41838037386813
  endloop
endfacet
facet normal -0.04553820874598662 0.662489589969815 0.7476856389725788
  outer loop
    vertex 1214.6849554881271 335.4517498869828 247.41838037386813
    vertex 1210.498134401677 340.15138334401826 242.99907455028062
    vertex 1213.1369215532682 328.1812473858999 253.7668780202755
  endloop
endfacet
facet normal -0.04553820874598662 0.662489589969815 0.7476856389725788
  outer loop
    vertex 1214.6849554881271 335.4517498869828 247.41838037386813
    vertex 1213.1369215532682 328.1812473858999 253.7668780202755
    vertex 1214.6601660131562 335.1163505630922 247.7140578011741
  endloop
endfacet
facet normal -0.04553820874598662 0.662489589969815 0.7476856389725788
  outer loop
    vertex 1219.9985610435124 340.83466399948924 242.9736546973151
    vertex 1215.1405563258106 336.3430180439182 246.65641172724924
    vertex 1215.4000209665494 336.563690468211 246.47668874791256
  endloop
endfacet
facet normal -0.04553820874598662 0.662489589969815 0.7476856389725788
  outer loop
    vertex 1219.9985610435124 340.83466399948924 242.9736546973151
    vertex 1215.4000209665494 336.563690468211 246.47668874791256
    vertex 1215.6982782740604 336.7306290601393 246.34694133400737
  endloop
endfacet
facet normal -0.04553820874598662 0.662489589969815 0.7476856389725788
  outer loop
    vertex 1219.9985610435124 340.83466399948924 242.9736546973151
    vertex 1215.6982782740604 336.7306290601393 246.34694133400737
    vertex 1216.0238686105313 336.8374361128515 246.2721401025115
  endloop
endfacet
facet normal -0.04553820874598662 0.662489589969815 0.7476856389725788
  outer loop
    vertex 1219.9985610435124 340.83466399948924 242.9736546973151
    vertex 1216.0238686105313 336.8374361128515 246.2721401025115
    vertex 1216.3642769928547 336.8799906106043 246.25517405953192
  endloop
endfacet
facet normal -0.04553820874598662 0.662489589969815 0.7476856389725788
  outer loop
    vertex 1219.9985610435124 340.83466399948924 242.9736546973151
    vertex 1216.3642769928547 336.8799906106043 246.25517405953192
    vertex 1216.706429515791 336.8566631683013 246.29669039436402
  endloop
endfacet
facet normal -0.04553820874598662 0.662489589969815 0.7476856389725788
  outer loop
    vertex 1219.9985610435124 340.83466399948924 242.9736546973151
    vertex 1216.706429515791 336.8566631683013 246.29669039436402
    vertex 1217.0371718259896 336.768357463973 246.39508691967316
  endloop
endfacet
facet normal -0.04553820874598662 0.662489589969815 0.7476856389725788
  outer loop
    vertex 1219.9985610435124 340.83466399948924 242.9736546973151
    vertex 1217.0371718259896 336.768357463973 246.39508691967316
    vertex 1217.3542775682708 336.6104307960206 246.55434175456125
  endloop
endfacet
facet normal -0.04553820874598662 0.662489589969815 0.7476856389725788
  outer loop
    vertex 1219.9985610435124 340.83466399948924 242.9736546973151
    vertex 1217.3542775682708 336.6104307960206 246.55434175456125
    vertex 1217.415264966011 336.5639233194129 246.5989124887965
  endloop
endfacet
facet normal -0.04553820874598662 0.662489589969815 0.7476856389725788
  outer loop
    vertex 1219.9985610435124 340.83466399948924 242.9736546973151
    vertex 1217.415264966011 336.5639233194129 246.5989124887965
    vertex 1217.6090984035473 336.4154776057814 246.74080489736025
  endloop
endfacet
facet normal 0.12515894456064758 -0.9918606948277492 0.023400868622330845
  outer loop
    vertex 1216.3642769928547 336.8799906106043 246.25517405953192
    vertex 1216.0296024003244 336.7606204942009 242.98559423922617
    vertex 1216.3699827833825 336.80355009833966 242.98467707232314
  endloop
endfacet
facet normal 0.12515894456064758 -0.9918606948277492 0.023400868622330845
  outer loop
    vertex 1216.0296024003244 336.7606204942009 242.98559423922617
    vertex 1216.3642769928547 336.8799906106043 246.25517405953192
    vertex 1216.0238686105313 336.8374361128515 246.2721401025115
  endloop
endfacet
facet normal 0.9921339219524797 0.12517529065102903 -0.001194789362774707
  outer loop
    vertex 1214.6684080473526 335.00593197802397 242.98981356074563
    vertex 1214.7026025582047 334.7828456421833 248.01215257598182
    vertex 1214.7113646476646 334.66545987344745 242.98981832384894
  endloop
endfacet
facet normal 0.9921339219524797 0.12517529065102903 -0.001194789362774707
  outer loop
    vertex 1214.7026025582047 334.7828456421833 248.01215257598182
    vertex 1214.6684080473526 335.00593197802397 242.98981356074563
    vertex 1214.6601660131562 335.1163505630922 247.7140578011741
  endloop
endfacet
facet normal -0.7900363839051793 0.6128588280825172 -0.01570251404559132
  outer loop
    vertex 1217.6782632329791 333.9906709871552 249.00067096932537
    vertex 1217.899083698263 334.1211104982506 242.98155863449568
    vertex 1217.6887631889476 333.85000300973303 242.98221056485815
  endloop
endfacet
facet normal -0.7900363839051793 0.6128588280825172 -0.01570251404559132
  outer loop
    vertex 1217.899083698263 334.1211104982506 242.98155863449568
    vertex 1217.6782632329791 333.9906709871552 249.00067096932537
    vertex 1217.8889627215854 334.2567012877659 248.78279224047023
  endloop
endfacet
facet normal -0.8921879111573425 -0.4459021588718061 0.07191658986743403
  outer loop
    vertex 1212.9514858849186 325.9523345890998 245.98200927178405
    vertex 1214.182904374914 323.62448976390044 246.82556508256937
    vertex 1214.3789985998894 323.7285885829706 249.903725289251
  endloop
endfacet
facet normal -0.6159144975175154 -0.7876213140991155 0.01737807021879721
  outer loop
    vertex 1217.6090984035473 336.4154776057814 246.74080489736025
    vertex 1217.415264966011 336.5639233194129 246.5989124887965
    vertex 1217.3635254792816 336.52458282414534 242.9821407897946
  endloop
endfacet
facet normal -0.1009391840759718 0.6764851310292501 0.729506099093363
  outer loop
    vertex 1217.6672351658858 336.3477136330758 246.8133294245038
    vertex 1219.9985610435124 340.83466399948924 242.9736546973151
    vertex 1217.6090984035473 336.4154776057814 246.74080489736025
  endloop
endfacet
facet normal -0.1009391840759718 0.6764851310292501 0.729506099093363
  outer loop
    vertex 1219.9985610435124 340.83466399948924 242.9736546973151
    vertex 1217.6672351658858 336.3477136330758 246.8133294245038
    vertex 1217.8300528658785 336.15312330332495 247.01960868048772
  endloop
endfacet
facet normal -0.1009391840759718 0.6764851310292501 0.729506099093363
  outer loop
    vertex 1219.9985610435124 340.83466399948924 242.9736546973151
    vertex 1217.8300528658785 336.15312330332495 247.01960868048772
    vertex 1217.9179126229003 336.02376724350654 247.14680560579907
  endloop
endfacet
facet normal -0.1009391840759718 0.6764851310292501 0.729506099093363
  outer loop
    vertex 1219.9985610435124 340.83466399948924 242.9736546973151
    vertex 1217.9179126229003 336.02376724350654 247.14680560579907
    vertex 1218.018344872822 335.87590068241167 247.29220406609326
  endloop
endfacet
facet normal -0.1009391840759718 0.6764851310292501 0.729506099093363
  outer loop
    vertex 1219.9985610435124 340.83466399948924 242.9736546973151
    vertex 1218.018344872822 335.87590068241167 247.29220406609326
    vertex 1222.8770928847896 329.73337588449084 253.6666825201974
  endloop
endfacet
facet normal -0.8657069483678859 -0.5004860468832326 0.008074430181569673
  outer loop
    vertex 1217.8300528658785 336.15312330332495 247.01960868048772
    vertex 1217.8378149399884 336.0745420540999 242.98104043978054
    vertex 1218.0081702769412 335.7798672738953 242.98069156448872
  endloop
endfacet
facet normal 0.49529778799292823 -0.8684654560115576 0.021162535858203366
  outer loop
    vertex 1215.6982782740604 336.7306290601393 246.34694133400737
    vertex 1215.406108564512 336.4821348792286 242.98734389449666
    vertex 1215.7041409929452 336.6520861776127 242.98649471927382
  endloop
endfacet
facet normal 0.49529778799292823 -0.8684654560115576 0.021162535858203366
  outer loop
    vertex 1215.406108564512 336.4821348792286 242.98734389449666
    vertex 1215.6982782740604 336.7306290601393 246.34694133400737
    vertex 1215.4000209665494 336.563690468211 246.47668874791256
  endloop
endfacet
facet normal -0.4546848435500843 -0.8904250032472948 0.020124776716535356
  outer loop
    vertex 1217.3542775682708 336.6104307960206 246.55434175456125
    vertex 1217.0431247549122 336.6886060370103 242.98293289451868
    vertex 1217.3635254792816 336.52458282414534 242.9821407897946
  endloop
endfacet
facet normal -0.4546848435500843 -0.8904250032472948 0.020124776716535356
  outer loop
    vertex 1217.0431247549122 336.6886060370103 242.98293289451868
    vertex 1217.3542775682708 336.6104307960206 246.55434175456125
    vertex 1217.0371718259896 336.768357463973 246.39508691967316
  endloop
endfacet
facet normal -0.7555280399399726 -0.6549861401846804 0.013058982748942842
  outer loop
    vertex 1217.6672351658858 336.3477136330758 246.8133294245038
    vertex 1217.6207913699045 336.3248889782328 242.98152845778733
    vertex 1217.8378149399884 336.0745420540999 242.98104043978054
  endloop
endfacet
facet normal 0.3163264499934211 -0.9483783347337773 0.022718081832481002
  outer loop
    vertex 1216.0238686105313 336.8374361128515 246.2721401025115
    vertex 1215.7041409929452 336.6520861776127 242.98649471927382
    vertex 1216.0296024003244 336.7606204942009 242.98559423922617
  endloop
endfacet
facet normal 0.3163264499934211 -0.9483783347337773 0.022718081832481002
  outer loop
    vertex 1215.7041409929452 336.6520861776127 242.98649471927382
    vertex 1216.0238686105313 336.8374361128515 246.2721401025115
    vertex 1215.6982782740604 336.7306290601393 246.34694133400737
  endloop
endfacet
facet normal 0.9486545459279563 0.3162619813635448 -0.0057368662376044354
  outer loop
    vertex 1214.7113646476646 334.66545987344745 242.98981832384894
    vertex 1214.8106310491614 334.46404846760254 248.30121159923303
    vertex 1214.8198977421987 334.3399025215435 242.9896440739254
  endloop
endfacet
facet normal 0.9486545459279563 0.3162619813635448 -0.0057368662376044354
  outer loop
    vertex 1214.8106310491614 334.46404846760254 248.30121159923303
    vertex 1214.7113646476646 334.66545987344745 242.98981832384894
    vertex 1214.7026025582047 334.7828456421833 248.01215257598182
  endloop
endfacet
facet normal 0.8687203339705034 0.4952007730653438 -0.010058613307158208
  outer loop
    vertex 1214.8198977421987 334.3399025215435 242.9896440739254
    vertex 1214.980102471984 334.17221055204334 248.57012636462017
    vertex 1214.9898389250593 334.04177122771864 242.98929750067092
  endloop
endfacet
facet normal 0.8687203339705034 0.4952007730653438 -0.010058613307158208
  outer loop
    vertex 1214.980102471984 334.17221055204334 248.57012636462017
    vertex 1214.8198977421987 334.3399025215435 242.9896440739254
    vertex 1214.8106310491614 334.46404846760254 248.30121159923303
  endloop
endfacet
facet normal 0.9645095255366447 -0.2639312959342091 0.007851507852990868
  outer loop
    vertex 1214.7832566820146 335.67922302012687 242.9892745630661
    vertex 1214.6849554881271 335.4517498869828 247.41838037386813
    vertex 1214.6926819964463 335.3482378055427 242.989629957936
  endloop
endfacet
facet normal 0.9645095255366447 -0.2639312959342091 0.007851507852990868
  outer loop
    vertex 1214.6849554881271 335.4517498869828 247.41838037386813
    vertex 1214.7832566820146 335.67922302012687 242.9892745630661
    vertex 1214.773206963014 335.7661289407096 247.14519500060445
  endloop
endfacet
facet normal -0.9001590826219814 0.16439442484491412 0.4033461280997538
  outer loop
    vertex 1210.498134401677 340.15138334401826 242.99907455028062
    vertex 1208.124338419565 327.1268407099578 243.00990440905616
    vertex 1213.1369215532682 328.1812473858999 253.7668780202755
  endloop
endfacet
facet normal -0.0026505835531875155 -0.00034841095834752575 -0.9999964265019309
  outer loop
    vertex 1210.498134401677 340.15138334401826 242.99907455028062
    vertex 1214.6926819964463 335.3482378055427 242.989629957936
    vertex 1214.6684080473526 335.00593197802397 242.98981356074563
  endloop
endfacet
facet normal -0.0026505835531875155 -0.00034841095834752575 -0.9999964265019309
  outer loop
    vertex 1214.6926819964463 335.3482378055427 242.989629957936
    vertex 1210.498134401677 340.15138334401826 242.99907455028062
    vertex 1214.7832566820146 335.67922302012687 242.9892745630661
  endloop
endfacet
facet normal -0.0026505835531875155 -0.00034841095834752575 -0.9999964265019309
  outer loop
    vertex 1214.7832566820146 335.67922302012687 242.9892745630661
    vertex 1210.498134401677 340.15138334401826 242.99907455028062
    vertex 1214.9366405008707 335.98616628189586 242.9887610631848
  endloop
endfacet
facet normal -0.0026505835531875155 -0.00034841095834752575 -0.9999964265019309
  outer loop
    vertex 1214.9366405008707 335.98616628189586 242.9887610631848
    vertex 1210.498134401677 340.15138334401826 242.99907455028062
    vertex 1215.146956137893 336.2572797204398 242.988109143664
  endloop
endfacet
facet normal -0.0026505835531875155 -0.00034841095834752575 -0.9999964265019309
  outer loop
    vertex 1215.146956137893 336.2572797204398 242.988109143664
    vertex 1210.498134401677 340.15138334401826 242.99907455028062
    vertex 1219.9985610435124 340.83466399948924 242.9736546973151
  endloop
endfacet
facet normal -0.0026505835531875155 -0.00034841095834752575 -0.9999964265019309
  outer loop
    vertex 1215.146956137893 336.2572797204398 242.988109143664
    vertex 1219.9985610435124 340.83466399948924 242.9736546973151
    vertex 1215.406108564512 336.4821348792286 242.98734389449666
  endloop
endfacet
facet normal -0.0026505835531875155 -0.00034841095834752575 -0.9999964265019309
  outer loop
    vertex 1215.406108564512 336.4821348792286 242.98734389449666
    vertex 1219.9985610435124 340.83466399948924 242.9736546973151
    vertex 1215.7041409929452 336.6520861776127 242.98649471927382
  endloop
endfacet
facet normal -0.0026505835531875155 -0.00034841095834752575 -0.9999964265019309
  outer loop
    vertex 1215.7041409929452 336.6520861776127 242.98649471927382
    vertex 1219.9985610435124 340.83466399948924 242.9736546973151
    vertex 1216.0296024003244 336.7606204942009 242.98559423922617
  endloop
endfacet
facet normal -0.0026505835531875155 -0.00034841095834752575 -0.9999964265019309
  outer loop
    vertex 1216.0296024003244 336.7606204942009 242.98559423922617
    vertex 1219.9985610435124 340.83466399948924 242.9736546973151
    vertex 1216.3699827833825 336.80355009833966 242.98467707232314
  endloop
endfacet
facet normal -0.0026505835531875155 -0.00034841095834752575 -0.9999964265019309
  outer loop
    vertex 1216.3699827833825 336.80355009833966 242.98467707232314
    vertex 1219.9985610435124 340.83466399948924 242.9736546973151
    vertex 1216.712209304521 336.77923130161 242.98377844201198
  endloop
endfacet
facet normal -0.0026505835531875155 -0.00034841095834752575 -0.9999964265019309
  outer loop
    vertex 1216.712209304521 336.77923130161 242.98377844201198
    vertex 1219.9985610435124 340.83466399948924 242.9736546973151
    vertex 1217.0431247549122 336.6886060370103 242.98293289451868
  endloop
endfacet
facet normal -0.0026505835531875155 -0.00034841095834752575 -0.9999964265019309
  outer loop
    vertex 1217.0431247549122 336.6886060370103 242.98293289451868
    vertex 1219.9985610435124 340.83466399948924 242.9736546973151
    vertex 1217.3635254792816 336.52458282414534 242.9821407897946
  endloop
endfacet
facet normal -0.0026505835531875155 -0.00034841095834752575 -0.9999964265019309
  outer loop
    vertex 1217.3635254792816 336.52458282414534 242.9821407897946
    vertex 1219.9985610435124 340.83466399948924 242.9736546973151
    vertex 1217.6207913699045 336.3248889782328 242.98152845778733
  endloop
endfacet
facet normal -0.0026505835531875155 -0.00034841095834752575 -0.9999964265019309
  outer loop
    vertex 1217.6207913699045 336.3248889782328 242.98152845778733
    vertex 1219.9985610435124 340.83466399948924 242.9736546973151
    vertex 1217.8378149399884 336.0745420540999 242.98104043978054
  endloop
endfacet
facet normal -0.0026505835531875155 -0.00034841095834752575 -0.9999964265019309
  outer loop
    vertex 1217.8378149399884 336.0745420540999 242.98104043978054
    vertex 1219.9985610435124 340.83466399948924 242.9736546973151
    vertex 1218.0081702769412 335.7798672738953 242.98069156448872
  endloop
endfacet
facet normal -0.0026505835531875155 -0.00034841095834752575 -0.9999964265019309
  outer loop
    vertex 1218.0081702769412 335.7798672738953 242.98069156448872
    vertex 1219.9985610435124 340.83466399948924 242.9736546973151
    vertex 1218.1243631679647 335.44182369328473 242.98050136187868
  endloop
endfacet
facet normal -0.0026505835531875155 -0.00034841095834752575 -0.9999964265019309
  outer loop
    vertex 1218.1243631679647 335.44182369328473 242.98050136187868
    vertex 1219.9985610435124 340.83466399948924 242.9736546973151
    vertex 1218.1673116980885 335.10134650661075 242.98050614814517
  endloop
endfacet
facet normal -0.0026505835531875155 -0.00034841095834752575 -0.9999964265019309
  outer loop
    vertex 1208.124338419565 327.1268407099578 243.00990440905616
    vertex 1215.7926126008272 333.41870247590776 242.98738675723277
    vertex 1226.9444965516238 330.129273018649 242.95897375756476
  endloop
endfacet
facet normal -0.0026505835531875155 -0.00034841095834752575 -0.9999964265019309
  outer loop
    vertex 1215.7926126008272 333.41870247590776 242.98738675723277
    vertex 1208.124338419565 327.1268407099578 243.00990440905616
    vertex 1215.485723613014 333.5721405344889 242.98814673580776
  endloop
endfacet
facet normal -0.0026505835531875155 -0.00034841095834752575 -0.9999964265019309
  outer loop
    vertex 1215.485723613014 333.5721405344889 242.98814673580776
    vertex 1208.124338419565 327.1268407099578 243.00990440905616
    vertex 1215.2146626241836 333.78253479812344 242.98879190488242
  endloop
endfacet
facet normal -0.0026505835531875155 -0.00034841095834752575 -0.9999964265019309
  outer loop
    vertex 1215.2146626241836 333.78253479812344 242.98879190488242
    vertex 1208.124338419565 327.1268407099578 243.00990440905616
    vertex 1214.9898389250593 334.04177122771864 242.98929750067092
  endloop
endfacet
facet normal -0.0026505835531875155 -0.00034841095834752575 -0.9999964265019309
  outer loop
    vertex 1214.9898389250593 334.04177122771864 242.98929750067092
    vertex 1208.124338419565 327.1268407099578 243.00990440905616
    vertex 1210.498134401677 340.15138334401826 242.99907455028062
  endloop
endfacet
facet normal -0.0026505835531875155 -0.00034841095834752575 -0.9999964265019309
  outer loop
    vertex 1214.9898389250593 334.04177122771864 242.98929750067092
    vertex 1210.498134401677 340.15138334401826 242.99907455028062
    vertex 1214.8198977421987 334.3399025215435 242.9896440739254
  endloop
endfacet
facet normal -0.0026505835531875155 -0.00034841095834752575 -0.9999964265019309
  outer loop
    vertex 1214.8198977421987 334.3399025215435 242.9896440739254
    vertex 1210.498134401677 340.15138334401826 242.99907455028062
    vertex 1214.7113646476646 334.66545987344745 242.98981832384894
  endloop
endfacet
facet normal -0.0026505835531875155 -0.00034841095834752575 -0.9999964265019309
  outer loop
    vertex 1214.7113646476646 334.66545987344745 242.98981832384894
    vertex 1210.498134401677 340.15138334401826 242.99907455028062
    vertex 1214.6684080473526 335.00593197802397 242.98981356074563
  endloop
endfacet
facet normal -0.0026505835531875155 -0.00034841095834752575 -0.9999964265019309
  outer loop
    vertex 1226.9444965516238 330.129273018649 242.95897375756476
    vertex 1215.7926126008272 333.41870247590776 242.98738675723277
    vertex 1216.1235086594477 333.328047864819 242.98654127136413
  endloop
endfacet
facet normal -0.0026505835531875155 -0.00034841095834752575 -0.9999964265019309
  outer loop
    vertex 1226.9444965516238 330.129273018649 242.95897375756476
    vertex 1216.1235086594477 333.328047864819 242.98654127136413
    vertex 1216.4657351805868 333.3037290680905 242.98564264105323
  endloop
endfacet
facet normal -0.0026505835531875155 -0.00034841095834752575 -0.9999964265019309
  outer loop
    vertex 1226.9444965516238 330.129273018649 242.95897375756476
    vertex 1216.4657351805868 333.3037290680905 242.98564264105323
    vertex 1216.8061155636371 333.34665867223015 242.98472547414858
  endloop
endfacet
facet normal -0.0026505835531875155 -0.00034841095834752575 -0.9999964265019309
  outer loop
    vertex 1226.9444965516238 330.129273018649 242.95897375756476
    vertex 1216.8061155636371 333.34665867223015 242.98472547414858
    vertex 1217.131579643236 333.45519196612423 242.98382498737573
  endloop
endfacet
facet normal -0.0026505835531875155 -0.00034841095834752575 -0.9999964265019309
  outer loop
    vertex 1226.9444965516238 330.129273018649 242.95897375756476
    vertex 1217.131579643236 333.45519196612423 242.98382498737573
    vertex 1217.4296125438013 333.62514716914853 242.9829758095407
  endloop
endfacet
facet normal -0.0026505835531875155 -0.00034841095834752575 -0.9999964265019309
  outer loop
    vertex 1226.9444965516238 330.129273018649 242.95897375756476
    vertex 1217.4296125438013 333.62514716914853 242.9829758095407
    vertex 1217.6887631889476 333.85000300973303 242.98221056485815
  endloop
endfacet
facet normal -0.0026505835531875155 -0.00034841095834752575 -0.9999964265019309
  outer loop
    vertex 1226.9444965516238 330.129273018649 242.95897375756476
    vertex 1217.6887631889476 333.85000300973303 242.98221056485815
    vertex 1217.899083698263 334.1211104982506 242.98155863449568
  endloop
endfacet
facet normal -0.0026505835531875155 -0.00034841095834752575 -0.9999964265019309
  outer loop
    vertex 1226.9444965516238 330.129273018649 242.95897375756476
    vertex 1217.899083698263 334.1211104982506 242.98155863449568
    vertex 1218.0524684078682 334.42805341912333 242.98104513237192
  endloop
endfacet
facet normal -0.0026505835531875155 -0.00034841095834752575 -0.9999964265019309
  outer loop
    vertex 1226.9444965516238 330.129273018649 242.95897375756476
    vertex 1218.0524684078682 334.42805341912333 242.98104513237192
    vertex 1218.1430430934354 334.75903863370695 242.98068973750358
  endloop
endfacet
facet normal -0.0026505835531875155 -0.00034841095834752575 -0.9999964265019309
  outer loop
    vertex 1226.9444965516238 330.129273018649 242.95897375756476
    vertex 1218.1430430934354 334.75903863370695 242.98068973750358
    vertex 1218.1673116980885 335.10134650661075 242.98050614814517
  endloop
endfacet
facet normal -0.0026505835531875155 -0.00034841095834752575 -0.9999964265019309
  outer loop
    vertex 1226.9444965516238 330.129273018649 242.95897375756476
    vertex 1218.1673116980885 335.10134650661075 242.98050614814517
    vertex 1219.9985610435124 340.83466399948924 242.9736546973151
  endloop
endfacet
facet normal -0.985463241075549 -0.15566726860203808 0.06804338303505651
  outer loop
    vertex 1212.9351821936398 328.0741517851681 250.60010414721762
    vertex 1212.9514858849186 325.9523345890998 245.98200927178405
    vertex 1213.2897935306803 325.8522289382743 250.65265547735942
  endloop
endfacet
facet normal -0.985463241075549 -0.15566726860203808 0.06804338303505651
  outer loop
    vertex 1212.9514858849186 325.9523345890998 245.98200927178405
    vertex 1212.9351821936398 328.0741517851681 250.60010414721762
    vertex 1212.6380271277196 327.9164036870593 245.9355562835394
  endloop
endfacet
facet normal 0.006855667301973516 0.02473763224860788 0.9996704703934078
  outer loop
    vertex 1213.2897935306803 325.8522289382743 250.65265547735942
    vertex 1222.8177177730292 329.6488463180728 250.49336338268407
    vertex 1212.9351821936398 328.0741517851681 250.60010414721762
  endloop
endfacet
facet normal 0.006855667301973516 0.02473763224860788 0.9996704703934078
  outer loop
    vertex 1222.8177177730292 329.6488463180728 250.49336338268407
    vertex 1213.2897935306803 325.8522289382743 250.65265547735942
    vertex 1223.1723291100723 327.4269234711804 250.54591471282646
  endloop
endfacet
facet normal 0.7900497776691119 -0.6128415715259109 0.015702134079130726
  outer loop
    vertex 1215.146956137893 336.2572797204398 242.988109143664
    vertex 1214.929853144956 336.0770965327036 246.87919955586665
    vertex 1214.9366405008707 335.98616628189586 242.9887610631848
  endloop
endfacet
facet normal 0.7900497776691119 -0.6128415715259109 0.015702134079130726
  outer loop
    vertex 1214.929853144956 336.0770965327036 246.87919955586665
    vertex 1215.146956137893 336.2572797204398 242.988109143664
    vertex 1215.1405563258106 336.3430180439182 246.65641172724924
  endloop
endfacet
facet normal 0.9873324697371897 0.15703904392731083 -0.02265685073124233
  outer loop
    vertex 1222.730485766489 329.52465819491744 245.8312248605088
    vertex 1223.1723291100723 327.4269234711804 250.54591471282646
    vertex 1223.0850971035313 327.30273534802416 245.88377619065275
  endloop
endfacet
facet normal 0.9873324697371897 0.15703904392731083 -0.02265685073124233
  outer loop
    vertex 1223.1723291100723 327.4269234711804 250.54591471282646
    vertex 1222.730485766489 329.52465819491744 245.8312248605088
    vertex 1222.8177177730292 329.6488463180728 250.49336338268407
  endloop
endfacet
facet normal 0.15755925318560426 -0.9872334584757243 0.02334909423629047
  outer loop
    vertex 1226.9444965516238 330.129273018649 242.95897375756476
    vertex 1222.730485766489 329.52465819491744 245.8312248605088
    vertex 1208.124338419565 327.1268407099578 243.00990440905616
  endloop
endfacet
facet normal 0.15755925318560426 -0.9872334584757243 0.02334909423629047
  outer loop
    vertex 1222.730485766489 329.52465819491744 245.8312248605088
    vertex 1226.9444965516238 330.129273018649 242.95897375756476
    vertex 1222.8770928847896 329.73337588449084 253.6666825201974
  endloop
endfacet
facet normal 0.15755925318560426 -0.9872334584757243 0.02334909423629047
  outer loop
    vertex 1222.730485766489 329.52465819491744 245.8312248605088
    vertex 1222.8770928847896 329.73337588449084 253.6666825201974
    vertex 1222.8177177730292 329.6488463180728 250.49336338268407
  endloop
endfacet
facet normal 0.15755925318560426 -0.9872334584757243 0.02334909423629047
  outer loop
    vertex 1222.8177177730292 329.6488463180728 250.49336338268407
    vertex 1222.8770928847896 329.73337588449084 253.6666825201974
    vertex 1212.9351821936398 328.0741517851681 250.60010414721762
  endloop
endfacet
facet normal 0.15755925318560426 -0.9872334584757243 0.02334909423629047
  outer loop
    vertex 1208.124338419565 327.1268407099578 243.00990440905616
    vertex 1212.6380271277196 327.9164036870593 245.9355562835394
    vertex 1213.1369215532682 328.1812473858999 253.7668780202755
  endloop
endfacet
facet normal 0.15755925318560426 -0.9872334584757243 0.02334909423629047
  outer loop
    vertex 1212.6380271277196 327.9164036870593 245.9355562835394
    vertex 1208.124338419565 327.1268407099578 243.00990440905616
    vertex 1222.730485766489 329.52465819491744 245.8312248605088
  endloop
endfacet
facet normal 0.15755925318560426 -0.9872334584757243 0.02334909423629047
  outer loop
    vertex 1213.1369215532682 328.1812473858999 253.7668780202755
    vertex 1212.6380271277196 327.9164036870593 245.9355562835394
    vertex 1212.9351821936398 328.0741517851681 250.60010414721762
  endloop
endfacet
facet normal 0.15755925318560426 -0.9872334584757243 0.02334909423629047
  outer loop
    vertex 1213.1369215532682 328.1812473858999 253.7668780202755
    vertex 1212.9351821936398 328.0741517851681 250.60010414721762
    vertex 1222.8770928847896 329.73337588449084 253.6666825201974
  endloop
endfacet
facet normal -0.8944718415548726 0.4469630298443841 -0.012007273535785026
  outer loop
    vertex 1217.8889627215854 334.2567012877659 248.78279224047023
    vertex 1218.0524684078682 334.42805341912333 242.98104513237192
    vertex 1217.899083698263 334.1211104982506 242.98155863449568
  endloop
endfacet
facet normal -0.8944718415548726 0.4469630298443841 -0.012007273535785026
  outer loop
    vertex 1218.0524684078682 334.42805341912333 242.98104513237192
    vertex 1217.8889627215854 334.2567012877659 248.78279224047023
    vertex 1218.0427967882792 334.55762416872824 248.5247121442769
  endloop
endfacet
facet normal 0.26411328478051166 0.9642389832818316 -0.022076139202043852
  outer loop
    vertex 1215.7926126008272 333.41870247590776 242.98738675723277
    vertex 1216.1125567704298 333.4747703922304 249.26404477889113
    vertex 1216.1235086594477 333.328047864819 242.98654127136413
  endloop
endfacet
facet normal 0.26411328478051166 0.9642389832818316 -0.022076139202043852
  outer loop
    vertex 1216.1125567704298 333.4747703922304 249.26404477889113
    vertex 1215.7926126008272 333.41870247590776 242.98738675723277
    vertex 1216.0246037251536 333.4980853825128 249.2301464073177
  endloop
endfacet
facet normal 0.26411328478051166 0.9642389832818316 -0.022076139202043852
  outer loop
    vertex 1216.0246037251536 333.4980853825128 249.2301464073177
    vertex 1215.7926126008272 333.41870247590776 242.98738675723277
    vertex 1215.7818457529943 333.56294600542736 249.15882667493233
  endloop
endfacet
facet normal 0.037618042188973314 -0.3503690496731094 -0.9358559782001881
  outer loop
    vertex 1223.0850971035313 327.30273534802416 245.88377619065275
    vertex 1222.6706733505766 324.9770336021294 246.7378222393264
    vertex 1212.9514858849186 325.9523345890998 245.98200927178405
  endloop
endfacet
facet normal -0.8806891615160002 -0.4706405568437107 0.05370351051920734
  outer loop
    vertex 1212.9514858849186 325.9523345890998 245.98200927178405
    vertex 1214.3789985998894 323.7285885829706 249.903725289251
    vertex 1213.2897935306803 325.8522289382743 250.65265547735942
  endloop
endfacet
facet normal -0.00640369225146315 -0.024665662998438618 -0.9996752461646714
  outer loop
    vertex 1222.730485766489 329.52465819491744 245.8312248605088
    vertex 1212.9514858849186 325.9523345890998 245.98200927178405
    vertex 1212.6380271277196 327.9164036870593 245.9355562835394
  endloop
endfacet
facet normal -0.00640369225146315 -0.024665662998438618 -0.9996752461646714
  outer loop
    vertex 1212.9514858849186 325.9523345890998 245.98200927178405
    vertex 1222.730485766489 329.52465819491744 245.8312248605088
    vertex 1223.0850971035313 327.30273534802416 245.88377619065275
  endloop
endfacet
facet normal 0.04136906088925992 -0.32098883464161365 -0.9461790363544098
  outer loop
    vertex 1222.6706733505766 324.9770336021294 246.7378222393264
    vertex 1214.182904374914 323.62448976390044 246.82556508256937
    vertex 1212.9514858849186 325.9523345890998 245.98200927178405
  endloop
endfacet
facet normal 0.9835264088168484 -0.18025208893113598 -0.013601014513472391
  outer loop
    vertex 1223.0850971035313 327.30273534802416 245.88377619065275
    vertex 1222.7282223772465 325.0589634551797 249.81354574763273
    vertex 1222.6706733505766 324.9770336021294 246.7378222393264
  endloop
endfacet
facet normal 0.9835264088168484 -0.18025208893113598 -0.013601014513472391
  outer loop
    vertex 1222.7282223772465 325.0589634551797 249.81354574763273
    vertex 1223.0850971035313 327.30273534802416 245.88377619065275
    vertex 1223.1723291100723 327.4269234711804 250.54591471282646
  endloop
endfacet
facet normal -0.613056140209402 -0.7898536898191744 0.01712651834395587
  outer loop
    vertex 1217.6090984035473 336.4154776057814 246.74080489736025
    vertex 1217.3635254792816 336.52458282414534 242.9821407897946
    vertex 1217.6207913699045 336.3248889782328 242.98152845778733
  endloop
endfacet
facet normal 0.6552730883829948 -0.7551582551512224 0.01879333174223236
  outer loop
    vertex 1215.4000209665494 336.563690468211 246.47668874791256
    vertex 1215.146956137893 336.2572797204398 242.988109143664
    vertex 1215.406108564512 336.4821348792286 242.98734389449666
  endloop
endfacet
facet normal 0.6552730883829948 -0.7551582551512224 0.01879333174223236
  outer loop
    vertex 1215.146956137893 336.2572797204398 242.988109143664
    vertex 1215.4000209665494 336.563690468211 246.47668874791256
    vertex 1215.1405563258106 336.3430180439182 246.65641172724924
  endloop
endfacet
facet normal -0.9921370748821892 -0.1251503037588579 0.0011941998488976763
  outer loop
    vertex 1218.1586788119746 335.2170013373009 247.92878244987304
    vertex 1218.1243631679647 335.44182369328473 242.98050136187868
    vertex 1218.1673116980885 335.10134650661075 242.98050614814517
  endloop
endfacet
facet normal -0.9921370748821892 -0.1251503037588579 0.0011941998488976763
  outer loop
    vertex 1218.1243631679647 335.44182369328473 242.98050136187868
    vertex 1218.1586788119746 335.2170013373009 247.92878244987304
    vertex 1218.1162797408242 335.5501174184899 247.6138337602561
  endloop
endfacet
facet normal 0.7947196604002426 0.5151946327725649 0.32092857731225044
  outer loop
    vertex 1219.9985610435124 340.83466399948924 242.9736546973151
    vertex 1222.8770928847896 329.73337588449084 253.6666825201974
    vertex 1226.9444965516238 330.129273018649 242.95897375756476
  endloop
endfacet
facet normal 0.1575591073903497 -0.9872334728395615 0.02334947073265272
  outer loop
    vertex 1222.7282223772465 325.0589634551797 249.81354574763273
    vertex 1214.182904374914 323.62448976390044 246.82556508256937
    vertex 1222.6706733505766 324.9770336021294 246.7378222393264
  endloop
endfacet
facet normal 0.1575591073903497 -0.9872334728395615 0.02334947073265272
  outer loop
    vertex 1214.182904374914 323.62448976390044 246.82556508256937
    vertex 1222.7282223772465 325.0589634551797 249.81354574763273
    vertex 1214.3789985998894 323.7285885829706 249.903725289251
  endloop
endfacet
endsolid Inmoov_Shoulder_Cover_Remix
