solid Inmoov_Shoulder_Cover_Remix
facet normal -0.9738777629961901 0.19214753773392348 -0.12100176231909668
  outer loop
    vertex 1617.1676414729357 307.62369187711494 273.9022298092235
    vertex 1617.2455450613338 304.1677483630684 267.78728077882215
    vertex 1617.1676414729357 303.76598410783936 267.77629383146035
  endloop
endfacet
facet normal -0.9738777629961901 0.19214753773392348 -0.12100176231909668
  outer loop
    vertex 1617.2455450613338 304.1677483630684 267.78728077882215
    vertex 1617.1676414729357 307.62369187711494 273.9022298092235
    vertex 1617.2455450613338 307.900806036344 273.7152757632836
  endloop
endfacet
facet normal 0.3522453035617278 -0.7919587103539455 0.4987230165264303
  outer loop
    vertex 1615.0574607693577 309.37676819427116 272.45804490953526
    vertex 1614.7363716755283 306.2515993593673 267.7221444667342
    vertex 1615.0574607693577 306.4047421556326 267.738547652136
  endloop
endfacet
facet normal -0.8009659935729867 -0.07830684611534121 -0.5935667738267586
  outer loop
    vertex 1604.1434117546346 313.2072189500208 269.20911897084875
    vertex 1607.4524955024979 292.5010359551959 267.4754847583447
    vertex 1604.1434117546346 299.27522606330075 271.04711002959147
  endloop
endfacet
facet normal -0.6835925530493742 0.6176057915687194 -0.3889271238114078
  outer loop
    vertex 1616.5758136656611 306.9275844493129 274.3467153271434
    vertex 1616.8262190086375 303.0494436934286 267.7482107180902
    vertex 1616.5758136656611 302.76219765765734 267.732193353362
  endloop
endfacet
facet normal -0.6835925530493742 0.6176057915687194 -0.3889271238114078
  outer loop
    vertex 1616.8262190086375 303.0494436934286 267.7482107180902
    vertex 1616.5758136656611 306.9275844493129 274.3467153271434
    vertex 1616.8262190086375 307.12661756071924 274.22265294519605
  endloop
endfacet
facet normal -0.8128542745991825 0.492879683642507 -0.3103829017814917
  outer loop
    vertex 1616.8262190086375 307.12661756071924 274.22265294519605
    vertex 1617.026048674428 303.3883787204045 267.76310132841525
    vertex 1616.8262190086375 303.0494436934286 267.7482107180902
  endloop
endfacet
facet normal -0.8128542745991825 0.492879683642507 -0.3103829017814917
  outer loop
    vertex 1617.026048674428 303.3883787204045 267.76310132841525
    vertex 1616.8262190086375 307.12661756071924 274.22265294519605
    vertex 1617.026048674428 307.3625951533057 274.07404992426996
  endloop
endfacet
facet normal 0.06589449972590232 -0.9846448091159214 -0.16165554363195767
  outer loop
    vertex 1620.7169553985855 294.8314461997501 270.97675291959763
    vertex 1611.5078329939718 293.8575020614912 273.1552029648413
    vertex 1610.8173847264359 294.2217239601484 270.6552828509035
  endloop
endfacet
facet normal 0.06589449972590232 -0.9846448091159214 -0.16165554363195767
  outer loop
    vertex 1611.5078329939718 293.8575020614912 273.1552029648413
    vertex 1620.7169553985855 294.8314461997501 270.97675291959763
    vertex 1619.9424479636402 294.37699654259546 273.4291013331146
  endloop
endfacet
facet normal 0.03272449794718238 0.8457399536895053 -0.5325908729666502
  outer loop
    vertex 1615.2819898571145 306.60629373520425 274.48709245615476
    vertex 1615.6248838540755 302.3086469480234 267.6836139423738
    vertex 1615.281989857115 302.31291445365474 267.6693218576405
  endloop
endfacet
facet normal 0.03272449794718238 0.8457399536895053 -0.5325908729666502
  outer loop
    vertex 1615.6248838540755 302.3086469480234 267.6836139423738
    vertex 1615.2819898571145 306.60629373520425 274.48709245615476
    vertex 1615.6248838540755 306.6065976542407 274.50864384006695
  endloop
endfacet
facet normal -0.9700438108257494 -0.1383025385849597 -0.19971833390956753
  outer loop
    vertex 1604.1434117546346 315.7326365852253 267.4602977029218
    vertex 1607.4524955024979 292.5010359551959 267.4754847583447
    vertex 1604.1434117546346 313.2072189500208 269.20911897084875
  endloop
endfacet
facet normal 0.5824765425115589 0.6878260095807915 -0.4331471550962155
  outer loop
    vertex 1614.6353635215241 306.7689225977208 274.3334356444283
    vertex 1614.6353635215241 302.5582048812135 267.64692938358723
    vertex 1614.356497430075 306.92560499884314 274.20723667164896
  endloop
endfacet
facet normal 0.951103868296141 -0.1426841713237501 0.273939151940302
  outer loop
    vertex 1620.695632541328 298.94429426333994 273.19300629358344
    vertex 1619.9424479636402 294.37699654259546 273.4291013331146
    vertex 1620.7169553985855 294.8314461997501 270.97675291959763
  endloop
endfacet
facet normal -0.5280705134760257 0.7185876814933683 -0.4525188137560161
  outer loop
    vertex 1616.284469671497 306.77038971630685 274.43708057300637
    vertex 1616.5758136656611 302.76219765765734 267.732193353362
    vertex 1616.3000160725965 302.54966878985437 267.7165474850247
  endloop
endfacet
facet normal -0.5280705134760257 0.7185876814933683 -0.4525188137560161
  outer loop
    vertex 1616.5758136656611 302.76219765765734 267.732193353362
    vertex 1616.284469671497 306.77038971630685 274.43708057300637
    vertex 1616.5758136656611 306.9275844493129 274.3467153271434
  endloop
endfacet
facet normal 0.06945890147038132 -0.88244454757604 -0.4652602298282606
  outer loop
    vertex 1620.745188449885 295.77075422979044 269.1994116386108
    vertex 1610.8173847264359 294.2217239601484 270.6552828509035
    vertex 1610.7615792503614 295.1558559920753 268.8752125756945
  endloop
endfacet
facet normal 0.06945890147038132 -0.88244454757604 -0.4652602298282606
  outer loop
    vertex 1610.8173847264359 294.2217239601484 270.6552828509035
    vertex 1620.745188449885 295.77075422979044 269.1994116386108
    vertex 1620.7169553985855 294.8314461997501 270.97675291959763
  endloop
endfacet
facet normal 0.1629019955496232 -0.8348899338057338 0.5257582507919472
  outer loop
    vertex 1615.3959610521106 309.47439854165793 272.5081976606773
    vertex 1615.0574607693577 306.4047421556326 267.738547652136
    vertex 1615.3959610521106 306.48064409341856 267.75419627438157
  endloop
endfacet
facet normal -0.9971987961905502 -0.07439146835151188 -0.007776265982052395
  outer loop
    vertex 1610.4934117546345 298.3376569287981 272.82536812619
    vertex 1610.7615792503614 295.1558559920753 268.8752125756945
    vertex 1610.8173847264359 294.2217239601484 270.6552828509035
  endloop
endfacet
facet normal 0.16290199554960894 -0.8348899338057356 0.525758250791949
  outer loop
    vertex 1615.3959610521106 309.47439854165793 272.5081976606773
    vertex 1615.0574607693577 309.37676819427116 272.45804490953526
    vertex 1615.0574607693577 306.4047421556326 267.738547652136
  endloop
endfacet
facet normal 0.16290199554960894 -0.8348899338057356 0.525758250791949
  outer loop
    vertex 1615.0574607693577 309.37676819427116 272.45804490953526
    vertex 1615.3959610521106 309.47439854165793 272.5081976606773
    vertex 1615.0574607693577 309.41898667281004 272.5250867157262
  endloop
endfacet
facet normal -0.9536199186993377 -0.1866091211039543 0.23619078428397333
  outer loop
    vertex 1611.3309167171758 296.57514542751335 274.58805376610667
    vertex 1610.8173847264359 294.2217239601484 270.6552828509035
    vertex 1611.5078329939718 293.8575020614912 273.1552029648413
  endloop
endfacet
facet normal 0.8492007043592028 0.44684941657931815 -0.2813960955993469
  outer loop
    vertex 1613.9408066331653 303.4267530963046 267.63450562901306
    vertex 1614.1219748877372 307.1251403693557 274.0541768074273
    vertex 1614.1219748877377 303.08308095983074 267.6354953929677
  endloop
endfacet
facet normal 0.8492007043592028 0.44684941657931815 -0.2813960955993469
  outer loop
    vertex 1614.1219748877372 307.1251403693557 274.0541768074273
    vertex 1613.9408066331653 303.4267530963046 267.63450562901306
    vertex 1613.9408066331653 307.35984465603497 273.8801490345305
  endloop
endfacet
facet normal -0.9108614224280535 0.34923435506614575 -0.21992461065982635
  outer loop
    vertex 1617.026048674428 307.3625951533057 274.07404992426996
    vertex 1617.1676414729357 303.76598410783936 267.77629383146035
    vertex 1617.026048674428 303.3883787204045 267.76310132841525
  endloop
endfacet
facet normal -0.9108614224280535 0.34923435506614575 -0.21992461065982635
  outer loop
    vertex 1617.1676414729357 303.76598410783936 267.77629383146035
    vertex 1617.026048674428 307.3625951533057 274.07404992426996
    vertex 1617.1676414729357 307.62369187711494 273.9022298092235
  endloop
endfacet
facet normal 0.9998914916019003 -0.0026268916190690704 0.014494980598422252
  outer loop
    vertex 1620.695632541328 298.94429426333994 273.19300629358344
    vertex 1620.7169553985855 294.8314461997501 270.97675291959763
    vertex 1620.745188449885 295.77075422979044 269.1994116386108
  endloop
endfacet
facet normal -0.162907215261038 0.8348892045332115 -0.5257577915445433
  outer loop
    vertex 1615.6248838540755 306.6065976542407 274.50864384006695
    vertex 1615.9633816591095 302.38455053083646 267.69926249236795
    vertex 1615.6248838540755 302.3086469480234 267.6836139423738
  endloop
endfacet
facet normal -0.162907215261038 0.8348892045332115 -0.5257577915445433
  outer loop
    vertex 1615.9633816591095 302.38455053083646 267.69926249236795
    vertex 1615.6248838540755 306.6065976542407 274.50864384006695
    vertex 1615.9633816591095 306.6620106313122 274.4917538603373
  endloop
endfacet
facet normal 0.5286348248036846 -0.7191929761241305 0.4508954259010549
  outer loop
    vertex 1614.7366537945893 309.2606678008263 272.52137645159956
    vertex 1614.4450293331765 306.0270893808862 267.70561670650835
    vertex 1614.7363716755283 306.2515993593673 267.7221444667342
  endloop
endfacet
facet normal 0.8128526632568255 -0.492881586460979 0.31038410005023537
  outer loop
    vertex 1614.194620116205 305.7398511864093 267.68959933007915
    vertex 1613.9947896245085 308.71840399785566 272.9427891106596
    vertex 1613.9947896245085 305.4009167077757 267.6747086956705
  endloop
endfacet
facet normal 0.8128526632568255 -0.492881586460979 0.31038410005023537
  outer loop
    vertex 1613.9947896245085 308.71840399785566 272.9427891106596
    vertex 1614.194620116205 305.7398511864093 267.68959933007915
    vertex 1614.194620116205 308.953448785546 272.7927057155325
  endloop
endfacet
facet normal 0.03172812078766249 0.011794019673120049 -0.9994269495321975
  outer loop
    vertex 1615.753383850123 292.65476051462497 267.55653452407375
    vertex 1610.7615792503614 292.3473113957674 267.3944349926155
    vertex 1604.1434117546346 315.7326365852253 267.4602977029218
  endloop
endfacet
facet normal 0.7294603150691844 0.5832855177552927 -0.35730330745195515
  outer loop
    vertex 1614.1219748877372 307.1251403693557 274.0541768074273
    vertex 1614.356497430075 306.92560499884314 274.20723667164896
    vertex 1614.6353635215241 302.5582048812135 267.64692938358723
  endloop
endfacet
facet normal 0.6835766069700565 -0.6176184293082989 0.38893508222074136
  outer loop
    vertex 1614.4450293331765 306.0270893808862 267.70561670650835
    vertex 1614.194620116205 308.953448785546 272.7927057155325
    vertex 1614.194620116205 305.7398511864093 267.68959933007915
  endloop
endfacet
facet normal 0.6835766069700565 -0.6176184293082989 0.38893508222074136
  outer loop
    vertex 1614.194620116205 308.953448785546 272.7927057155325
    vertex 1614.4450293331765 306.0270893808862 267.70561670650835
    vertex 1614.4450293331765 309.1064671809207 272.59558566802446
  endloop
endfacet
facet normal 0.6835766069700565 -0.6176184293082989 0.38893508222074136
  outer loop
    vertex 1614.194620116205 308.953448785546 272.7927057155325
    vertex 1614.4450293331765 309.1064671809207 272.59558566802446
    vertex 1614.4450293331765 309.15340897492706 272.67012797189057
  endloop
endfacet
facet normal -0.23482232263543984 -0.8222761533179043 0.5183824885900451
  outer loop
    vertex 1616.072976663057 306.3921079262068 267.7808752184103
    vertex 1615.7388550490714 309.4696484164381 272.51118897417314
    vertex 1615.7388550490714 306.4763765877875 267.7684883591149
  endloop
endfacet
facet normal -0.23482232263543984 -0.8222761533179043 0.5183824885900451
  outer loop
    vertex 1615.7388550490714 309.4696484164381 272.51118897417314
    vertex 1616.072976663057 306.3921079262068 267.7808752184103
    vertex 1616.072976663057 309.41988980648216 272.5889112497868
  endloop
endfacet
facet normal -0.3571229506417662 0.7905083926410075 -0.49755369488031065
  outer loop
    vertex 1615.9633816591095 306.6620106313122 274.4917538603373
    vertex 1616.3000160725965 302.54966878985437 267.7165474850247
    vertex 1615.9633816591095 302.38455053083646 267.69926249236795
  endloop
endfacet
facet normal -0.3571229506417662 0.7905083926410075 -0.49755369488031065
  outer loop
    vertex 1616.3000160725965 302.54966878985437 267.7165474850247
    vertex 1615.9633816591095 306.6620106313122 274.4917538603373
    vertex 1616.284469671497 306.77038971630685 274.43708057300637
  endloop
endfacet
facet normal 0.22708177903482038 0.8240869561673893 -0.5189552527002194
  outer loop
    vertex 1614.9478682431286 306.6611063894165 274.4279302509574
    vertex 1615.281989857115 302.31291445365474 267.6693218576405
    vertex 1614.947868243129 302.39718311523507 267.656934998345
  endloop
endfacet
facet normal 0.22708177903482038 0.8240869561673893 -0.5189552527002194
  outer loop
    vertex 1615.281989857115 302.31291445365474 267.6693218576405
    vertex 1614.9478682431286 306.6611063894165 274.4279302509574
    vertex 1615.2819898571145 306.60629373520425 274.48709245615476
  endloop
endfacet
facet normal 0.5800114010644498 0.6845969161440892 -0.441490472197597
  outer loop
    vertex 1614.1219748877372 307.1251403693557 274.0541768074273
    vertex 1614.6353635215241 302.5582048812135 267.64692938358723
    vertex 1614.356497430075 302.7898002625751 267.6396902046272
  endloop
endfacet
facet normal 0.031728120787628135 0.011794019673103177 -0.9994269495321988
  outer loop
    vertex 1620.745188449885 292.96220963348264 267.7186340555318
    vertex 1615.753383850123 292.65476051462497 267.55653452407375
    vertex 1604.1434117546346 315.7326365852253 267.4602977029218
  endloop
endfacet
facet normal -0.052105332941173636 0.5685367967910296 0.8210060565998797
  outer loop
    vertex 1614.1219748877372 307.1251403693557 274.0541768074273
    vertex 1604.1434117546346 313.2072189500208 269.20911897084875
    vertex 1604.1434117546346 305.67808408338095 274.4229541006586
  endloop
endfacet
facet normal -0.052105332941173636 0.5685367967910296 0.8210060565998797
  outer loop
    vertex 1604.1434117546346 313.2072189500208 269.20911897084875
    vertex 1614.1219748877372 307.1251403693557 274.0541768074273
    vertex 1613.9408066331653 307.35984465603497 273.8801490345305
  endloop
endfacet
facet normal -0.052105332941173636 0.5685367967910296 0.8210060565998797
  outer loop
    vertex 1604.1434117546346 313.2072189500208 269.20911897084875
    vertex 1613.9408066331653 307.35984465603497 273.8801490345305
    vertex 1613.819949773372 307.6207086130033 273.6918336814732
  endloop
endfacet
facet normal -0.052105332941173636 0.5685367967910296 0.8210060565998797
  outer loop
    vertex 1604.1434117546346 313.2072189500208 269.20911897084875
    vertex 1613.819949773372 307.6207086130033 273.6918336814732
    vertex 1613.7640658073067 307.89770539425814 273.49647006130925
  endloop
endfacet
facet normal -0.052105332941173636 0.5685367967910296 0.8210060565998797
  outer loop
    vertex 1613.7752981930398 308.1801908983703 273.30156512100694
    vertex 1604.1434117546346 313.2072189500208 269.20911897084875
    vertex 1613.7640658073067 307.89770539425814 273.49647006130925
  endloop
endfacet
facet normal 0.9866443553945397 0.13783579149130076 -0.08679983036884391
  outer loop
    vertex 1613.7640658073067 304.2110556629093 267.64216963799817
    vertex 1613.819949773372 307.6207086130033 273.6918336814732
    vertex 1613.819949773372 303.80762459923 267.63675902489945
  endloop
endfacet
facet normal 0.9866443553945397 0.13783579149130076 -0.08679983036884391
  outer loop
    vertex 1613.819949773372 307.6207086130033 273.6918336814732
    vertex 1613.7640658073067 304.2110556629093 267.64216963799817
    vertex 1613.7640658073067 307.89770539425814 273.49647006130925
  endloop
endfacet
facet normal 0.9108614224279851 -0.34923435506627226 0.21992461065990915
  outer loop
    vertex 1613.9947896245085 305.4009167077757 267.6747086956705
    vertex 1613.8531968260008 308.45730727404657 273.1146092257061
    vertex 1613.8531968260008 305.0233113203409 267.6615161926252
  endloop
endfacet
facet normal 0.9108614224279851 -0.34923435506627226 0.21992461065990915
  outer loop
    vertex 1613.8531968260008 308.45730727404657 273.1146092257061
    vertex 1613.9947896245085 305.4009167077757 267.6747086956705
    vertex 1613.9947896245085 308.71840399785566 272.9427891106596
  endloop
endfacet
facet normal -0.9866443553945302 -0.13783579149135042 0.08679983036887214
  outer loop
    vertex 1617.2567686769326 308.18328821358614 273.52037257019987
    vertex 1617.2008847108673 304.98166282315435 267.80105068541604
    vertex 1617.2567686769326 304.5782317594753 267.79564007231744
  endloop
endfacet
facet normal -0.9866443553945302 -0.13783579149135042 0.08679983036887214
  outer loop
    vertex 1617.2008847108673 304.98166282315435 267.80105068541604
    vertex 1617.2567686769326 308.18328821358614 273.52037257019987
    vertex 1617.2008847108673 308.4602849948407 273.32500895003625
  endloop
endfacet
facet normal 0.3445933627668871 -0.7125834565021889 0.6111302904098288
  outer loop
    vertex 1614.7363716755283 309.3106044467489 272.5797621095743
    vertex 1614.7366537945893 309.2606678008263 272.52137645159956
    vertex 1615.0574607693577 309.41898667281004 272.5250867157262
  endloop
endfacet
facet normal 0.3804891301916453 -0.7825470790970742 0.4927961960107271
  outer loop
    vertex 1615.0574607693577 309.41898667281004 272.5250867157262
    vertex 1614.7366537945893 309.2606678008263 272.52137645159956
    vertex 1615.0574607693577 309.37676819427116 272.45804490953526
  endloop
endfacet
facet normal -0.7298629588150961 -0.5784521407485448 0.36427075399090036
  outer loop
    vertex 1616.8988664592875 308.9558537936999 272.9626658751532
    vertex 1616.6643392763465 305.99948041519957 267.79811946922223
    vertex 1616.8988664592875 305.7062071753976 267.8023146187354
  endloop
endfacet
facet normal -0.7298629588150961 -0.5784521407485448 0.36427075399090036
  outer loop
    vertex 1616.6643392763465 305.99948041519957 267.79811946922223
    vertex 1616.8988664592875 308.9558537936999 272.9626658751532
    vertex 1616.6643392763465 309.15538399030305 272.8096092992844
  endloop
endfacet
facet normal -0.9359101187600655 -0.2980621583475271 0.1876997585606705
  outer loop
    vertex 1617.2008847108673 308.4602849948407 273.32500895003625
    vertex 1617.0800382730208 305.36253794513755 267.8033045877421
    vertex 1617.2008847108673 304.98166282315435 267.80105068541604
  endloop
endfacet
facet normal -0.9359101187600655 -0.2980621583475271 0.1876997585606705
  outer loop
    vertex 1617.0800382730208 305.36253794513755 267.8033045877421
    vertex 1617.2008847108673 308.4602849948407 273.32500895003625
    vertex 1617.0800382730208 308.72115153986374 273.13669246621316
  endloop
endfacet
facet normal 0.9738813870274674 -0.19213438499309057 0.12099347959614742
  outer loop
    vertex 1613.8531968260008 305.0233113203409 267.6615161926252
    vertex 1613.7752981930398 308.1801908983703 273.30156512100694
    vertex 1613.7752981930398 304.62154377505806 267.65052938976555
  endloop
endfacet
facet normal 0.9738813870274674 -0.19213438499309057 0.12099347959614742
  outer loop
    vertex 1613.7752981930398 308.1801908983703 273.30156512100694
    vertex 1613.8531968260008 305.0233113203409 267.6615161926252
    vertex 1613.8531968260008 308.45730727404657 273.1146092257061
  endloop
endfacet
facet normal 0.7298780573264162 0.5784384994203026 -0.3642621635879927
  outer loop
    vertex 1614.1219748877372 307.1251403693557 274.0541768074273
    vertex 1614.356497430075 302.7898002625751 267.6396902046272
    vertex 1614.1219748877377 303.08308095983074 267.6354953929677
  endloop
endfacet
facet normal -0.4127793737079846 -0.7707390039667469 0.4853602542499657
  outer loop
    vertex 1616.3854576112747 306.23105452088424 267.79087922853387
    vertex 1616.072976663057 309.41988980648216 272.5889112497868
    vertex 1616.072976663057 306.3921079262068 267.7808752184103
  endloop
endfacet
facet normal -0.4127793737079846 -0.7707390039667469 0.4853602542499657
  outer loop
    vertex 1616.072976663057 309.41988980648216 272.5889112497868
    vertex 1616.3854576112747 306.23105452088424 267.79087922853387
    vertex 1616.3854576112747 309.3120516085121 272.6834195751107
  endloop
endfacet
facet normal 0.9358990940593981 0.29808694469419883 -0.18771536735620714
  outer loop
    vertex 1613.819949773372 303.80762459923 267.63675902489945
    vertex 1613.9408066331653 307.35984465603497 273.8801490345305
    vertex 1613.9408066331653 303.4267530963046 267.63450562901306
  endloop
endfacet
facet normal 0.9358990940593981 0.29808694469419883 -0.18771536735620714
  outer loop
    vertex 1613.9408066331653 307.35984465603497 273.8801490345305
    vertex 1613.819949773372 303.80762459923 267.63675902489945
    vertex 1613.819949773372 307.6207086130033 273.6918336814732
  endloop
endfacet
facet normal 0.9994639121177527 -0.027704115805317408 0.017446212818911042
  outer loop
    vertex 1613.7752981930398 304.62154377505806 267.65052938976555
    vertex 1613.7640658073067 307.89770539425814 273.49647006130925
    vertex 1613.7640658073067 304.2110556629093 267.64216963799817
  endloop
endfacet
facet normal 0.9994639121177527 -0.027704115805317408 0.017446212818911042
  outer loop
    vertex 1613.7640658073067 307.89770539425814 273.49647006130925
    vertex 1613.7752981930398 304.62154377505806 267.65052938976555
    vertex 1613.7752981930398 308.1801908983703 273.30156512100694
  endloop
endfacet
facet normal -0.5824214660662701 -0.6878594039850471 0.4331681846749049
  outer loop
    vertex 1616.6643392763465 305.99948041519957 267.79811946922223
    vertex 1616.3854576112747 309.3120516085121 272.6834195751107
    vertex 1616.3854576112747 306.23105452088424 267.79087922853387
  endloop
endfacet
facet normal -0.5824214660662701 -0.6878594039850471 0.4331681846749049
  outer loop
    vertex 1616.3854576112747 309.3120516085121 272.6834195751107
    vertex 1616.6643392763465 305.99948041519957 267.79811946922223
    vertex 1616.6643392763465 309.15538399030305 272.8096092992844
  endloop
endfacet
facet normal 0.38052904527428455 -0.7835111822822919 0.49123097718002967
  outer loop
    vertex 1614.7366537945893 309.2606678008263 272.52137645159956
    vertex 1614.7363716755283 306.2515993593673 267.7221444667342
    vertex 1615.0574607693577 309.37676819427116 272.45804490953526
  endloop
endfacet
facet normal 0.41269064698185304 0.7707730250291488 -0.4853816784563616
  outer loop
    vertex 1614.6353635215241 306.7689225977208 274.3334356444283
    vertex 1614.947868243129 302.39718311523507 267.656934998345
    vertex 1614.6353635215241 302.5582048812135 267.64692938358723
  endloop
endfacet
facet normal 0.41269064698185304 0.7707730250291488 -0.4853816784563616
  outer loop
    vertex 1614.947868243129 302.39718311523507 267.656934998345
    vertex 1614.6353635215241 306.7689225977208 274.3334356444283
    vertex 1614.9478682431286 306.6611063894165 274.4279302509574
  endloop
endfacet
facet normal 0.0 -0.4738563694249462 0.8806021469173291
  outer loop
    vertex 1627.0951884498852 306.538974151471 274.87684994265436
    vertex 1620.6887223472854 306.538974151471 274.87684994265436
    vertex 1614.330793804844 306.2044347634061 274.6968326437947
  endloop
endfacet
facet normal 0.49317977473566776 -0.659924604907666 0.5668096908391185
  outer loop
    vertex 1614.4450293331765 309.1064671809207 272.59558566802446
    vertex 1614.7366537945893 309.2606678008263 272.52137645159956
    vertex 1614.7363716755283 309.3106044467489 272.5797621095743
  endloop
endfacet
facet normal -0.9994647365770275 0.02768280998466261 -0.017432795827586084
  outer loop
    vertex 1617.2455450613338 307.900806036344 273.7152757632836
    vertex 1617.2567686769326 304.5782317594753 267.79564007231744
    vertex 1617.2455450613338 304.1677483630684 267.78728077882215
  endloop
endfacet
facet normal -0.9994647365770275 0.02768280998466261 -0.017432795827586084
  outer loop
    vertex 1617.2567686769326 304.5782317594753 267.79564007231744
    vertex 1617.2455450613338 307.900806036344 273.7152757632836
    vertex 1617.2567686769326 308.18328821358614 273.52037257019987
  endloop
endfacet
facet normal -0.05140546263909437 0.5639164690031043 0.8242303648846793
  outer loop
    vertex 1609.6539188187712 305.9627950254264 274.5710990940659
    vertex 1614.1219748877372 307.1251403693557 274.0541768074273
    vertex 1604.1434117546346 305.67808408338095 274.4229541006586
  endloop
endfacet
facet normal -0.05140546263909437 0.5639164690031043 0.8242303648846793
  outer loop
    vertex 1614.1219748877372 307.1251403693557 274.0541768074273
    vertex 1609.6539188187712 305.9627950254264 274.5710990940659
    vertex 1614.356497430075 306.92560499884314 274.20723667164896
  endloop
endfacet
facet normal -0.05210533294116424 0.568536796791016 0.82100605659989
  outer loop
    vertex 1620.6887223472854 306.538974151471 274.87684994265436
    vertex 1617.1676414729357 307.62369187711494 273.9022298092235
    vertex 1617.026048674428 307.3625951533057 274.07404992426996
  endloop
endfacet
facet normal -0.05210533294116424 0.568536796791016 0.82100605659989
  outer loop
    vertex 1617.1676414729357 307.62369187711494 273.9022298092235
    vertex 1620.6887223472854 306.538974151471 274.87684994265436
    vertex 1617.2455450613338 307.900806036344 273.7152757632836
  endloop
endfacet
facet normal -0.05210533294116424 0.568536796791016 0.82100605659989
  outer loop
    vertex 1617.2455450613338 307.900806036344 273.7152757632836
    vertex 1620.6887223472854 306.538974151471 274.87684994265436
    vertex 1617.2567686769326 308.18328821358614 273.52037257019987
  endloop
endfacet
facet normal -0.05210533294116424 0.568536796791016 0.82100605659989
  outer loop
    vertex 1617.2567686769326 308.18328821358614 273.52037257019987
    vertex 1627.2117778125937 313.0757478525249 270.7642001304048
    vertex 1617.2008847108673 308.4602849948407 273.32500895003625
  endloop
endfacet
facet normal -0.05210533294116424 0.568536796791016 0.82100605659989
  outer loop
    vertex 1627.2117778125937 313.0757478525249 270.7642001304048
    vertex 1617.2567686769326 308.18328821358614 273.52037257019987
    vertex 1620.6887223472854 306.538974151471 274.87684994265436
  endloop
endfacet
facet normal -0.08345453474570208 0.6368334054265593 0.7664714961191905
  outer loop
    vertex 1627.2117778125937 313.0757478525249 270.7642001304048
    vertex 1615.7388550490714 309.4696484164381 272.51118897417314
    vertex 1616.072976663057 309.41988980648216 272.5889112497868
  endloop
endfacet
facet normal 6.387645971717409e-17 0.5325261061355656 0.8464135787451029
  outer loop
    vertex 1627.2117778125937 313.0757478525249 270.7642001304048
    vertex 1620.6887223472854 306.538974151471 274.87684994265436
    vertex 1627.0951884498852 306.538974151471 274.87684994265436
  endloop
endfacet
facet normal -0.05210533294117902 0.5685367967910372 0.8210060565998744
  outer loop
    vertex 1617.0800382730208 308.72115153986374 273.13669246621316
    vertex 1627.2117778125937 313.0757478525249 270.7642001304048
    vertex 1616.8988664592875 308.9558537936999 272.9626658751532
  endloop
endfacet
facet normal -0.05210533294117902 0.5685367967910372 0.8210060565998744
  outer loop
    vertex 1627.2117778125937 313.0757478525249 270.7642001304048
    vertex 1617.0800382730208 308.72115153986374 273.13669246621316
    vertex 1617.2008847108673 308.4602849948407 273.32500895003625
  endloop
endfacet
facet normal -0.0008447254018044714 -0.448671749547477 0.8936962278073025
  outer loop
    vertex 1627.0951884498852 306.538974151471 274.87684994265436
    vertex 1609.6539188187712 305.9627950254264 274.5710990940659
    vertex 1604.1434117546346 305.67808408338095 274.4229541006586
  endloop
endfacet
facet normal -0.0008447254018044714 -0.448671749547477 0.8936962278073025
  outer loop
    vertex 1609.6539188187712 305.9627950254264 274.5710990940659
    vertex 1627.0951884498852 306.538974151471 274.87684994265436
    vertex 1614.330793804844 306.2044347634061 274.6968326437947
  endloop
endfacet
facet normal -0.05245650458715866 0.5666406124144368 0.8222935798661508
  outer loop
    vertex 1614.330793804844 306.2044347634061 274.6968326437947
    vertex 1614.9478682431286 306.6611063894165 274.4279302509574
    vertex 1614.6353635215241 306.7689225977208 274.3334356444283
  endloop
endfacet
facet normal -0.05245650458715866 0.5666406124144368 0.8222935798661508
  outer loop
    vertex 1614.9478682431286 306.6611063894165 274.4279302509574
    vertex 1614.330793804844 306.2044347634061 274.6968326437947
    vertex 1615.2819898571145 306.60629373520425 274.48709245615476
  endloop
endfacet
facet normal -0.05245650458715866 0.5666406124144368 0.8222935798661508
  outer loop
    vertex 1615.2819898571145 306.60629373520425 274.48709245615476
    vertex 1614.330793804844 306.2044347634061 274.6968326437947
    vertex 1620.6887223472854 306.538974151471 274.87684994265436
  endloop
endfacet
facet normal -0.05245650458715866 0.5666406124144368 0.8222935798661508
  outer loop
    vertex 1615.2819898571145 306.60629373520425 274.48709245615476
    vertex 1620.6887223472854 306.538974151471 274.87684994265436
    vertex 1615.6248838540755 306.6065976542407 274.50864384006695
  endloop
endfacet
facet normal -0.05245650458715866 0.5666406124144368 0.8222935798661508
  outer loop
    vertex 1615.6248838540755 306.6065976542407 274.50864384006695
    vertex 1620.6887223472854 306.538974151471 274.87684994265436
    vertex 1615.9633816591095 306.6620106313122 274.4917538603373
  endloop
endfacet
facet normal -0.05245650458715866 0.5666406124144368 0.8222935798661508
  outer loop
    vertex 1615.9633816591095 306.6620106313122 274.4917538603373
    vertex 1620.6887223472854 306.538974151471 274.87684994265436
    vertex 1616.284469671497 306.77038971630685 274.43708057300637
  endloop
endfacet
facet normal -0.05245650458715866 0.5666406124144368 0.8222935798661508
  outer loop
    vertex 1616.284469671497 306.77038971630685 274.43708057300637
    vertex 1620.6887223472854 306.538974151471 274.87684994265436
    vertex 1616.5758136656611 306.9275844493129 274.3467153271434
  endloop
endfacet
facet normal -0.05245650458715866 0.5666406124144368 0.8222935798661508
  outer loop
    vertex 1616.5758136656611 306.9275844493129 274.3467153271434
    vertex 1620.6887223472854 306.538974151471 274.87684994265436
    vertex 1616.8262190086375 307.12661756071924 274.22265294519605
  endloop
endfacet
facet normal -0.05245650458715866 0.5666406124144368 0.8222935798661508
  outer loop
    vertex 1616.8262190086375 307.12661756071924 274.22265294519605
    vertex 1620.6887223472854 306.538974151471 274.87684994265436
    vertex 1617.026048674428 307.3625951533057 274.07404992426996
  endloop
endfacet
facet normal -0.001730570367230422 0.44043923223185333 0.8977807571101196
  outer loop
    vertex 1627.2117778125937 313.0757478525249 270.7642001304048
    vertex 1615.3959610521106 309.47439854165793 272.5081976606773
    vertex 1615.7388550490714 309.4696484164381 272.51118897417314
  endloop
endfacet
facet normal -0.05130471541361337 0.5617274725650738 0.8257300241253084
  outer loop
    vertex 1614.330793804844 306.2044347634061 274.6968326437947
    vertex 1614.356497430075 306.92560499884314 274.20723667164896
    vertex 1609.6539188187712 305.9627950254264 274.5710990940659
  endloop
endfacet
facet normal -0.05130471541361337 0.5617274725650738 0.8257300241253084
  outer loop
    vertex 1614.356497430075 306.92560499884314 274.20723667164896
    vertex 1614.330793804844 306.2044347634061 274.6968326437947
    vertex 1614.6353635215241 306.7689225977208 274.3334356444283
  endloop
endfacet
facet normal -0.052105332941187375 0.5685367967910571 0.8210060565998598
  outer loop
    vertex 1616.6643392763465 309.15538399030305 272.8096092992844
    vertex 1627.2117778125937 313.0757478525249 270.7642001304048
    vertex 1616.3854576112747 309.3120516085121 272.6834195751107
  endloop
endfacet
facet normal -0.052105332941187375 0.5685367967910571 0.8210060565998598
  outer loop
    vertex 1627.2117778125937 313.0757478525249 270.7642001304048
    vertex 1616.6643392763465 309.15538399030305 272.8096092992844
    vertex 1616.8988664592875 308.9558537936999 272.9626658751532
  endloop
endfacet
facet normal 0.5036799875476042 -0.7310180777969938 0.46034665207649067
  outer loop
    vertex 1614.4450293331765 309.1064671809207 272.59558566802446
    vertex 1614.4450293331765 306.0270893808862 267.70561670650835
    vertex 1614.7366537945893 309.2606678008263 272.52137645159956
  endloop
endfacet
facet normal 0.5280746771392828 -0.7185854905598115 0.452517434052167
  outer loop
    vertex 1614.4450293331765 309.15340897492706 272.67012797189057
    vertex 1614.4450293331765 309.1064671809207 272.59558566802446
    vertex 1614.7363716755283 309.3106044467489 272.5797621095743
  endloop
endfacet
facet normal -0.05210533294117617 0.5685367967910445 0.8210060565998691
  outer loop
    vertex 1627.2117778125937 313.0757478525249 270.7642001304048
    vertex 1616.072976663057 309.41988980648216 272.5889112497868
    vertex 1616.3854576112747 309.3120516085121 272.6834195751107
  endloop
endfacet
facet normal -0.05210533294117427 0.5685367967910321 0.821006056599878
  outer loop
    vertex 1604.1434117546346 313.2072189500208 269.20911897084875
    vertex 1615.0574607693577 309.41898667281004 272.5250867157262
    vertex 1627.2117778125937 313.0757478525249 270.7642001304048
  endloop
endfacet
facet normal -0.05210533294117427 0.5685367967910321 0.821006056599878
  outer loop
    vertex 1615.0574607693577 309.41898667281004 272.5250867157262
    vertex 1604.1434117546346 313.2072189500208 269.20911897084875
    vertex 1614.7363716755283 309.3106044467489 272.5797621095743
  endloop
endfacet
facet normal -0.05210533294117427 0.5685367967910321 0.821006056599878
  outer loop
    vertex 1614.7363716755283 309.3106044467489 272.5797621095743
    vertex 1604.1434117546346 313.2072189500208 269.20911897084875
    vertex 1614.4450293331765 309.15340897492706 272.67012797189057
  endloop
endfacet
facet normal -0.05210533294117427 0.5685367967910321 0.821006056599878
  outer loop
    vertex 1614.4450293331765 309.15340897492706 272.67012797189057
    vertex 1604.1434117546346 313.2072189500208 269.20911897084875
    vertex 1614.194620116205 308.953448785546 272.7927057155325
  endloop
endfacet
facet normal -0.05210533294117427 0.5685367967910321 0.821006056599878
  outer loop
    vertex 1614.194620116205 308.953448785546 272.7927057155325
    vertex 1604.1434117546346 313.2072189500208 269.20911897084875
    vertex 1613.9947896245085 308.71840399785566 272.9427891106596
  endloop
endfacet
facet normal -0.05210533294117427 0.5685367967910321 0.821006056599878
  outer loop
    vertex 1613.9947896245085 308.71840399785566 272.9427891106596
    vertex 1604.1434117546346 313.2072189500208 269.20911897084875
    vertex 1613.8531968260008 308.45730727404657 273.1146092257061
  endloop
endfacet
facet normal -0.05210533294117427 0.5685367967910321 0.821006056599878
  outer loop
    vertex 1613.8531968260008 308.45730727404657 273.1146092257061
    vertex 1604.1434117546346 313.2072189500208 269.20911897084875
    vertex 1613.7752981930398 308.1801908983703 273.30156512100694
  endloop
endfacet
facet normal -0.05210533294117427 0.5685367967910321 0.821006056599878
  outer loop
    vertex 1627.2117778125937 313.0757478525249 270.7642001304048
    vertex 1615.0574607693577 309.41898667281004 272.5250867157262
    vertex 1615.3959610521106 309.47439854165793 272.5081976606773
  endloop
endfacet
facet normal -0.8491941420016431 -0.4468583463858436 0.28140171899866373
  outer loop
    vertex 1617.0800382730208 308.72115153986374 273.13669246621316
    vertex 1616.8988664592875 305.7062071753976 267.8023146187354
    vertex 1617.0800382730208 305.36253794513755 267.8033045877421
  endloop
endfacet
facet normal -0.8491941420016431 -0.4468583463858436 0.28140171899866373
  outer loop
    vertex 1616.8988664592875 305.7062071753976 267.8023146187354
    vertex 1617.0800382730208 308.72115153986374 273.13669246621316
    vertex 1616.8988664592875 308.9558537936999 272.9626658751532
  endloop
endfacet
facet normal 4.689686544827051e-15 -0.4663866403399013 0.8845809752150786
  outer loop
    vertex 1610.7615792503614 292.3473113957674 267.3944349926155
    vertex 1610.4934117546345 299.27522606330075 271.04711002959147
    vertex 1607.4524955024979 292.5010359551959 267.4754847583447
  endloop
endfacet
facet normal 4.689686544827051e-15 -0.4663866403399013 0.8845809752150786
  outer loop
    vertex 1610.4934117546345 299.27522606330075 271.04711002959147
    vertex 1610.7615792503614 292.3473113957674 267.3944349926155
    vertex 1610.7615792503614 295.1558559920753 268.8752125756945
  endloop
endfacet
facet normal 4.689686544827051e-15 -0.4663866403399013 0.8845809752150786
  outer loop
    vertex 1610.7615792503614 295.1558559920753 268.8752125756945
    vertex 1610.7615792503614 292.3473113957674 267.3944349926155
    vertex 1615.753383850123 292.65476051462497 267.55653452407375
  endloop
endfacet
facet normal 4.689686544827051e-15 -0.4663866403399013 0.8845809752150786
  outer loop
    vertex 1610.7615792503614 295.1558559920753 268.8752125756945
    vertex 1615.753383850123 292.65476051462497 267.55653452407375
    vertex 1620.745188449885 295.77075422979044 269.1994116386108
  endloop
endfacet
facet normal 4.689686544827051e-15 -0.4663866403399013 0.8845809752150786
  outer loop
    vertex 1620.745188449885 295.77075422979044 269.1994116386108
    vertex 1615.753383850123 292.65476051462497 267.55653452407375
    vertex 1620.745188449885 292.96220963348264 267.7186340555318
  endloop
endfacet
facet normal 4.689686544827051e-15 -0.4663866403399013 0.8845809752150786
  outer loop
    vertex 1620.745188449885 295.77075422979044 269.1994116386108
    vertex 1620.745188449885 292.96220963348264 267.7186340555318
    vertex 1623.920188449885 292.96220963348264 267.7186340555318
  endloop
endfacet
facet normal 4.689686544827051e-15 -0.4663866403399013 0.8845809752150786
  outer loop
    vertex 1607.4524955024979 292.5010359551959 267.4754847583447
    vertex 1604.1434117546346 305.67808408338095 274.4229541006586
    vertex 1604.1434117546346 299.27522606330075 271.04711002959147
  endloop
endfacet
facet normal 4.689686544827051e-15 -0.4663866403399013 0.8845809752150786
  outer loop
    vertex 1604.1434117546346 305.67808408338095 274.4229541006586
    vertex 1607.4524955024979 292.5010359551959 267.4754847583447
    vertex 1610.4934117546345 299.27522606330075 271.04711002959147
  endloop
endfacet
facet normal 4.689686544827051e-15 -0.4663866403399013 0.8845809752150786
  outer loop
    vertex 1604.1434117546346 305.67808408338095 274.4229541006586
    vertex 1610.4934117546345 299.27522606330075 271.04711002959147
    vertex 1627.0951884498852 306.538974151471 274.87684994265436
  endloop
endfacet
facet normal 4.689686544827051e-15 -0.4663866403399013 0.8845809752150786
  outer loop
    vertex 1627.0951884498852 306.538974151471 274.87684994265436
    vertex 1610.4934117546345 299.27522606330075 271.04711002959147
    vertex 1620.6887223472854 299.9074012731882 271.38041820657804
  endloop
endfacet
facet normal 4.689686544827051e-15 -0.4663866403399013 0.8845809752150786
  outer loop
    vertex 1627.0951884498852 306.538974151471 274.87684994265436
    vertex 1620.6887223472854 299.9074012731882 271.38041820657804
    vertex 1620.745188449885 295.77075422979044 269.1994116386108
  endloop
endfacet
facet normal 4.689686544827051e-15 -0.4663866403399013 0.8845809752150786
  outer loop
    vertex 1627.0951884498852 306.538974151471 274.87684994265436
    vertex 1620.745188449885 295.77075422979044 269.1994116386108
    vertex 1623.920188449885 292.96220963348264 267.7186340555318
  endloop
endfacet
facet normal 4.689686544827051e-15 -0.4663866403399013 0.8845809752150786
  outer loop
    vertex 1627.0951884498852 306.538974151471 274.87684994265436
    vertex 1623.920188449885 292.96220963348264 267.7186340555318
    vertex 1627.0951884498852 299.9074012731882 271.38041820657804
  endloop
endfacet
facet normal 0.7876324097597154 -0.035757685052377974 -0.6151069622885101
  outer loop
    vertex 1627.2117778125937 313.0757478525249 270.7642001304048
    vertex 1627.0951884498852 299.9074012731882 271.38041820657804
    vertex 1623.920188449885 292.96220963348264 267.7186340555318
  endloop
endfacet
facet normal 0.9999215723261323 0.012232200604808348 0.0026874644554537395
  outer loop
    vertex 1620.6887223472854 299.9074012731882 271.38041820657804
    vertex 1620.695632541328 298.94429426333994 273.19300629358344
    vertex 1620.745188449885 295.77075422979044 269.1994116386108
  endloop
endfacet
facet normal -1.0 0.0 0.0
  outer loop
    vertex 1604.1434117546346 313.2072189500208 269.20911897084875
    vertex 1604.1434117546346 299.27522606330075 271.04711002959147
    vertex 1604.1434117546346 305.67808408338095 274.4229541006586
  endloop
endfacet
facet normal 0.4453629009548401 0.06235970812936492 -0.8931758803590197
  outer loop
    vertex 1627.2117778125937 313.0757478525249 270.7642001304048
    vertex 1623.920188449885 292.96220963348264 267.7186340555318
    vertex 1621.6301819965447 316.26200843298926 268.2035158631004
  endloop
endfacet
facet normal -0.06669291646570676 0.6886637107804998 0.7220071664099535
  outer loop
    vertex 1611.3309167171758 296.57514542751335 274.58805376610667
    vertex 1620.695632541328 298.94429426333994 273.19300629358344
    vertex 1610.4934117546345 298.3376569287981 272.82536812619
  endloop
endfacet
facet normal -0.06669291646570676 0.6886637107804998 0.7220071664099535
  outer loop
    vertex 1620.695632541328 298.94429426333994 273.19300629358344
    vertex 1611.3309167171758 296.57514542751335 274.58805376610667
    vertex 1615.6465703483368 296.84274387047265 274.72914241968266
  endloop
endfacet
facet normal -0.06669291646570676 0.6886637107804998 0.7220071664099535
  outer loop
    vertex 1620.695632541328 298.94429426333994 273.19300629358344
    vertex 1615.6465703483368 296.84274387047265 274.72914241968266
    vertex 1619.905185496151 297.1068055584846 274.86836635391245
  endloop
endfacet
facet normal 0.9998480245202842 -0.008130764076446468 0.015421366295452207
  outer loop
    vertex 1627.2117778125937 313.0757478525249 270.7642001304048
    vertex 1627.0951884498852 306.538974151471 274.87684994265436
    vertex 1627.0951884498852 299.9074012731882 271.38041820657804
  endloop
endfacet
facet normal -0.06958503124171002 0.8816184674104173 0.46680488573706824
  outer loop
    vertex 1610.4934117546345 298.3376569287981 272.82536812619
    vertex 1620.6887223472854 299.9074012731882 271.38041820657804
    vertex 1610.4934117546345 299.27522606330075 271.04711002959147
  endloop
endfacet
facet normal -0.06958503124171002 0.8816184674104173 0.46680488573706824
  outer loop
    vertex 1620.6887223472854 299.9074012731882 271.38041820657804
    vertex 1610.4934117546345 298.3376569287981 272.82536812619
    vertex 1620.695632541328 298.94429426333994 273.19300629358344
  endloop
endfacet
facet normal 3.318830144065353e-16 0.020806052863016067 -0.9997835306526416
  outer loop
    vertex 1623.920188449885 292.96220963348264 267.7186340555318
    vertex 1620.745188449885 292.96220963348264 267.7186340555318
    vertex 1621.6301819965447 316.26200843298926 268.2035158631004
  endloop
endfacet
facet normal 0.9460447527900436 -0.14092735717972832 0.29178554747753094
  outer loop
    vertex 1620.695632541328 298.94429426333994 273.19300629358344
    vertex 1619.9232632561484 295.7824479527482 274.1701117998872
    vertex 1619.9424479636402 294.37699654259546 273.4291013331146
  endloop
endfacet
facet normal 0.9460447527900436 -0.14092735717972832 0.29178554747753094
  outer loop
    vertex 1619.9232632561484 295.7824479527482 274.1701117998872
    vertex 1620.695632541328 298.94429426333994 273.19300629358344
    vertex 1619.905185496151 297.1068055584846 274.86836635391245
  endloop
endfacet
facet normal 1.3776207417990022e-14 -0.4663866403399256 0.884580975215066
  outer loop
    vertex 1611.5078329939718 293.8575020614912 273.1552029648413
    vertex 1615.6465703483368 296.84274387047265 274.72914241968266
    vertex 1611.3309167171758 296.57514542751335 274.58805376610667
  endloop
endfacet
facet normal 1.3776207417990022e-14 -0.4663866403399256 0.884580975215066
  outer loop
    vertex 1615.6465703483368 296.84274387047265 274.72914241968266
    vertex 1611.5078329939718 293.8575020614912 273.1552029648413
    vertex 1619.9424479636402 294.37699654259546 273.4291013331146
  endloop
endfacet
facet normal 1.3776207417990022e-14 -0.4663866403399256 0.884580975215066
  outer loop
    vertex 1615.6465703483368 296.84274387047265 274.72914241968266
    vertex 1619.9424479636402 294.37699654259546 273.4291013331146
    vertex 1619.9232632561484 295.7824479527482 274.1701117998872
  endloop
endfacet
facet normal 1.3776207417990022e-14 -0.4663866403399256 0.884580975215066
  outer loop
    vertex 1615.6465703483368 296.84274387047265 274.72914241968266
    vertex 1619.9232632561484 295.7824479527482 274.1701117998872
    vertex 1619.905185496151 297.1068055584846 274.86836635391245
  endloop
endfacet
facet normal -0.02455627115473036 -0.8456716731705853 0.5331382660659787
  outer loop
    vertex 1615.7388550490714 306.4763765877875 267.7684883591149
    vertex 1615.3959610521106 309.47439854165793 272.5081976606773
    vertex 1615.3959610521106 306.48064409341856 267.75419627438157
  endloop
endfacet
facet normal -0.02455627115473036 -0.8456716731705853 0.5331382660659787
  outer loop
    vertex 1615.3959610521106 309.47439854165793 272.5081976606773
    vertex 1615.7388550490714 306.4763765877875 267.7684883591149
    vertex 1615.7388550490714 309.4696484164381 272.51118897417314
  endloop
endfacet
facet normal -0.052105332941177994 0.5685367967910149 0.8210060565998897
  outer loop
    vertex 1627.2117778125937 313.0757478525249 270.7642001304048
    vertex 1604.1434117546346 315.7326365852253 267.4602977029218
    vertex 1604.1434117546346 313.2072189500208 269.20911897084875
  endloop
endfacet
facet normal -0.052105332941177994 0.5685367967910149 0.8210060565998897
  outer loop
    vertex 1604.1434117546346 315.7326365852253 267.4602977029218
    vertex 1627.2117778125937 313.0757478525249 270.7642001304048
    vertex 1621.6301819965447 316.26200843298926 268.2035158631004
  endloop
endfacet
facet normal -0.02467910337974325 -0.004168783686487598 -0.9996867324812044
  outer loop
    vertex 1610.7615792503614 292.3473113957674 267.3944349926155
    vertex 1607.4524955024979 292.5010359551959 267.4754847583447
    vertex 1604.1434117546346 315.7326365852253 267.4602977029218
  endloop
endfacet
facet normal 0.041875446367240346 0.019197914600111887 -0.9989383800147791
  outer loop
    vertex 1604.1434117546346 315.7326365852253 267.4602977029218
    vertex 1613.7752981930398 304.62154377505806 267.65052938976555
    vertex 1613.7640658073067 304.2110556629093 267.64216963799817
  endloop
endfacet
facet normal 0.041875446367240346 0.019197914600111887 -0.9989383800147791
  outer loop
    vertex 1613.7752981930398 304.62154377505806 267.65052938976555
    vertex 1604.1434117546346 315.7326365852253 267.4602977029218
    vertex 1613.8531968260008 305.0233113203409 267.6615161926252
  endloop
endfacet
facet normal 0.041875446367240346 0.019197914600111887 -0.9989383800147791
  outer loop
    vertex 1613.8531968260008 305.0233113203409 267.6615161926252
    vertex 1604.1434117546346 315.7326365852253 267.4602977029218
    vertex 1613.9947896245085 305.4009167077757 267.6747086956705
  endloop
endfacet
facet normal 0.041875446367240346 0.019197914600111887 -0.9989383800147791
  outer loop
    vertex 1613.9947896245085 305.4009167077757 267.6747086956705
    vertex 1604.1434117546346 315.7326365852253 267.4602977029218
    vertex 1614.194620116205 305.7398511864093 267.68959933007915
  endloop
endfacet
facet normal 0.041875446367240346 0.019197914600111887 -0.9989383800147791
  outer loop
    vertex 1614.194620116205 305.7398511864093 267.68959933007915
    vertex 1604.1434117546346 315.7326365852253 267.4602977029218
    vertex 1621.6301819965447 316.26200843298926 268.2035158631004
  endloop
endfacet
facet normal 0.041875446367240346 0.019197914600111887 -0.9989383800147791
  outer loop
    vertex 1614.194620116205 305.7398511864093 267.68959933007915
    vertex 1621.6301819965447 316.26200843298926 268.2035158631004
    vertex 1614.4450293331765 306.0270893808862 267.70561670650835
  endloop
endfacet
facet normal 0.041875446367240346 0.019197914600111887 -0.9989383800147791
  outer loop
    vertex 1614.4450293331765 306.0270893808862 267.70561670650835
    vertex 1621.6301819965447 316.26200843298926 268.2035158631004
    vertex 1614.7363716755283 306.2515993593673 267.7221444667342
  endloop
endfacet
facet normal 0.041875446367240346 0.019197914600111887 -0.9989383800147791
  outer loop
    vertex 1614.7363716755283 306.2515993593673 267.7221444667342
    vertex 1621.6301819965447 316.26200843298926 268.2035158631004
    vertex 1615.0574607693577 306.4047421556326 267.738547652136
  endloop
endfacet
facet normal 0.041875446367240346 0.019197914600111887 -0.9989383800147791
  outer loop
    vertex 1615.0574607693577 306.4047421556326 267.738547652136
    vertex 1621.6301819965447 316.26200843298926 268.2035158631004
    vertex 1615.3959610521106 306.48064409341856 267.75419627438157
  endloop
endfacet
facet normal 0.041875446367240346 0.019197914600111887 -0.9989383800147791
  outer loop
    vertex 1615.3959610521106 306.48064409341856 267.75419627438157
    vertex 1621.6301819965447 316.26200843298926 268.2035158631004
    vertex 1615.7388550490714 306.4763765877875 267.7684883591149
  endloop
endfacet
facet normal 0.041875446367240346 0.019197914600111887 -0.9989383800147791
  outer loop
    vertex 1615.7388550490714 306.4763765877875 267.7684883591149
    vertex 1621.6301819965447 316.26200843298926 268.2035158631004
    vertex 1616.072976663057 306.3921079262068 267.7808752184103
  endloop
endfacet
facet normal 0.041875446367240346 0.019197914600111887 -0.9989383800147791
  outer loop
    vertex 1616.072976663057 306.3921079262068 267.7808752184103
    vertex 1621.6301819965447 316.26200843298926 268.2035158631004
    vertex 1616.3854576112747 306.23105452088424 267.79087922853387
  endloop
endfacet
facet normal 0.041875446367240346 0.019197914600111887 -0.9989383800147791
  outer loop
    vertex 1616.3854576112747 306.23105452088424 267.79087922853387
    vertex 1621.6301819965447 316.26200843298926 268.2035158631004
    vertex 1616.6643392763465 305.99948041519957 267.79811946922223
  endloop
endfacet
facet normal 0.041875446367240346 0.019197914600111887 -0.9989383800147791
  outer loop
    vertex 1616.6643392763465 305.99948041519957 267.79811946922223
    vertex 1621.6301819965447 316.26200843298926 268.2035158631004
    vertex 1616.8988664592875 305.7062071753976 267.8023146187354
  endloop
endfacet
facet normal 0.041875446367240346 0.019197914600111887 -0.9989383800147791
  outer loop
    vertex 1616.8988664592875 305.7062071753976 267.8023146187354
    vertex 1621.6301819965447 316.26200843298926 268.2035158631004
    vertex 1617.0800382730208 305.36253794513755 267.8033045877421
  endloop
endfacet
facet normal 0.041875446367240346 0.019197914600111887 -0.9989383800147791
  outer loop
    vertex 1617.0800382730208 305.36253794513755 267.8033045877421
    vertex 1621.6301819965447 316.26200843298926 268.2035158631004
    vertex 1617.2008847108673 304.98166282315435 267.80105068541604
  endloop
endfacet
facet normal 0.041875446367240346 0.019197914600111887 -0.9989383800147791
  outer loop
    vertex 1617.2008847108673 304.98166282315435 267.80105068541604
    vertex 1621.6301819965447 316.26200843298926 268.2035158631004
    vertex 1617.2567686769326 304.5782317594753 267.79564007231744
  endloop
endfacet
facet normal 0.041875446367240346 0.019197914600111887 -0.9989383800147791
  outer loop
    vertex 1617.2567686769326 304.5782317594753 267.79564007231744
    vertex 1621.6301819965447 316.26200843298926 268.2035158631004
    vertex 1620.745188449885 292.96220963348264 267.7186340555318
  endloop
endfacet
facet normal 0.041875446367240346 0.019197914600111887 -0.9989383800147791
  outer loop
    vertex 1604.1434117546346 315.7326365852253 267.4602977029218
    vertex 1614.1219748877377 303.08308095983074 267.6354953929677
    vertex 1620.745188449885 292.96220963348264 267.7186340555318
  endloop
endfacet
facet normal 0.041875446367240346 0.019197914600111887 -0.9989383800147791
  outer loop
    vertex 1614.1219748877377 303.08308095983074 267.6354953929677
    vertex 1604.1434117546346 315.7326365852253 267.4602977029218
    vertex 1613.9408066331653 303.4267530963046 267.63450562901306
  endloop
endfacet
facet normal 0.041875446367240346 0.019197914600111887 -0.9989383800147791
  outer loop
    vertex 1613.9408066331653 303.4267530963046 267.63450562901306
    vertex 1604.1434117546346 315.7326365852253 267.4602977029218
    vertex 1613.819949773372 303.80762459923 267.63675902489945
  endloop
endfacet
facet normal 0.041875446367240346 0.019197914600111887 -0.9989383800147791
  outer loop
    vertex 1613.819949773372 303.80762459923 267.63675902489945
    vertex 1604.1434117546346 315.7326365852253 267.4602977029218
    vertex 1613.7640658073067 304.2110556629093 267.64216963799817
  endloop
endfacet
facet normal 0.041875446367240346 0.019197914600111887 -0.9989383800147791
  outer loop
    vertex 1620.745188449885 292.96220963348264 267.7186340555318
    vertex 1614.1219748877377 303.08308095983074 267.6354953929677
    vertex 1614.356497430075 302.7898002625751 267.6396902046272
  endloop
endfacet
facet normal 0.041875446367240346 0.019197914600111887 -0.9989383800147791
  outer loop
    vertex 1620.745188449885 292.96220963348264 267.7186340555318
    vertex 1614.356497430075 302.7898002625751 267.6396902046272
    vertex 1614.6353635215241 302.5582048812135 267.64692938358723
  endloop
endfacet
facet normal 0.041875446367240346 0.019197914600111887 -0.9989383800147791
  outer loop
    vertex 1620.745188449885 292.96220963348264 267.7186340555318
    vertex 1614.6353635215241 302.5582048812135 267.64692938358723
    vertex 1614.947868243129 302.39718311523507 267.656934998345
  endloop
endfacet
facet normal 0.041875446367240346 0.019197914600111887 -0.9989383800147791
  outer loop
    vertex 1620.745188449885 292.96220963348264 267.7186340555318
    vertex 1614.947868243129 302.39718311523507 267.656934998345
    vertex 1615.281989857115 302.31291445365474 267.6693218576405
  endloop
endfacet
facet normal 0.041875446367240346 0.019197914600111887 -0.9989383800147791
  outer loop
    vertex 1620.745188449885 292.96220963348264 267.7186340555318
    vertex 1615.281989857115 302.31291445365474 267.6693218576405
    vertex 1615.6248838540755 302.3086469480234 267.6836139423738
  endloop
endfacet
facet normal 0.041875446367240346 0.019197914600111887 -0.9989383800147791
  outer loop
    vertex 1620.745188449885 292.96220963348264 267.7186340555318
    vertex 1615.6248838540755 302.3086469480234 267.6836139423738
    vertex 1615.9633816591095 302.38455053083646 267.69926249236795
  endloop
endfacet
facet normal 0.041875446367240346 0.019197914600111887 -0.9989383800147791
  outer loop
    vertex 1620.745188449885 292.96220963348264 267.7186340555318
    vertex 1615.9633816591095 302.38455053083646 267.69926249236795
    vertex 1616.3000160725965 302.54966878985437 267.7165474850247
  endloop
endfacet
facet normal 0.041875446367240346 0.019197914600111887 -0.9989383800147791
  outer loop
    vertex 1620.745188449885 292.96220963348264 267.7186340555318
    vertex 1616.3000160725965 302.54966878985437 267.7165474850247
    vertex 1616.5758136656611 302.76219765765734 267.732193353362
  endloop
endfacet
facet normal 0.041875446367240346 0.019197914600111887 -0.9989383800147791
  outer loop
    vertex 1620.745188449885 292.96220963348264 267.7186340555318
    vertex 1616.5758136656611 302.76219765765734 267.732193353362
    vertex 1616.8262190086375 303.0494436934286 267.7482107180902
  endloop
endfacet
facet normal 0.041875446367240346 0.019197914600111887 -0.9989383800147791
  outer loop
    vertex 1620.745188449885 292.96220963348264 267.7186340555318
    vertex 1616.8262190086375 303.0494436934286 267.7482107180902
    vertex 1617.026048674428 303.3883787204045 267.76310132841525
  endloop
endfacet
facet normal 0.041875446367240346 0.019197914600111887 -0.9989383800147791
  outer loop
    vertex 1620.745188449885 292.96220963348264 267.7186340555318
    vertex 1617.026048674428 303.3883787204045 267.76310132841525
    vertex 1617.1676414729357 303.76598410783936 267.77629383146035
  endloop
endfacet
facet normal 0.041875446367240346 0.019197914600111887 -0.9989383800147791
  outer loop
    vertex 1620.745188449885 292.96220963348264 267.7186340555318
    vertex 1617.1676414729357 303.76598410783936 267.77629383146035
    vertex 1617.2455450613338 304.1677483630684 267.78728077882215
  endloop
endfacet
facet normal 0.041875446367240346 0.019197914600111887 -0.9989383800147791
  outer loop
    vertex 1620.745188449885 292.96220963348264 267.7186340555318
    vertex 1617.2455450613338 304.1677483630684 267.78728077882215
    vertex 1617.2567686769326 304.5782317594753 267.79564007231744
  endloop
endfacet
facet normal -0.9983460690758219 -0.05085476229856239 -0.026812674473300484
  outer loop
    vertex 1610.4934117546345 299.27522606330075 271.04711002959147
    vertex 1610.7615792503614 295.1558559920753 268.8752125756945
    vertex 1610.4934117546345 298.3376569287981 272.82536812619
  endloop
endfacet
facet normal -0.9475150530726336 -0.20425808357381267 0.24595499485783484
  outer loop
    vertex 1610.4934117546345 298.3376569287981 272.82536812619
    vertex 1610.8173847264359 294.2217239601484 270.6552828509035
    vertex 1611.3309167171758 296.57514542751335 274.58805376610667
  endloop
endfacet
endsolid Inmoov_Shoulder_Cover_Remix
