solid PIR_Case
facet normal 0.0 0.0 -1.0
  outer loop
    vertex 56.94681368626783 100.10785716397062 0.0
    vertex 63.85570377079901 88.71368570520087 0.0
    vertex 56.94681368626783 71.10785716397062 0.0
  endloop
endfacet
facet normal 0.0 0.0 -1.0
  outer loop
    vertex 63.85570377079901 88.71368570520087 0.0
    vertex 56.94681368626783 100.10785716397062 0.0
    vertex 65.05450884085458 91.60785716397062 0.0
  endloop
endfacet
facet normal 0.0 0.0 -1.0
  outer loop
    vertex 65.05450884085458 91.60785716397062 0.0
    vertex 56.94681368626783 100.10785716397062 0.0
    vertex 66.96153231202926 94.09313853820919 0.0
  endloop
endfacet
facet normal 0.0 0.0 -1.0
  outer loop
    vertex 66.96153231202926 94.09313853820919 0.0
    vertex 56.94681368626783 100.10785716397062 0.0
    vertex 69.44681368626783 96.00016200938389 0.0
  endloop
endfacet
facet normal 0.0 0.0 -1.0
  outer loop
    vertex 69.44681368626783 96.00016200938389 0.0
    vertex 56.94681368626783 100.10785716397062 0.0
    vertex 72.34098514503758 97.19896707943944 0.0
  endloop
endfacet
facet normal 0.0 0.0 -1.0
  outer loop
    vertex 72.34098514503758 97.19896707943944 0.0
    vertex 56.94681368626783 100.10785716397062 0.0
    vertex 93.94681368626783 100.10785716397062 0.0
  endloop
endfacet
facet normal 0.0 0.0 -1.0
  outer loop
    vertex 56.94681368626783 71.10785716397062 0.0
    vertex 63.85570377079901 88.71368570520087 0.0
    vertex 63.44681368626783 85.60785716397062 0.0
  endloop
endfacet
facet normal 0.0 0.0 -1.0
  outer loop
    vertex 72.34098514503758 97.19896707943944 0.0
    vertex 93.94681368626783 100.10785716397062 0.0
    vertex 75.44681368626783 97.60785716397062 0.0
  endloop
endfacet
facet normal 0.0 0.0 -1.0
  outer loop
    vertex 75.44681368626783 97.60785716397062 0.0
    vertex 93.94681368626783 100.10785716397062 0.0
    vertex 78.55264222749808 97.19896707943944 0.0
  endloop
endfacet
facet normal 0.0 0.0 -1.0
  outer loop
    vertex 78.55264222749808 97.19896707943944 0.0
    vertex 93.94681368626783 100.10785716397062 0.0
    vertex 81.44681368626783 96.00016200938387 0.0
  endloop
endfacet
facet normal 0.0 0.0 -1.0
  outer loop
    vertex 81.44681368626783 96.00016200938387 0.0
    vertex 93.94681368626783 100.10785716397062 0.0
    vertex 83.9320950605064 94.09313853820919 0.0
  endloop
endfacet
facet normal 0.0 0.0 -1.0
  outer loop
    vertex 83.9320950605064 94.09313853820919 0.0
    vertex 93.94681368626783 100.10785716397062 0.0
    vertex 85.8391185316811 91.60785716397062 0.0
  endloop
endfacet
facet normal 0.0 0.0 -1.0
  outer loop
    vertex 85.8391185316811 91.60785716397062 0.0
    vertex 93.94681368626783 100.10785716397062 0.0
    vertex 87.03792360173665 88.71368570520087 0.0
  endloop
endfacet
facet normal 0.0 0.0 -1.0
  outer loop
    vertex 87.03792360173665 88.71368570520087 0.0
    vertex 93.94681368626783 100.10785716397062 0.0
    vertex 87.44681368626783 85.60785716397062 0.0
  endloop
endfacet
facet normal 0.0 0.0 -1.0
  outer loop
    vertex 56.94681368626783 71.10785716397062 0.0
    vertex 72.34098514503758 74.0167472485018 0.0
    vertex 93.94681368626783 71.10785716397062 0.0
  endloop
endfacet
facet normal 0.0 0.0 -1.0
  outer loop
    vertex 72.34098514503758 74.0167472485018 0.0
    vertex 56.94681368626783 71.10785716397062 0.0
    vertex 69.44681368626783 75.21555231855736 0.0
  endloop
endfacet
facet normal 0.0 0.0 -1.0
  outer loop
    vertex 69.44681368626783 75.21555231855736 0.0
    vertex 56.94681368626783 71.10785716397062 0.0
    vertex 66.96153231202925 77.12257578973205 0.0
  endloop
endfacet
facet normal 0.0 0.0 -1.0
  outer loop
    vertex 66.96153231202925 77.12257578973205 0.0
    vertex 56.94681368626783 71.10785716397062 0.0
    vertex 65.05450884085458 79.60785716397062 0.0
  endloop
endfacet
facet normal 0.0 0.0 -1.0
  outer loop
    vertex 65.05450884085458 79.60785716397062 0.0
    vertex 56.94681368626783 71.10785716397062 0.0
    vertex 63.85570377079901 82.50202862274038 0.0
  endloop
endfacet
facet normal 0.0 0.0 -1.0
  outer loop
    vertex 63.85570377079901 82.50202862274038 0.0
    vertex 56.94681368626783 71.10785716397062 0.0
    vertex 63.44681368626783 85.60785716397062 0.0
  endloop
endfacet
facet normal 0.0 0.0 -1.0
  outer loop
    vertex 93.94681368626783 71.10785716397062 0.0
    vertex 72.34098514503758 74.0167472485018 0.0
    vertex 75.44681368626783 73.60785716397062 0.0
  endloop
endfacet
facet normal 0.0 0.0 -1.0
  outer loop
    vertex 93.94681368626783 71.10785716397062 0.0
    vertex 75.44681368626783 73.60785716397062 0.0
    vertex 78.55264222749807 74.0167472485018 0.0
  endloop
endfacet
facet normal 0.0 0.0 -1.0
  outer loop
    vertex 93.94681368626783 71.10785716397062 0.0
    vertex 78.55264222749807 74.0167472485018 0.0
    vertex 81.44681368626782 75.21555231855734 0.0
  endloop
endfacet
facet normal 0.0 0.0 -1.0
  outer loop
    vertex 93.94681368626783 71.10785716397062 0.0
    vertex 81.44681368626782 75.21555231855734 0.0
    vertex 83.9320950605064 77.12257578973205 0.0
  endloop
endfacet
facet normal 0.0 0.0 -1.0
  outer loop
    vertex 93.94681368626783 71.10785716397062 0.0
    vertex 83.9320950605064 77.12257578973205 0.0
    vertex 85.8391185316811 79.6078571639706 0.0
  endloop
endfacet
facet normal 0.0 0.0 -1.0
  outer loop
    vertex 93.94681368626783 71.10785716397062 0.0
    vertex 85.8391185316811 79.6078571639706 0.0
    vertex 87.03792360173665 82.50202862274035 0.0
  endloop
endfacet
facet normal 0.0 0.0 -1.0
  outer loop
    vertex 93.94681368626783 71.10785716397062 0.0
    vertex 87.03792360173665 82.50202862274035 0.0
    vertex 87.44681368626783 85.60785716397062 0.0
  endloop
endfacet
facet normal 0.0 0.0 -1.0
  outer loop
    vertex 93.94681368626783 71.10785716397062 0.0
    vertex 87.44681368626783 85.60785716397062 0.0
    vertex 93.94681368626783 100.10785716397062 0.0
  endloop
endfacet
facet normal -0.13052619222005216 0.9914448613738104 0.0
  outer loop
    vertex 75.44681368626783 73.60785716397062 1.9999999999999998
    vertex 78.55264222749807 74.0167472485018 0.0
    vertex 75.44681368626783 73.60785716397062 0.0
  endloop
endfacet
facet normal -0.13052619222005216 0.9914448613738104 0.0
  outer loop
    vertex 78.55264222749807 74.0167472485018 0.0
    vertex 75.44681368626783 73.60785716397062 1.9999999999999998
    vertex 78.55264222749807 74.0167472485018 1.9999999999999998
  endloop
endfacet
facet normal -0.3826834323650882 0.9238795325112874 0.0
  outer loop
    vertex 78.55264222749807 74.0167472485018 1.9999999999999998
    vertex 81.44681368626782 75.21555231855734 0.0
    vertex 78.55264222749807 74.0167472485018 0.0
  endloop
endfacet
facet normal -0.3826834323650882 0.9238795325112874 0.0
  outer loop
    vertex 81.44681368626782 75.21555231855734 0.0
    vertex 78.55264222749807 74.0167472485018 1.9999999999999998
    vertex 81.44681368626782 75.21555231855734 1.9999999999999998
  endloop
endfacet
facet normal -0.6087614290087207 0.793353340291235 0.0
  outer loop
    vertex 81.44681368626782 75.21555231855734 1.9999999999999998
    vertex 83.9320950605064 77.12257578973205 0.0
    vertex 81.44681368626782 75.21555231855734 0.0
  endloop
endfacet
facet normal -0.6087614290087207 0.793353340291235 0.0
  outer loop
    vertex 83.9320950605064 77.12257578973205 0.0
    vertex 81.44681368626782 75.21555231855734 1.9999999999999998
    vertex 83.9320950605064 77.12257578973205 1.9999999999999998
  endloop
endfacet
facet normal -0.7933533402912343 0.608761429008722 0.0
  outer loop
    vertex 85.8391185316811 79.6078571639706 1.9999999999999998
    vertex 83.9320950605064 77.12257578973205 0.0
    vertex 83.9320950605064 77.12257578973205 1.9999999999999998
  endloop
endfacet
facet normal -0.7933533402912343 0.608761429008722 0.0
  outer loop
    vertex 83.9320950605064 77.12257578973205 0.0
    vertex 85.8391185316811 79.6078571639706 1.9999999999999998
    vertex 85.8391185316811 79.6078571639706 0.0
  endloop
endfacet
facet normal -0.9238795325112862 0.38268343236509134 0.0
  outer loop
    vertex 87.03792360173665 82.50202862274035 1.9999999999999998
    vertex 85.8391185316811 79.6078571639706 0.0
    vertex 85.8391185316811 79.6078571639706 1.9999999999999998
  endloop
endfacet
facet normal -0.9238795325112862 0.38268343236509134 0.0
  outer loop
    vertex 85.8391185316811 79.6078571639706 0.0
    vertex 87.03792360173665 82.50202862274035 1.9999999999999998
    vertex 87.03792360173665 82.50202862274035 0.0
  endloop
endfacet
facet normal -0.9914448613738105 0.1305261922200512 0.0
  outer loop
    vertex 87.44681368626783 85.60785716397062 1.9999999999999998
    vertex 87.03792360173665 82.50202862274035 0.0
    vertex 87.03792360173665 82.50202862274035 1.9999999999999998
  endloop
endfacet
facet normal -0.9914448613738105 0.1305261922200512 0.0
  outer loop
    vertex 87.03792360173665 82.50202862274035 0.0
    vertex 87.44681368626783 85.60785716397062 1.9999999999999998
    vertex 87.44681368626783 85.60785716397062 0.0
  endloop
endfacet
facet normal -0.9914448613738105 -0.13052619222005168 0.0
  outer loop
    vertex 87.03792360173665 88.71368570520087 1.9999999999999998
    vertex 87.44681368626783 85.60785716397062 0.0
    vertex 87.44681368626783 85.60785716397062 1.9999999999999998
  endloop
endfacet
facet normal -0.9914448613738105 -0.13052619222005168 0.0
  outer loop
    vertex 87.44681368626783 85.60785716397062 0.0
    vertex 87.03792360173665 88.71368570520087 1.9999999999999998
    vertex 87.03792360173665 88.71368570520087 0.0
  endloop
endfacet
facet normal -0.9238795325112862 -0.38268343236509134 -0.0
  outer loop
    vertex 85.8391185316811 91.60785716397062 1.9999999999999998
    vertex 87.03792360173665 88.71368570520087 0.0
    vertex 87.03792360173665 88.71368570520087 1.9999999999999998
  endloop
endfacet
facet normal -0.9238795325112862 -0.38268343236509134 -0.0
  outer loop
    vertex 87.03792360173665 88.71368570520087 0.0
    vertex 85.8391185316811 91.60785716397062 1.9999999999999998
    vertex 85.8391185316811 91.60785716397062 0.0
  endloop
endfacet
facet normal -0.7933533402912355 -0.6087614290087202 -0.0
  outer loop
    vertex 83.9320950605064 94.09313853820919 1.9999999999999998
    vertex 85.8391185316811 91.60785716397062 0.0
    vertex 85.8391185316811 91.60785716397062 1.9999999999999998
  endloop
endfacet
facet normal -0.7933533402912355 -0.6087614290087202 -0.0
  outer loop
    vertex 85.8391185316811 91.60785716397062 0.0
    vertex 83.9320950605064 94.09313853820919 1.9999999999999998
    vertex 83.9320950605064 94.09313853820919 0.0
  endloop
endfacet
facet normal -0.6087614290087202 -0.7933533402912355 -0.0
  outer loop
    vertex 83.9320950605064 94.09313853820919 1.9999999999999998
    vertex 81.44681368626783 96.00016200938387 0.0
    vertex 83.9320950605064 94.09313853820919 0.0
  endloop
endfacet
facet normal -0.6087614290087202 -0.7933533402912355 -0.0
  outer loop
    vertex 81.44681368626783 96.00016200938387 0.0
    vertex 83.9320950605064 94.09313853820919 1.9999999999999998
    vertex 81.44681368626783 96.00016200938387 1.9999999999999998
  endloop
endfacet
facet normal -0.38268343236509134 -0.9238795325112862 -0.0
  outer loop
    vertex 81.44681368626783 96.00016200938387 1.9999999999999998
    vertex 78.55264222749808 97.19896707943944 0.0
    vertex 81.44681368626783 96.00016200938387 0.0
  endloop
endfacet
facet normal -0.38268343236509134 -0.9238795325112862 -0.0
  outer loop
    vertex 78.55264222749808 97.19896707943944 0.0
    vertex 81.44681368626783 96.00016200938387 1.9999999999999998
    vertex 78.55264222749808 97.19896707943944 1.9999999999999998
  endloop
endfacet
facet normal -0.13052619222005168 -0.9914448613738105 -0.0
  outer loop
    vertex 78.55264222749808 97.19896707943944 1.9999999999999998
    vertex 75.44681368626783 97.60785716397062 0.0
    vertex 78.55264222749808 97.19896707943944 0.0
  endloop
endfacet
facet normal -0.13052619222005168 -0.9914448613738105 -0.0
  outer loop
    vertex 75.44681368626783 97.60785716397062 0.0
    vertex 78.55264222749808 97.19896707943944 1.9999999999999998
    vertex 75.44681368626783 97.60785716397062 1.9999999999999998
  endloop
endfacet
facet normal 0.13052619222005168 -0.9914448613738105 0.0
  outer loop
    vertex 75.44681368626783 97.60785716397062 1.9999999999999998
    vertex 72.34098514503758 97.19896707943944 0.0
    vertex 75.44681368626783 97.60785716397062 0.0
  endloop
endfacet
facet normal 0.13052619222005168 -0.9914448613738105 0.0
  outer loop
    vertex 72.34098514503758 97.19896707943944 0.0
    vertex 75.44681368626783 97.60785716397062 1.9999999999999998
    vertex 72.34098514503758 97.19896707943944 1.9999999999999998
  endloop
endfacet
facet normal 0.3826834323650882 -0.9238795325112874 0.0
  outer loop
    vertex 72.34098514503758 97.19896707943944 1.9999999999999998
    vertex 69.44681368626783 96.00016200938389 0.0
    vertex 72.34098514503758 97.19896707943944 0.0
  endloop
endfacet
facet normal 0.3826834323650882 -0.9238795325112874 0.0
  outer loop
    vertex 69.44681368626783 96.00016200938389 0.0
    vertex 72.34098514503758 97.19896707943944 1.9999999999999998
    vertex 69.44681368626783 96.00016200938389 1.9999999999999998
  endloop
endfacet
facet normal 0.6087614290087224 -0.7933533402912337 0.0
  outer loop
    vertex 69.44681368626783 96.00016200938389 1.9999999999999998
    vertex 66.96153231202926 94.09313853820919 0.0
    vertex 69.44681368626783 96.00016200938389 0.0
  endloop
endfacet
facet normal 0.6087614290087224 -0.7933533402912337 0.0
  outer loop
    vertex 66.96153231202926 94.09313853820919 0.0
    vertex 69.44681368626783 96.00016200938389 1.9999999999999998
    vertex 66.96153231202926 94.09313853820919 1.9999999999999998
  endloop
endfacet
facet normal 0.7933533402912355 -0.6087614290087202 0.0
  outer loop
    vertex 66.96153231202926 94.09313853820919 0.0
    vertex 65.05450884085458 91.60785716397062 1.9999999999999998
    vertex 65.05450884085458 91.60785716397062 0.0
  endloop
endfacet
facet normal 0.7933533402912355 -0.6087614290087202 0.0
  outer loop
    vertex 65.05450884085458 91.60785716397062 1.9999999999999998
    vertex 66.96153231202926 94.09313853820919 0.0
    vertex 66.96153231202926 94.09313853820919 1.9999999999999998
  endloop
endfacet
facet normal 0.9238795325112862 -0.38268343236509134 0.0
  outer loop
    vertex 65.05450884085458 91.60785716397062 0.0
    vertex 63.85570377079901 88.71368570520087 1.9999999999999998
    vertex 63.85570377079901 88.71368570520087 0.0
  endloop
endfacet
facet normal 0.9238795325112862 -0.38268343236509134 0.0
  outer loop
    vertex 63.85570377079901 88.71368570520087 1.9999999999999998
    vertex 65.05450884085458 91.60785716397062 0.0
    vertex 65.05450884085458 91.60785716397062 1.9999999999999998
  endloop
endfacet
facet normal 0.9914448613738105 -0.13052619222005168 -0.0
  outer loop
    vertex 63.85570377079901 88.71368570520087 0.0
    vertex 63.44681368626783 85.60785716397062 1.9999999999999998
    vertex 63.44681368626783 85.60785716397062 0.0
  endloop
endfacet
facet normal 0.9914448613738105 -0.13052619222005168 -0.0
  outer loop
    vertex 63.44681368626783 85.60785716397062 1.9999999999999998
    vertex 63.85570377079901 88.71368570520087 0.0
    vertex 63.85570377079901 88.71368570520087 1.9999999999999998
  endloop
endfacet
facet normal 0.9914448613738105 0.13052619222005218 -0.0
  outer loop
    vertex 63.44681368626783 85.60785716397062 0.0
    vertex 63.85570377079901 82.50202862274038 1.9999999999999998
    vertex 63.85570377079901 82.50202862274038 0.0
  endloop
endfacet
facet normal 0.9914448613738105 0.13052619222005218 -0.0
  outer loop
    vertex 63.85570377079901 82.50202862274038 1.9999999999999998
    vertex 63.44681368626783 85.60785716397062 0.0
    vertex 63.44681368626783 85.60785716397062 1.9999999999999998
  endloop
endfacet
facet normal 0.9238795325112867 0.38268343236509006 0.0
  outer loop
    vertex 63.85570377079901 82.50202862274038 0.0
    vertex 65.05450884085458 79.60785716397062 1.9999999999999998
    vertex 65.05450884085458 79.60785716397062 0.0
  endloop
endfacet
facet normal 0.9238795325112867 0.38268343236509006 0.0
  outer loop
    vertex 65.05450884085458 79.60785716397062 1.9999999999999998
    vertex 63.85570377079901 82.50202862274038 0.0
    vertex 63.85570377079901 82.50202862274038 1.9999999999999998
  endloop
endfacet
facet normal 0.7933533402912373 0.6087614290087179 0.0
  outer loop
    vertex 65.05450884085458 79.60785716397062 0.0
    vertex 66.96153231202925 77.12257578973205 1.9999999999999998
    vertex 66.96153231202925 77.12257578973205 0.0
  endloop
endfacet
facet normal 0.7933533402912373 0.6087614290087179 0.0
  outer loop
    vertex 66.96153231202925 77.12257578973205 1.9999999999999998
    vertex 65.05450884085458 79.60785716397062 0.0
    vertex 65.05450884085458 79.60785716397062 1.9999999999999998
  endloop
endfacet
facet normal 0.6087614290087184 0.7933533402912368 0.0
  outer loop
    vertex 66.96153231202925 77.12257578973205 1.9999999999999998
    vertex 69.44681368626783 75.21555231855736 0.0
    vertex 66.96153231202925 77.12257578973205 0.0
  endloop
endfacet
facet normal 0.6087614290087184 0.7933533402912368 0.0
  outer loop
    vertex 69.44681368626783 75.21555231855736 0.0
    vertex 66.96153231202925 77.12257578973205 1.9999999999999998
    vertex 69.44681368626783 75.21555231855736 1.9999999999999998
  endloop
endfacet
facet normal 0.38268343236509256 0.9238795325112856 0.0
  outer loop
    vertex 69.44681368626783 75.21555231855736 1.9999999999999998
    vertex 72.34098514503758 74.0167472485018 0.0
    vertex 69.44681368626783 75.21555231855736 0.0
  endloop
endfacet
facet normal 0.38268343236509256 0.9238795325112856 0.0
  outer loop
    vertex 72.34098514503758 74.0167472485018 0.0
    vertex 69.44681368626783 75.21555231855736 1.9999999999999998
    vertex 72.34098514503758 74.0167472485018 1.9999999999999998
  endloop
endfacet
facet normal 0.13052619222005124 0.9914448613738106 0.0
  outer loop
    vertex 72.34098514503758 74.0167472485018 1.9999999999999998
    vertex 75.44681368626783 73.60785716397062 0.0
    vertex 72.34098514503758 74.0167472485018 0.0
  endloop
endfacet
facet normal 0.13052619222005124 0.9914448613738106 0.0
  outer loop
    vertex 75.44681368626783 73.60785716397062 0.0
    vertex 72.34098514503758 74.0167472485018 1.9999999999999998
    vertex 75.44681368626783 73.60785716397062 1.9999999999999998
  endloop
endfacet
facet normal 1.0 0.0 0.0
  outer loop
    vertex 93.94681368626783 100.10785716397062 0.0
    vertex 93.94681368626783 71.10785716397062 12.0
    vertex 93.94681368626783 71.10785716397062 0.0
  endloop
endfacet
facet normal 1.0 0.0 0.0
  outer loop
    vertex 93.94681368626783 71.10785716397062 12.0
    vertex 93.94681368626783 100.10785716397062 0.0
    vertex 93.94681368626783 100.10785716397062 12.0
  endloop
endfacet
facet normal -0.0 -1.0 -0.0
  outer loop
    vertex 93.94681368626783 71.10785716397062 12.0
    vertex 56.94681368626783 71.10785716397062 0.0
    vertex 93.94681368626783 71.10785716397062 0.0
  endloop
endfacet
facet normal -0.0 -1.0 -0.0
  outer loop
    vertex 56.94681368626783 71.10785716397062 0.0
    vertex 93.94681368626783 71.10785716397062 12.0
    vertex 56.94681368626783 71.10785716397062 12.0
  endloop
endfacet
facet normal -1.0 0.0 0.0
  outer loop
    vertex 56.94681368626783 100.10785716397062 12.0
    vertex 56.94681368626783 71.10785716397062 0.0
    vertex 56.94681368626783 71.10785716397062 12.0
  endloop
endfacet
facet normal -1.0 0.0 0.0
  outer loop
    vertex 56.94681368626783 71.10785716397062 0.0
    vertex 56.94681368626783 100.10785716397062 12.0
    vertex 56.94681368626783 100.10785716397062 0.0
  endloop
endfacet
facet normal -0.0 1.0 0.0
  outer loop
    vertex 56.94681368626783 100.10785716397062 12.0
    vertex 93.94681368626783 100.10785716397062 0.0
    vertex 56.94681368626783 100.10785716397062 0.0
  endloop
endfacet
facet normal -0.0 1.0 0.0
  outer loop
    vertex 93.94681368626783 100.10785716397062 0.0
    vertex 56.94681368626783 100.10785716397062 12.0
    vertex 93.94681368626783 100.10785716397062 12.0
  endloop
endfacet
facet normal -0.0 -0.0 1.0
  outer loop
    vertex 63.446813686267845 73.10785716397062 1.9999999999999998
    vertex 63.85570377079901 82.50202862274038 1.9999999999999998
    vertex 63.44681368626783 85.60785716397062 1.9999999999999998
  endloop
endfacet
facet normal -0.0 -0.0 1.0
  outer loop
    vertex 63.85570377079901 82.50202862274038 1.9999999999999998
    vertex 63.446813686267845 73.10785716397062 1.9999999999999998
    vertex 65.05450884085458 79.60785716397062 1.9999999999999998
  endloop
endfacet
facet normal -0.0 -0.0 1.0
  outer loop
    vertex 65.05450884085458 79.60785716397062 1.9999999999999998
    vertex 63.446813686267845 73.10785716397062 1.9999999999999998
    vertex 66.96153231202925 77.12257578973205 1.9999999999999998
  endloop
endfacet
facet normal -0.0 -0.0 1.0
  outer loop
    vertex 66.96153231202925 77.12257578973205 1.9999999999999998
    vertex 63.446813686267845 73.10785716397062 1.9999999999999998
    vertex 69.44681368626783 75.21555231855736 1.9999999999999998
  endloop
endfacet
facet normal -0.0 -0.0 1.0
  outer loop
    vertex 69.44681368626783 75.21555231855736 1.9999999999999998
    vertex 63.446813686267845 73.10785716397062 1.9999999999999998
    vertex 72.34098514503758 74.0167472485018 1.9999999999999998
  endloop
endfacet
facet normal -0.0 -0.0 1.0
  outer loop
    vertex 72.34098514503758 74.0167472485018 1.9999999999999998
    vertex 63.446813686267845 73.10785716397062 1.9999999999999998
    vertex 75.44681368626783 73.60785716397062 1.9999999999999998
  endloop
endfacet
facet normal -0.0 -0.0 1.0
  outer loop
    vertex 75.44681368626783 73.60785716397062 1.9999999999999998
    vertex 63.446813686267845 73.10785716397062 1.9999999999999998
    vertex 87.44681368626783 73.10785716397062 1.9999999999999998
  endloop
endfacet
facet normal -0.0 -0.0 1.0
  outer loop
    vertex 75.44681368626783 73.60785716397062 1.9999999999999998
    vertex 87.44681368626783 73.10785716397062 1.9999999999999998
    vertex 78.55264222749807 74.0167472485018 1.9999999999999998
  endloop
endfacet
facet normal -0.0 -0.0 1.0
  outer loop
    vertex 78.55264222749807 74.0167472485018 1.9999999999999998
    vertex 87.44681368626783 73.10785716397062 1.9999999999999998
    vertex 81.44681368626782 75.21555231855734 1.9999999999999998
  endloop
endfacet
facet normal -0.0 -0.0 1.0
  outer loop
    vertex 81.44681368626782 75.21555231855734 1.9999999999999998
    vertex 87.44681368626783 73.10785716397062 1.9999999999999998
    vertex 83.9320950605064 77.12257578973205 1.9999999999999998
  endloop
endfacet
facet normal -0.0 -0.0 1.0
  outer loop
    vertex 83.9320950605064 77.12257578973205 1.9999999999999998
    vertex 87.44681368626783 73.10785716397062 1.9999999999999998
    vertex 85.8391185316811 79.6078571639706 1.9999999999999998
  endloop
endfacet
facet normal -0.0 -0.0 1.0
  outer loop
    vertex 85.8391185316811 79.6078571639706 1.9999999999999998
    vertex 87.44681368626783 73.10785716397062 1.9999999999999998
    vertex 87.03792360173665 82.50202862274035 1.9999999999999998
  endloop
endfacet
facet normal -0.0 -0.0 1.0
  outer loop
    vertex 87.03792360173665 82.50202862274035 1.9999999999999998
    vertex 87.44681368626783 73.10785716397062 1.9999999999999998
    vertex 87.44681368626783 85.60785716397062 1.9999999999999998
  endloop
endfacet
facet normal -0.0 -0.0 1.0
  outer loop
    vertex 63.85570377079901 88.71368570520087 1.9999999999999998
    vertex 63.44681368626783 98.10785716397062 1.9999999999999998
    vertex 63.44681368626783 85.60785716397062 1.9999999999999998
  endloop
endfacet
facet normal -0.0 -0.0 1.0
  outer loop
    vertex 63.44681368626783 98.10785716397062 1.9999999999999998
    vertex 63.85570377079901 88.71368570520087 1.9999999999999998
    vertex 65.05450884085458 91.60785716397062 1.9999999999999998
  endloop
endfacet
facet normal -0.0 -0.0 1.0
  outer loop
    vertex 63.44681368626783 98.10785716397062 1.9999999999999998
    vertex 65.05450884085458 91.60785716397062 1.9999999999999998
    vertex 66.96153231202926 94.09313853820919 1.9999999999999998
  endloop
endfacet
facet normal -0.0 -0.0 1.0
  outer loop
    vertex 63.44681368626783 98.10785716397062 1.9999999999999998
    vertex 66.96153231202926 94.09313853820919 1.9999999999999998
    vertex 69.44681368626783 96.00016200938389 1.9999999999999998
  endloop
endfacet
facet normal -0.0 -0.0 1.0
  outer loop
    vertex 63.44681368626783 98.10785716397062 1.9999999999999998
    vertex 69.44681368626783 96.00016200938389 1.9999999999999998
    vertex 72.34098514503758 97.19896707943944 1.9999999999999998
  endloop
endfacet
facet normal -0.0 -0.0 1.0
  outer loop
    vertex 63.44681368626783 98.10785716397062 1.9999999999999998
    vertex 72.34098514503758 97.19896707943944 1.9999999999999998
    vertex 75.44681368626783 97.60785716397062 1.9999999999999998
  endloop
endfacet
facet normal -0.0 -0.0 1.0
  outer loop
    vertex 63.44681368626783 98.10785716397062 1.9999999999999998
    vertex 75.44681368626783 97.60785716397062 1.9999999999999998
    vertex 87.44681368626783 98.10785716397062 1.9999999999999998
  endloop
endfacet
facet normal -0.0 -0.0 1.0
  outer loop
    vertex 87.44681368626783 98.10785716397062 1.9999999999999998
    vertex 75.44681368626783 97.60785716397062 1.9999999999999998
    vertex 78.55264222749808 97.19896707943944 1.9999999999999998
  endloop
endfacet
facet normal -0.0 -0.0 1.0
  outer loop
    vertex 87.44681368626783 98.10785716397062 1.9999999999999998
    vertex 78.55264222749808 97.19896707943944 1.9999999999999998
    vertex 81.44681368626783 96.00016200938387 1.9999999999999998
  endloop
endfacet
facet normal -0.0 -0.0 1.0
  outer loop
    vertex 87.44681368626783 98.10785716397062 1.9999999999999998
    vertex 81.44681368626783 96.00016200938387 1.9999999999999998
    vertex 83.9320950605064 94.09313853820919 1.9999999999999998
  endloop
endfacet
facet normal -0.0 -0.0 1.0
  outer loop
    vertex 87.44681368626783 98.10785716397062 1.9999999999999998
    vertex 83.9320950605064 94.09313853820919 1.9999999999999998
    vertex 85.8391185316811 91.60785716397062 1.9999999999999998
  endloop
endfacet
facet normal -0.0 -0.0 1.0
  outer loop
    vertex 87.44681368626783 98.10785716397062 1.9999999999999998
    vertex 85.8391185316811 91.60785716397062 1.9999999999999998
    vertex 87.03792360173665 88.71368570520087 1.9999999999999998
  endloop
endfacet
facet normal -0.0 -0.0 1.0
  outer loop
    vertex 87.44681368626783 98.10785716397062 1.9999999999999998
    vertex 87.03792360173665 88.71368570520087 1.9999999999999998
    vertex 87.44681368626783 85.60785716397062 1.9999999999999998
  endloop
endfacet
facet normal -0.0 -0.0 1.0
  outer loop
    vertex 63.446813686267845 73.10785716397062 5.0
    vertex 58.94681368626783 98.10785716397062 5.0
    vertex 58.94681368626783 73.10785716397062 5.0
  endloop
endfacet
facet normal -0.0 -0.0 1.0
  outer loop
    vertex 58.94681368626783 98.10785716397062 5.0
    vertex 63.446813686267845 73.10785716397062 5.0
    vertex 63.44681368626783 98.10785716397062 5.0
  endloop
endfacet
facet normal 1.0 4.511946372076636e-16 -0.0
  outer loop
    vertex 63.44681368626783 85.60785716397062 1.9999999999999998
    vertex 63.446813686267845 73.10785716397062 5.0
    vertex 63.446813686267845 73.10785716397062 1.9999999999999998
  endloop
endfacet
facet normal 1.0 4.511946372076636e-16 -0.0
  outer loop
    vertex 63.446813686267845 73.10785716397062 5.0
    vertex 63.44681368626783 85.60785716397062 1.9999999999999998
    vertex 63.44681368626783 98.10785716397062 5.0
  endloop
endfacet
facet normal 1.0 4.511946372076636e-16 -0.0
  outer loop
    vertex 63.44681368626783 98.10785716397062 5.0
    vertex 63.44681368626783 85.60785716397062 1.9999999999999998
    vertex 63.44681368626783 98.10785716397062 1.9999999999999998
  endloop
endfacet
facet normal -0.0 -0.0 1.0
  outer loop
    vertex 91.94681368626783 73.10785716397062 5.0
    vertex 87.44681368626783 98.10785716397062 5.0
    vertex 87.44681368626783 73.10785716397062 5.0
  endloop
endfacet
facet normal -0.0 -0.0 1.0
  outer loop
    vertex 87.44681368626783 98.10785716397062 5.0
    vertex 91.94681368626783 73.10785716397062 5.0
    vertex 91.94681368626783 98.10785716397062 5.0
  endloop
endfacet
facet normal -1.0 0.0 0.0
  outer loop
    vertex 87.44681368626783 98.10785716397062 5.0
    vertex 87.44681368626783 73.10785716397062 1.9999999999999998
    vertex 87.44681368626783 73.10785716397062 5.0
  endloop
endfacet
facet normal -1.0 0.0 0.0
  outer loop
    vertex 87.44681368626783 73.10785716397062 1.9999999999999998
    vertex 87.44681368626783 98.10785716397062 5.0
    vertex 87.44681368626783 85.60785716397062 1.9999999999999998
  endloop
endfacet
facet normal -1.0 0.0 0.0
  outer loop
    vertex 87.44681368626783 85.60785716397062 1.9999999999999998
    vertex 87.44681368626783 98.10785716397062 5.0
    vertex 87.44681368626783 98.10785716397062 1.9999999999999998
  endloop
endfacet
facet normal 0.0 0.0 1.0
  outer loop
    vertex 56.94681368626783 71.10785716397062 12.0
    vertex 58.94681368626783 73.10785716397062 12.0
    vertex 56.94681368626783 100.10785716397062 12.0
  endloop
endfacet
facet normal 0.0 0.0 1.0
  outer loop
    vertex 58.94681368626783 73.10785716397062 12.0
    vertex 56.94681368626783 71.10785716397062 12.0
    vertex 93.94681368626783 71.10785716397062 12.0
  endloop
endfacet
facet normal 0.0 0.0 1.0
  outer loop
    vertex 58.94681368626783 73.10785716397062 12.0
    vertex 93.94681368626783 71.10785716397062 12.0
    vertex 91.94681368626783 73.10785716397062 12.0
  endloop
endfacet
facet normal 0.0 0.0 1.0
  outer loop
    vertex 91.94681368626783 73.10785716397062 12.0
    vertex 93.94681368626783 71.10785716397062 12.0
    vertex 91.94681368626783 98.10785716397062 12.0
  endloop
endfacet
facet normal 0.0 0.0 1.0
  outer loop
    vertex 56.94681368626783 100.10785716397062 12.0
    vertex 58.94681368626783 98.10785716397062 12.0
    vertex 93.94681368626783 100.10785716397062 12.0
  endloop
endfacet
facet normal 0.0 0.0 1.0
  outer loop
    vertex 58.94681368626783 98.10785716397062 12.0
    vertex 56.94681368626783 100.10785716397062 12.0
    vertex 58.94681368626783 73.10785716397062 12.0
  endloop
endfacet
facet normal 0.0 0.0 1.0
  outer loop
    vertex 93.94681368626783 100.10785716397062 12.0
    vertex 58.94681368626783 98.10785716397062 12.0
    vertex 91.94681368626783 98.10785716397062 12.0
  endloop
endfacet
facet normal 0.0 0.0 1.0
  outer loop
    vertex 93.94681368626783 100.10785716397062 12.0
    vertex 91.94681368626783 98.10785716397062 12.0
    vertex 93.94681368626783 71.10785716397062 12.0
  endloop
endfacet
facet normal 0.0 -1.0 0.0
  outer loop
    vertex 91.94681368626783 98.10785716397062 12.0
    vertex 87.44681368626783 98.10785716397062 5.0
    vertex 91.94681368626783 98.10785716397062 5.0
  endloop
endfacet
facet normal 0.0 -1.0 0.0
  outer loop
    vertex 87.44681368626783 98.10785716397062 5.0
    vertex 91.94681368626783 98.10785716397062 12.0
    vertex 63.44681368626783 98.10785716397062 5.0
  endloop
endfacet
facet normal 0.0 -1.0 0.0
  outer loop
    vertex 63.44681368626783 98.10785716397062 5.0
    vertex 91.94681368626783 98.10785716397062 12.0
    vertex 58.94681368626783 98.10785716397062 5.0
  endloop
endfacet
facet normal 0.0 -1.0 0.0
  outer loop
    vertex 58.94681368626783 98.10785716397062 5.0
    vertex 91.94681368626783 98.10785716397062 12.0
    vertex 58.94681368626783 98.10785716397062 12.0
  endloop
endfacet
facet normal 0.0 -1.0 0.0
  outer loop
    vertex 87.44681368626783 98.10785716397062 5.0
    vertex 63.44681368626783 98.10785716397062 1.9999999999999998
    vertex 87.44681368626783 98.10785716397062 1.9999999999999998
  endloop
endfacet
facet normal 0.0 -1.0 0.0
  outer loop
    vertex 63.44681368626783 98.10785716397062 1.9999999999999998
    vertex 87.44681368626783 98.10785716397062 5.0
    vertex 63.44681368626783 98.10785716397062 5.0
  endloop
endfacet
facet normal -1.0 -0.0 -0.0
  outer loop
    vertex 91.94681368626783 98.10785716397062 12.0
    vertex 91.94681368626783 73.10785716397062 5.0
    vertex 91.94681368626783 73.10785716397062 12.0
  endloop
endfacet
facet normal -1.0 -0.0 -0.0
  outer loop
    vertex 91.94681368626783 73.10785716397062 5.0
    vertex 91.94681368626783 98.10785716397062 12.0
    vertex 91.94681368626783 98.10785716397062 5.0
  endloop
endfacet
facet normal -0.0 1.0 -0.0
  outer loop
    vertex 58.94681368626783 73.10785716397062 12.0
    vertex 63.446813686267845 73.10785716397062 5.0
    vertex 58.94681368626783 73.10785716397062 5.0
  endloop
endfacet
facet normal -0.0 1.0 -0.0
  outer loop
    vertex 63.446813686267845 73.10785716397062 5.0
    vertex 58.94681368626783 73.10785716397062 12.0
    vertex 87.44681368626783 73.10785716397062 5.0
  endloop
endfacet
facet normal -0.0 1.0 -0.0
  outer loop
    vertex 87.44681368626783 73.10785716397062 5.0
    vertex 58.94681368626783 73.10785716397062 12.0
    vertex 91.94681368626783 73.10785716397062 5.0
  endloop
endfacet
facet normal -0.0 1.0 -0.0
  outer loop
    vertex 91.94681368626783 73.10785716397062 5.0
    vertex 58.94681368626783 73.10785716397062 12.0
    vertex 91.94681368626783 73.10785716397062 12.0
  endloop
endfacet
facet normal -0.0 1.0 -0.0
  outer loop
    vertex 63.446813686267845 73.10785716397062 5.0
    vertex 87.44681368626783 73.10785716397062 1.9999999999999998
    vertex 63.446813686267845 73.10785716397062 1.9999999999999998
  endloop
endfacet
facet normal -0.0 1.0 -0.0
  outer loop
    vertex 87.44681368626783 73.10785716397062 1.9999999999999998
    vertex 63.446813686267845 73.10785716397062 5.0
    vertex 87.44681368626783 73.10785716397062 5.0
  endloop
endfacet
facet normal 1.0 -0.0 0.0
  outer loop
    vertex 58.94681368626783 98.10785716397062 5.0
    vertex 58.94681368626783 73.10785716397062 12.0
    vertex 58.94681368626783 73.10785716397062 5.0
  endloop
endfacet
facet normal 1.0 -0.0 0.0
  outer loop
    vertex 58.94681368626783 73.10785716397062 12.0
    vertex 58.94681368626783 98.10785716397062 5.0
    vertex 58.94681368626783 98.10785716397062 12.0
  endloop
endfacet
endsolid PIR_Case
