solid ascii
  facet normal -3.995578e-001 -9.167080e-001 0.000000e+000
    outer loop
      vertex   -3.240272e+002 2.913612e+002 1.503766e-029
      vertex   -3.151310e+002 2.874837e+002 -1.630379e-015
      vertex   -3.240272e+002 2.913612e+002 1.000000e+001
    endloop
  endfacet
  facet normal -2.867350e-001 -6.578579e-001 -5.551115e-017
    outer loop
      vertex   -3.240272e+002 2.913612e+002 1.000000e+001
      vertex   -3.151310e+002 2.874837e+002 -1.630379e-015
      vertex   -3.151310e+002 2.874837e+002 1.000000e+001
    endloop
  endfacet
  facet normal -7.909575e-001 -6.118712e-001 0.000000e+000
    outer loop
      vertex   -3.269255e+002 2.951078e+002 0.000000e+000
      vertex   -3.240272e+002 2.913612e+002 1.503766e-029
      vertex   -3.269255e+002 2.951078e+002 1.000000e+001
    endloop
  endfacet
  facet normal -7.148191e-001 -5.529719e-001 2.775558e-017
    outer loop
      vertex   -3.269255e+002 2.951078e+002 1.000000e+001
      vertex   -3.240272e+002 2.913612e+002 1.503766e-029
      vertex   -3.240272e+002 2.913612e+002 1.000000e+001
    endloop
  endfacet
  facet normal -9.486825e-001 -3.162302e-001 0.000000e+000
    outer loop
      vertex   -3.292859e+002 3.021890e+002 -4.087729e-030
      vertex   -3.269255e+002 2.951078e+002 0.000000e+000
      vertex   -3.292859e+002 3.021890e+002 1.000000e+001
    endloop
  endfacet
  facet normal -7.602496e-001 -2.534187e-001 -2.775558e-017
    outer loop
      vertex   -3.292859e+002 3.021890e+002 1.000000e+001
      vertex   -3.269255e+002 2.951078e+002 0.000000e+000
      vertex   -3.269255e+002 2.951078e+002 1.000000e+001
    endloop
  endfacet
  facet normal -9.514186e-001 3.079005e-001 0.000000e+000
    outer loop
      vertex   -3.272481e+002 3.084857e+002 -3.615350e-043
      vertex   -3.292859e+002 3.021890e+002 -4.087729e-030
      vertex   -3.272481e+002 3.084857e+002 1.000000e+001
    endloop
  endfacet
  facet normal -7.933944e-001 2.567603e-001 2.775558e-017
    outer loop
      vertex   -3.272481e+002 3.084857e+002 1.000000e+001
      vertex   -3.292859e+002 3.021890e+002 -4.087729e-030
      vertex   -3.292859e+002 3.021890e+002 1.000000e+001
    endloop
  endfacet
  facet normal -7.713518e-001 6.364090e-001 0.000000e+000
    outer loop
      vertex   -3.221733e+002 3.146366e+002 -0.000000e+000
      vertex   -3.272481e+002 3.084857e+002 -3.615350e-043
      vertex   -3.221733e+002 3.146366e+002 1.000000e+001
    endloop
  endfacet
  facet normal -6.030853e-001 4.975796e-001 0.000000e+000
    outer loop
      vertex   -3.221733e+002 3.146366e+002 1.000000e+001
      vertex   -3.272481e+002 3.084857e+002 -3.615350e-043
      vertex   -3.272481e+002 3.084857e+002 1.000000e+001
    endloop
  endfacet
  facet normal -3.162265e-001 9.486837e-001 0.000000e+000
    outer loop
      vertex   -3.152839e+002 3.169331e+002 1.401298e-045
      vertex   -3.221733e+002 3.146366e+002 -0.000000e+000
      vertex   -3.152839e+002 3.169331e+002 1.000000e+001
    endloop
  endfacet
  facet normal -2.558727e-001 7.676215e-001 -2.775558e-017
    outer loop
      vertex   -3.152839e+002 3.169331e+002 1.000000e+001
      vertex   -3.221733e+002 3.146366e+002 -0.000000e+000
      vertex   -3.221733e+002 3.146366e+002 1.000000e+001
    endloop
  endfacet
  facet normal -8.252046e-001 5.648340e-001 0.000000e+000
    outer loop
      vertex   -3.088358e+002 3.263535e+002 -0.000000e+000
      vertex   -3.152839e+002 3.169331e+002 1.401298e-045
      vertex   -3.088358e+002 3.263535e+002 1.000000e+001
    endloop
  endfacet
  facet normal -5.437438e-001 3.721804e-001 -5.551115e-017
    outer loop
      vertex   -3.088358e+002 3.263535e+002 1.000000e+001
      vertex   -3.152839e+002 3.169331e+002 1.401298e-045
      vertex   -3.152839e+002 3.169331e+002 1.000000e+001
    endloop
  endfacet
  facet normal 5.217667e-002 9.986379e-001 -0.000000e+000
    outer loop
      vertex   -3.051274e+002 3.261597e+002 0.000000e+000
      vertex   -3.088358e+002 3.263535e+002 -0.000000e+000
      vertex   -3.051274e+002 3.261597e+002 1.000000e+001
    endloop
  endfacet
  facet normal 4.891304e-002 9.361735e-001 -3.469447e-018
    outer loop
      vertex   -3.051274e+002 3.261597e+002 1.000000e+001
      vertex   -3.088358e+002 3.263535e+002 -0.000000e+000
      vertex   -3.088358e+002 3.263535e+002 1.000000e+001
    endloop
  endfacet
  facet normal 8.060040e-001 -5.919101e-001 0.000000e+000
    outer loop
      vertex   -3.136967e+002 3.144909e+002 0.000000e+000
      vertex   -3.051274e+002 3.261597e+002 0.000000e+000
      vertex   -3.136967e+002 3.144909e+002 1.000000e+001
    endloop
  endfacet
  facet normal 4.580792e-001 -3.364025e-001 -5.551115e-017
    outer loop
      vertex   -3.136967e+002 3.144909e+002 1.000000e+001
      vertex   -3.051274e+002 3.261597e+002 0.000000e+000
      vertex   -3.051274e+002 3.261597e+002 1.000000e+001
    endloop
  endfacet
  facet normal 3.162278e-001 -9.486833e-001 0.000000e+000
    outer loop
      vertex   -3.203721e+002 3.122658e+002 0.000000e+000
      vertex   -3.136967e+002 3.144909e+002 0.000000e+000
      vertex   -3.203721e+002 3.122658e+002 1.000000e+001
    endloop
  endfacet
  facet normal 2.586200e-001 -7.758599e-001 0.000000e+000
    outer loop
      vertex   -3.203721e+002 3.122658e+002 1.000000e+001
      vertex   -3.136967e+002 3.144909e+002 0.000000e+000
      vertex   -3.136967e+002 3.144909e+002 1.000000e+001
    endloop
  endfacet
  facet normal 7.404543e-001 -6.721067e-001 0.000000e+000
    outer loop
      vertex   -3.248574e+002 3.073244e+002 0.000000e+000
      vertex   -3.203721e+002 3.122658e+002 0.000000e+000
      vertex   -3.248574e+002 3.073244e+002 1.000000e+001
    endloop
  endfacet
  facet normal 6.159015e-001 -5.590508e-001 0.000000e+000
    outer loop
      vertex   -3.248574e+002 3.073244e+002 1.000000e+001
      vertex   -3.203721e+002 3.122658e+002 0.000000e+000
      vertex   -3.203721e+002 3.122658e+002 1.000000e+001
    endloop
  endfacet
  facet normal 9.603472e-001 -2.788067e-001 0.000000e+000
    outer loop
      vertex   -3.262879e+002 3.023969e+002 0.000000e+000
      vertex   -3.248574e+002 3.073244e+002 0.000000e+000
      vertex   -3.262879e+002 3.023969e+002 1.000000e+001
    endloop
  endfacet
  facet normal 8.544387e-001 -2.480594e-001 0.000000e+000
    outer loop
      vertex   -3.262879e+002 3.023969e+002 1.000000e+001
      vertex   -3.248574e+002 3.073244e+002 0.000000e+000
      vertex   -3.248574e+002 3.073244e+002 1.000000e+001
    endloop
  endfacet
  facet normal 9.486853e-001 3.162217e-001 -0.000000e+000
    outer loop
      vertex   -3.248574e+002 2.981052e+002 0.000000e+000
      vertex   -3.262879e+002 3.023969e+002 0.000000e+000
      vertex   -3.248574e+002 2.981052e+002 1.000000e+001
    endloop
  endfacet
  facet normal 8.643531e-001 2.881116e-001 0.000000e+000
    outer loop
      vertex   -3.248574e+002 2.981052e+002 1.000000e+001
      vertex   -3.262879e+002 3.023969e+002 0.000000e+000
      vertex   -3.262879e+002 3.023969e+002 1.000000e+001
    endloop
  endfacet
  facet normal 7.909562e-001 6.118727e-001 -0.000000e+000
    outer loop
      vertex   -3.215989e+002 2.938929e+002 0.000000e+000
      vertex   -3.248574e+002 2.981052e+002 0.000000e+000
      vertex   -3.215989e+002 2.938929e+002 1.000000e+001
    endloop
  endfacet
  facet normal 6.981301e-001 5.400638e-001 0.000000e+000
    outer loop
      vertex   -3.215989e+002 2.938929e+002 1.000000e+001
      vertex   -3.248574e+002 2.981052e+002 0.000000e+000
      vertex   -3.248574e+002 2.981052e+002 1.000000e+001
    endloop
  endfacet
  facet normal 3.995560e-001 9.167088e-001 -0.000000e+000
    outer loop
      vertex   -3.152518e+002 2.911265e+002 0.000000e+000
      vertex   -3.215989e+002 2.938929e+002 0.000000e+000
      vertex   -3.152518e+002 2.911265e+002 1.000000e+001
    endloop
  endfacet
  facet normal 3.285017e-001 7.536877e-001 0.000000e+000
    outer loop
      vertex   -3.152518e+002 2.911265e+002 1.000000e+001
      vertex   -3.215989e+002 2.938929e+002 0.000000e+000
      vertex   -3.215989e+002 2.938929e+002 1.000000e+001
    endloop
  endfacet
  facet normal 0.000000e+000 1.000000e+000 -0.000000e+000
    outer loop
      vertex   -2.880010e+002 2.911265e+002 8.254956e-016
      vertex   -3.152518e+002 2.911265e+002 0.000000e+000
      vertex   -2.880010e+002 2.911265e+002 1.000000e+001
    endloop
  endfacet
  facet normal 0.000000e+000 3.444985e-001 0.000000e+000
    outer loop
      vertex   -2.880010e+002 2.911265e+002 1.000000e+001
      vertex   -3.152518e+002 2.911265e+002 0.000000e+000
      vertex   -3.152518e+002 2.911265e+002 1.000000e+001
    endloop
  endfacet
  facet normal 1.000000e+000 0.000000e+000 0.000000e+000
    outer loop
      vertex   -2.880010e+002 2.532375e+002 0.000000e+000
      vertex   -2.880010e+002 2.911265e+002 8.254956e-016
      vertex   -2.880010e+002 2.532375e+002 1.000000e+001
    endloop
  endfacet
  facet normal 2.551902e-001 -0.000000e+000 0.000000e+000
    outer loop
      vertex   -2.880010e+002 2.532375e+002 1.000000e+001
      vertex   -2.880010e+002 2.911265e+002 8.254956e-016
      vertex   -2.880010e+002 2.911265e+002 1.000000e+001
    endloop
  endfacet
  facet normal 6.459439e-001 -7.633849e-001 0.000000e+000
    outer loop
      vertex   -2.911604e+002 2.505641e+002 0.000000e+000
      vertex   -2.880010e+002 2.532375e+002 0.000000e+000
      vertex   -2.911604e+002 2.505641e+002 1.000000e+001
    endloop
  endfacet
  facet normal 5.968468e-001 -7.053612e-001 -2.775558e-017
    outer loop
      vertex   -2.911604e+002 2.505641e+002 1.000000e+001
      vertex   -2.880010e+002 2.532375e+002 0.000000e+000
      vertex   -2.880010e+002 2.532375e+002 1.000000e+001
    endloop
  endfacet
  facet normal 5.877948e-001 -8.090100e-001 0.000000e+000
    outer loop
      vertex   -2.989375e+002 2.449136e+002 0.000000e+000
      vertex   -2.911604e+002 2.505641e+002 0.000000e+000
      vertex   -2.989375e+002 2.449136e+002 1.000000e+001
    endloop
  endfacet
  facet normal 4.237510e-001 -5.832286e-001 0.000000e+000
    outer loop
      vertex   -2.989375e+002 2.449136e+002 1.000000e+001
      vertex   -2.911604e+002 2.505641e+002 0.000000e+000
      vertex   -2.911604e+002 2.505641e+002 1.000000e+001
    endloop
  endfacet
  facet normal 5.627903e-001 -8.265997e-001 0.000000e+000
    outer loop
      vertex   -3.046488e+002 2.410251e+002 0.000000e+000
      vertex   -2.989375e+002 2.449136e+002 0.000000e+000
      vertex   -3.046488e+002 2.410251e+002 1.000000e+001
    endloop
  endfacet
  facet normal 4.630189e-001 -6.800602e-001 -5.551115e-017
    outer loop
      vertex   -3.046488e+002 2.410251e+002 1.000000e+001
      vertex   -2.989375e+002 2.449136e+002 0.000000e+000
      vertex   -2.989375e+002 2.449136e+002 1.000000e+001
    endloop
  endfacet
  facet normal 4.794872e-001 -8.775489e-001 0.000000e+000
    outer loop
      vertex   -3.105423e+002 2.378049e+002 0.000000e+000
      vertex   -3.046488e+002 2.410251e+002 0.000000e+000
      vertex   -3.105423e+002 2.378049e+002 1.000000e+001
    endloop
  endfacet
  facet normal 3.980508e-001 -7.285054e-001 0.000000e+000
    outer loop
      vertex   -3.105423e+002 2.378049e+002 1.000000e+001
      vertex   -3.046488e+002 2.410251e+002 0.000000e+000
      vertex   -3.046488e+002 2.410251e+002 1.000000e+001
    endloop
  endfacet
  facet normal 4.543208e-001 -8.908381e-001 0.000000e+000
    outer loop
      vertex   -3.179087e+002 2.340481e+002 0.000000e+000
      vertex   -3.105423e+002 2.378049e+002 0.000000e+000
      vertex   -3.179087e+002 2.340481e+002 1.000000e+001
    endloop
  endfacet
  facet normal 3.501231e-001 -6.865260e-001 5.551115e-017
    outer loop
      vertex   -3.179087e+002 2.340481e+002 1.000000e+001
      vertex   -3.105423e+002 2.378049e+002 0.000000e+000
      vertex   -3.105423e+002 2.378049e+002 1.000000e+001
    endloop
  endfacet
  facet normal 4.155892e-001 -9.095525e-001 0.000000e+000
    outer loop
      vertex   -3.247214e+002 2.309353e+002 0.000000e+000
      vertex   -3.179087e+002 2.340481e+002 0.000000e+000
      vertex   -3.247214e+002 2.309353e+002 1.000000e+001
    endloop
  endfacet
  facet normal 3.326280e-001 -7.279848e-001 0.000000e+000
    outer loop
      vertex   -3.247214e+002 2.309353e+002 1.000000e+001
      vertex   -3.179087e+002 2.340481e+002 0.000000e+000
      vertex   -3.179087e+002 2.340481e+002 1.000000e+001
    endloop
  endfacet
  facet normal 1.000000e+000 0.000000e+000 0.000000e+000
    outer loop
      vertex   -3.247214e+002 1.793078e+002 -6.322538e-015
      vertex   -3.247214e+002 2.309353e+002 0.000000e+000
      vertex   -3.247214e+002 1.793078e+002 1.000000e+001
    endloop
  endfacet
  facet normal 1.901611e-001 -0.000000e+000 0.000000e+000
    outer loop
      vertex   -3.247214e+002 1.793078e+002 1.000000e+001
      vertex   -3.247214e+002 2.309353e+002 0.000000e+000
      vertex   -3.247214e+002 2.309353e+002 1.000000e+001
    endloop
  endfacet
  facet normal 9.135594e-001 4.067054e-001 -0.000000e+000
    outer loop
      vertex   -3.207487e+002 1.703841e+002 1.626303e-016
      vertex   -3.247214e+002 1.793078e+002 -6.322538e-015
      vertex   -3.207487e+002 1.703841e+002 1.000000e+001
    endloop
  endfacet
  facet normal 6.535189e-001 2.909386e-001 0.000000e+000
    outer loop
      vertex   -3.207487e+002 1.703841e+002 1.000000e+001
      vertex   -3.247214e+002 1.793078e+002 -6.322538e-015
      vertex   -3.247214e+002 1.793078e+002 1.000000e+001
    endloop
  endfacet
  facet normal -1.372343e-002 -9.999058e-001 0.000000e+000
    outer loop
      vertex   -3.280475e+002 1.704843e+002 1.212664e-030
      vertex   -3.207487e+002 1.703841e+002 1.626303e-016
      vertex   -3.280475e+002 1.704843e+002 1.000000e+001
    endloop
  endfacet
  facet normal -1.108451e-002 -8.076307e-001 0.000000e+000
    outer loop
      vertex   -3.280475e+002 1.704843e+002 1.000000e+001
      vertex   -3.207487e+002 1.703841e+002 1.626303e-016
      vertex   -3.207487e+002 1.703841e+002 1.000000e+001
    endloop
  endfacet
  facet normal -9.997482e-001 2.244121e-002 0.000000e+000
    outer loop
      vertex   -3.279196e+002 1.761795e+002 -5.492444e-028
      vertex   -3.280475e+002 1.704843e+002 1.212664e-030
      vertex   -3.279196e+002 1.761795e+002 1.000000e+001
    endloop
  endfacet
  facet normal -8.686863e-001 1.949928e-002 1.734723e-018
    outer loop
      vertex   -3.279196e+002 1.761795e+002 1.000000e+001
      vertex   -3.280475e+002 1.704843e+002 1.212664e-030
      vertex   -3.280475e+002 1.704843e+002 1.000000e+001
    endloop
  endfacet
  facet normal -1.000000e+000 -0.000000e+000 -0.000000e+000
    outer loop
      vertex   -3.279196e+002 2.331735e+002 1.000000e+001
      vertex   -3.279196e+002 2.331735e+002 6.979760e-015
      vertex   -3.279196e+002 2.046765e+002 1.000000e+001
    endloop
  endfacet
  facet normal -9.435892e-001 0.000000e+000 0.000000e+000
    outer loop
      vertex   -3.279196e+002 2.046765e+002 1.000000e+001
      vertex   -3.279196e+002 2.331735e+002 6.979760e-015
      vertex   -3.279196e+002 2.046765e+002 3.489880e-015
    endloop
  endfacet
  facet normal -9.435892e-001 0.000000e+000 -0.000000e+000
    outer loop
      vertex   -3.279196e+002 2.046765e+002 1.000000e+001
      vertex   -3.279196e+002 2.046765e+002 3.489880e-015
      vertex   -3.279196e+002 1.761795e+002 -5.492444e-028
    endloop
  endfacet
  facet normal -9.435892e-001 0.000000e+000 0.000000e+000
    outer loop
      vertex   -3.279196e+002 1.761795e+002 -5.492444e-028
      vertex   -3.279196e+002 1.761795e+002 1.000000e+001
      vertex   -3.279196e+002 2.046765e+002 1.000000e+001
    endloop
  endfacet
  facet normal -4.368831e-001 8.995183e-001 0.000000e+000
    outer loop
      vertex   -3.200997e+002 2.369716e+002 -3.387280e-026
      vertex   -3.279196e+002 2.331735e+002 6.979760e-015
      vertex   -3.200997e+002 2.369716e+002 1.000000e+001
    endloop
  endfacet
  facet normal -3.297092e-001 6.788533e-001 0.000000e+000
    outer loop
      vertex   -3.200997e+002 2.369716e+002 1.000000e+001
      vertex   -3.279196e+002 2.331735e+002 6.979760e-015
      vertex   -3.279196e+002 2.331735e+002 1.000000e+001
    endloop
  endfacet
  facet normal -4.509888e-001 8.925296e-001 0.000000e+000
    outer loop
      vertex   -3.126588e+002 2.407314e+002 -6.504818e-026
      vertex   -3.200997e+002 2.369716e+002 -3.387280e-026
      vertex   -3.126588e+002 2.407314e+002 1.000000e+001
    endloop
  endfacet
  facet normal -3.463992e-001 6.855416e-001 0.000000e+000
    outer loop
      vertex   -3.126588e+002 2.407314e+002 1.000000e+001
      vertex   -3.200997e+002 2.369716e+002 -3.387280e-026
      vertex   -3.200997e+002 2.369716e+002 1.000000e+001
    endloop
  endfacet
  facet normal -4.601635e-001 8.878342e-001 0.000000e+000
    outer loop
      vertex   -3.068818e+002 2.437256e+002 -8.925204e-026
      vertex   -3.126588e+002 2.407314e+002 -6.504818e-026
      vertex   -3.068818e+002 2.437256e+002 1.000000e+001
    endloop
  endfacet
  facet normal -3.857003e-001 7.441657e-001 0.000000e+000
    outer loop
      vertex   -3.068818e+002 2.437256e+002 1.000000e+001
      vertex   -3.126588e+002 2.407314e+002 -6.504818e-026
      vertex   -3.126588e+002 2.407314e+002 1.000000e+001
    endloop
  endfacet
  facet normal -5.425275e-001 8.400381e-001 0.000000e+000
    outer loop
      vertex   -3.010490e+002 2.474926e+002 -1.136891e-025
      vertex   -3.068818e+002 2.437256e+002 -8.925204e-026
      vertex   -3.010490e+002 2.474926e+002 1.000000e+001
    endloop
  endfacet
  facet normal -4.456365e-001 6.900141e-001 0.000000e+000
    outer loop
      vertex   -3.010490e+002 2.474926e+002 1.000000e+001
      vertex   -3.068818e+002 2.437256e+002 -8.925204e-026
      vertex   -3.068818e+002 2.437256e+002 1.000000e+001
    endloop
  endfacet
  facet normal -5.938303e-001 8.045903e-001 0.000000e+000
    outer loop
      vertex   -2.919872e+002 2.541808e+002 3.951867e-015
      vertex   -3.010490e+002 2.474926e+002 -1.136891e-025
      vertex   -2.919872e+002 2.541808e+002 1.000000e+001
    endloop
  endfacet
  facet normal -3.942714e-001 5.342047e-001 5.551115e-017
    outer loop
      vertex   -2.919872e+002 2.541808e+002 1.000000e+001
      vertex   -3.010490e+002 2.474926e+002 -1.136891e-025
      vertex   -3.010490e+002 2.474926e+002 1.000000e+001
    endloop
  endfacet
  facet normal -1.000000e+000 -0.000000e+000 0.000000e+000
    outer loop
      vertex   -2.919872e+002 2.874837e+002 1.260830e-014
      vertex   -2.919872e+002 2.541808e+002 3.951867e-015
      vertex   -2.919872e+002 2.874837e+002 1.000000e+001
    endloop
  endfacet
  facet normal -2.875886e-001 -0.000000e+000 0.000000e+000
    outer loop
      vertex   -2.919872e+002 2.874837e+002 1.000000e+001
      vertex   -2.919872e+002 2.541808e+002 3.951867e-015
      vertex   -2.919872e+002 2.541808e+002 1.000000e+001
    endloop
  endfacet
  facet normal 0.000000e+000 -1.000000e+000 0.000000e+000
    outer loop
      vertex   -3.151310e+002 2.874837e+002 -1.630379e-015
      vertex   -2.919872e+002 2.874837e+002 1.260830e-014
      vertex   -3.151310e+002 2.874837e+002 1.000000e+001
    endloop
  endfacet
  facet normal 0.000000e+000 -3.966390e-001 0.000000e+000
    outer loop
      vertex   -3.151310e+002 2.874837e+002 1.000000e+001
      vertex   -2.919872e+002 2.874837e+002 1.260830e-014
      vertex   -2.919872e+002 2.874837e+002 1.000000e+001
    endloop
  endfacet
  facet normal 0.000000e+000 0.000000e+000 1.546982e-001
    outer loop
      vertex   -2.919872e+002 2.874837e+002 1.000000e+001
      vertex   -3.152518e+002 2.911265e+002 1.000000e+001
      vertex   -3.151310e+002 2.874837e+002 1.000000e+001
    endloop
  endfacet
  facet normal 0.000000e+000 0.000000e+000 6.865944e-001
    outer loop
      vertex   -3.151310e+002 2.874837e+002 1.000000e+001
      vertex   -3.152518e+002 2.911265e+002 1.000000e+001
      vertex   -3.215989e+002 2.938929e+002 1.000000e+001
    endloop
  endfacet
  facet normal 0.000000e+000 0.000000e+000 3.614416e-001
    outer loop
      vertex   -3.151310e+002 2.874837e+002 1.000000e+001
      vertex   -3.215989e+002 2.938929e+002 1.000000e+001
      vertex   -3.240272e+002 2.913612e+002 1.000000e+001
    endloop
  endfacet
  facet normal 0.000000e+000 -0.000000e+000 9.890932e-001
    outer loop
      vertex   -3.240272e+002 2.913612e+002 1.000000e+001
      vertex   -3.215989e+002 2.938929e+002 1.000000e+001
      vertex   -3.269255e+002 2.951078e+002 1.000000e+001
    endloop
  endfacet
  facet normal -0.000000e+000 0.000000e+000 9.287641e-001
    outer loop
      vertex   -3.269255e+002 2.951078e+002 1.000000e+001
      vertex   -3.215989e+002 2.938929e+002 1.000000e+001
      vertex   -3.248574e+002 2.981052e+002 1.000000e+001
    endloop
  endfacet
  facet normal 0.000000e+000 -0.000000e+000 7.990535e-001
    outer loop
      vertex   -3.269255e+002 2.951078e+002 1.000000e+001
      vertex   -3.248574e+002 2.981052e+002 1.000000e+001
      vertex   -3.292859e+002 3.021890e+002 1.000000e+001
    endloop
  endfacet
  facet normal -0.000000e+000 0.000000e+000 7.271520e-001
    outer loop
      vertex   -3.292859e+002 3.021890e+002 1.000000e+001
      vertex   -3.248574e+002 2.981052e+002 1.000000e+001
      vertex   -3.262879e+002 3.023969e+002 1.000000e+001
    endloop
  endfacet
  facet normal 0.000000e+000 0.000000e+000 9.278364e-001
    outer loop
      vertex   -3.292859e+002 3.021890e+002 1.000000e+001
      vertex   -3.262879e+002 3.023969e+002 1.000000e+001
      vertex   -3.272481e+002 3.084857e+002 1.000000e+001
    endloop
  endfacet
  facet normal 0.000000e+000 0.000000e+000 8.204393e-001
    outer loop
      vertex   -3.272481e+002 3.084857e+002 1.000000e+001
      vertex   -3.262879e+002 3.023969e+002 1.000000e+001
      vertex   -3.248574e+002 3.073244e+002 1.000000e+001
    endloop
  endfacet
  facet normal -0.000000e+000 0.000000e+000 9.718993e-001
    outer loop
      vertex   -3.272481e+002 3.084857e+002 1.000000e+001
      vertex   -3.248574e+002 3.073244e+002 1.000000e+001
      vertex   -3.221733e+002 3.146366e+002 1.000000e+001
    endloop
  endfacet
  facet normal 0.000000e+000 0.000000e+000 8.422853e-001
    outer loop
      vertex   -3.221733e+002 3.146366e+002 1.000000e+001
      vertex   -3.248574e+002 3.073244e+002 1.000000e+001
      vertex   -3.203721e+002 3.122658e+002 1.000000e+001
    endloop
  endfacet
  facet normal -0.000000e+000 0.000000e+000 9.466997e-001
    outer loop
      vertex   -3.221733e+002 3.146366e+002 1.000000e+001
      vertex   -3.203721e+002 3.122658e+002 1.000000e+001
      vertex   -3.152839e+002 3.169331e+002 1.000000e+001
    endloop
  endfacet
  facet normal 0.000000e+000 0.000000e+000 9.862579e-001
    outer loop
      vertex   -3.152839e+002 3.169331e+002 1.000000e+001
      vertex   -3.203721e+002 3.122658e+002 1.000000e+001
      vertex   -3.136967e+002 3.144909e+002 1.000000e+001
    endloop
  endfacet
  facet normal -0.000000e+000 0.000000e+000 9.232805e-001
    outer loop
      vertex   -3.152839e+002 3.169331e+002 1.000000e+001
      vertex   -3.136967e+002 3.144909e+002 1.000000e+001
      vertex   -3.088358e+002 3.263535e+002 1.000000e+001
    endloop
  endfacet
  facet normal 0.000000e+000 0.000000e+000 9.438508e-001
    outer loop
      vertex   -3.088358e+002 3.263535e+002 1.000000e+001
      vertex   -3.136967e+002 3.144909e+002 1.000000e+001
      vertex   -3.051274e+002 3.261597e+002 1.000000e+001
    endloop
  endfacet
  facet normal -0.000000e+000 0.000000e+000 9.731264e-001
    outer loop
      vertex   -2.919872e+002 2.541808e+002 1.000000e+001
      vertex   -2.880010e+002 2.532375e+002 1.000000e+001
      vertex   -2.919872e+002 2.874837e+002 1.000000e+001
    endloop
  endfacet
  facet normal -0.000000e+000 0.000000e+000 8.112263e-001
    outer loop
      vertex   -2.919872e+002 2.874837e+002 1.000000e+001
      vertex   -2.880010e+002 2.532375e+002 1.000000e+001
      vertex   -2.880010e+002 2.911265e+002 1.000000e+001
    endloop
  endfacet
  facet normal 0.000000e+000 -0.000000e+000 7.806770e-001
    outer loop
      vertex   -2.919872e+002 2.874837e+002 1.000000e+001
      vertex   -2.880010e+002 2.911265e+002 1.000000e+001
      vertex   -3.152518e+002 2.911265e+002 1.000000e+001
    endloop
  endfacet
  facet normal -0.000000e+000 0.000000e+000 9.987381e-001
    outer loop
      vertex   -3.010490e+002 2.474926e+002 1.000000e+001
      vertex   -2.989375e+002 2.449136e+002 1.000000e+001
      vertex   -2.919872e+002 2.541808e+002 1.000000e+001
    endloop
  endfacet
  facet normal 0.000000e+000 0.000000e+000 7.631896e-001
    outer loop
      vertex   -2.919872e+002 2.541808e+002 1.000000e+001
      vertex   -2.989375e+002 2.449136e+002 1.000000e+001
      vertex   -2.911604e+002 2.505641e+002 1.000000e+001
    endloop
  endfacet
  facet normal 0.000000e+000 0.000000e+000 8.973392e-001
    outer loop
      vertex   -2.919872e+002 2.541808e+002 1.000000e+001
      vertex   -2.911604e+002 2.505641e+002 1.000000e+001
      vertex   -2.880010e+002 2.532375e+002 1.000000e+001
    endloop
  endfacet
  facet normal 0.000000e+000 0.000000e+000 9.961044e-001
    outer loop
      vertex   -2.989375e+002 2.449136e+002 1.000000e+001
      vertex   -3.010490e+002 2.474926e+002 1.000000e+001
      vertex   -3.046488e+002 2.410251e+002 1.000000e+001
    endloop
  endfacet
  facet normal 0.000000e+000 -0.000000e+000 9.316044e-001
    outer loop
      vertex   -3.046488e+002 2.410251e+002 1.000000e+001
      vertex   -3.010490e+002 2.474926e+002 1.000000e+001
      vertex   -3.068818e+002 2.437256e+002 1.000000e+001
    endloop
  endfacet
  facet normal 0.000000e+000 0.000000e+000 9.818444e-001
    outer loop
      vertex   -3.046488e+002 2.410251e+002 1.000000e+001
      vertex   -3.068818e+002 2.437256e+002 1.000000e+001
      vertex   -3.105423e+002 2.378049e+002 1.000000e+001
    endloop
  endfacet
  facet normal 0.000000e+000 -0.000000e+000 9.245574e-001
    outer loop
      vertex   -3.105423e+002 2.378049e+002 1.000000e+001
      vertex   -3.068818e+002 2.437256e+002 1.000000e+001
      vertex   -3.126588e+002 2.407314e+002 1.000000e+001
    endloop
  endfacet
  facet normal 0.000000e+000 0.000000e+000 9.880844e-001
    outer loop
      vertex   -3.105423e+002 2.378049e+002 1.000000e+001
      vertex   -3.126588e+002 2.407314e+002 1.000000e+001
      vertex   -3.179087e+002 2.340481e+002 1.000000e+001
    endloop
  endfacet
  facet normal 0.000000e+000 -0.000000e+000 9.659259e-001
    outer loop
      vertex   -3.179087e+002 2.340481e+002 1.000000e+001
      vertex   -3.126588e+002 2.407314e+002 1.000000e+001
      vertex   -3.200997e+002 2.369716e+002 1.000000e+001
    endloop
  endfacet
  facet normal 0.000000e+000 0.000000e+000 9.770715e-001
    outer loop
      vertex   -3.179087e+002 2.340481e+002 1.000000e+001
      vertex   -3.200997e+002 2.369716e+002 1.000000e+001
      vertex   -3.247214e+002 2.309353e+002 1.000000e+001
    endloop
  endfacet
  facet normal 0.000000e+000 -0.000000e+000 9.990832e-001
    outer loop
      vertex   -3.247214e+002 2.309353e+002 1.000000e+001
      vertex   -3.200997e+002 2.369716e+002 1.000000e+001
      vertex   -3.279196e+002 2.331735e+002 1.000000e+001
    endloop
  endfacet
  facet normal 0.000000e+000 0.000000e+000 8.826056e-001
    outer loop
      vertex   -3.247214e+002 2.309353e+002 1.000000e+001
      vertex   -3.279196e+002 2.331735e+002 1.000000e+001
      vertex   -3.279196e+002 2.046765e+002 1.000000e+001
    endloop
  endfacet
  facet normal 0.000000e+000 0.000000e+000 1.209036e-001
    outer loop
      vertex   -3.247214e+002 2.309353e+002 1.000000e+001
      vertex   -3.279196e+002 2.046765e+002 1.000000e+001
      vertex   -3.247214e+002 1.793078e+002 1.000000e+001
    endloop
  endfacet
  facet normal 0.000000e+000 0.000000e+000 7.967213e-001
    outer loop
      vertex   -3.247214e+002 1.793078e+002 1.000000e+001
      vertex   -3.279196e+002 2.046765e+002 1.000000e+001
      vertex   -3.279196e+002 1.761795e+002 1.000000e+001
    endloop
  endfacet
  facet normal 0.000000e+000 0.000000e+000 9.374691e-001
    outer loop
      vertex   -3.247214e+002 1.793078e+002 1.000000e+001
      vertex   -3.279196e+002 1.761795e+002 1.000000e+001
      vertex   -3.207487e+002 1.703841e+002 1.000000e+001
    endloop
  endfacet
  facet normal 0.000000e+000 0.000000e+000 6.178268e-001
    outer loop
      vertex   -3.207487e+002 1.703841e+002 1.000000e+001
      vertex   -3.279196e+002 1.761795e+002 1.000000e+001
      vertex   -3.280475e+002 1.704843e+002 1.000000e+001
    endloop
  endfacet
  facet normal 6.148877e-016 4.677030e-016 -9.994504e-001
    outer loop
      vertex   -3.151310e+002 2.874837e+002 -1.630379e-015
      vertex   -3.152518e+002 2.911265e+002 0.000000e+000
      vertex   -2.919872e+002 2.874837e+002 1.260830e-014
    endloop
  endfacet
  facet normal 2.364865e-017 -2.550977e-015 -7.806770e-001
    outer loop
      vertex   -2.919872e+002 2.874837e+002 1.260830e-014
      vertex   -3.152518e+002 2.911265e+002 0.000000e+000
      vertex   -2.880010e+002 2.911265e+002 8.254956e-016
    endloop
  endfacet
  facet normal -2.414070e-015 1.767434e-017 -8.112263e-001
    outer loop
      vertex   -2.919872e+002 2.874837e+002 1.260830e-014
      vertex   -2.880010e+002 2.911265e+002 8.254956e-016
      vertex   -2.880010e+002 2.532375e+002 0.000000e+000
    endloop
  endfacet
  facet normal 1.787252e-016 4.100526e-016 -9.029606e-001
    outer loop
      vertex   -3.152518e+002 2.911265e+002 0.000000e+000
      vertex   -3.151310e+002 2.874837e+002 -1.630379e-015
      vertex   -3.215989e+002 2.938929e+002 0.000000e+000
    endloop
  endfacet
  facet normal -1.292217e-016 1.239413e-016 -9.998671e-001
    outer loop
      vertex   -3.215989e+002 2.938929e+002 0.000000e+000
      vertex   -3.151310e+002 2.874837e+002 -1.630379e-015
      vertex   -3.240272e+002 2.913612e+002 1.503766e-029
    endloop
  endfacet
  facet normal -9.531663e-031 -4.179273e-030 -8.575496e-001
    outer loop
      vertex   -3.215989e+002 2.938929e+002 0.000000e+000
      vertex   -3.240272e+002 2.913612e+002 1.503766e-029
      vertex   -3.269255e+002 2.951078e+002 0.000000e+000
    endloop
  endfacet
  facet normal 0.000000e+000 0.000000e+000 -6.350983e-001
    outer loop
      vertex   -3.215989e+002 2.938929e+002 0.000000e+000
      vertex   -3.269255e+002 2.951078e+002 0.000000e+000
      vertex   -3.248574e+002 2.981052e+002 0.000000e+000
    endloop
  endfacet
  facet normal 5.585216e-031 -3.853661e-031 -9.900820e-001
    outer loop
      vertex   -3.248574e+002 2.981052e+002 0.000000e+000
      vertex   -3.269255e+002 2.951078e+002 0.000000e+000
      vertex   -3.292859e+002 3.021890e+002 -4.087729e-030
    endloop
  endfacet
  facet normal 6.437467e-031 2.145777e-031 -4.830452e-001
    outer loop
      vertex   -3.248574e+002 2.981052e+002 0.000000e+000
      vertex   -3.292859e+002 3.021890e+002 -4.087729e-030
      vertex   -3.262879e+002 3.023969e+002 0.000000e+000
    endloop
  endfacet
  facet normal 1.343620e-030 2.118868e-031 -9.962032e-001
    outer loop
      vertex   -3.262879e+002 3.023969e+002 0.000000e+000
      vertex   -3.292859e+002 3.021890e+002 -4.087729e-030
      vertex   -3.272481e+002 3.084857e+002 -3.615350e-043
    endloop
  endfacet
  facet normal 5.605194e-044 -1.681558e-044 -4.249998e-001
    outer loop
      vertex   -3.262879e+002 3.023969e+002 0.000000e+000
      vertex   -3.272481e+002 3.084857e+002 -3.615350e-043
      vertex   -3.248574e+002 3.073244e+002 0.000000e+000
    endloop
  endfacet
  facet normal 1.275182e-043 -4.624285e-044 -9.949629e-001
    outer loop
      vertex   -3.248574e+002 3.073244e+002 0.000000e+000
      vertex   -3.272481e+002 3.084857e+002 -3.615350e-043
      vertex   -3.221733e+002 3.146366e+002 -0.000000e+000
    endloop
  endfacet
  facet normal 0.000000e+000 -0.000000e+000 -3.757961e-001
    outer loop
      vertex   -3.248574e+002 3.073244e+002 0.000000e+000
      vertex   -3.221733e+002 3.146366e+002 -0.000000e+000
      vertex   -3.203721e+002 3.122658e+002 0.000000e+000
    endloop
  endfacet
  facet normal 0.000000e+000 0.000000e+000 -9.957191e-001
    outer loop
      vertex   -3.203721e+002 3.122658e+002 0.000000e+000
      vertex   -3.221733e+002 3.146366e+002 -0.000000e+000
      vertex   -3.152839e+002 3.169331e+002 1.401298e-045
    endloop
  endfacet
  facet normal -0.000000e+000 0.000000e+000 -4.082412e-001
    outer loop
      vertex   -3.203721e+002 3.122658e+002 0.000000e+000
      vertex   -3.152839e+002 3.169331e+002 1.401298e-045
      vertex   -3.136967e+002 3.144909e+002 0.000000e+000
    endloop
  endfacet
  facet normal -0.000000e+000 0.000000e+000 -8.221633e-001
    outer loop
      vertex   -3.136967e+002 3.144909e+002 0.000000e+000
      vertex   -3.152839e+002 3.169331e+002 1.401298e-045
      vertex   -3.088358e+002 3.263535e+002 -0.000000e+000
    endloop
  endfacet
  facet normal 0.000000e+000 -0.000000e+000 -2.420987e-001
    outer loop
      vertex   -3.136967e+002 3.144909e+002 0.000000e+000
      vertex   -3.088358e+002 3.263535e+002 -0.000000e+000
      vertex   -3.051274e+002 3.261597e+002 0.000000e+000
    endloop
  endfacet
  facet normal -1.075107e-016 3.005239e-017 -1.156171e-001
    outer loop
      vertex   -2.919872e+002 2.874837e+002 1.260830e-014
      vertex   -2.880010e+002 2.532375e+002 0.000000e+000
      vertex   -2.919872e+002 2.541808e+002 3.951867e-015
    endloop
  endfacet
  facet normal -6.952005e-016 8.215970e-016 -8.973392e-001
    outer loop
      vertex   -2.919872e+002 2.541808e+002 3.951867e-015
      vertex   -2.880010e+002 2.532375e+002 0.000000e+000
      vertex   -2.911604e+002 2.505641e+002 0.000000e+000
    endloop
  endfacet
  facet normal -5.196025e-016 7.151536e-016 -7.631896e-001
    outer loop
      vertex   -2.919872e+002 2.541808e+002 3.951867e-015
      vertex   -2.911604e+002 2.505641e+002 0.000000e+000
      vertex   -2.989375e+002 2.449136e+002 0.000000e+000
    endloop
  endfacet
  facet normal 7.811997e-017 6.395873e-017 -2.873763e-001
    outer loop
      vertex   -2.919872e+002 2.541808e+002 3.951867e-015
      vertex   -2.989375e+002 2.449136e+002 0.000000e+000
      vertex   -3.010490e+002 2.474926e+002 -1.136891e-025
    endloop
  endfacet
  facet normal 1.791879e-026 -2.631826e-026 -9.298269e-001
    outer loop
      vertex   -3.010490e+002 2.474926e+002 -1.136891e-025
      vertex   -2.989375e+002 2.449136e+002 0.000000e+000
      vertex   -3.046488e+002 2.410251e+002 0.000000e+000
    endloop
  endfacet
  facet normal 5.257783e-027 -1.119099e-026 -4.701544e-001
    outer loop
      vertex   -3.010490e+002 2.474926e+002 -1.136891e-025
      vertex   -3.046488e+002 2.410251e+002 0.000000e+000
      vertex   -3.068818e+002 2.437256e+002 -8.925204e-026
    endloop
  endfacet
  facet normal 1.178280e-026 -2.156466e-026 -9.472842e-001
    outer loop
      vertex   -3.068818e+002 2.437256e+002 -8.925204e-026
      vertex   -3.046488e+002 2.410251e+002 0.000000e+000
      vertex   -3.105423e+002 2.378049e+002 0.000000e+000
    endloop
  endfacet
  facet normal 2.736274e-027 -9.427614e-027 -5.131763e-001
    outer loop
      vertex   -3.068818e+002 2.437256e+002 -8.925204e-026
      vertex   -3.105423e+002 2.378049e+002 0.000000e+000
      vertex   -3.126588e+002 2.407314e+002 -6.504818e-026
    endloop
  endfacet
  facet normal 7.961539e-027 -1.561109e-026 -9.613845e-001
    outer loop
      vertex   -3.126588e+002 2.407314e+002 -6.504818e-026
      vertex   -3.105423e+002 2.378049e+002 0.000000e+000
      vertex   -3.179087e+002 2.340481e+002 0.000000e+000
    endloop
  endfacet
  facet normal 5.111370e-028 -4.521341e-027 -4.232874e-001
    outer loop
      vertex   -3.126588e+002 2.407314e+002 -6.504818e-026
      vertex   -3.179087e+002 2.340481e+002 0.000000e+000
      vertex   -3.200997e+002 2.369716e+002 -3.387280e-026
    endloop
  endfacet
  facet normal 3.796291e-027 -8.308506e-027 -9.626403e-001
    outer loop
      vertex   -3.200997e+002 2.369716e+002 -3.387280e-026
      vertex   -3.179087e+002 2.340481e+002 0.000000e+000
      vertex   -3.247214e+002 2.309353e+002 0.000000e+000
    endloop
  endfacet
  facet normal -6.374738e-016 4.880849e-016 -4.486199e-001
    outer loop
      vertex   -3.200997e+002 2.369716e+002 -3.387280e-026
      vertex   -3.247214e+002 2.309353e+002 0.000000e+000
      vertex   -3.279196e+002 2.331735e+002 6.979760e-015
    endloop
  endfacet
  facet normal -1.717784e-015 1.003344e-016 -8.192925e-001
    outer loop
      vertex   -3.279196e+002 2.331735e+002 6.979760e-015
      vertex   -3.247214e+002 2.309353e+002 0.000000e+000
      vertex   -3.279196e+002 2.046765e+002 3.489880e-015
    endloop
  endfacet
  facet normal -5.118324e-016 2.989571e-017 -2.441170e-001
    outer loop
      vertex   -3.279196e+002 2.046765e+002 3.489880e-015
      vertex   -3.247214e+002 2.309353e+002 0.000000e+000
      vertex   -3.247214e+002 1.793078e+002 -6.322538e-015
    endloop
  endfacet
  facet normal -2.622523e-016 1.531794e-017 -1.250805e-001
    outer loop
      vertex   -3.279196e+002 2.046765e+002 3.489880e-015
      vertex   -3.247214e+002 1.793078e+002 -6.322538e-015
      vertex   -3.279196e+002 1.761795e+002 -5.492444e-028
    endloop
  endfacet
  facet normal -8.759565e-016 -1.111755e-015 -9.931934e-001
    outer loop
      vertex   -3.279196e+002 1.761795e+002 -5.492444e-028
      vertex   -3.247214e+002 1.793078e+002 -6.322538e-015
      vertex   -3.207487e+002 1.703841e+002 1.626303e-016
    endloop
  endfacet
  facet normal 1.763442e-017 -3.958375e-019 -7.916712e-001
    outer loop
      vertex   -3.279196e+002 1.761795e+002 -5.492444e-028
      vertex   -3.207487e+002 1.703841e+002 1.626303e-016
      vertex   -3.280475e+002 1.704843e+002 1.212664e-030
    endloop
  endfacet
endsolid
