solid US_Board_Mount
facet normal 0.0 0.0 -1.0
  outer loop
    vertex 38.941078179590235 93.24859654176687 0.0
    vertex 44.23070865613316 81.9485584251383 0.0
    vertex 38.941078179590235 66.24859654176687 0.0
  endloop
endfacet
facet normal 0.0 0.0 -1.0
  outer loop
    vertex 44.23070865613316 81.9485584251383 0.0
    vertex 38.941078179590235 93.24859654176687 0.0
    vertex 45.079862247422504 83.99859654176687 0.0
  endloop
endfacet
facet normal 0.0 0.0 -1.0
  outer loop
    vertex 45.079862247422504 83.99859654176687 0.0
    vertex 38.941078179590235 93.24859654176687 0.0
    vertex 46.43067053950458 85.75900418185253 0.0
  endloop
endfacet
facet normal 0.0 0.0 -1.0
  outer loop
    vertex 46.43067053950458 85.75900418185253 0.0
    vertex 38.941078179590235 93.24859654176687 0.0
    vertex 48.191078179590235 87.1098124739346 0.0
  endloop
endfacet
facet normal 0.0 0.0 -1.0
  outer loop
    vertex 48.191078179590235 87.1098124739346 0.0
    vertex 38.941078179590235 93.24859654176687 0.0
    vertex 50.241116296218806 87.95896606522395 0.0
  endloop
endfacet
facet normal 0.0 0.0 -1.0
  outer loop
    vertex 50.241116296218806 87.95896606522395 0.0
    vertex 38.941078179590235 93.24859654176687 0.0
    vertex 52.441078179590235 88.24859654176686 0.0
  endloop
endfacet
facet normal 0.0 0.0 -1.0
  outer loop
    vertex 52.441078179590235 88.24859654176686 0.0
    vertex 38.941078179590235 93.24859654176687 0.0
    vertex 90.94107817959024 93.24859654176687 0.0
  endloop
endfacet
facet normal 0.0 0.0 -1.0
  outer loop
    vertex 38.941078179590235 66.24859654176687 0.0
    vertex 44.23070865613316 81.9485584251383 0.0
    vertex 43.941078179590235 79.74859654176687 0.0
  endloop
endfacet
facet normal 0.0 0.0 -1.0
  outer loop
    vertex 52.441078179590235 88.24859654176686 0.0
    vertex 90.94107817959024 93.24859654176687 0.0
    vertex 54.641040062961665 87.95896606522395 0.0
  endloop
endfacet
facet normal 0.0 0.0 -1.0
  outer loop
    vertex 54.641040062961665 87.95896606522395 0.0
    vertex 90.94107817959024 93.24859654176687 0.0
    vertex 56.69107817959024 87.1098124739346 0.0
  endloop
endfacet
facet normal 0.0 0.0 -1.0
  outer loop
    vertex 56.69107817959024 87.1098124739346 0.0
    vertex 90.94107817959024 93.24859654176687 0.0
    vertex 58.451485819675895 85.75900418185253 0.0
  endloop
endfacet
facet normal 0.0 0.0 -1.0
  outer loop
    vertex 58.451485819675895 85.75900418185253 0.0
    vertex 90.94107817959024 93.24859654176687 0.0
    vertex 59.802294111757966 83.99859654176687 0.0
  endloop
endfacet
facet normal 0.0 0.0 -1.0
  outer loop
    vertex 59.802294111757966 83.99859654176687 0.0
    vertex 90.94107817959024 93.24859654176687 0.0
    vertex 75.2411162962188 87.95896606522395 0.0
  endloop
endfacet
facet normal 0.0 0.0 -1.0
  outer loop
    vertex 59.802294111757966 83.99859654176687 0.0
    vertex 75.2411162962188 87.95896606522395 0.0
    vertex 60.65144770304732 81.9485584251383 0.0
  endloop
endfacet
facet normal 0.0 0.0 -1.0
  outer loop
    vertex 60.65144770304732 81.9485584251383 0.0
    vertex 75.2411162962188 87.95896606522395 0.0
    vertex 73.19107817959024 87.1098124739346 0.0
  endloop
endfacet
facet normal 0.0 0.0 -1.0
  outer loop
    vertex 60.65144770304732 81.9485584251383 0.0
    vertex 73.19107817959024 87.1098124739346 0.0
    vertex 60.94107817959023 79.74859654176687 0.0
  endloop
endfacet
facet normal 0.0 0.0 -1.0
  outer loop
    vertex 60.94107817959023 79.74859654176687 0.0
    vertex 73.19107817959024 87.1098124739346 0.0
    vertex 71.43067053950458 85.75900418185253 0.0
  endloop
endfacet
facet normal 0.0 0.0 -1.0
  outer loop
    vertex 60.94107817959023 79.74859654176687 0.0
    vertex 71.43067053950458 85.75900418185253 0.0
    vertex 70.07986224742251 83.99859654176687 0.0
  endloop
endfacet
facet normal 0.0 0.0 -1.0
  outer loop
    vertex 60.94107817959023 79.74859654176687 0.0
    vertex 70.07986224742251 83.99859654176687 0.0
    vertex 69.23070865613315 81.9485584251383 0.0
  endloop
endfacet
facet normal 0.0 0.0 -1.0
  outer loop
    vertex 60.94107817959023 79.74859654176687 0.0
    vertex 69.23070865613315 81.9485584251383 0.0
    vertex 68.94107817959024 79.74859654176687 0.0
  endloop
endfacet
facet normal 0.0 0.0 -1.0
  outer loop
    vertex 75.2411162962188 87.95896606522395 0.0
    vertex 90.94107817959024 93.24859654176687 0.0
    vertex 77.44107817959024 88.24859654176686 0.0
  endloop
endfacet
facet normal 0.0 0.0 -1.0
  outer loop
    vertex 77.44107817959024 88.24859654176686 0.0
    vertex 90.94107817959024 93.24859654176687 0.0
    vertex 79.64104006296166 87.95896606522395 0.0
  endloop
endfacet
facet normal 0.0 0.0 -1.0
  outer loop
    vertex 79.64104006296166 87.95896606522395 0.0
    vertex 90.94107817959024 93.24859654176687 0.0
    vertex 81.69107817959024 87.1098124739346 0.0
  endloop
endfacet
facet normal 0.0 0.0 -1.0
  outer loop
    vertex 81.69107817959024 87.1098124739346 0.0
    vertex 90.94107817959024 93.24859654176687 0.0
    vertex 83.4514858196759 85.75900418185253 0.0
  endloop
endfacet
facet normal 0.0 0.0 -1.0
  outer loop
    vertex 83.4514858196759 85.75900418185253 0.0
    vertex 90.94107817959024 93.24859654176687 0.0
    vertex 84.80229411175796 83.99859654176687 0.0
  endloop
endfacet
facet normal 0.0 0.0 -1.0
  outer loop
    vertex 84.80229411175796 83.99859654176687 0.0
    vertex 90.94107817959024 93.24859654176687 0.0
    vertex 85.65144770304732 81.9485584251383 0.0
  endloop
endfacet
facet normal 0.0 0.0 -1.0
  outer loop
    vertex 85.65144770304732 81.9485584251383 0.0
    vertex 90.94107817959024 93.24859654176687 0.0
    vertex 85.94107817959024 79.74859654176687 0.0
  endloop
endfacet
facet normal 0.0 0.0 -1.0
  outer loop
    vertex 38.941078179590235 66.24859654176687 0.0
    vertex 52.441078179590235 71.24859654176687 0.0
    vertex 90.94107817959024 66.24859654176687 0.0
  endloop
endfacet
facet normal 0.0 0.0 -1.0
  outer loop
    vertex 52.441078179590235 71.24859654176687 0.0
    vertex 38.941078179590235 66.24859654176687 0.0
    vertex 50.241116296218806 71.5382270183098 0.0
  endloop
endfacet
facet normal 0.0 0.0 -1.0
  outer loop
    vertex 50.241116296218806 71.5382270183098 0.0
    vertex 38.941078179590235 66.24859654176687 0.0
    vertex 48.191078179590235 72.38738060959913 0.0
  endloop
endfacet
facet normal 0.0 0.0 -1.0
  outer loop
    vertex 48.191078179590235 72.38738060959913 0.0
    vertex 38.941078179590235 66.24859654176687 0.0
    vertex 46.430670539504575 73.73818890168123 0.0
  endloop
endfacet
facet normal 0.0 0.0 -1.0
  outer loop
    vertex 46.430670539504575 73.73818890168123 0.0
    vertex 38.941078179590235 66.24859654176687 0.0
    vertex 45.079862247422504 75.49859654176686 0.0
  endloop
endfacet
facet normal 0.0 0.0 -1.0
  outer loop
    vertex 45.079862247422504 75.49859654176686 0.0
    vertex 38.941078179590235 66.24859654176687 0.0
    vertex 44.23070865613315 77.54863465839544 0.0
  endloop
endfacet
facet normal 0.0 0.0 -1.0
  outer loop
    vertex 44.23070865613315 77.54863465839544 0.0
    vertex 38.941078179590235 66.24859654176687 0.0
    vertex 43.941078179590235 79.74859654176687 0.0
  endloop
endfacet
facet normal 0.0 0.0 -1.0
  outer loop
    vertex 90.94107817959024 66.24859654176687 0.0
    vertex 52.441078179590235 71.24859654176687 0.0
    vertex 54.641040062961665 71.53822701830978 0.0
  endloop
endfacet
facet normal 0.0 0.0 -1.0
  outer loop
    vertex 90.94107817959024 66.24859654176687 0.0
    vertex 54.641040062961665 71.53822701830978 0.0
    vertex 56.69107817959023 72.38738060959913 0.0
  endloop
endfacet
facet normal 0.0 0.0 -1.0
  outer loop
    vertex 90.94107817959024 66.24859654176687 0.0
    vertex 56.69107817959023 72.38738060959913 0.0
    vertex 58.451485819675895 73.73818890168121 0.0
  endloop
endfacet
facet normal 0.0 0.0 -1.0
  outer loop
    vertex 90.94107817959024 66.24859654176687 0.0
    vertex 58.451485819675895 73.73818890168121 0.0
    vertex 59.802294111757966 75.49859654176686 0.0
  endloop
endfacet
facet normal 0.0 0.0 -1.0
  outer loop
    vertex 90.94107817959024 66.24859654176687 0.0
    vertex 59.802294111757966 75.49859654176686 0.0
    vertex 75.2411162962188 71.5382270183098 0.0
  endloop
endfacet
facet normal 0.0 0.0 -1.0
  outer loop
    vertex 75.2411162962188 71.5382270183098 0.0
    vertex 59.802294111757966 75.49859654176686 0.0
    vertex 60.65144770304731 77.54863465839543 0.0
  endloop
endfacet
facet normal 0.0 0.0 -1.0
  outer loop
    vertex 75.2411162962188 71.5382270183098 0.0
    vertex 60.65144770304731 77.54863465839543 0.0
    vertex 73.19107817959024 72.38738060959913 0.0
  endloop
endfacet
facet normal 0.0 0.0 -1.0
  outer loop
    vertex 73.19107817959024 72.38738060959913 0.0
    vertex 60.65144770304731 77.54863465839543 0.0
    vertex 60.94107817959023 79.74859654176687 0.0
  endloop
endfacet
facet normal 0.0 0.0 -1.0
  outer loop
    vertex 73.19107817959024 72.38738060959913 0.0
    vertex 60.94107817959023 79.74859654176687 0.0
    vertex 71.43067053950458 73.73818890168123 0.0
  endloop
endfacet
facet normal 0.0 0.0 -1.0
  outer loop
    vertex 71.43067053950458 73.73818890168123 0.0
    vertex 60.94107817959023 79.74859654176687 0.0
    vertex 70.07986224742251 75.49859654176686 0.0
  endloop
endfacet
facet normal 0.0 0.0 -1.0
  outer loop
    vertex 70.07986224742251 75.49859654176686 0.0
    vertex 60.94107817959023 79.74859654176687 0.0
    vertex 69.23070865613315 77.54863465839544 0.0
  endloop
endfacet
facet normal 0.0 0.0 -1.0
  outer loop
    vertex 69.23070865613315 77.54863465839544 0.0
    vertex 60.94107817959023 79.74859654176687 0.0
    vertex 68.94107817959024 79.74859654176687 0.0
  endloop
endfacet
facet normal 0.0 0.0 -1.0
  outer loop
    vertex 90.94107817959024 66.24859654176687 0.0
    vertex 75.2411162962188 71.5382270183098 0.0
    vertex 77.44107817959024 71.24859654176687 0.0
  endloop
endfacet
facet normal 0.0 0.0 -1.0
  outer loop
    vertex 90.94107817959024 66.24859654176687 0.0
    vertex 77.44107817959024 71.24859654176687 0.0
    vertex 79.64104006296166 71.53822701830978 0.0
  endloop
endfacet
facet normal 0.0 0.0 -1.0
  outer loop
    vertex 90.94107817959024 66.24859654176687 0.0
    vertex 79.64104006296166 71.53822701830978 0.0
    vertex 81.69107817959022 72.38738060959913 0.0
  endloop
endfacet
facet normal 0.0 0.0 -1.0
  outer loop
    vertex 90.94107817959024 66.24859654176687 0.0
    vertex 81.69107817959022 72.38738060959913 0.0
    vertex 83.4514858196759 73.73818890168121 0.0
  endloop
endfacet
facet normal 0.0 0.0 -1.0
  outer loop
    vertex 90.94107817959024 66.24859654176687 0.0
    vertex 83.4514858196759 73.73818890168121 0.0
    vertex 84.80229411175796 75.49859654176686 0.0
  endloop
endfacet
facet normal 0.0 0.0 -1.0
  outer loop
    vertex 90.94107817959024 66.24859654176687 0.0
    vertex 84.80229411175796 75.49859654176686 0.0
    vertex 85.65144770304731 77.54863465839543 0.0
  endloop
endfacet
facet normal 0.0 0.0 -1.0
  outer loop
    vertex 90.94107817959024 66.24859654176687 0.0
    vertex 85.65144770304731 77.54863465839543 0.0
    vertex 85.94107817959024 79.74859654176687 0.0
  endloop
endfacet
facet normal 0.0 0.0 -1.0
  outer loop
    vertex 90.94107817959024 66.24859654176687 0.0
    vertex 85.94107817959024 79.74859654176687 0.0
    vertex 90.94107817959024 93.24859654176687 0.0
  endloop
endfacet
facet normal -1.0 0.0 0.0
  outer loop
    vertex 38.941078179590235 93.24859654176687 10.0
    vertex 38.941078179590235 66.24859654176687 0.0
    vertex 38.941078179590235 66.24859654176687 10.0
  endloop
endfacet
facet normal -1.0 0.0 0.0
  outer loop
    vertex 38.941078179590235 66.24859654176687 0.0
    vertex 38.941078179590235 93.24859654176687 10.0
    vertex 38.941078179590235 93.24859654176687 0.0
  endloop
endfacet
facet normal -0.0 1.0 0.0
  outer loop
    vertex 38.941078179590235 93.24859654176687 10.0
    vertex 90.94107817959024 93.24859654176687 0.0
    vertex 38.941078179590235 93.24859654176687 0.0
  endloop
endfacet
facet normal -0.0 1.0 0.0
  outer loop
    vertex 90.94107817959024 93.24859654176687 0.0
    vertex 38.941078179590235 93.24859654176687 10.0
    vertex 59.941078179590235 93.24859654176687 7.999999999999999
  endloop
endfacet
facet normal -0.0 1.0 0.0
  outer loop
    vertex 59.941078179590235 93.24859654176687 7.999999999999999
    vertex 38.941078179590235 93.24859654176687 10.0
    vertex 59.941078179590235 93.24859654176687 10.0
  endloop
endfacet
facet normal -0.0 1.0 0.0
  outer loop
    vertex 90.94107817959024 93.24859654176687 0.0
    vertex 69.94107817959024 93.24859654176687 7.999999999999999
    vertex 90.94107817959024 93.24859654176687 10.0
  endloop
endfacet
facet normal -0.0 1.0 0.0
  outer loop
    vertex 69.94107817959024 93.24859654176687 7.999999999999999
    vertex 90.94107817959024 93.24859654176687 0.0
    vertex 59.941078179590235 93.24859654176687 7.999999999999999
  endloop
endfacet
facet normal -0.0 1.0 0.0
  outer loop
    vertex 90.94107817959024 93.24859654176687 10.0
    vertex 69.94107817959024 93.24859654176687 7.999999999999999
    vertex 69.94107817959024 93.24859654176687 10.0
  endloop
endfacet
facet normal 1.0 0.0 0.0
  outer loop
    vertex 90.94107817959024 93.24859654176687 0.0
    vertex 90.94107817959024 66.24859654176687 10.0
    vertex 90.94107817959024 66.24859654176687 0.0
  endloop
endfacet
facet normal 1.0 0.0 0.0
  outer loop
    vertex 90.94107817959024 66.24859654176687 10.0
    vertex 90.94107817959024 93.24859654176687 0.0
    vertex 90.94107817959024 93.24859654176687 10.0
  endloop
endfacet
facet normal -0.0 -1.0 -0.0
  outer loop
    vertex 90.94107817959024 66.24859654176687 10.0
    vertex 38.941078179590235 66.24859654176687 0.0
    vertex 90.94107817959024 66.24859654176687 0.0
  endloop
endfacet
facet normal -0.0 -1.0 -0.0
  outer loop
    vertex 38.941078179590235 66.24859654176687 0.0
    vertex 90.94107817959024 66.24859654176687 10.0
    vertex 38.941078179590235 66.24859654176687 10.0
  endloop
endfacet
facet normal -0.7933533402912358 -0.6087614290087201 -0.0
  outer loop
    vertex 58.451485819675895 85.75900418185253 1.9999999999999998
    vertex 59.802294111757966 83.99859654176687 0.0
    vertex 59.802294111757966 83.99859654176687 1.9999999999999998
  endloop
endfacet
facet normal -0.7933533402912358 -0.6087614290087201 -0.0
  outer loop
    vertex 59.802294111757966 83.99859654176687 0.0
    vertex 58.451485819675895 85.75900418185253 1.9999999999999998
    vertex 58.451485819675895 85.75900418185253 0.0
  endloop
endfacet
facet normal -0.6087614290087201 -0.7933533402912358 -0.0
  outer loop
    vertex 58.451485819675895 85.75900418185253 1.9999999999999998
    vertex 56.69107817959024 87.1098124739346 0.0
    vertex 58.451485819675895 85.75900418185253 0.0
  endloop
endfacet
facet normal -0.6087614290087201 -0.7933533402912358 -0.0
  outer loop
    vertex 56.69107817959024 87.1098124739346 0.0
    vertex 58.451485819675895 85.75900418185253 1.9999999999999998
    vertex 56.69107817959024 87.1098124739346 1.9999999999999998
  endloop
endfacet
facet normal -0.3826834323650901 -0.9238795325112866 -0.0
  outer loop
    vertex 56.69107817959024 87.1098124739346 1.9999999999999998
    vertex 54.641040062961665 87.95896606522395 0.0
    vertex 56.69107817959024 87.1098124739346 0.0
  endloop
endfacet
facet normal -0.3826834323650901 -0.9238795325112866 -0.0
  outer loop
    vertex 54.641040062961665 87.95896606522395 0.0
    vertex 56.69107817959024 87.1098124739346 1.9999999999999998
    vertex 54.641040062961665 87.95896606522395 1.9999999999999998
  endloop
endfacet
facet normal -0.130526192220048 -0.9914448613738109 -0.0
  outer loop
    vertex 54.641040062961665 87.95896606522395 1.9999999999999998
    vertex 52.441078179590235 88.24859654176686 0.0
    vertex 54.641040062961665 87.95896606522395 0.0
  endloop
endfacet
facet normal -0.130526192220048 -0.9914448613738109 -0.0
  outer loop
    vertex 52.441078179590235 88.24859654176686 0.0
    vertex 54.641040062961665 87.95896606522395 1.9999999999999998
    vertex 52.441078179590235 88.24859654176686 1.9999999999999998
  endloop
endfacet
facet normal 0.130526192220048 -0.9914448613738109 0.0
  outer loop
    vertex 52.441078179590235 88.24859654176686 1.9999999999999998
    vertex 50.241116296218806 87.95896606522395 0.0
    vertex 52.441078179590235 88.24859654176686 0.0
  endloop
endfacet
facet normal 0.130526192220048 -0.9914448613738109 0.0
  outer loop
    vertex 50.241116296218806 87.95896606522395 0.0
    vertex 52.441078179590235 88.24859654176686 1.9999999999999998
    vertex 50.241116296218806 87.95896606522395 1.9999999999999998
  endloop
endfacet
facet normal 0.382683432365091 -0.9238795325112863 0.0
  outer loop
    vertex 50.241116296218806 87.95896606522395 1.9999999999999998
    vertex 48.191078179590235 87.1098124739346 0.0
    vertex 50.241116296218806 87.95896606522395 0.0
  endloop
endfacet
facet normal 0.382683432365091 -0.9238795325112863 0.0
  outer loop
    vertex 48.191078179590235 87.1098124739346 0.0
    vertex 50.241116296218806 87.95896606522395 1.9999999999999998
    vertex 48.191078179590235 87.1098124739346 1.9999999999999998
  endloop
endfacet
facet normal 0.6087614290087201 -0.7933533402912358 0.0
  outer loop
    vertex 48.191078179590235 87.1098124739346 1.9999999999999998
    vertex 46.43067053950458 85.75900418185253 0.0
    vertex 48.191078179590235 87.1098124739346 0.0
  endloop
endfacet
facet normal 0.6087614290087201 -0.7933533402912358 0.0
  outer loop
    vertex 46.43067053950458 85.75900418185253 0.0
    vertex 48.191078179590235 87.1098124739346 1.9999999999999998
    vertex 46.43067053950458 85.75900418185253 1.9999999999999998
  endloop
endfacet
facet normal 0.7933533402912345 -0.6087614290087217 0.0
  outer loop
    vertex 46.43067053950458 85.75900418185253 0.0
    vertex 45.079862247422504 83.99859654176687 1.9999999999999998
    vertex 45.079862247422504 83.99859654176687 0.0
  endloop
endfacet
facet normal 0.7933533402912345 -0.6087614290087217 0.0
  outer loop
    vertex 45.079862247422504 83.99859654176687 1.9999999999999998
    vertex 46.43067053950458 85.75900418185253 0.0
    vertex 46.43067053950458 85.75900418185253 1.9999999999999998
  endloop
endfacet
facet normal 0.9238795325112875 -0.3826834323650879 0.0
  outer loop
    vertex 45.079862247422504 83.99859654176687 0.0
    vertex 44.23070865613316 81.9485584251383 1.9999999999999998
    vertex 44.23070865613316 81.9485584251383 0.0
  endloop
endfacet
facet normal 0.9238795325112875 -0.3826834323650879 0.0
  outer loop
    vertex 44.23070865613316 81.9485584251383 1.9999999999999998
    vertex 45.079862247422504 83.99859654176687 0.0
    vertex 45.079862247422504 83.99859654176687 1.9999999999999998
  endloop
endfacet
facet normal 0.9914448613738104 -0.130526192220053 0.0
  outer loop
    vertex 44.23070865613316 81.9485584251383 0.0
    vertex 43.941078179590235 79.74859654176687 1.9999999999999998
    vertex 43.941078179590235 79.74859654176687 0.0
  endloop
endfacet
facet normal 0.9914448613738104 -0.130526192220053 0.0
  outer loop
    vertex 43.941078179590235 79.74859654176687 1.9999999999999998
    vertex 44.23070865613316 81.9485584251383 0.0
    vertex 44.23070865613316 81.9485584251383 1.9999999999999998
  endloop
endfacet
facet normal 0.9914448613738106 0.1305261922200505 0.0
  outer loop
    vertex 43.941078179590235 79.74859654176687 0.0
    vertex 44.23070865613315 77.54863465839544 1.9999999999999998
    vertex 44.23070865613315 77.54863465839544 0.0
  endloop
endfacet
facet normal 0.9914448613738106 0.1305261922200505 0.0
  outer loop
    vertex 44.23070865613315 77.54863465839544 1.9999999999999998
    vertex 43.941078179590235 79.74859654176687 0.0
    vertex 43.941078179590235 79.74859654176687 1.9999999999999998
  endloop
endfacet
facet normal 0.9238795325112866 0.3826834323650901 0.0
  outer loop
    vertex 44.23070865613315 77.54863465839544 0.0
    vertex 45.079862247422504 75.49859654176686 1.9999999999999998
    vertex 45.079862247422504 75.49859654176686 0.0
  endloop
endfacet
facet normal 0.9238795325112866 0.3826834323650901 0.0
  outer loop
    vertex 45.079862247422504 75.49859654176686 1.9999999999999998
    vertex 44.23070865613315 77.54863465839544 0.0
    vertex 44.23070865613315 77.54863465839544 1.9999999999999998
  endloop
endfacet
facet normal 0.7933533402912338 0.6087614290087225 0.0
  outer loop
    vertex 45.079862247422504 75.49859654176686 0.0
    vertex 46.430670539504575 73.73818890168123 1.9999999999999998
    vertex 46.430670539504575 73.73818890168123 0.0
  endloop
endfacet
facet normal 0.7933533402912338 0.6087614290087225 0.0
  outer loop
    vertex 46.430670539504575 73.73818890168123 1.9999999999999998
    vertex 45.079862247422504 75.49859654176686 0.0
    vertex 45.079862247422504 75.49859654176686 1.9999999999999998
  endloop
endfacet
facet normal 0.6087614290087232 0.7933533402912333 0.0
  outer loop
    vertex 46.430670539504575 73.73818890168123 1.9999999999999998
    vertex 48.191078179590235 72.38738060959913 0.0
    vertex 46.430670539504575 73.73818890168123 0.0
  endloop
endfacet
facet normal 0.6087614290087232 0.7933533402912333 0.0
  outer loop
    vertex 48.191078179590235 72.38738060959913 0.0
    vertex 46.430670539504575 73.73818890168123 1.9999999999999998
    vertex 48.191078179590235 72.38738060959913 1.9999999999999998
  endloop
endfacet
facet normal 0.3826834323650867 0.9238795325112882 0.0
  outer loop
    vertex 48.191078179590235 72.38738060959913 1.9999999999999998
    vertex 50.241116296218806 71.5382270183098 0.0
    vertex 48.191078179590235 72.38738060959913 0.0
  endloop
endfacet
facet normal 0.3826834323650867 0.9238795325112882 0.0
  outer loop
    vertex 50.241116296218806 71.5382270183098 0.0
    vertex 48.191078179590235 72.38738060959913 1.9999999999999998
    vertex 50.241116296218806 71.5382270183098 1.9999999999999998
  endloop
endfacet
facet normal 0.13052619222005268 0.9914448613738104 0.0
  outer loop
    vertex 50.241116296218806 71.5382270183098 1.9999999999999998
    vertex 52.441078179590235 71.24859654176687 0.0
    vertex 50.241116296218806 71.5382270183098 0.0
  endloop
endfacet
facet normal 0.13052619222005268 0.9914448613738104 0.0
  outer loop
    vertex 52.441078179590235 71.24859654176687 0.0
    vertex 50.241116296218806 71.5382270183098 1.9999999999999998
    vertex 52.441078179590235 71.24859654176687 1.9999999999999998
  endloop
endfacet
facet normal -0.130526192220048 0.9914448613738109 0.0
  outer loop
    vertex 52.441078179590235 71.24859654176687 1.9999999999999998
    vertex 54.641040062961665 71.53822701830978 0.0
    vertex 52.441078179590235 71.24859654176687 0.0
  endloop
endfacet
facet normal -0.130526192220048 0.9914448613738109 0.0
  outer loop
    vertex 54.641040062961665 71.53822701830978 0.0
    vertex 52.441078179590235 71.24859654176687 1.9999999999999998
    vertex 54.641040062961665 71.53822701830978 1.9999999999999998
  endloop
endfacet
facet normal -0.382683432365092 0.9238795325112861 0.0
  outer loop
    vertex 54.641040062961665 71.53822701830978 1.9999999999999998
    vertex 56.69107817959023 72.38738060959913 0.0
    vertex 54.641040062961665 71.53822701830978 0.0
  endloop
endfacet
facet normal -0.382683432365092 0.9238795325112861 0.0
  outer loop
    vertex 56.69107817959023 72.38738060959913 0.0
    vertex 54.641040062961665 71.53822701830978 1.9999999999999998
    vertex 56.69107817959023 72.38738060959913 1.9999999999999998
  endloop
endfacet
facet normal -0.6087614290087177 0.7933533402912376 0.0
  outer loop
    vertex 56.69107817959023 72.38738060959913 1.9999999999999998
    vertex 58.451485819675895 73.73818890168121 0.0
    vertex 56.69107817959023 72.38738060959913 0.0
  endloop
endfacet
facet normal -0.6087614290087177 0.7933533402912376 0.0
  outer loop
    vertex 58.451485819675895 73.73818890168121 0.0
    vertex 56.69107817959023 72.38738060959913 1.9999999999999998
    vertex 58.451485819675895 73.73818890168121 1.9999999999999998
  endloop
endfacet
facet normal -0.7933533402912358 0.6087614290087201 0.0
  outer loop
    vertex 59.802294111757966 75.49859654176686 1.9999999999999998
    vertex 58.451485819675895 73.73818890168121 0.0
    vertex 58.451485819675895 73.73818890168121 1.9999999999999998
  endloop
endfacet
facet normal -0.7933533402912358 0.6087614290087201 0.0
  outer loop
    vertex 58.451485819675895 73.73818890168121 0.0
    vertex 59.802294111757966 75.49859654176686 1.9999999999999998
    vertex 59.802294111757966 75.49859654176686 0.0
  endloop
endfacet
facet normal -0.9238795325112878 0.3826834323650876 0.0
  outer loop
    vertex 60.65144770304731 77.54863465839543 1.9999999999999998
    vertex 59.802294111757966 75.49859654176686 0.0
    vertex 59.802294111757966 75.49859654176686 1.9999999999999998
  endloop
endfacet
facet normal -0.9238795325112878 0.3826834323650876 0.0
  outer loop
    vertex 59.802294111757966 75.49859654176686 0.0
    vertex 60.65144770304731 77.54863465839543 1.9999999999999998
    vertex 60.65144770304731 77.54863465839543 0.0
  endloop
endfacet
facet normal -0.9914448613738105 0.13052619222005235 0.0
  outer loop
    vertex 60.94107817959023 79.74859654176687 1.9999999999999998
    vertex 60.65144770304731 77.54863465839543 0.0
    vertex 60.65144770304731 77.54863465839543 1.9999999999999998
  endloop
endfacet
facet normal -0.9914448613738105 0.13052619222005235 0.0
  outer loop
    vertex 60.65144770304731 77.54863465839543 0.0
    vertex 60.94107817959023 79.74859654176687 1.9999999999999998
    vertex 60.94107817959023 79.74859654176687 0.0
  endloop
endfacet
facet normal -0.9914448613738109 -0.130526192220048 -0.0
  outer loop
    vertex 60.65144770304732 81.9485584251383 1.9999999999999998
    vertex 60.94107817959023 79.74859654176687 0.0
    vertex 60.94107817959023 79.74859654176687 1.9999999999999998
  endloop
endfacet
facet normal -0.9914448613738109 -0.130526192220048 -0.0
  outer loop
    vertex 60.94107817959023 79.74859654176687 0.0
    vertex 60.65144770304732 81.9485584251383 1.9999999999999998
    vertex 60.65144770304732 81.9485584251383 0.0
  endloop
endfacet
facet normal -0.9238795325112866 -0.3826834323650901 -0.0
  outer loop
    vertex 59.802294111757966 83.99859654176687 1.9999999999999998
    vertex 60.65144770304732 81.9485584251383 0.0
    vertex 60.65144770304732 81.9485584251383 1.9999999999999998
  endloop
endfacet
facet normal -0.9238795325112866 -0.3826834323650901 -0.0
  outer loop
    vertex 60.65144770304732 81.9485584251383 0.0
    vertex 59.802294111757966 83.99859654176687 1.9999999999999998
    vertex 59.802294111757966 83.99859654176687 0.0
  endloop
endfacet
facet normal 0.38268343236508573 0.9238795325112884 0.0
  outer loop
    vertex 73.19107817959024 72.38738060959913 1.9999999999999998
    vertex 75.2411162962188 71.5382270183098 0.0
    vertex 73.19107817959024 72.38738060959913 0.0
  endloop
endfacet
facet normal 0.38268343236508573 0.9238795325112884 0.0
  outer loop
    vertex 75.2411162962188 71.5382270183098 0.0
    vertex 73.19107817959024 72.38738060959913 1.9999999999999998
    vertex 75.2411162962188 71.5382270183098 1.9999999999999998
  endloop
endfacet
facet normal 0.130526192220053 0.9914448613738104 0.0
  outer loop
    vertex 75.2411162962188 71.5382270183098 1.9999999999999998
    vertex 77.44107817959024 71.24859654176687 0.0
    vertex 75.2411162962188 71.5382270183098 0.0
  endloop
endfacet
facet normal 0.130526192220053 0.9914448613738104 0.0
  outer loop
    vertex 77.44107817959024 71.24859654176687 0.0
    vertex 75.2411162962188 71.5382270183098 1.9999999999999998
    vertex 77.44107817959024 71.24859654176687 1.9999999999999998
  endloop
endfacet
facet normal -0.130526192220048 0.9914448613738109 0.0
  outer loop
    vertex 77.44107817959024 71.24859654176687 1.9999999999999998
    vertex 79.64104006296166 71.53822701830978 0.0
    vertex 77.44107817959024 71.24859654176687 0.0
  endloop
endfacet
facet normal -0.130526192220048 0.9914448613738109 0.0
  outer loop
    vertex 79.64104006296166 71.53822701830978 0.0
    vertex 77.44107817959024 71.24859654176687 1.9999999999999998
    vertex 79.64104006296166 71.53822701830978 1.9999999999999998
  endloop
endfacet
facet normal -0.382683432365092 0.9238795325112861 0.0
  outer loop
    vertex 79.64104006296166 71.53822701830978 1.9999999999999998
    vertex 81.69107817959022 72.38738060959913 0.0
    vertex 79.64104006296166 71.53822701830978 0.0
  endloop
endfacet
facet normal -0.382683432365092 0.9238795325112861 0.0
  outer loop
    vertex 81.69107817959022 72.38738060959913 0.0
    vertex 79.64104006296166 71.53822701830978 1.9999999999999998
    vertex 81.69107817959022 72.38738060959913 1.9999999999999998
  endloop
endfacet
facet normal -0.6087614290087177 0.7933533402912376 0.0
  outer loop
    vertex 81.69107817959022 72.38738060959913 1.9999999999999998
    vertex 83.4514858196759 73.73818890168121 0.0
    vertex 81.69107817959022 72.38738060959913 0.0
  endloop
endfacet
facet normal -0.6087614290087177 0.7933533402912376 0.0
  outer loop
    vertex 83.4514858196759 73.73818890168121 0.0
    vertex 81.69107817959022 72.38738060959913 1.9999999999999998
    vertex 83.4514858196759 73.73818890168121 1.9999999999999998
  endloop
endfacet
facet normal -0.7933533402912358 0.6087614290087201 0.0
  outer loop
    vertex 84.80229411175796 75.49859654176686 1.9999999999999998
    vertex 83.4514858196759 73.73818890168121 0.0
    vertex 83.4514858196759 73.73818890168121 1.9999999999999998
  endloop
endfacet
facet normal -0.7933533402912358 0.6087614290087201 0.0
  outer loop
    vertex 83.4514858196759 73.73818890168121 0.0
    vertex 84.80229411175796 75.49859654176686 1.9999999999999998
    vertex 84.80229411175796 75.49859654176686 0.0
  endloop
endfacet
facet normal -0.9238795325112878 0.3826834323650876 0.0
  outer loop
    vertex 85.65144770304731 77.54863465839543 1.9999999999999998
    vertex 84.80229411175796 75.49859654176686 0.0
    vertex 84.80229411175796 75.49859654176686 1.9999999999999998
  endloop
endfacet
facet normal -0.9238795325112878 0.3826834323650876 0.0
  outer loop
    vertex 84.80229411175796 75.49859654176686 0.0
    vertex 85.65144770304731 77.54863465839543 1.9999999999999998
    vertex 85.65144770304731 77.54863465839543 0.0
  endloop
endfacet
facet normal -0.9914448613738105 0.13052619222005235 0.0
  outer loop
    vertex 85.94107817959024 79.74859654176687 1.9999999999999998
    vertex 85.65144770304731 77.54863465839543 0.0
    vertex 85.65144770304731 77.54863465839543 1.9999999999999998
  endloop
endfacet
facet normal -0.9914448613738105 0.13052619222005235 0.0
  outer loop
    vertex 85.65144770304731 77.54863465839543 0.0
    vertex 85.94107817959024 79.74859654176687 1.9999999999999998
    vertex 85.94107817959024 79.74859654176687 0.0
  endloop
endfacet
facet normal -0.9914448613738109 -0.130526192220048 -0.0
  outer loop
    vertex 85.65144770304732 81.9485584251383 1.9999999999999998
    vertex 85.94107817959024 79.74859654176687 0.0
    vertex 85.94107817959024 79.74859654176687 1.9999999999999998
  endloop
endfacet
facet normal -0.9914448613738109 -0.130526192220048 -0.0
  outer loop
    vertex 85.94107817959024 79.74859654176687 0.0
    vertex 85.65144770304732 81.9485584251383 1.9999999999999998
    vertex 85.65144770304732 81.9485584251383 0.0
  endloop
endfacet
facet normal -0.9238795325112866 -0.3826834323650901 -0.0
  outer loop
    vertex 84.80229411175796 83.99859654176687 1.9999999999999998
    vertex 85.65144770304732 81.9485584251383 0.0
    vertex 85.65144770304732 81.9485584251383 1.9999999999999998
  endloop
endfacet
facet normal -0.9238795325112866 -0.3826834323650901 -0.0
  outer loop
    vertex 85.65144770304732 81.9485584251383 0.0
    vertex 84.80229411175796 83.99859654176687 1.9999999999999998
    vertex 84.80229411175796 83.99859654176687 0.0
  endloop
endfacet
facet normal -0.7933533402912358 -0.6087614290087201 -0.0
  outer loop
    vertex 83.4514858196759 85.75900418185253 1.9999999999999998
    vertex 84.80229411175796 83.99859654176687 0.0
    vertex 84.80229411175796 83.99859654176687 1.9999999999999998
  endloop
endfacet
facet normal -0.7933533402912358 -0.6087614290087201 -0.0
  outer loop
    vertex 84.80229411175796 83.99859654176687 0.0
    vertex 83.4514858196759 85.75900418185253 1.9999999999999998
    vertex 83.4514858196759 85.75900418185253 0.0
  endloop
endfacet
facet normal -0.6087614290087201 -0.7933533402912358 -0.0
  outer loop
    vertex 83.4514858196759 85.75900418185253 1.9999999999999998
    vertex 81.69107817959024 87.1098124739346 0.0
    vertex 83.4514858196759 85.75900418185253 0.0
  endloop
endfacet
facet normal -0.6087614290087201 -0.7933533402912358 -0.0
  outer loop
    vertex 81.69107817959024 87.1098124739346 0.0
    vertex 83.4514858196759 85.75900418185253 1.9999999999999998
    vertex 81.69107817959024 87.1098124739346 1.9999999999999998
  endloop
endfacet
facet normal -0.3826834323650901 -0.9238795325112866 -0.0
  outer loop
    vertex 81.69107817959024 87.1098124739346 1.9999999999999998
    vertex 79.64104006296166 87.95896606522395 0.0
    vertex 81.69107817959024 87.1098124739346 0.0
  endloop
endfacet
facet normal -0.3826834323650901 -0.9238795325112866 -0.0
  outer loop
    vertex 79.64104006296166 87.95896606522395 0.0
    vertex 81.69107817959024 87.1098124739346 1.9999999999999998
    vertex 79.64104006296166 87.95896606522395 1.9999999999999998
  endloop
endfacet
facet normal -0.130526192220048 -0.9914448613738109 -0.0
  outer loop
    vertex 79.64104006296166 87.95896606522395 1.9999999999999998
    vertex 77.44107817959024 88.24859654176686 0.0
    vertex 79.64104006296166 87.95896606522395 0.0
  endloop
endfacet
facet normal -0.130526192220048 -0.9914448613738109 -0.0
  outer loop
    vertex 77.44107817959024 88.24859654176686 0.0
    vertex 79.64104006296166 87.95896606522395 1.9999999999999998
    vertex 77.44107817959024 88.24859654176686 1.9999999999999998
  endloop
endfacet
facet normal 0.130526192220048 -0.9914448613738109 0.0
  outer loop
    vertex 77.44107817959024 88.24859654176686 1.9999999999999998
    vertex 75.2411162962188 87.95896606522395 0.0
    vertex 77.44107817959024 88.24859654176686 0.0
  endloop
endfacet
facet normal 0.130526192220048 -0.9914448613738109 0.0
  outer loop
    vertex 75.2411162962188 87.95896606522395 0.0
    vertex 77.44107817959024 88.24859654176686 1.9999999999999998
    vertex 75.2411162962188 87.95896606522395 1.9999999999999998
  endloop
endfacet
facet normal 0.3826834323650901 -0.9238795325112866 0.0
  outer loop
    vertex 75.2411162962188 87.95896606522395 1.9999999999999998
    vertex 73.19107817959024 87.1098124739346 0.0
    vertex 75.2411162962188 87.95896606522395 0.0
  endloop
endfacet
facet normal 0.3826834323650901 -0.9238795325112866 0.0
  outer loop
    vertex 73.19107817959024 87.1098124739346 0.0
    vertex 75.2411162962188 87.95896606522395 1.9999999999999998
    vertex 73.19107817959024 87.1098124739346 1.9999999999999998
  endloop
endfacet
facet normal 0.6087614290087201 -0.7933533402912358 0.0
  outer loop
    vertex 73.19107817959024 87.1098124739346 1.9999999999999998
    vertex 71.43067053950458 85.75900418185253 0.0
    vertex 73.19107817959024 87.1098124739346 0.0
  endloop
endfacet
facet normal 0.6087614290087201 -0.7933533402912358 0.0
  outer loop
    vertex 71.43067053950458 85.75900418185253 0.0
    vertex 73.19107817959024 87.1098124739346 1.9999999999999998
    vertex 71.43067053950458 85.75900418185253 1.9999999999999998
  endloop
endfacet
facet normal 0.7933533402912358 -0.6087614290087201 0.0
  outer loop
    vertex 71.43067053950458 85.75900418185253 0.0
    vertex 70.07986224742251 83.99859654176687 1.9999999999999998
    vertex 70.07986224742251 83.99859654176687 0.0
  endloop
endfacet
facet normal 0.7933533402912358 -0.6087614290087201 0.0
  outer loop
    vertex 70.07986224742251 83.99859654176687 1.9999999999999998
    vertex 71.43067053950458 85.75900418185253 0.0
    vertex 71.43067053950458 85.75900418185253 1.9999999999999998
  endloop
endfacet
facet normal 0.9238795325112866 -0.3826834323650901 0.0
  outer loop
    vertex 70.07986224742251 83.99859654176687 0.0
    vertex 69.23070865613315 81.9485584251383 1.9999999999999998
    vertex 69.23070865613315 81.9485584251383 0.0
  endloop
endfacet
facet normal 0.9238795325112866 -0.3826834323650901 0.0
  outer loop
    vertex 69.23070865613315 81.9485584251383 1.9999999999999998
    vertex 70.07986224742251 83.99859654176687 0.0
    vertex 70.07986224742251 83.99859654176687 1.9999999999999998
  endloop
endfacet
facet normal 0.9914448613738109 -0.130526192220048 0.0
  outer loop
    vertex 69.23070865613315 81.9485584251383 0.0
    vertex 68.94107817959024 79.74859654176687 1.9999999999999998
    vertex 68.94107817959024 79.74859654176687 0.0
  endloop
endfacet
facet normal 0.9914448613738109 -0.130526192220048 0.0
  outer loop
    vertex 68.94107817959024 79.74859654176687 1.9999999999999998
    vertex 69.23070865613315 81.9485584251383 0.0
    vertex 69.23070865613315 81.9485584251383 1.9999999999999998
  endloop
endfacet
facet normal 0.9914448613738109 0.130526192220048 0.0
  outer loop
    vertex 68.94107817959024 79.74859654176687 0.0
    vertex 69.23070865613315 77.54863465839544 1.9999999999999998
    vertex 69.23070865613315 77.54863465839544 0.0
  endloop
endfacet
facet normal 0.9914448613738109 0.130526192220048 0.0
  outer loop
    vertex 69.23070865613315 77.54863465839544 1.9999999999999998
    vertex 68.94107817959024 79.74859654176687 0.0
    vertex 68.94107817959024 79.74859654176687 1.9999999999999998
  endloop
endfacet
facet normal 0.9238795325112866 0.3826834323650901 0.0
  outer loop
    vertex 69.23070865613315 77.54863465839544 0.0
    vertex 70.07986224742251 75.49859654176686 1.9999999999999998
    vertex 70.07986224742251 75.49859654176686 0.0
  endloop
endfacet
facet normal 0.9238795325112866 0.3826834323650901 0.0
  outer loop
    vertex 70.07986224742251 75.49859654176686 1.9999999999999998
    vertex 69.23070865613315 77.54863465839544 0.0
    vertex 69.23070865613315 77.54863465839544 1.9999999999999998
  endloop
endfacet
facet normal 0.7933533402912338 0.6087614290087225 0.0
  outer loop
    vertex 70.07986224742251 75.49859654176686 0.0
    vertex 71.43067053950458 73.73818890168123 1.9999999999999998
    vertex 71.43067053950458 73.73818890168123 0.0
  endloop
endfacet
facet normal 0.7933533402912338 0.6087614290087225 0.0
  outer loop
    vertex 71.43067053950458 73.73818890168123 1.9999999999999998
    vertex 70.07986224742251 75.49859654176686 0.0
    vertex 70.07986224742251 75.49859654176686 1.9999999999999998
  endloop
endfacet
facet normal 0.6087614290087232 0.7933533402912333 0.0
  outer loop
    vertex 71.43067053950458 73.73818890168123 1.9999999999999998
    vertex 73.19107817959024 72.38738060959913 0.0
    vertex 71.43067053950458 73.73818890168123 0.0
  endloop
endfacet
facet normal 0.6087614290087232 0.7933533402912333 0.0
  outer loop
    vertex 73.19107817959024 72.38738060959913 0.0
    vertex 71.43067053950458 73.73818890168123 1.9999999999999998
    vertex 73.19107817959024 72.38738060959913 1.9999999999999998
  endloop
endfacet
facet normal -0.0 -0.0 1.0
  outer loop
    vertex 42.94107817959024 69.24859654176686 1.9999999999999998
    vertex 44.23070865613315 77.54863465839544 1.9999999999999998
    vertex 43.941078179590235 79.74859654176687 1.9999999999999998
  endloop
endfacet
facet normal -0.0 -0.0 1.0
  outer loop
    vertex 44.23070865613315 77.54863465839544 1.9999999999999998
    vertex 42.94107817959024 69.24859654176686 1.9999999999999998
    vertex 45.079862247422504 75.49859654176686 1.9999999999999998
  endloop
endfacet
facet normal -0.0 -0.0 1.0
  outer loop
    vertex 45.079862247422504 75.49859654176686 1.9999999999999998
    vertex 42.94107817959024 69.24859654176686 1.9999999999999998
    vertex 46.430670539504575 73.73818890168123 1.9999999999999998
  endloop
endfacet
facet normal -0.0 -0.0 1.0
  outer loop
    vertex 46.430670539504575 73.73818890168123 1.9999999999999998
    vertex 42.94107817959024 69.24859654176686 1.9999999999999998
    vertex 48.191078179590235 72.38738060959913 1.9999999999999998
  endloop
endfacet
facet normal -0.0 -0.0 1.0
  outer loop
    vertex 48.191078179590235 72.38738060959913 1.9999999999999998
    vertex 42.94107817959024 69.24859654176686 1.9999999999999998
    vertex 50.241116296218806 71.5382270183098 1.9999999999999998
  endloop
endfacet
facet normal -0.0 -0.0 1.0
  outer loop
    vertex 50.241116296218806 71.5382270183098 1.9999999999999998
    vertex 42.94107817959024 69.24859654176686 1.9999999999999998
    vertex 52.441078179590235 71.24859654176687 1.9999999999999998
  endloop
endfacet
facet normal -0.0 -0.0 1.0
  outer loop
    vertex 52.441078179590235 71.24859654176687 1.9999999999999998
    vertex 42.94107817959024 69.24859654176686 1.9999999999999998
    vertex 86.94107817959024 69.24859654176686 1.9999999999999998
  endloop
endfacet
facet normal -0.0 -0.0 1.0
  outer loop
    vertex 52.441078179590235 71.24859654176687 1.9999999999999998
    vertex 86.94107817959024 69.24859654176686 1.9999999999999998
    vertex 54.641040062961665 71.53822701830978 1.9999999999999998
  endloop
endfacet
facet normal -0.0 -0.0 1.0
  outer loop
    vertex 54.641040062961665 71.53822701830978 1.9999999999999998
    vertex 86.94107817959024 69.24859654176686 1.9999999999999998
    vertex 56.69107817959023 72.38738060959913 1.9999999999999998
  endloop
endfacet
facet normal -0.0 -0.0 1.0
  outer loop
    vertex 56.69107817959023 72.38738060959913 1.9999999999999998
    vertex 86.94107817959024 69.24859654176686 1.9999999999999998
    vertex 58.451485819675895 73.73818890168121 1.9999999999999998
  endloop
endfacet
facet normal -0.0 -0.0 1.0
  outer loop
    vertex 58.451485819675895 73.73818890168121 1.9999999999999998
    vertex 86.94107817959024 69.24859654176686 1.9999999999999998
    vertex 75.2411162962188 71.5382270183098 1.9999999999999998
  endloop
endfacet
facet normal -0.0 -0.0 1.0
  outer loop
    vertex 58.451485819675895 73.73818890168121 1.9999999999999998
    vertex 75.2411162962188 71.5382270183098 1.9999999999999998
    vertex 59.802294111757966 75.49859654176686 1.9999999999999998
  endloop
endfacet
facet normal -0.0 -0.0 1.0
  outer loop
    vertex 59.802294111757966 75.49859654176686 1.9999999999999998
    vertex 75.2411162962188 71.5382270183098 1.9999999999999998
    vertex 60.65144770304731 77.54863465839543 1.9999999999999998
  endloop
endfacet
facet normal -0.0 -0.0 1.0
  outer loop
    vertex 60.65144770304731 77.54863465839543 1.9999999999999998
    vertex 75.2411162962188 71.5382270183098 1.9999999999999998
    vertex 73.19107817959024 72.38738060959913 1.9999999999999998
  endloop
endfacet
facet normal -0.0 -0.0 1.0
  outer loop
    vertex 60.65144770304731 77.54863465839543 1.9999999999999998
    vertex 73.19107817959024 72.38738060959913 1.9999999999999998
    vertex 60.94107817959023 79.74859654176687 1.9999999999999998
  endloop
endfacet
facet normal -0.0 -0.0 1.0
  outer loop
    vertex 60.94107817959023 79.74859654176687 1.9999999999999998
    vertex 73.19107817959024 72.38738060959913 1.9999999999999998
    vertex 71.43067053950458 73.73818890168123 1.9999999999999998
  endloop
endfacet
facet normal -0.0 -0.0 1.0
  outer loop
    vertex 60.94107817959023 79.74859654176687 1.9999999999999998
    vertex 71.43067053950458 73.73818890168123 1.9999999999999998
    vertex 70.07986224742251 75.49859654176686 1.9999999999999998
  endloop
endfacet
facet normal -0.0 -0.0 1.0
  outer loop
    vertex 60.94107817959023 79.74859654176687 1.9999999999999998
    vertex 70.07986224742251 75.49859654176686 1.9999999999999998
    vertex 69.23070865613315 77.54863465839544 1.9999999999999998
  endloop
endfacet
facet normal -0.0 -0.0 1.0
  outer loop
    vertex 60.94107817959023 79.74859654176687 1.9999999999999998
    vertex 69.23070865613315 77.54863465839544 1.9999999999999998
    vertex 68.94107817959024 79.74859654176687 1.9999999999999998
  endloop
endfacet
facet normal -0.0 -0.0 1.0
  outer loop
    vertex 75.2411162962188 71.5382270183098 1.9999999999999998
    vertex 86.94107817959024 69.24859654176686 1.9999999999999998
    vertex 77.44107817959024 71.24859654176687 1.9999999999999998
  endloop
endfacet
facet normal -0.0 -0.0 1.0
  outer loop
    vertex 77.44107817959024 71.24859654176687 1.9999999999999998
    vertex 86.94107817959024 69.24859654176686 1.9999999999999998
    vertex 79.64104006296166 71.53822701830978 1.9999999999999998
  endloop
endfacet
facet normal -0.0 -0.0 1.0
  outer loop
    vertex 79.64104006296166 71.53822701830978 1.9999999999999998
    vertex 86.94107817959024 69.24859654176686 1.9999999999999998
    vertex 81.69107817959022 72.38738060959913 1.9999999999999998
  endloop
endfacet
facet normal -0.0 -0.0 1.0
  outer loop
    vertex 81.69107817959022 72.38738060959913 1.9999999999999998
    vertex 86.94107817959024 69.24859654176686 1.9999999999999998
    vertex 83.4514858196759 73.73818890168121 1.9999999999999998
  endloop
endfacet
facet normal -0.0 -0.0 1.0
  outer loop
    vertex 83.4514858196759 73.73818890168121 1.9999999999999998
    vertex 86.94107817959024 69.24859654176686 1.9999999999999998
    vertex 84.80229411175796 75.49859654176686 1.9999999999999998
  endloop
endfacet
facet normal -0.0 -0.0 1.0
  outer loop
    vertex 84.80229411175796 75.49859654176686 1.9999999999999998
    vertex 86.94107817959024 69.24859654176686 1.9999999999999998
    vertex 85.65144770304731 77.54863465839543 1.9999999999999998
  endloop
endfacet
facet normal -0.0 -0.0 1.0
  outer loop
    vertex 85.65144770304731 77.54863465839543 1.9999999999999998
    vertex 86.94107817959024 69.24859654176686 1.9999999999999998
    vertex 85.94107817959024 79.74859654176687 1.9999999999999998
  endloop
endfacet
facet normal -0.0 -0.0 1.0
  outer loop
    vertex 42.941078179590235 90.24859654176687 1.9999999999999998
    vertex 52.441078179590235 88.24859654176686 1.9999999999999998
    vertex 86.94107817959024 90.24859654176687 1.9999999999999998
  endloop
endfacet
facet normal -0.0 -0.0 1.0
  outer loop
    vertex 52.441078179590235 88.24859654176686 1.9999999999999998
    vertex 42.941078179590235 90.24859654176687 1.9999999999999998
    vertex 50.241116296218806 87.95896606522395 1.9999999999999998
  endloop
endfacet
facet normal -0.0 -0.0 1.0
  outer loop
    vertex 50.241116296218806 87.95896606522395 1.9999999999999998
    vertex 42.941078179590235 90.24859654176687 1.9999999999999998
    vertex 48.191078179590235 87.1098124739346 1.9999999999999998
  endloop
endfacet
facet normal -0.0 -0.0 1.0
  outer loop
    vertex 48.191078179590235 87.1098124739346 1.9999999999999998
    vertex 42.941078179590235 90.24859654176687 1.9999999999999998
    vertex 46.43067053950458 85.75900418185253 1.9999999999999998
  endloop
endfacet
facet normal -0.0 -0.0 1.0
  outer loop
    vertex 46.43067053950458 85.75900418185253 1.9999999999999998
    vertex 42.941078179590235 90.24859654176687 1.9999999999999998
    vertex 45.079862247422504 83.99859654176687 1.9999999999999998
  endloop
endfacet
facet normal -0.0 -0.0 1.0
  outer loop
    vertex 45.079862247422504 83.99859654176687 1.9999999999999998
    vertex 42.941078179590235 90.24859654176687 1.9999999999999998
    vertex 44.23070865613316 81.9485584251383 1.9999999999999998
  endloop
endfacet
facet normal -0.0 -0.0 1.0
  outer loop
    vertex 44.23070865613316 81.9485584251383 1.9999999999999998
    vertex 42.941078179590235 90.24859654176687 1.9999999999999998
    vertex 43.941078179590235 79.74859654176687 1.9999999999999998
  endloop
endfacet
facet normal -0.0 -0.0 1.0
  outer loop
    vertex 43.941078179590235 79.74859654176687 1.9999999999999998
    vertex 42.941078179590235 90.24859654176687 1.9999999999999998
    vertex 42.94107817959024 69.24859654176686 1.9999999999999998
  endloop
endfacet
facet normal -0.0 -0.0 1.0
  outer loop
    vertex 86.94107817959024 90.24859654176687 1.9999999999999998
    vertex 52.441078179590235 88.24859654176686 1.9999999999999998
    vertex 54.641040062961665 87.95896606522395 1.9999999999999998
  endloop
endfacet
facet normal -0.0 -0.0 1.0
  outer loop
    vertex 86.94107817959024 90.24859654176687 1.9999999999999998
    vertex 54.641040062961665 87.95896606522395 1.9999999999999998
    vertex 56.69107817959024 87.1098124739346 1.9999999999999998
  endloop
endfacet
facet normal -0.0 -0.0 1.0
  outer loop
    vertex 86.94107817959024 90.24859654176687 1.9999999999999998
    vertex 56.69107817959024 87.1098124739346 1.9999999999999998
    vertex 58.451485819675895 85.75900418185253 1.9999999999999998
  endloop
endfacet
facet normal -0.0 -0.0 1.0
  outer loop
    vertex 86.94107817959024 90.24859654176687 1.9999999999999998
    vertex 58.451485819675895 85.75900418185253 1.9999999999999998
    vertex 75.2411162962188 87.95896606522395 1.9999999999999998
  endloop
endfacet
facet normal -0.0 -0.0 1.0
  outer loop
    vertex 75.2411162962188 87.95896606522395 1.9999999999999998
    vertex 58.451485819675895 85.75900418185253 1.9999999999999998
    vertex 59.802294111757966 83.99859654176687 1.9999999999999998
  endloop
endfacet
facet normal -0.0 -0.0 1.0
  outer loop
    vertex 75.2411162962188 87.95896606522395 1.9999999999999998
    vertex 59.802294111757966 83.99859654176687 1.9999999999999998
    vertex 60.65144770304732 81.9485584251383 1.9999999999999998
  endloop
endfacet
facet normal -0.0 -0.0 1.0
  outer loop
    vertex 75.2411162962188 87.95896606522395 1.9999999999999998
    vertex 60.65144770304732 81.9485584251383 1.9999999999999998
    vertex 73.19107817959024 87.1098124739346 1.9999999999999998
  endloop
endfacet
facet normal -0.0 -0.0 1.0
  outer loop
    vertex 73.19107817959024 87.1098124739346 1.9999999999999998
    vertex 60.65144770304732 81.9485584251383 1.9999999999999998
    vertex 60.94107817959023 79.74859654176687 1.9999999999999998
  endloop
endfacet
facet normal -0.0 -0.0 1.0
  outer loop
    vertex 73.19107817959024 87.1098124739346 1.9999999999999998
    vertex 60.94107817959023 79.74859654176687 1.9999999999999998
    vertex 71.43067053950458 85.75900418185253 1.9999999999999998
  endloop
endfacet
facet normal -0.0 -0.0 1.0
  outer loop
    vertex 71.43067053950458 85.75900418185253 1.9999999999999998
    vertex 60.94107817959023 79.74859654176687 1.9999999999999998
    vertex 70.07986224742251 83.99859654176687 1.9999999999999998
  endloop
endfacet
facet normal -0.0 -0.0 1.0
  outer loop
    vertex 70.07986224742251 83.99859654176687 1.9999999999999998
    vertex 60.94107817959023 79.74859654176687 1.9999999999999998
    vertex 69.23070865613315 81.9485584251383 1.9999999999999998
  endloop
endfacet
facet normal -0.0 -0.0 1.0
  outer loop
    vertex 69.23070865613315 81.9485584251383 1.9999999999999998
    vertex 60.94107817959023 79.74859654176687 1.9999999999999998
    vertex 68.94107817959024 79.74859654176687 1.9999999999999998
  endloop
endfacet
facet normal -0.0 -0.0 1.0
  outer loop
    vertex 86.94107817959024 90.24859654176687 1.9999999999999998
    vertex 75.2411162962188 87.95896606522395 1.9999999999999998
    vertex 77.44107817959024 88.24859654176686 1.9999999999999998
  endloop
endfacet
facet normal -0.0 -0.0 1.0
  outer loop
    vertex 86.94107817959024 90.24859654176687 1.9999999999999998
    vertex 77.44107817959024 88.24859654176686 1.9999999999999998
    vertex 79.64104006296166 87.95896606522395 1.9999999999999998
  endloop
endfacet
facet normal -0.0 -0.0 1.0
  outer loop
    vertex 86.94107817959024 90.24859654176687 1.9999999999999998
    vertex 79.64104006296166 87.95896606522395 1.9999999999999998
    vertex 81.69107817959024 87.1098124739346 1.9999999999999998
  endloop
endfacet
facet normal -0.0 -0.0 1.0
  outer loop
    vertex 86.94107817959024 90.24859654176687 1.9999999999999998
    vertex 81.69107817959024 87.1098124739346 1.9999999999999998
    vertex 83.4514858196759 85.75900418185253 1.9999999999999998
  endloop
endfacet
facet normal -0.0 -0.0 1.0
  outer loop
    vertex 86.94107817959024 90.24859654176687 1.9999999999999998
    vertex 83.4514858196759 85.75900418185253 1.9999999999999998
    vertex 84.80229411175796 83.99859654176687 1.9999999999999998
  endloop
endfacet
facet normal -0.0 -0.0 1.0
  outer loop
    vertex 86.94107817959024 90.24859654176687 1.9999999999999998
    vertex 84.80229411175796 83.99859654176687 1.9999999999999998
    vertex 85.65144770304732 81.9485584251383 1.9999999999999998
  endloop
endfacet
facet normal -0.0 -0.0 1.0
  outer loop
    vertex 86.94107817959024 90.24859654176687 1.9999999999999998
    vertex 85.65144770304732 81.9485584251383 1.9999999999999998
    vertex 85.94107817959024 79.74859654176687 1.9999999999999998
  endloop
endfacet
facet normal -0.0 -0.0 1.0
  outer loop
    vertex 86.94107817959024 90.24859654176687 1.9999999999999998
    vertex 85.94107817959024 79.74859654176687 1.9999999999999998
    vertex 86.94107817959024 69.24859654176686 1.9999999999999998
  endloop
endfacet
facet normal -0.0 -0.0 1.0
  outer loop
    vertex 42.94107817959024 69.24859654176686 7.0
    vertex 41.941078179590235 90.24859654176687 7.0
    vertex 41.941078179590235 69.24859654176686 7.0
  endloop
endfacet
facet normal -0.0 -0.0 1.0
  outer loop
    vertex 41.941078179590235 90.24859654176687 7.0
    vertex 42.94107817959024 69.24859654176686 7.0
    vertex 42.941078179590235 90.24859654176687 7.0
  endloop
endfacet
facet normal 1.0 2.68568236433133e-16 -0.0
  outer loop
    vertex 42.941078179590235 90.24859654176687 1.9999999999999998
    vertex 42.94107817959024 69.24859654176686 7.0
    vertex 42.94107817959024 69.24859654176686 1.9999999999999998
  endloop
endfacet
facet normal 1.0 2.68568236433133e-16 -0.0
  outer loop
    vertex 42.94107817959024 69.24859654176686 7.0
    vertex 42.941078179590235 90.24859654176687 1.9999999999999998
    vertex 42.941078179590235 90.24859654176687 7.0
  endloop
endfacet
facet normal -0.0 -0.0 1.0
  outer loop
    vertex 87.94107817959024 69.24859654176686 7.0
    vertex 86.94107817959024 90.24859654176687 7.0
    vertex 86.94107817959024 69.24859654176686 7.0
  endloop
endfacet
facet normal -0.0 -0.0 1.0
  outer loop
    vertex 86.94107817959024 90.24859654176687 7.0
    vertex 87.94107817959024 69.24859654176686 7.0
    vertex 87.94107817959024 90.24859654176687 7.0
  endloop
endfacet
facet normal -1.0 0.0 0.0
  outer loop
    vertex 86.94107817959024 90.24859654176687 7.0
    vertex 86.94107817959024 69.24859654176686 1.9999999999999998
    vertex 86.94107817959024 69.24859654176686 7.0
  endloop
endfacet
facet normal -1.0 0.0 0.0
  outer loop
    vertex 86.94107817959024 69.24859654176686 1.9999999999999998
    vertex 86.94107817959024 90.24859654176687 7.0
    vertex 86.94107817959024 90.24859654176687 1.9999999999999998
  endloop
endfacet
facet normal -0.0 -0.0 1.0
  outer loop
    vertex 38.941078179590235 66.24859654176687 10.0
    vertex 41.941078179590235 69.24859654176686 10.0
    vertex 38.941078179590235 93.24859654176687 10.0
  endloop
endfacet
facet normal -0.0 -0.0 1.0
  outer loop
    vertex 41.941078179590235 69.24859654176686 10.0
    vertex 38.941078179590235 66.24859654176687 10.0
    vertex 90.94107817959024 66.24859654176687 10.0
  endloop
endfacet
facet normal -0.0 -0.0 1.0
  outer loop
    vertex 41.941078179590235 69.24859654176686 10.0
    vertex 90.94107817959024 66.24859654176687 10.0
    vertex 87.94107817959024 69.24859654176686 10.0
  endloop
endfacet
facet normal -0.0 -0.0 1.0
  outer loop
    vertex 87.94107817959024 69.24859654176686 10.0
    vertex 90.94107817959024 66.24859654176687 10.0
    vertex 87.94107817959024 90.24859654176687 10.0
  endloop
endfacet
facet normal -0.0 -0.0 1.0
  outer loop
    vertex 87.94107817959024 90.24859654176687 10.0
    vertex 69.94107817959024 93.24859654176687 10.0
    vertex 69.94107817959022 90.24859654176687 10.0
  endloop
endfacet
facet normal -0.0 -0.0 1.0
  outer loop
    vertex 69.94107817959024 93.24859654176687 10.0
    vertex 87.94107817959024 90.24859654176687 10.0
    vertex 90.94107817959024 93.24859654176687 10.0
  endloop
endfacet
facet normal -0.0 -0.0 1.0
  outer loop
    vertex 90.94107817959024 93.24859654176687 10.0
    vertex 87.94107817959024 90.24859654176687 10.0
    vertex 90.94107817959024 66.24859654176687 10.0
  endloop
endfacet
facet normal -0.0 -0.0 1.0
  outer loop
    vertex 38.941078179590235 93.24859654176687 10.0
    vertex 41.941078179590235 90.24859654176687 10.0
    vertex 59.941078179590235 93.24859654176687 10.0
  endloop
endfacet
facet normal -0.0 -0.0 1.0
  outer loop
    vertex 41.941078179590235 90.24859654176687 10.0
    vertex 38.941078179590235 93.24859654176687 10.0
    vertex 41.941078179590235 69.24859654176686 10.0
  endloop
endfacet
facet normal -0.0 -0.0 1.0
  outer loop
    vertex 59.941078179590235 93.24859654176687 10.0
    vertex 41.941078179590235 90.24859654176687 10.0
    vertex 59.941078179590235 90.24859654176687 10.0
  endloop
endfacet
facet normal 1.0 -0.0 0.0
  outer loop
    vertex 41.941078179590235 90.24859654176687 7.0
    vertex 41.941078179590235 69.24859654176686 10.0
    vertex 41.941078179590235 69.24859654176686 7.0
  endloop
endfacet
facet normal 1.0 -0.0 0.0
  outer loop
    vertex 41.941078179590235 69.24859654176686 10.0
    vertex 41.941078179590235 90.24859654176687 7.0
    vertex 41.941078179590235 90.24859654176687 10.0
  endloop
endfacet
facet normal 0.0 -1.0 0.0
  outer loop
    vertex 86.94107817959024 90.24859654176687 7.0
    vertex 42.941078179590235 90.24859654176687 1.9999999999999998
    vertex 86.94107817959024 90.24859654176687 1.9999999999999998
  endloop
endfacet
facet normal 0.0 -1.0 0.0
  outer loop
    vertex 42.941078179590235 90.24859654176687 1.9999999999999998
    vertex 86.94107817959024 90.24859654176687 7.0
    vertex 42.941078179590235 90.24859654176687 7.0
  endloop
endfacet
facet normal 0.0 -1.0 0.0
  outer loop
    vertex 87.94107817959024 90.24859654176687 10.0
    vertex 86.94107817959024 90.24859654176687 7.0
    vertex 87.94107817959024 90.24859654176687 7.0
  endloop
endfacet
facet normal 0.0 -1.0 0.0
  outer loop
    vertex 86.94107817959024 90.24859654176687 7.0
    vertex 87.94107817959024 90.24859654176687 10.0
    vertex 69.94107817959022 90.24859654176687 7.999999999999999
  endloop
endfacet
facet normal 0.0 -1.0 0.0
  outer loop
    vertex 86.94107817959024 90.24859654176687 7.0
    vertex 69.94107817959022 90.24859654176687 7.999999999999999
    vertex 42.941078179590235 90.24859654176687 7.0
  endloop
endfacet
facet normal 0.0 -1.0 0.0
  outer loop
    vertex 42.941078179590235 90.24859654176687 7.0
    vertex 69.94107817959022 90.24859654176687 7.999999999999999
    vertex 41.941078179590235 90.24859654176687 7.0
  endloop
endfacet
facet normal 0.0 -1.0 0.0
  outer loop
    vertex 69.94107817959022 90.24859654176687 7.999999999999999
    vertex 87.94107817959024 90.24859654176687 10.0
    vertex 69.94107817959022 90.24859654176687 10.0
  endloop
endfacet
facet normal 0.0 -1.0 0.0
  outer loop
    vertex 41.941078179590235 90.24859654176687 7.0
    vertex 59.941078179590235 90.24859654176687 7.999999999999999
    vertex 41.941078179590235 90.24859654176687 10.0
  endloop
endfacet
facet normal 0.0 -1.0 0.0
  outer loop
    vertex 59.941078179590235 90.24859654176687 7.999999999999999
    vertex 41.941078179590235 90.24859654176687 7.0
    vertex 69.94107817959022 90.24859654176687 7.999999999999999
  endloop
endfacet
facet normal 0.0 -1.0 0.0
  outer loop
    vertex 41.941078179590235 90.24859654176687 10.0
    vertex 59.941078179590235 90.24859654176687 7.999999999999999
    vertex 59.941078179590235 90.24859654176687 10.0
  endloop
endfacet
facet normal -1.0 -0.0 -0.0
  outer loop
    vertex 87.94107817959024 90.24859654176687 10.0
    vertex 87.94107817959024 69.24859654176686 7.0
    vertex 87.94107817959024 69.24859654176686 10.0
  endloop
endfacet
facet normal -1.0 -0.0 -0.0
  outer loop
    vertex 87.94107817959024 69.24859654176686 7.0
    vertex 87.94107817959024 90.24859654176687 10.0
    vertex 87.94107817959024 90.24859654176687 7.0
  endloop
endfacet
facet normal -0.0 1.0 -0.0
  outer loop
    vertex 41.941078179590235 69.24859654176686 10.0
    vertex 42.94107817959024 69.24859654176686 7.0
    vertex 41.941078179590235 69.24859654176686 7.0
  endloop
endfacet
facet normal -0.0 1.0 -0.0
  outer loop
    vertex 42.94107817959024 69.24859654176686 7.0
    vertex 41.941078179590235 69.24859654176686 10.0
    vertex 86.94107817959024 69.24859654176686 7.0
  endloop
endfacet
facet normal -0.0 1.0 -0.0
  outer loop
    vertex 86.94107817959024 69.24859654176686 7.0
    vertex 41.941078179590235 69.24859654176686 10.0
    vertex 87.94107817959024 69.24859654176686 7.0
  endloop
endfacet
facet normal -0.0 1.0 -0.0
  outer loop
    vertex 87.94107817959024 69.24859654176686 7.0
    vertex 41.941078179590235 69.24859654176686 10.0
    vertex 87.94107817959024 69.24859654176686 10.0
  endloop
endfacet
facet normal -0.0 1.0 -0.0
  outer loop
    vertex 42.94107817959024 69.24859654176686 7.0
    vertex 86.94107817959024 69.24859654176686 1.9999999999999998
    vertex 42.94107817959024 69.24859654176686 1.9999999999999998
  endloop
endfacet
facet normal -0.0 1.0 -0.0
  outer loop
    vertex 86.94107817959024 69.24859654176686 1.9999999999999998
    vertex 42.94107817959024 69.24859654176686 7.0
    vertex 86.94107817959024 69.24859654176686 7.0
  endloop
endfacet
facet normal 0.0 0.0 1.0
  outer loop
    vertex 69.94107817959022 90.24859654176687 7.999999999999999
    vertex 59.941078179590235 93.24859654176687 7.999999999999999
    vertex 59.941078179590235 90.24859654176687 7.999999999999999
  endloop
endfacet
facet normal 0.0 0.0 1.0
  outer loop
    vertex 59.941078179590235 93.24859654176687 7.999999999999999
    vertex 69.94107817959022 90.24859654176687 7.999999999999999
    vertex 69.94107817959024 93.24859654176687 7.999999999999999
  endloop
endfacet
facet normal 1.0 0.0 0.0
  outer loop
    vertex 59.941078179590235 93.24859654176687 7.999999999999999
    vertex 59.941078179590235 90.24859654176687 10.0
    vertex 59.941078179590235 90.24859654176687 7.999999999999999
  endloop
endfacet
facet normal 1.0 0.0 0.0
  outer loop
    vertex 59.941078179590235 90.24859654176687 10.0
    vertex 59.941078179590235 93.24859654176687 7.999999999999999
    vertex 59.941078179590235 93.24859654176687 10.0
  endloop
endfacet
facet normal -1.0 3.759955310063871e-15 -0.0
  outer loop
    vertex 69.94107817959024 93.24859654176687 10.0
    vertex 69.94107817959022 90.24859654176687 7.999999999999999
    vertex 69.94107817959022 90.24859654176687 10.0
  endloop
endfacet
facet normal -1.0 3.759955310063871e-15 -0.0
  outer loop
    vertex 69.94107817959022 90.24859654176687 7.999999999999999
    vertex 69.94107817959024 93.24859654176687 10.0
    vertex 69.94107817959024 93.24859654176687 7.999999999999999
  endloop
endfacet
endsolid US_Board_Mount
